M48
; DRILL file {KiCad (5.1.4)-1} date 10/20/2022 20:43:04
; FORMAT={-:-/ absolute / inch / decimal}
; #@! TF.CreationDate,2022-10-20T20:43:04-05:00
; #@! TF.GenerationSoftware,Kicad,Pcbnew,(5.1.4)-1
; #@! TF.FileFunction,Plated,1,2,PTH
FMAT,2
INCH
T1C0.0157
T2C0.0276
T3C0.0579
%
G90
G05
T1
X4.2188Y-4.125
X4.2812Y-4.125
X4.3206Y-4.125
X4.36Y-4.125
X4.375Y-5.3381
X4.5Y-5.6619
X4.5938Y-5.3381
X4.5938Y-5.4119
X4.7188Y-5.6561
X4.7188Y-5.7188
X4.7188Y-5.7188
X4.7756Y-5.3438
X4.8166Y-5.6243
X4.8201Y-5.6873
X4.8494Y-5.3438
X4.85Y-4.025
X4.85Y-4.775
X4.875Y-6.0
X4.878Y-6.3022
X4.937Y-5.9022
X4.9567Y-6.0915
X4.9688Y-6.0
X5.0433Y-6.0915
X5.0433Y-6.1585
X5.1011Y-5.3438
X5.2812Y-5.6875
X5.2812Y-5.8438
X5.3125Y-4.94
X5.3125Y-5.7188
X5.3438Y-5.2812
X5.3438Y-5.6562
X5.5Y-5.4744
X5.5Y-5.7244
X5.5Y-5.9006
X6.0625Y-4.94
T3
X4.1Y-4.775
X4.1516Y-4.7175
X4.3484Y-4.6978
X4.35Y-4.675
X4.85Y-4.025
X4.9016Y-3.9675
X5.0984Y-3.9478
X5.1Y-3.925
X4.85Y-4.775
X4.9016Y-4.7175
X5.0984Y-4.6978
X5.1Y-4.675
X5.6Y-4.775
X5.6516Y-4.7175
X5.8484Y-4.6978
X5.85Y-4.675
T2
G00X4.1375Y-3.7889
M15
G01X4.1375Y-3.8361
M16
G05
G00X4.1375Y-3.966
M15
G01X4.1375Y-4.0133
M16
G05
G00X4.425Y-3.7889
M15
G01X4.425Y-3.8361
M16
G05
G00X4.425Y-3.966
M15
G01X4.425Y-4.0133
M16
G05
T0
M30
