G04 #@! TF.GenerationSoftware,KiCad,Pcbnew,(5.1.4)-1*
G04 #@! TF.CreationDate,2022-10-20T20:42:53-05:00*
G04 #@! TF.ProjectId,first-3k-keypad,66697273-742d-4336-9b2d-6b6579706164,rev?*
G04 #@! TF.SameCoordinates,Original*
G04 #@! TF.FileFunction,Legend,Top*
G04 #@! TF.FilePolarity,Positive*
%FSLAX46Y46*%
G04 Gerber Fmt 4.6, Leading zero omitted, Abs format (unit mm)*
G04 Created by KiCad (PCBNEW (5.1.4)-1) date 2022-10-20 20:42:53*
%MOMM*%
%LPD*%
G04 APERTURE LIST*
%ADD10C,0.150000*%
%ADD11C,0.120000*%
%ADD12R,1.602000X0.652000*%
%ADD13R,0.652000X1.602000*%
%ADD14R,1.502000X1.302000*%
%ADD15R,0.602000X2.352000*%
%ADD16O,1.802000X2.802000*%
%ADD17R,1.902000X1.202000*%
%ADD18C,0.020000*%
%ADD19C,1.077000*%
%ADD20C,4.089800*%
%ADD21C,1.852000*%
%ADD22C,1.352000*%
%ADD23R,1.302000X1.002000*%
G04 APERTURE END LIST*
D10*
X121825000Y-140081250D02*
X121825000Y-140656250D01*
X132175000Y-140081250D02*
X132175000Y-140756250D01*
X132175000Y-150431250D02*
X132175000Y-149756250D01*
X121825000Y-150431250D02*
X121825000Y-149756250D01*
X121825000Y-140081250D02*
X122500000Y-140081250D01*
X121825000Y-150431250D02*
X122500000Y-150431250D01*
X132175000Y-150431250D02*
X131500000Y-150431250D01*
X132175000Y-140081250D02*
X131500000Y-140081250D01*
X121825000Y-140656250D02*
X120550000Y-140656250D01*
D11*
X125000000Y-153925000D02*
X125000000Y-157225000D01*
X125000000Y-157225000D02*
X129000000Y-157225000D01*
D10*
X112593750Y-102287500D02*
X104893750Y-102287500D01*
X104893750Y-96837500D02*
X104893750Y-102287500D01*
X112593750Y-96837500D02*
X112593750Y-102287500D01*
X128000000Y-161925000D02*
G75*
G03X128000000Y-161925000I-1000000J0D01*
G01*
X124400000Y-164525000D02*
X124400000Y-159325000D01*
X129600000Y-164525000D02*
X124400000Y-164525000D01*
X129600000Y-159325000D02*
X129600000Y-164525000D01*
X124400000Y-159325000D02*
X129600000Y-159325000D01*
D11*
X140410000Y-138371078D02*
X140410000Y-137853922D01*
X138990000Y-138371078D02*
X138990000Y-137853922D01*
X113590000Y-155316422D02*
X113590000Y-155833578D01*
X115010000Y-155316422D02*
X115010000Y-155833578D01*
X115971250Y-136783578D02*
X115971250Y-136266422D01*
X117391250Y-136783578D02*
X117391250Y-136266422D01*
X122496078Y-135021250D02*
X121978922Y-135021250D01*
X122496078Y-136441250D02*
X121978922Y-136441250D01*
X131570814Y-134821250D02*
X130366686Y-134821250D01*
X131570814Y-136641250D02*
X130366686Y-136641250D01*
X152987500Y-126075000D02*
X154987500Y-126075000D01*
X154987500Y-126075000D02*
X154987500Y-122175000D01*
X152987500Y-126075000D02*
X152987500Y-122175000D01*
X133937500Y-126075000D02*
X133937500Y-122175000D01*
X135937500Y-126075000D02*
X135937500Y-122175000D01*
X133937500Y-126075000D02*
X135937500Y-126075000D01*
X114887500Y-126075000D02*
X116887500Y-126075000D01*
X116887500Y-126075000D02*
X116887500Y-122175000D01*
X114887500Y-126075000D02*
X114887500Y-122175000D01*
X133937500Y-107025000D02*
X135937500Y-107025000D01*
X135937500Y-107025000D02*
X135937500Y-103125000D01*
X133937500Y-107025000D02*
X133937500Y-103125000D01*
X115010000Y-143133578D02*
X115010000Y-142616422D01*
X113590000Y-143133578D02*
X113590000Y-142616422D01*
X131846250Y-155316422D02*
X131846250Y-155833578D01*
X133266250Y-155316422D02*
X133266250Y-155833578D01*
X122153750Y-155833578D02*
X122153750Y-155316422D01*
X120733750Y-155833578D02*
X120733750Y-155316422D01*
X138990000Y-144203922D02*
X138990000Y-144721078D01*
X140410000Y-144203922D02*
X140410000Y-144721078D01*
X115010000Y-149483578D02*
X115010000Y-148966422D01*
X113590000Y-149483578D02*
X113590000Y-148966422D01*
X140410000Y-150553922D02*
X140410000Y-151071078D01*
X138990000Y-150553922D02*
X138990000Y-151071078D01*
X110415000Y-136783578D02*
X110415000Y-136266422D01*
X111835000Y-136783578D02*
X111835000Y-136266422D01*
D10*
X126238095Y-137258630D02*
X126238095Y-138068154D01*
X126285714Y-138163392D01*
X126333333Y-138211011D01*
X126428571Y-138258630D01*
X126619047Y-138258630D01*
X126714285Y-138211011D01*
X126761904Y-138163392D01*
X126809523Y-138068154D01*
X126809523Y-137258630D01*
X127809523Y-138258630D02*
X127238095Y-138258630D01*
X127523809Y-138258630D02*
X127523809Y-137258630D01*
X127428571Y-137401488D01*
X127333333Y-137496726D01*
X127238095Y-137544345D01*
X126523809Y-153101190D02*
X126523809Y-153577380D01*
X126190476Y-152577380D02*
X126523809Y-153101190D01*
X126857142Y-152577380D01*
X127714285Y-153577380D02*
X127142857Y-153577380D01*
X127428571Y-153577380D02*
X127428571Y-152577380D01*
X127333333Y-152720238D01*
X127238095Y-152815476D01*
X127142857Y-152863095D01*
X107005654Y-98321880D02*
X107005654Y-99131404D01*
X107053273Y-99226642D01*
X107100892Y-99274261D01*
X107196130Y-99321880D01*
X107386607Y-99321880D01*
X107481845Y-99274261D01*
X107529464Y-99226642D01*
X107577083Y-99131404D01*
X107577083Y-98321880D01*
X108005654Y-99274261D02*
X108148511Y-99321880D01*
X108386607Y-99321880D01*
X108481845Y-99274261D01*
X108529464Y-99226642D01*
X108577083Y-99131404D01*
X108577083Y-99036166D01*
X108529464Y-98940928D01*
X108481845Y-98893309D01*
X108386607Y-98845690D01*
X108196130Y-98798071D01*
X108100892Y-98750452D01*
X108053273Y-98702833D01*
X108005654Y-98607595D01*
X108005654Y-98512357D01*
X108053273Y-98417119D01*
X108100892Y-98369500D01*
X108196130Y-98321880D01*
X108434226Y-98321880D01*
X108577083Y-98369500D01*
X109338988Y-98798071D02*
X109481845Y-98845690D01*
X109529464Y-98893309D01*
X109577083Y-98988547D01*
X109577083Y-99131404D01*
X109529464Y-99226642D01*
X109481845Y-99274261D01*
X109386607Y-99321880D01*
X109005654Y-99321880D01*
X109005654Y-98321880D01*
X109338988Y-98321880D01*
X109434226Y-98369500D01*
X109481845Y-98417119D01*
X109529464Y-98512357D01*
X109529464Y-98607595D01*
X109481845Y-98702833D01*
X109434226Y-98750452D01*
X109338988Y-98798071D01*
X109005654Y-98798071D01*
X110529464Y-99321880D02*
X109958035Y-99321880D01*
X110243750Y-99321880D02*
X110243750Y-98321880D01*
X110148511Y-98464738D01*
X110053273Y-98559976D01*
X109958035Y-98607595D01*
X125666666Y-166393761D02*
X125809523Y-166441380D01*
X126047619Y-166441380D01*
X126142857Y-166393761D01*
X126190476Y-166346142D01*
X126238095Y-166250904D01*
X126238095Y-166155666D01*
X126190476Y-166060428D01*
X126142857Y-166012809D01*
X126047619Y-165965190D01*
X125857142Y-165917571D01*
X125761904Y-165869952D01*
X125714285Y-165822333D01*
X125666666Y-165727095D01*
X125666666Y-165631857D01*
X125714285Y-165536619D01*
X125761904Y-165489000D01*
X125857142Y-165441380D01*
X126095238Y-165441380D01*
X126238095Y-165489000D01*
X126571428Y-165441380D02*
X126809523Y-166441380D01*
X127000000Y-165727095D01*
X127190476Y-166441380D01*
X127428571Y-165441380D01*
X128333333Y-166441380D02*
X127761904Y-166441380D01*
X128047619Y-166441380D02*
X128047619Y-165441380D01*
X127952380Y-165584238D01*
X127857142Y-165679476D01*
X127761904Y-165727095D01*
X138502380Y-138279166D02*
X138026190Y-138612500D01*
X138502380Y-138850595D02*
X137502380Y-138850595D01*
X137502380Y-138469642D01*
X137550000Y-138374404D01*
X137597619Y-138326785D01*
X137692857Y-138279166D01*
X137835714Y-138279166D01*
X137930952Y-138326785D01*
X137978571Y-138374404D01*
X138026190Y-138469642D01*
X138026190Y-138850595D01*
X137835714Y-137422023D02*
X138502380Y-137422023D01*
X137454761Y-137660119D02*
X138169047Y-137898214D01*
X138169047Y-137279166D01*
X116402380Y-155741666D02*
X115926190Y-156075000D01*
X116402380Y-156313095D02*
X115402380Y-156313095D01*
X115402380Y-155932142D01*
X115450000Y-155836904D01*
X115497619Y-155789285D01*
X115592857Y-155741666D01*
X115735714Y-155741666D01*
X115830952Y-155789285D01*
X115878571Y-155836904D01*
X115926190Y-155932142D01*
X115926190Y-156313095D01*
X115402380Y-155408333D02*
X115402380Y-154789285D01*
X115783333Y-155122619D01*
X115783333Y-154979761D01*
X115830952Y-154884523D01*
X115878571Y-154836904D01*
X115973809Y-154789285D01*
X116211904Y-154789285D01*
X116307142Y-154836904D01*
X116354761Y-154884523D01*
X116402380Y-154979761D01*
X116402380Y-155265476D01*
X116354761Y-155360714D01*
X116307142Y-155408333D01*
X115483630Y-136691666D02*
X115007440Y-137025000D01*
X115483630Y-137263095D02*
X114483630Y-137263095D01*
X114483630Y-136882142D01*
X114531250Y-136786904D01*
X114578869Y-136739285D01*
X114674107Y-136691666D01*
X114816964Y-136691666D01*
X114912202Y-136739285D01*
X114959821Y-136786904D01*
X115007440Y-136882142D01*
X115007440Y-137263095D01*
X114578869Y-136310714D02*
X114531250Y-136263095D01*
X114483630Y-136167857D01*
X114483630Y-135929761D01*
X114531250Y-135834523D01*
X114578869Y-135786904D01*
X114674107Y-135739285D01*
X114769345Y-135739285D01*
X114912202Y-135786904D01*
X115483630Y-136358333D01*
X115483630Y-135739285D01*
X122070833Y-137833630D02*
X121737500Y-137357440D01*
X121499404Y-137833630D02*
X121499404Y-136833630D01*
X121880357Y-136833630D01*
X121975595Y-136881250D01*
X122023214Y-136928869D01*
X122070833Y-137024107D01*
X122070833Y-137166964D01*
X122023214Y-137262202D01*
X121975595Y-137309821D01*
X121880357Y-137357440D01*
X121499404Y-137357440D01*
X123023214Y-137833630D02*
X122451785Y-137833630D01*
X122737500Y-137833630D02*
X122737500Y-136833630D01*
X122642261Y-136976488D01*
X122547023Y-137071726D01*
X122451785Y-137119345D01*
X130635416Y-137479821D02*
X130302083Y-137479821D01*
X130302083Y-138003630D02*
X130302083Y-137003630D01*
X130778273Y-137003630D01*
X131683035Y-138003630D02*
X131111607Y-138003630D01*
X131397321Y-138003630D02*
X131397321Y-137003630D01*
X131302083Y-137146488D01*
X131206845Y-137241726D01*
X131111607Y-137289345D01*
X152439880Y-124563095D02*
X151439880Y-124563095D01*
X151439880Y-124325000D01*
X151487500Y-124182142D01*
X151582738Y-124086904D01*
X151677976Y-124039285D01*
X151868452Y-123991666D01*
X152011309Y-123991666D01*
X152201785Y-124039285D01*
X152297023Y-124086904D01*
X152392261Y-124182142D01*
X152439880Y-124325000D01*
X152439880Y-124563095D01*
X151773214Y-123134523D02*
X152439880Y-123134523D01*
X151392261Y-123372619D02*
X152106547Y-123610714D01*
X152106547Y-122991666D01*
X133389880Y-124563095D02*
X132389880Y-124563095D01*
X132389880Y-124325000D01*
X132437500Y-124182142D01*
X132532738Y-124086904D01*
X132627976Y-124039285D01*
X132818452Y-123991666D01*
X132961309Y-123991666D01*
X133151785Y-124039285D01*
X133247023Y-124086904D01*
X133342261Y-124182142D01*
X133389880Y-124325000D01*
X133389880Y-124563095D01*
X132389880Y-123658333D02*
X132389880Y-123039285D01*
X132770833Y-123372619D01*
X132770833Y-123229761D01*
X132818452Y-123134523D01*
X132866071Y-123086904D01*
X132961309Y-123039285D01*
X133199404Y-123039285D01*
X133294642Y-123086904D01*
X133342261Y-123134523D01*
X133389880Y-123229761D01*
X133389880Y-123515476D01*
X133342261Y-123610714D01*
X133294642Y-123658333D01*
X114339880Y-124563095D02*
X113339880Y-124563095D01*
X113339880Y-124325000D01*
X113387500Y-124182142D01*
X113482738Y-124086904D01*
X113577976Y-124039285D01*
X113768452Y-123991666D01*
X113911309Y-123991666D01*
X114101785Y-124039285D01*
X114197023Y-124086904D01*
X114292261Y-124182142D01*
X114339880Y-124325000D01*
X114339880Y-124563095D01*
X113435119Y-123610714D02*
X113387500Y-123563095D01*
X113339880Y-123467857D01*
X113339880Y-123229761D01*
X113387500Y-123134523D01*
X113435119Y-123086904D01*
X113530357Y-123039285D01*
X113625595Y-123039285D01*
X113768452Y-123086904D01*
X114339880Y-123658333D01*
X114339880Y-123039285D01*
X133389880Y-105513095D02*
X132389880Y-105513095D01*
X132389880Y-105275000D01*
X132437500Y-105132142D01*
X132532738Y-105036904D01*
X132627976Y-104989285D01*
X132818452Y-104941666D01*
X132961309Y-104941666D01*
X133151785Y-104989285D01*
X133247023Y-105036904D01*
X133342261Y-105132142D01*
X133389880Y-105275000D01*
X133389880Y-105513095D01*
X133389880Y-103989285D02*
X133389880Y-104560714D01*
X133389880Y-104275000D02*
X132389880Y-104275000D01*
X132532738Y-104370238D01*
X132627976Y-104465476D01*
X132675595Y-104560714D01*
X113007142Y-143041666D02*
X113054761Y-143089285D01*
X113102380Y-143232142D01*
X113102380Y-143327380D01*
X113054761Y-143470238D01*
X112959523Y-143565476D01*
X112864285Y-143613095D01*
X112673809Y-143660714D01*
X112530952Y-143660714D01*
X112340476Y-143613095D01*
X112245238Y-143565476D01*
X112150000Y-143470238D01*
X112102380Y-143327380D01*
X112102380Y-143232142D01*
X112150000Y-143089285D01*
X112197619Y-143041666D01*
X112102380Y-142708333D02*
X112102380Y-142041666D01*
X113102380Y-142470238D01*
X134563392Y-155741666D02*
X134611011Y-155789285D01*
X134658630Y-155932142D01*
X134658630Y-156027380D01*
X134611011Y-156170238D01*
X134515773Y-156265476D01*
X134420535Y-156313095D01*
X134230059Y-156360714D01*
X134087202Y-156360714D01*
X133896726Y-156313095D01*
X133801488Y-156265476D01*
X133706250Y-156170238D01*
X133658630Y-156027380D01*
X133658630Y-155932142D01*
X133706250Y-155789285D01*
X133753869Y-155741666D01*
X133658630Y-154884523D02*
X133658630Y-155075000D01*
X133706250Y-155170238D01*
X133753869Y-155217857D01*
X133896726Y-155313095D01*
X134087202Y-155360714D01*
X134468154Y-155360714D01*
X134563392Y-155313095D01*
X134611011Y-155265476D01*
X134658630Y-155170238D01*
X134658630Y-154979761D01*
X134611011Y-154884523D01*
X134563392Y-154836904D01*
X134468154Y-154789285D01*
X134230059Y-154789285D01*
X134134821Y-154836904D01*
X134087202Y-154884523D01*
X134039583Y-154979761D01*
X134039583Y-155170238D01*
X134087202Y-155265476D01*
X134134821Y-155313095D01*
X134230059Y-155360714D01*
X120150892Y-155741666D02*
X120198511Y-155789285D01*
X120246130Y-155932142D01*
X120246130Y-156027380D01*
X120198511Y-156170238D01*
X120103273Y-156265476D01*
X120008035Y-156313095D01*
X119817559Y-156360714D01*
X119674702Y-156360714D01*
X119484226Y-156313095D01*
X119388988Y-156265476D01*
X119293750Y-156170238D01*
X119246130Y-156027380D01*
X119246130Y-155932142D01*
X119293750Y-155789285D01*
X119341369Y-155741666D01*
X119246130Y-154836904D02*
X119246130Y-155313095D01*
X119722321Y-155360714D01*
X119674702Y-155313095D01*
X119627083Y-155217857D01*
X119627083Y-154979761D01*
X119674702Y-154884523D01*
X119722321Y-154836904D01*
X119817559Y-154789285D01*
X120055654Y-154789285D01*
X120150892Y-154836904D01*
X120198511Y-154884523D01*
X120246130Y-154979761D01*
X120246130Y-155217857D01*
X120198511Y-155313095D01*
X120150892Y-155360714D01*
X141707142Y-144629166D02*
X141754761Y-144676785D01*
X141802380Y-144819642D01*
X141802380Y-144914880D01*
X141754761Y-145057738D01*
X141659523Y-145152976D01*
X141564285Y-145200595D01*
X141373809Y-145248214D01*
X141230952Y-145248214D01*
X141040476Y-145200595D01*
X140945238Y-145152976D01*
X140850000Y-145057738D01*
X140802380Y-144914880D01*
X140802380Y-144819642D01*
X140850000Y-144676785D01*
X140897619Y-144629166D01*
X141135714Y-143772023D02*
X141802380Y-143772023D01*
X140754761Y-144010119D02*
X141469047Y-144248214D01*
X141469047Y-143629166D01*
X113007142Y-149391666D02*
X113054761Y-149439285D01*
X113102380Y-149582142D01*
X113102380Y-149677380D01*
X113054761Y-149820238D01*
X112959523Y-149915476D01*
X112864285Y-149963095D01*
X112673809Y-150010714D01*
X112530952Y-150010714D01*
X112340476Y-149963095D01*
X112245238Y-149915476D01*
X112150000Y-149820238D01*
X112102380Y-149677380D01*
X112102380Y-149582142D01*
X112150000Y-149439285D01*
X112197619Y-149391666D01*
X112102380Y-149058333D02*
X112102380Y-148439285D01*
X112483333Y-148772619D01*
X112483333Y-148629761D01*
X112530952Y-148534523D01*
X112578571Y-148486904D01*
X112673809Y-148439285D01*
X112911904Y-148439285D01*
X113007142Y-148486904D01*
X113054761Y-148534523D01*
X113102380Y-148629761D01*
X113102380Y-148915476D01*
X113054761Y-149010714D01*
X113007142Y-149058333D01*
X141707142Y-150979166D02*
X141754761Y-151026785D01*
X141802380Y-151169642D01*
X141802380Y-151264880D01*
X141754761Y-151407738D01*
X141659523Y-151502976D01*
X141564285Y-151550595D01*
X141373809Y-151598214D01*
X141230952Y-151598214D01*
X141040476Y-151550595D01*
X140945238Y-151502976D01*
X140850000Y-151407738D01*
X140802380Y-151264880D01*
X140802380Y-151169642D01*
X140850000Y-151026785D01*
X140897619Y-150979166D01*
X140897619Y-150598214D02*
X140850000Y-150550595D01*
X140802380Y-150455357D01*
X140802380Y-150217261D01*
X140850000Y-150122023D01*
X140897619Y-150074404D01*
X140992857Y-150026785D01*
X141088095Y-150026785D01*
X141230952Y-150074404D01*
X141802380Y-150645833D01*
X141802380Y-150026785D01*
X109832142Y-136691666D02*
X109879761Y-136739285D01*
X109927380Y-136882142D01*
X109927380Y-136977380D01*
X109879761Y-137120238D01*
X109784523Y-137215476D01*
X109689285Y-137263095D01*
X109498809Y-137310714D01*
X109355952Y-137310714D01*
X109165476Y-137263095D01*
X109070238Y-137215476D01*
X108975000Y-137120238D01*
X108927380Y-136977380D01*
X108927380Y-136882142D01*
X108975000Y-136739285D01*
X109022619Y-136691666D01*
X109927380Y-135739285D02*
X109927380Y-136310714D01*
X109927380Y-136025000D02*
X108927380Y-136025000D01*
X109070238Y-136120238D01*
X109165476Y-136215476D01*
X109213095Y-136310714D01*
%LPC*%
D12*
X121300000Y-141256250D03*
X121300000Y-142056250D03*
X121300000Y-142856250D03*
X121300000Y-143656250D03*
X121300000Y-144456250D03*
X121300000Y-145256250D03*
X121300000Y-146056250D03*
X121300000Y-146856250D03*
X121300000Y-147656250D03*
X121300000Y-148456250D03*
X121300000Y-149256250D03*
D13*
X123000000Y-150956250D03*
X123800000Y-150956250D03*
X124600000Y-150956250D03*
X125400000Y-150956250D03*
X126200000Y-150956250D03*
X127000000Y-150956250D03*
X127800000Y-150956250D03*
X128600000Y-150956250D03*
X129400000Y-150956250D03*
X130200000Y-150956250D03*
X131000000Y-150956250D03*
D12*
X132700000Y-149256250D03*
X132700000Y-148456250D03*
X132700000Y-147656250D03*
X132700000Y-146856250D03*
X132700000Y-146056250D03*
X132700000Y-145256250D03*
X132700000Y-144456250D03*
X132700000Y-143656250D03*
X132700000Y-142856250D03*
X132700000Y-142056250D03*
X132700000Y-141256250D03*
D13*
X131000000Y-139556250D03*
X130200000Y-139556250D03*
X129400000Y-139556250D03*
X128600000Y-139556250D03*
X127800000Y-139556250D03*
X127000000Y-139556250D03*
X126200000Y-139556250D03*
X125400000Y-139556250D03*
X124600000Y-139556250D03*
X123800000Y-139556250D03*
X123000000Y-139556250D03*
D14*
X125900000Y-156425000D03*
X128100000Y-156425000D03*
X128100000Y-154725000D03*
X125900000Y-154725000D03*
D15*
X107143750Y-101337500D03*
X107943750Y-101337500D03*
X108743750Y-101337500D03*
X109543750Y-101337500D03*
X110343750Y-101337500D03*
D16*
X112393750Y-101337500D03*
X105093750Y-101337500D03*
X105093750Y-96837500D03*
X112393750Y-96837500D03*
D17*
X130100000Y-163775000D03*
X123900000Y-160075000D03*
X130100000Y-160075000D03*
X123900000Y-163775000D03*
D18*
G36*
X140208141Y-136637797D02*
G01*
X140234278Y-136641674D01*
X140259909Y-136648094D01*
X140284788Y-136656995D01*
X140308674Y-136668293D01*
X140331337Y-136681877D01*
X140352560Y-136697617D01*
X140372139Y-136715361D01*
X140389883Y-136734940D01*
X140405623Y-136756163D01*
X140419207Y-136778826D01*
X140430505Y-136802712D01*
X140439406Y-136827591D01*
X140445826Y-136853222D01*
X140449703Y-136879359D01*
X140451000Y-136905750D01*
X140451000Y-137444250D01*
X140449703Y-137470641D01*
X140445826Y-137496778D01*
X140439406Y-137522409D01*
X140430505Y-137547288D01*
X140419207Y-137571174D01*
X140405623Y-137593837D01*
X140389883Y-137615060D01*
X140372139Y-137634639D01*
X140352560Y-137652383D01*
X140331337Y-137668123D01*
X140308674Y-137681707D01*
X140284788Y-137693005D01*
X140259909Y-137701906D01*
X140234278Y-137708326D01*
X140208141Y-137712203D01*
X140181750Y-137713500D01*
X139218250Y-137713500D01*
X139191859Y-137712203D01*
X139165722Y-137708326D01*
X139140091Y-137701906D01*
X139115212Y-137693005D01*
X139091326Y-137681707D01*
X139068663Y-137668123D01*
X139047440Y-137652383D01*
X139027861Y-137634639D01*
X139010117Y-137615060D01*
X138994377Y-137593837D01*
X138980793Y-137571174D01*
X138969495Y-137547288D01*
X138960594Y-137522409D01*
X138954174Y-137496778D01*
X138950297Y-137470641D01*
X138949000Y-137444250D01*
X138949000Y-136905750D01*
X138950297Y-136879359D01*
X138954174Y-136853222D01*
X138960594Y-136827591D01*
X138969495Y-136802712D01*
X138980793Y-136778826D01*
X138994377Y-136756163D01*
X139010117Y-136734940D01*
X139027861Y-136715361D01*
X139047440Y-136697617D01*
X139068663Y-136681877D01*
X139091326Y-136668293D01*
X139115212Y-136656995D01*
X139140091Y-136648094D01*
X139165722Y-136641674D01*
X139191859Y-136637797D01*
X139218250Y-136636500D01*
X140181750Y-136636500D01*
X140208141Y-136637797D01*
X140208141Y-136637797D01*
G37*
D19*
X139700000Y-137175000D03*
D18*
G36*
X140208141Y-138512797D02*
G01*
X140234278Y-138516674D01*
X140259909Y-138523094D01*
X140284788Y-138531995D01*
X140308674Y-138543293D01*
X140331337Y-138556877D01*
X140352560Y-138572617D01*
X140372139Y-138590361D01*
X140389883Y-138609940D01*
X140405623Y-138631163D01*
X140419207Y-138653826D01*
X140430505Y-138677712D01*
X140439406Y-138702591D01*
X140445826Y-138728222D01*
X140449703Y-138754359D01*
X140451000Y-138780750D01*
X140451000Y-139319250D01*
X140449703Y-139345641D01*
X140445826Y-139371778D01*
X140439406Y-139397409D01*
X140430505Y-139422288D01*
X140419207Y-139446174D01*
X140405623Y-139468837D01*
X140389883Y-139490060D01*
X140372139Y-139509639D01*
X140352560Y-139527383D01*
X140331337Y-139543123D01*
X140308674Y-139556707D01*
X140284788Y-139568005D01*
X140259909Y-139576906D01*
X140234278Y-139583326D01*
X140208141Y-139587203D01*
X140181750Y-139588500D01*
X139218250Y-139588500D01*
X139191859Y-139587203D01*
X139165722Y-139583326D01*
X139140091Y-139576906D01*
X139115212Y-139568005D01*
X139091326Y-139556707D01*
X139068663Y-139543123D01*
X139047440Y-139527383D01*
X139027861Y-139509639D01*
X139010117Y-139490060D01*
X138994377Y-139468837D01*
X138980793Y-139446174D01*
X138969495Y-139422288D01*
X138960594Y-139397409D01*
X138954174Y-139371778D01*
X138950297Y-139345641D01*
X138949000Y-139319250D01*
X138949000Y-138780750D01*
X138950297Y-138754359D01*
X138954174Y-138728222D01*
X138960594Y-138702591D01*
X138969495Y-138677712D01*
X138980793Y-138653826D01*
X138994377Y-138631163D01*
X139010117Y-138609940D01*
X139027861Y-138590361D01*
X139047440Y-138572617D01*
X139068663Y-138556877D01*
X139091326Y-138543293D01*
X139115212Y-138531995D01*
X139140091Y-138523094D01*
X139165722Y-138516674D01*
X139191859Y-138512797D01*
X139218250Y-138511500D01*
X140181750Y-138511500D01*
X140208141Y-138512797D01*
X140208141Y-138512797D01*
G37*
D19*
X139700000Y-139050000D03*
D18*
G36*
X114808141Y-155975297D02*
G01*
X114834278Y-155979174D01*
X114859909Y-155985594D01*
X114884788Y-155994495D01*
X114908674Y-156005793D01*
X114931337Y-156019377D01*
X114952560Y-156035117D01*
X114972139Y-156052861D01*
X114989883Y-156072440D01*
X115005623Y-156093663D01*
X115019207Y-156116326D01*
X115030505Y-156140212D01*
X115039406Y-156165091D01*
X115045826Y-156190722D01*
X115049703Y-156216859D01*
X115051000Y-156243250D01*
X115051000Y-156781750D01*
X115049703Y-156808141D01*
X115045826Y-156834278D01*
X115039406Y-156859909D01*
X115030505Y-156884788D01*
X115019207Y-156908674D01*
X115005623Y-156931337D01*
X114989883Y-156952560D01*
X114972139Y-156972139D01*
X114952560Y-156989883D01*
X114931337Y-157005623D01*
X114908674Y-157019207D01*
X114884788Y-157030505D01*
X114859909Y-157039406D01*
X114834278Y-157045826D01*
X114808141Y-157049703D01*
X114781750Y-157051000D01*
X113818250Y-157051000D01*
X113791859Y-157049703D01*
X113765722Y-157045826D01*
X113740091Y-157039406D01*
X113715212Y-157030505D01*
X113691326Y-157019207D01*
X113668663Y-157005623D01*
X113647440Y-156989883D01*
X113627861Y-156972139D01*
X113610117Y-156952560D01*
X113594377Y-156931337D01*
X113580793Y-156908674D01*
X113569495Y-156884788D01*
X113560594Y-156859909D01*
X113554174Y-156834278D01*
X113550297Y-156808141D01*
X113549000Y-156781750D01*
X113549000Y-156243250D01*
X113550297Y-156216859D01*
X113554174Y-156190722D01*
X113560594Y-156165091D01*
X113569495Y-156140212D01*
X113580793Y-156116326D01*
X113594377Y-156093663D01*
X113610117Y-156072440D01*
X113627861Y-156052861D01*
X113647440Y-156035117D01*
X113668663Y-156019377D01*
X113691326Y-156005793D01*
X113715212Y-155994495D01*
X113740091Y-155985594D01*
X113765722Y-155979174D01*
X113791859Y-155975297D01*
X113818250Y-155974000D01*
X114781750Y-155974000D01*
X114808141Y-155975297D01*
X114808141Y-155975297D01*
G37*
D19*
X114300000Y-156512500D03*
D18*
G36*
X114808141Y-154100297D02*
G01*
X114834278Y-154104174D01*
X114859909Y-154110594D01*
X114884788Y-154119495D01*
X114908674Y-154130793D01*
X114931337Y-154144377D01*
X114952560Y-154160117D01*
X114972139Y-154177861D01*
X114989883Y-154197440D01*
X115005623Y-154218663D01*
X115019207Y-154241326D01*
X115030505Y-154265212D01*
X115039406Y-154290091D01*
X115045826Y-154315722D01*
X115049703Y-154341859D01*
X115051000Y-154368250D01*
X115051000Y-154906750D01*
X115049703Y-154933141D01*
X115045826Y-154959278D01*
X115039406Y-154984909D01*
X115030505Y-155009788D01*
X115019207Y-155033674D01*
X115005623Y-155056337D01*
X114989883Y-155077560D01*
X114972139Y-155097139D01*
X114952560Y-155114883D01*
X114931337Y-155130623D01*
X114908674Y-155144207D01*
X114884788Y-155155505D01*
X114859909Y-155164406D01*
X114834278Y-155170826D01*
X114808141Y-155174703D01*
X114781750Y-155176000D01*
X113818250Y-155176000D01*
X113791859Y-155174703D01*
X113765722Y-155170826D01*
X113740091Y-155164406D01*
X113715212Y-155155505D01*
X113691326Y-155144207D01*
X113668663Y-155130623D01*
X113647440Y-155114883D01*
X113627861Y-155097139D01*
X113610117Y-155077560D01*
X113594377Y-155056337D01*
X113580793Y-155033674D01*
X113569495Y-155009788D01*
X113560594Y-154984909D01*
X113554174Y-154959278D01*
X113550297Y-154933141D01*
X113549000Y-154906750D01*
X113549000Y-154368250D01*
X113550297Y-154341859D01*
X113554174Y-154315722D01*
X113560594Y-154290091D01*
X113569495Y-154265212D01*
X113580793Y-154241326D01*
X113594377Y-154218663D01*
X113610117Y-154197440D01*
X113627861Y-154177861D01*
X113647440Y-154160117D01*
X113668663Y-154144377D01*
X113691326Y-154130793D01*
X113715212Y-154119495D01*
X113740091Y-154110594D01*
X113765722Y-154104174D01*
X113791859Y-154100297D01*
X113818250Y-154099000D01*
X114781750Y-154099000D01*
X114808141Y-154100297D01*
X114808141Y-154100297D01*
G37*
D19*
X114300000Y-154637500D03*
D18*
G36*
X117189391Y-136925297D02*
G01*
X117215528Y-136929174D01*
X117241159Y-136935594D01*
X117266038Y-136944495D01*
X117289924Y-136955793D01*
X117312587Y-136969377D01*
X117333810Y-136985117D01*
X117353389Y-137002861D01*
X117371133Y-137022440D01*
X117386873Y-137043663D01*
X117400457Y-137066326D01*
X117411755Y-137090212D01*
X117420656Y-137115091D01*
X117427076Y-137140722D01*
X117430953Y-137166859D01*
X117432250Y-137193250D01*
X117432250Y-137731750D01*
X117430953Y-137758141D01*
X117427076Y-137784278D01*
X117420656Y-137809909D01*
X117411755Y-137834788D01*
X117400457Y-137858674D01*
X117386873Y-137881337D01*
X117371133Y-137902560D01*
X117353389Y-137922139D01*
X117333810Y-137939883D01*
X117312587Y-137955623D01*
X117289924Y-137969207D01*
X117266038Y-137980505D01*
X117241159Y-137989406D01*
X117215528Y-137995826D01*
X117189391Y-137999703D01*
X117163000Y-138001000D01*
X116199500Y-138001000D01*
X116173109Y-137999703D01*
X116146972Y-137995826D01*
X116121341Y-137989406D01*
X116096462Y-137980505D01*
X116072576Y-137969207D01*
X116049913Y-137955623D01*
X116028690Y-137939883D01*
X116009111Y-137922139D01*
X115991367Y-137902560D01*
X115975627Y-137881337D01*
X115962043Y-137858674D01*
X115950745Y-137834788D01*
X115941844Y-137809909D01*
X115935424Y-137784278D01*
X115931547Y-137758141D01*
X115930250Y-137731750D01*
X115930250Y-137193250D01*
X115931547Y-137166859D01*
X115935424Y-137140722D01*
X115941844Y-137115091D01*
X115950745Y-137090212D01*
X115962043Y-137066326D01*
X115975627Y-137043663D01*
X115991367Y-137022440D01*
X116009111Y-137002861D01*
X116028690Y-136985117D01*
X116049913Y-136969377D01*
X116072576Y-136955793D01*
X116096462Y-136944495D01*
X116121341Y-136935594D01*
X116146972Y-136929174D01*
X116173109Y-136925297D01*
X116199500Y-136924000D01*
X117163000Y-136924000D01*
X117189391Y-136925297D01*
X117189391Y-136925297D01*
G37*
D19*
X116681250Y-137462500D03*
D18*
G36*
X117189391Y-135050297D02*
G01*
X117215528Y-135054174D01*
X117241159Y-135060594D01*
X117266038Y-135069495D01*
X117289924Y-135080793D01*
X117312587Y-135094377D01*
X117333810Y-135110117D01*
X117353389Y-135127861D01*
X117371133Y-135147440D01*
X117386873Y-135168663D01*
X117400457Y-135191326D01*
X117411755Y-135215212D01*
X117420656Y-135240091D01*
X117427076Y-135265722D01*
X117430953Y-135291859D01*
X117432250Y-135318250D01*
X117432250Y-135856750D01*
X117430953Y-135883141D01*
X117427076Y-135909278D01*
X117420656Y-135934909D01*
X117411755Y-135959788D01*
X117400457Y-135983674D01*
X117386873Y-136006337D01*
X117371133Y-136027560D01*
X117353389Y-136047139D01*
X117333810Y-136064883D01*
X117312587Y-136080623D01*
X117289924Y-136094207D01*
X117266038Y-136105505D01*
X117241159Y-136114406D01*
X117215528Y-136120826D01*
X117189391Y-136124703D01*
X117163000Y-136126000D01*
X116199500Y-136126000D01*
X116173109Y-136124703D01*
X116146972Y-136120826D01*
X116121341Y-136114406D01*
X116096462Y-136105505D01*
X116072576Y-136094207D01*
X116049913Y-136080623D01*
X116028690Y-136064883D01*
X116009111Y-136047139D01*
X115991367Y-136027560D01*
X115975627Y-136006337D01*
X115962043Y-135983674D01*
X115950745Y-135959788D01*
X115941844Y-135934909D01*
X115935424Y-135909278D01*
X115931547Y-135883141D01*
X115930250Y-135856750D01*
X115930250Y-135318250D01*
X115931547Y-135291859D01*
X115935424Y-135265722D01*
X115941844Y-135240091D01*
X115950745Y-135215212D01*
X115962043Y-135191326D01*
X115975627Y-135168663D01*
X115991367Y-135147440D01*
X116009111Y-135127861D01*
X116028690Y-135110117D01*
X116049913Y-135094377D01*
X116072576Y-135080793D01*
X116096462Y-135069495D01*
X116121341Y-135060594D01*
X116146972Y-135054174D01*
X116173109Y-135050297D01*
X116199500Y-135049000D01*
X117163000Y-135049000D01*
X117189391Y-135050297D01*
X117189391Y-135050297D01*
G37*
D19*
X116681250Y-135587500D03*
D18*
G36*
X121595641Y-134981547D02*
G01*
X121621778Y-134985424D01*
X121647409Y-134991844D01*
X121672288Y-135000745D01*
X121696174Y-135012043D01*
X121718837Y-135025627D01*
X121740060Y-135041367D01*
X121759639Y-135059111D01*
X121777383Y-135078690D01*
X121793123Y-135099913D01*
X121806707Y-135122576D01*
X121818005Y-135146462D01*
X121826906Y-135171341D01*
X121833326Y-135196972D01*
X121837203Y-135223109D01*
X121838500Y-135249500D01*
X121838500Y-136213000D01*
X121837203Y-136239391D01*
X121833326Y-136265528D01*
X121826906Y-136291159D01*
X121818005Y-136316038D01*
X121806707Y-136339924D01*
X121793123Y-136362587D01*
X121777383Y-136383810D01*
X121759639Y-136403389D01*
X121740060Y-136421133D01*
X121718837Y-136436873D01*
X121696174Y-136450457D01*
X121672288Y-136461755D01*
X121647409Y-136470656D01*
X121621778Y-136477076D01*
X121595641Y-136480953D01*
X121569250Y-136482250D01*
X121030750Y-136482250D01*
X121004359Y-136480953D01*
X120978222Y-136477076D01*
X120952591Y-136470656D01*
X120927712Y-136461755D01*
X120903826Y-136450457D01*
X120881163Y-136436873D01*
X120859940Y-136421133D01*
X120840361Y-136403389D01*
X120822617Y-136383810D01*
X120806877Y-136362587D01*
X120793293Y-136339924D01*
X120781995Y-136316038D01*
X120773094Y-136291159D01*
X120766674Y-136265528D01*
X120762797Y-136239391D01*
X120761500Y-136213000D01*
X120761500Y-135249500D01*
X120762797Y-135223109D01*
X120766674Y-135196972D01*
X120773094Y-135171341D01*
X120781995Y-135146462D01*
X120793293Y-135122576D01*
X120806877Y-135099913D01*
X120822617Y-135078690D01*
X120840361Y-135059111D01*
X120859940Y-135041367D01*
X120881163Y-135025627D01*
X120903826Y-135012043D01*
X120927712Y-135000745D01*
X120952591Y-134991844D01*
X120978222Y-134985424D01*
X121004359Y-134981547D01*
X121030750Y-134980250D01*
X121569250Y-134980250D01*
X121595641Y-134981547D01*
X121595641Y-134981547D01*
G37*
D19*
X121300000Y-135731250D03*
D18*
G36*
X123470641Y-134981547D02*
G01*
X123496778Y-134985424D01*
X123522409Y-134991844D01*
X123547288Y-135000745D01*
X123571174Y-135012043D01*
X123593837Y-135025627D01*
X123615060Y-135041367D01*
X123634639Y-135059111D01*
X123652383Y-135078690D01*
X123668123Y-135099913D01*
X123681707Y-135122576D01*
X123693005Y-135146462D01*
X123701906Y-135171341D01*
X123708326Y-135196972D01*
X123712203Y-135223109D01*
X123713500Y-135249500D01*
X123713500Y-136213000D01*
X123712203Y-136239391D01*
X123708326Y-136265528D01*
X123701906Y-136291159D01*
X123693005Y-136316038D01*
X123681707Y-136339924D01*
X123668123Y-136362587D01*
X123652383Y-136383810D01*
X123634639Y-136403389D01*
X123615060Y-136421133D01*
X123593837Y-136436873D01*
X123571174Y-136450457D01*
X123547288Y-136461755D01*
X123522409Y-136470656D01*
X123496778Y-136477076D01*
X123470641Y-136480953D01*
X123444250Y-136482250D01*
X122905750Y-136482250D01*
X122879359Y-136480953D01*
X122853222Y-136477076D01*
X122827591Y-136470656D01*
X122802712Y-136461755D01*
X122778826Y-136450457D01*
X122756163Y-136436873D01*
X122734940Y-136421133D01*
X122715361Y-136403389D01*
X122697617Y-136383810D01*
X122681877Y-136362587D01*
X122668293Y-136339924D01*
X122656995Y-136316038D01*
X122648094Y-136291159D01*
X122641674Y-136265528D01*
X122637797Y-136239391D01*
X122636500Y-136213000D01*
X122636500Y-135249500D01*
X122637797Y-135223109D01*
X122641674Y-135196972D01*
X122648094Y-135171341D01*
X122656995Y-135146462D01*
X122668293Y-135122576D01*
X122681877Y-135099913D01*
X122697617Y-135078690D01*
X122715361Y-135059111D01*
X122734940Y-135041367D01*
X122756163Y-135025627D01*
X122778826Y-135012043D01*
X122802712Y-135000745D01*
X122827591Y-134991844D01*
X122853222Y-134985424D01*
X122879359Y-134981547D01*
X122905750Y-134980250D01*
X123444250Y-134980250D01*
X123470641Y-134981547D01*
X123470641Y-134981547D01*
G37*
D19*
X123175000Y-135731250D03*
D20*
X146050000Y-123825000D03*
D21*
X140970000Y-123825000D03*
X151130000Y-123825000D03*
D20*
X127000000Y-123825000D03*
D21*
X121920000Y-123825000D03*
X132080000Y-123825000D03*
D20*
X107950000Y-123825000D03*
D21*
X102870000Y-123825000D03*
X113030000Y-123825000D03*
D20*
X127000000Y-104775000D03*
D21*
X121920000Y-104775000D03*
X132080000Y-104775000D03*
D18*
G36*
X130000854Y-134806552D02*
G01*
X130027102Y-134810446D01*
X130052843Y-134816893D01*
X130077828Y-134825833D01*
X130101816Y-134837178D01*
X130124576Y-134850821D01*
X130145890Y-134866628D01*
X130165552Y-134884448D01*
X130183372Y-134904110D01*
X130199179Y-134925424D01*
X130212822Y-134948184D01*
X130224167Y-134972172D01*
X130233107Y-134997157D01*
X130239554Y-135022898D01*
X130243448Y-135049146D01*
X130244750Y-135075650D01*
X130244750Y-136386850D01*
X130243448Y-136413354D01*
X130239554Y-136439602D01*
X130233107Y-136465343D01*
X130224167Y-136490328D01*
X130212822Y-136514316D01*
X130199179Y-136537076D01*
X130183372Y-136558390D01*
X130165552Y-136578052D01*
X130145890Y-136595872D01*
X130124576Y-136611679D01*
X130101816Y-136625322D01*
X130077828Y-136636667D01*
X130052843Y-136645607D01*
X130027102Y-136652054D01*
X130000854Y-136655948D01*
X129974350Y-136657250D01*
X129163150Y-136657250D01*
X129136646Y-136655948D01*
X129110398Y-136652054D01*
X129084657Y-136645607D01*
X129059672Y-136636667D01*
X129035684Y-136625322D01*
X129012924Y-136611679D01*
X128991610Y-136595872D01*
X128971948Y-136578052D01*
X128954128Y-136558390D01*
X128938321Y-136537076D01*
X128924678Y-136514316D01*
X128913333Y-136490328D01*
X128904393Y-136465343D01*
X128897946Y-136439602D01*
X128894052Y-136413354D01*
X128892750Y-136386850D01*
X128892750Y-135075650D01*
X128894052Y-135049146D01*
X128897946Y-135022898D01*
X128904393Y-134997157D01*
X128913333Y-134972172D01*
X128924678Y-134948184D01*
X128938321Y-134925424D01*
X128954128Y-134904110D01*
X128971948Y-134884448D01*
X128991610Y-134866628D01*
X129012924Y-134850821D01*
X129035684Y-134837178D01*
X129059672Y-134825833D01*
X129084657Y-134816893D01*
X129110398Y-134810446D01*
X129136646Y-134806552D01*
X129163150Y-134805250D01*
X129974350Y-134805250D01*
X130000854Y-134806552D01*
X130000854Y-134806552D01*
G37*
D22*
X129568750Y-135731250D03*
D18*
G36*
X132800854Y-134806552D02*
G01*
X132827102Y-134810446D01*
X132852843Y-134816893D01*
X132877828Y-134825833D01*
X132901816Y-134837178D01*
X132924576Y-134850821D01*
X132945890Y-134866628D01*
X132965552Y-134884448D01*
X132983372Y-134904110D01*
X132999179Y-134925424D01*
X133012822Y-134948184D01*
X133024167Y-134972172D01*
X133033107Y-134997157D01*
X133039554Y-135022898D01*
X133043448Y-135049146D01*
X133044750Y-135075650D01*
X133044750Y-136386850D01*
X133043448Y-136413354D01*
X133039554Y-136439602D01*
X133033107Y-136465343D01*
X133024167Y-136490328D01*
X133012822Y-136514316D01*
X132999179Y-136537076D01*
X132983372Y-136558390D01*
X132965552Y-136578052D01*
X132945890Y-136595872D01*
X132924576Y-136611679D01*
X132901816Y-136625322D01*
X132877828Y-136636667D01*
X132852843Y-136645607D01*
X132827102Y-136652054D01*
X132800854Y-136655948D01*
X132774350Y-136657250D01*
X131963150Y-136657250D01*
X131936646Y-136655948D01*
X131910398Y-136652054D01*
X131884657Y-136645607D01*
X131859672Y-136636667D01*
X131835684Y-136625322D01*
X131812924Y-136611679D01*
X131791610Y-136595872D01*
X131771948Y-136578052D01*
X131754128Y-136558390D01*
X131738321Y-136537076D01*
X131724678Y-136514316D01*
X131713333Y-136490328D01*
X131704393Y-136465343D01*
X131697946Y-136439602D01*
X131694052Y-136413354D01*
X131692750Y-136386850D01*
X131692750Y-135075650D01*
X131694052Y-135049146D01*
X131697946Y-135022898D01*
X131704393Y-134997157D01*
X131713333Y-134972172D01*
X131724678Y-134948184D01*
X131738321Y-134925424D01*
X131754128Y-134904110D01*
X131771948Y-134884448D01*
X131791610Y-134866628D01*
X131812924Y-134850821D01*
X131835684Y-134837178D01*
X131859672Y-134825833D01*
X131884657Y-134816893D01*
X131910398Y-134810446D01*
X131936646Y-134806552D01*
X131963150Y-134805250D01*
X132774350Y-134805250D01*
X132800854Y-134806552D01*
X132800854Y-134806552D01*
G37*
D22*
X132368750Y-135731250D03*
D23*
X153987500Y-125475000D03*
X153987500Y-122175000D03*
X134937500Y-122175000D03*
X134937500Y-125475000D03*
X115887500Y-125475000D03*
X115887500Y-122175000D03*
X134937500Y-106425000D03*
X134937500Y-103125000D03*
D18*
G36*
X114808141Y-141400297D02*
G01*
X114834278Y-141404174D01*
X114859909Y-141410594D01*
X114884788Y-141419495D01*
X114908674Y-141430793D01*
X114931337Y-141444377D01*
X114952560Y-141460117D01*
X114972139Y-141477861D01*
X114989883Y-141497440D01*
X115005623Y-141518663D01*
X115019207Y-141541326D01*
X115030505Y-141565212D01*
X115039406Y-141590091D01*
X115045826Y-141615722D01*
X115049703Y-141641859D01*
X115051000Y-141668250D01*
X115051000Y-142206750D01*
X115049703Y-142233141D01*
X115045826Y-142259278D01*
X115039406Y-142284909D01*
X115030505Y-142309788D01*
X115019207Y-142333674D01*
X115005623Y-142356337D01*
X114989883Y-142377560D01*
X114972139Y-142397139D01*
X114952560Y-142414883D01*
X114931337Y-142430623D01*
X114908674Y-142444207D01*
X114884788Y-142455505D01*
X114859909Y-142464406D01*
X114834278Y-142470826D01*
X114808141Y-142474703D01*
X114781750Y-142476000D01*
X113818250Y-142476000D01*
X113791859Y-142474703D01*
X113765722Y-142470826D01*
X113740091Y-142464406D01*
X113715212Y-142455505D01*
X113691326Y-142444207D01*
X113668663Y-142430623D01*
X113647440Y-142414883D01*
X113627861Y-142397139D01*
X113610117Y-142377560D01*
X113594377Y-142356337D01*
X113580793Y-142333674D01*
X113569495Y-142309788D01*
X113560594Y-142284909D01*
X113554174Y-142259278D01*
X113550297Y-142233141D01*
X113549000Y-142206750D01*
X113549000Y-141668250D01*
X113550297Y-141641859D01*
X113554174Y-141615722D01*
X113560594Y-141590091D01*
X113569495Y-141565212D01*
X113580793Y-141541326D01*
X113594377Y-141518663D01*
X113610117Y-141497440D01*
X113627861Y-141477861D01*
X113647440Y-141460117D01*
X113668663Y-141444377D01*
X113691326Y-141430793D01*
X113715212Y-141419495D01*
X113740091Y-141410594D01*
X113765722Y-141404174D01*
X113791859Y-141400297D01*
X113818250Y-141399000D01*
X114781750Y-141399000D01*
X114808141Y-141400297D01*
X114808141Y-141400297D01*
G37*
D19*
X114300000Y-141937500D03*
D18*
G36*
X114808141Y-143275297D02*
G01*
X114834278Y-143279174D01*
X114859909Y-143285594D01*
X114884788Y-143294495D01*
X114908674Y-143305793D01*
X114931337Y-143319377D01*
X114952560Y-143335117D01*
X114972139Y-143352861D01*
X114989883Y-143372440D01*
X115005623Y-143393663D01*
X115019207Y-143416326D01*
X115030505Y-143440212D01*
X115039406Y-143465091D01*
X115045826Y-143490722D01*
X115049703Y-143516859D01*
X115051000Y-143543250D01*
X115051000Y-144081750D01*
X115049703Y-144108141D01*
X115045826Y-144134278D01*
X115039406Y-144159909D01*
X115030505Y-144184788D01*
X115019207Y-144208674D01*
X115005623Y-144231337D01*
X114989883Y-144252560D01*
X114972139Y-144272139D01*
X114952560Y-144289883D01*
X114931337Y-144305623D01*
X114908674Y-144319207D01*
X114884788Y-144330505D01*
X114859909Y-144339406D01*
X114834278Y-144345826D01*
X114808141Y-144349703D01*
X114781750Y-144351000D01*
X113818250Y-144351000D01*
X113791859Y-144349703D01*
X113765722Y-144345826D01*
X113740091Y-144339406D01*
X113715212Y-144330505D01*
X113691326Y-144319207D01*
X113668663Y-144305623D01*
X113647440Y-144289883D01*
X113627861Y-144272139D01*
X113610117Y-144252560D01*
X113594377Y-144231337D01*
X113580793Y-144208674D01*
X113569495Y-144184788D01*
X113560594Y-144159909D01*
X113554174Y-144134278D01*
X113550297Y-144108141D01*
X113549000Y-144081750D01*
X113549000Y-143543250D01*
X113550297Y-143516859D01*
X113554174Y-143490722D01*
X113560594Y-143465091D01*
X113569495Y-143440212D01*
X113580793Y-143416326D01*
X113594377Y-143393663D01*
X113610117Y-143372440D01*
X113627861Y-143352861D01*
X113647440Y-143335117D01*
X113668663Y-143319377D01*
X113691326Y-143305793D01*
X113715212Y-143294495D01*
X113740091Y-143285594D01*
X113765722Y-143279174D01*
X113791859Y-143275297D01*
X113818250Y-143274000D01*
X114781750Y-143274000D01*
X114808141Y-143275297D01*
X114808141Y-143275297D01*
G37*
D19*
X114300000Y-143812500D03*
D18*
G36*
X133064391Y-155975297D02*
G01*
X133090528Y-155979174D01*
X133116159Y-155985594D01*
X133141038Y-155994495D01*
X133164924Y-156005793D01*
X133187587Y-156019377D01*
X133208810Y-156035117D01*
X133228389Y-156052861D01*
X133246133Y-156072440D01*
X133261873Y-156093663D01*
X133275457Y-156116326D01*
X133286755Y-156140212D01*
X133295656Y-156165091D01*
X133302076Y-156190722D01*
X133305953Y-156216859D01*
X133307250Y-156243250D01*
X133307250Y-156781750D01*
X133305953Y-156808141D01*
X133302076Y-156834278D01*
X133295656Y-156859909D01*
X133286755Y-156884788D01*
X133275457Y-156908674D01*
X133261873Y-156931337D01*
X133246133Y-156952560D01*
X133228389Y-156972139D01*
X133208810Y-156989883D01*
X133187587Y-157005623D01*
X133164924Y-157019207D01*
X133141038Y-157030505D01*
X133116159Y-157039406D01*
X133090528Y-157045826D01*
X133064391Y-157049703D01*
X133038000Y-157051000D01*
X132074500Y-157051000D01*
X132048109Y-157049703D01*
X132021972Y-157045826D01*
X131996341Y-157039406D01*
X131971462Y-157030505D01*
X131947576Y-157019207D01*
X131924913Y-157005623D01*
X131903690Y-156989883D01*
X131884111Y-156972139D01*
X131866367Y-156952560D01*
X131850627Y-156931337D01*
X131837043Y-156908674D01*
X131825745Y-156884788D01*
X131816844Y-156859909D01*
X131810424Y-156834278D01*
X131806547Y-156808141D01*
X131805250Y-156781750D01*
X131805250Y-156243250D01*
X131806547Y-156216859D01*
X131810424Y-156190722D01*
X131816844Y-156165091D01*
X131825745Y-156140212D01*
X131837043Y-156116326D01*
X131850627Y-156093663D01*
X131866367Y-156072440D01*
X131884111Y-156052861D01*
X131903690Y-156035117D01*
X131924913Y-156019377D01*
X131947576Y-156005793D01*
X131971462Y-155994495D01*
X131996341Y-155985594D01*
X132021972Y-155979174D01*
X132048109Y-155975297D01*
X132074500Y-155974000D01*
X133038000Y-155974000D01*
X133064391Y-155975297D01*
X133064391Y-155975297D01*
G37*
D19*
X132556250Y-156512500D03*
D18*
G36*
X133064391Y-154100297D02*
G01*
X133090528Y-154104174D01*
X133116159Y-154110594D01*
X133141038Y-154119495D01*
X133164924Y-154130793D01*
X133187587Y-154144377D01*
X133208810Y-154160117D01*
X133228389Y-154177861D01*
X133246133Y-154197440D01*
X133261873Y-154218663D01*
X133275457Y-154241326D01*
X133286755Y-154265212D01*
X133295656Y-154290091D01*
X133302076Y-154315722D01*
X133305953Y-154341859D01*
X133307250Y-154368250D01*
X133307250Y-154906750D01*
X133305953Y-154933141D01*
X133302076Y-154959278D01*
X133295656Y-154984909D01*
X133286755Y-155009788D01*
X133275457Y-155033674D01*
X133261873Y-155056337D01*
X133246133Y-155077560D01*
X133228389Y-155097139D01*
X133208810Y-155114883D01*
X133187587Y-155130623D01*
X133164924Y-155144207D01*
X133141038Y-155155505D01*
X133116159Y-155164406D01*
X133090528Y-155170826D01*
X133064391Y-155174703D01*
X133038000Y-155176000D01*
X132074500Y-155176000D01*
X132048109Y-155174703D01*
X132021972Y-155170826D01*
X131996341Y-155164406D01*
X131971462Y-155155505D01*
X131947576Y-155144207D01*
X131924913Y-155130623D01*
X131903690Y-155114883D01*
X131884111Y-155097139D01*
X131866367Y-155077560D01*
X131850627Y-155056337D01*
X131837043Y-155033674D01*
X131825745Y-155009788D01*
X131816844Y-154984909D01*
X131810424Y-154959278D01*
X131806547Y-154933141D01*
X131805250Y-154906750D01*
X131805250Y-154368250D01*
X131806547Y-154341859D01*
X131810424Y-154315722D01*
X131816844Y-154290091D01*
X131825745Y-154265212D01*
X131837043Y-154241326D01*
X131850627Y-154218663D01*
X131866367Y-154197440D01*
X131884111Y-154177861D01*
X131903690Y-154160117D01*
X131924913Y-154144377D01*
X131947576Y-154130793D01*
X131971462Y-154119495D01*
X131996341Y-154110594D01*
X132021972Y-154104174D01*
X132048109Y-154100297D01*
X132074500Y-154099000D01*
X133038000Y-154099000D01*
X133064391Y-154100297D01*
X133064391Y-154100297D01*
G37*
D19*
X132556250Y-154637500D03*
D18*
G36*
X121951891Y-154100297D02*
G01*
X121978028Y-154104174D01*
X122003659Y-154110594D01*
X122028538Y-154119495D01*
X122052424Y-154130793D01*
X122075087Y-154144377D01*
X122096310Y-154160117D01*
X122115889Y-154177861D01*
X122133633Y-154197440D01*
X122149373Y-154218663D01*
X122162957Y-154241326D01*
X122174255Y-154265212D01*
X122183156Y-154290091D01*
X122189576Y-154315722D01*
X122193453Y-154341859D01*
X122194750Y-154368250D01*
X122194750Y-154906750D01*
X122193453Y-154933141D01*
X122189576Y-154959278D01*
X122183156Y-154984909D01*
X122174255Y-155009788D01*
X122162957Y-155033674D01*
X122149373Y-155056337D01*
X122133633Y-155077560D01*
X122115889Y-155097139D01*
X122096310Y-155114883D01*
X122075087Y-155130623D01*
X122052424Y-155144207D01*
X122028538Y-155155505D01*
X122003659Y-155164406D01*
X121978028Y-155170826D01*
X121951891Y-155174703D01*
X121925500Y-155176000D01*
X120962000Y-155176000D01*
X120935609Y-155174703D01*
X120909472Y-155170826D01*
X120883841Y-155164406D01*
X120858962Y-155155505D01*
X120835076Y-155144207D01*
X120812413Y-155130623D01*
X120791190Y-155114883D01*
X120771611Y-155097139D01*
X120753867Y-155077560D01*
X120738127Y-155056337D01*
X120724543Y-155033674D01*
X120713245Y-155009788D01*
X120704344Y-154984909D01*
X120697924Y-154959278D01*
X120694047Y-154933141D01*
X120692750Y-154906750D01*
X120692750Y-154368250D01*
X120694047Y-154341859D01*
X120697924Y-154315722D01*
X120704344Y-154290091D01*
X120713245Y-154265212D01*
X120724543Y-154241326D01*
X120738127Y-154218663D01*
X120753867Y-154197440D01*
X120771611Y-154177861D01*
X120791190Y-154160117D01*
X120812413Y-154144377D01*
X120835076Y-154130793D01*
X120858962Y-154119495D01*
X120883841Y-154110594D01*
X120909472Y-154104174D01*
X120935609Y-154100297D01*
X120962000Y-154099000D01*
X121925500Y-154099000D01*
X121951891Y-154100297D01*
X121951891Y-154100297D01*
G37*
D19*
X121443750Y-154637500D03*
D18*
G36*
X121951891Y-155975297D02*
G01*
X121978028Y-155979174D01*
X122003659Y-155985594D01*
X122028538Y-155994495D01*
X122052424Y-156005793D01*
X122075087Y-156019377D01*
X122096310Y-156035117D01*
X122115889Y-156052861D01*
X122133633Y-156072440D01*
X122149373Y-156093663D01*
X122162957Y-156116326D01*
X122174255Y-156140212D01*
X122183156Y-156165091D01*
X122189576Y-156190722D01*
X122193453Y-156216859D01*
X122194750Y-156243250D01*
X122194750Y-156781750D01*
X122193453Y-156808141D01*
X122189576Y-156834278D01*
X122183156Y-156859909D01*
X122174255Y-156884788D01*
X122162957Y-156908674D01*
X122149373Y-156931337D01*
X122133633Y-156952560D01*
X122115889Y-156972139D01*
X122096310Y-156989883D01*
X122075087Y-157005623D01*
X122052424Y-157019207D01*
X122028538Y-157030505D01*
X122003659Y-157039406D01*
X121978028Y-157045826D01*
X121951891Y-157049703D01*
X121925500Y-157051000D01*
X120962000Y-157051000D01*
X120935609Y-157049703D01*
X120909472Y-157045826D01*
X120883841Y-157039406D01*
X120858962Y-157030505D01*
X120835076Y-157019207D01*
X120812413Y-157005623D01*
X120791190Y-156989883D01*
X120771611Y-156972139D01*
X120753867Y-156952560D01*
X120738127Y-156931337D01*
X120724543Y-156908674D01*
X120713245Y-156884788D01*
X120704344Y-156859909D01*
X120697924Y-156834278D01*
X120694047Y-156808141D01*
X120692750Y-156781750D01*
X120692750Y-156243250D01*
X120694047Y-156216859D01*
X120697924Y-156190722D01*
X120704344Y-156165091D01*
X120713245Y-156140212D01*
X120724543Y-156116326D01*
X120738127Y-156093663D01*
X120753867Y-156072440D01*
X120771611Y-156052861D01*
X120791190Y-156035117D01*
X120812413Y-156019377D01*
X120835076Y-156005793D01*
X120858962Y-155994495D01*
X120883841Y-155985594D01*
X120909472Y-155979174D01*
X120935609Y-155975297D01*
X120962000Y-155974000D01*
X121925500Y-155974000D01*
X121951891Y-155975297D01*
X121951891Y-155975297D01*
G37*
D19*
X121443750Y-156512500D03*
D18*
G36*
X140208141Y-144862797D02*
G01*
X140234278Y-144866674D01*
X140259909Y-144873094D01*
X140284788Y-144881995D01*
X140308674Y-144893293D01*
X140331337Y-144906877D01*
X140352560Y-144922617D01*
X140372139Y-144940361D01*
X140389883Y-144959940D01*
X140405623Y-144981163D01*
X140419207Y-145003826D01*
X140430505Y-145027712D01*
X140439406Y-145052591D01*
X140445826Y-145078222D01*
X140449703Y-145104359D01*
X140451000Y-145130750D01*
X140451000Y-145669250D01*
X140449703Y-145695641D01*
X140445826Y-145721778D01*
X140439406Y-145747409D01*
X140430505Y-145772288D01*
X140419207Y-145796174D01*
X140405623Y-145818837D01*
X140389883Y-145840060D01*
X140372139Y-145859639D01*
X140352560Y-145877383D01*
X140331337Y-145893123D01*
X140308674Y-145906707D01*
X140284788Y-145918005D01*
X140259909Y-145926906D01*
X140234278Y-145933326D01*
X140208141Y-145937203D01*
X140181750Y-145938500D01*
X139218250Y-145938500D01*
X139191859Y-145937203D01*
X139165722Y-145933326D01*
X139140091Y-145926906D01*
X139115212Y-145918005D01*
X139091326Y-145906707D01*
X139068663Y-145893123D01*
X139047440Y-145877383D01*
X139027861Y-145859639D01*
X139010117Y-145840060D01*
X138994377Y-145818837D01*
X138980793Y-145796174D01*
X138969495Y-145772288D01*
X138960594Y-145747409D01*
X138954174Y-145721778D01*
X138950297Y-145695641D01*
X138949000Y-145669250D01*
X138949000Y-145130750D01*
X138950297Y-145104359D01*
X138954174Y-145078222D01*
X138960594Y-145052591D01*
X138969495Y-145027712D01*
X138980793Y-145003826D01*
X138994377Y-144981163D01*
X139010117Y-144959940D01*
X139027861Y-144940361D01*
X139047440Y-144922617D01*
X139068663Y-144906877D01*
X139091326Y-144893293D01*
X139115212Y-144881995D01*
X139140091Y-144873094D01*
X139165722Y-144866674D01*
X139191859Y-144862797D01*
X139218250Y-144861500D01*
X140181750Y-144861500D01*
X140208141Y-144862797D01*
X140208141Y-144862797D01*
G37*
D19*
X139700000Y-145400000D03*
D18*
G36*
X140208141Y-142987797D02*
G01*
X140234278Y-142991674D01*
X140259909Y-142998094D01*
X140284788Y-143006995D01*
X140308674Y-143018293D01*
X140331337Y-143031877D01*
X140352560Y-143047617D01*
X140372139Y-143065361D01*
X140389883Y-143084940D01*
X140405623Y-143106163D01*
X140419207Y-143128826D01*
X140430505Y-143152712D01*
X140439406Y-143177591D01*
X140445826Y-143203222D01*
X140449703Y-143229359D01*
X140451000Y-143255750D01*
X140451000Y-143794250D01*
X140449703Y-143820641D01*
X140445826Y-143846778D01*
X140439406Y-143872409D01*
X140430505Y-143897288D01*
X140419207Y-143921174D01*
X140405623Y-143943837D01*
X140389883Y-143965060D01*
X140372139Y-143984639D01*
X140352560Y-144002383D01*
X140331337Y-144018123D01*
X140308674Y-144031707D01*
X140284788Y-144043005D01*
X140259909Y-144051906D01*
X140234278Y-144058326D01*
X140208141Y-144062203D01*
X140181750Y-144063500D01*
X139218250Y-144063500D01*
X139191859Y-144062203D01*
X139165722Y-144058326D01*
X139140091Y-144051906D01*
X139115212Y-144043005D01*
X139091326Y-144031707D01*
X139068663Y-144018123D01*
X139047440Y-144002383D01*
X139027861Y-143984639D01*
X139010117Y-143965060D01*
X138994377Y-143943837D01*
X138980793Y-143921174D01*
X138969495Y-143897288D01*
X138960594Y-143872409D01*
X138954174Y-143846778D01*
X138950297Y-143820641D01*
X138949000Y-143794250D01*
X138949000Y-143255750D01*
X138950297Y-143229359D01*
X138954174Y-143203222D01*
X138960594Y-143177591D01*
X138969495Y-143152712D01*
X138980793Y-143128826D01*
X138994377Y-143106163D01*
X139010117Y-143084940D01*
X139027861Y-143065361D01*
X139047440Y-143047617D01*
X139068663Y-143031877D01*
X139091326Y-143018293D01*
X139115212Y-143006995D01*
X139140091Y-142998094D01*
X139165722Y-142991674D01*
X139191859Y-142987797D01*
X139218250Y-142986500D01*
X140181750Y-142986500D01*
X140208141Y-142987797D01*
X140208141Y-142987797D01*
G37*
D19*
X139700000Y-143525000D03*
D18*
G36*
X114808141Y-147750297D02*
G01*
X114834278Y-147754174D01*
X114859909Y-147760594D01*
X114884788Y-147769495D01*
X114908674Y-147780793D01*
X114931337Y-147794377D01*
X114952560Y-147810117D01*
X114972139Y-147827861D01*
X114989883Y-147847440D01*
X115005623Y-147868663D01*
X115019207Y-147891326D01*
X115030505Y-147915212D01*
X115039406Y-147940091D01*
X115045826Y-147965722D01*
X115049703Y-147991859D01*
X115051000Y-148018250D01*
X115051000Y-148556750D01*
X115049703Y-148583141D01*
X115045826Y-148609278D01*
X115039406Y-148634909D01*
X115030505Y-148659788D01*
X115019207Y-148683674D01*
X115005623Y-148706337D01*
X114989883Y-148727560D01*
X114972139Y-148747139D01*
X114952560Y-148764883D01*
X114931337Y-148780623D01*
X114908674Y-148794207D01*
X114884788Y-148805505D01*
X114859909Y-148814406D01*
X114834278Y-148820826D01*
X114808141Y-148824703D01*
X114781750Y-148826000D01*
X113818250Y-148826000D01*
X113791859Y-148824703D01*
X113765722Y-148820826D01*
X113740091Y-148814406D01*
X113715212Y-148805505D01*
X113691326Y-148794207D01*
X113668663Y-148780623D01*
X113647440Y-148764883D01*
X113627861Y-148747139D01*
X113610117Y-148727560D01*
X113594377Y-148706337D01*
X113580793Y-148683674D01*
X113569495Y-148659788D01*
X113560594Y-148634909D01*
X113554174Y-148609278D01*
X113550297Y-148583141D01*
X113549000Y-148556750D01*
X113549000Y-148018250D01*
X113550297Y-147991859D01*
X113554174Y-147965722D01*
X113560594Y-147940091D01*
X113569495Y-147915212D01*
X113580793Y-147891326D01*
X113594377Y-147868663D01*
X113610117Y-147847440D01*
X113627861Y-147827861D01*
X113647440Y-147810117D01*
X113668663Y-147794377D01*
X113691326Y-147780793D01*
X113715212Y-147769495D01*
X113740091Y-147760594D01*
X113765722Y-147754174D01*
X113791859Y-147750297D01*
X113818250Y-147749000D01*
X114781750Y-147749000D01*
X114808141Y-147750297D01*
X114808141Y-147750297D01*
G37*
D19*
X114300000Y-148287500D03*
D18*
G36*
X114808141Y-149625297D02*
G01*
X114834278Y-149629174D01*
X114859909Y-149635594D01*
X114884788Y-149644495D01*
X114908674Y-149655793D01*
X114931337Y-149669377D01*
X114952560Y-149685117D01*
X114972139Y-149702861D01*
X114989883Y-149722440D01*
X115005623Y-149743663D01*
X115019207Y-149766326D01*
X115030505Y-149790212D01*
X115039406Y-149815091D01*
X115045826Y-149840722D01*
X115049703Y-149866859D01*
X115051000Y-149893250D01*
X115051000Y-150431750D01*
X115049703Y-150458141D01*
X115045826Y-150484278D01*
X115039406Y-150509909D01*
X115030505Y-150534788D01*
X115019207Y-150558674D01*
X115005623Y-150581337D01*
X114989883Y-150602560D01*
X114972139Y-150622139D01*
X114952560Y-150639883D01*
X114931337Y-150655623D01*
X114908674Y-150669207D01*
X114884788Y-150680505D01*
X114859909Y-150689406D01*
X114834278Y-150695826D01*
X114808141Y-150699703D01*
X114781750Y-150701000D01*
X113818250Y-150701000D01*
X113791859Y-150699703D01*
X113765722Y-150695826D01*
X113740091Y-150689406D01*
X113715212Y-150680505D01*
X113691326Y-150669207D01*
X113668663Y-150655623D01*
X113647440Y-150639883D01*
X113627861Y-150622139D01*
X113610117Y-150602560D01*
X113594377Y-150581337D01*
X113580793Y-150558674D01*
X113569495Y-150534788D01*
X113560594Y-150509909D01*
X113554174Y-150484278D01*
X113550297Y-150458141D01*
X113549000Y-150431750D01*
X113549000Y-149893250D01*
X113550297Y-149866859D01*
X113554174Y-149840722D01*
X113560594Y-149815091D01*
X113569495Y-149790212D01*
X113580793Y-149766326D01*
X113594377Y-149743663D01*
X113610117Y-149722440D01*
X113627861Y-149702861D01*
X113647440Y-149685117D01*
X113668663Y-149669377D01*
X113691326Y-149655793D01*
X113715212Y-149644495D01*
X113740091Y-149635594D01*
X113765722Y-149629174D01*
X113791859Y-149625297D01*
X113818250Y-149624000D01*
X114781750Y-149624000D01*
X114808141Y-149625297D01*
X114808141Y-149625297D01*
G37*
D19*
X114300000Y-150162500D03*
D18*
G36*
X140208141Y-149337797D02*
G01*
X140234278Y-149341674D01*
X140259909Y-149348094D01*
X140284788Y-149356995D01*
X140308674Y-149368293D01*
X140331337Y-149381877D01*
X140352560Y-149397617D01*
X140372139Y-149415361D01*
X140389883Y-149434940D01*
X140405623Y-149456163D01*
X140419207Y-149478826D01*
X140430505Y-149502712D01*
X140439406Y-149527591D01*
X140445826Y-149553222D01*
X140449703Y-149579359D01*
X140451000Y-149605750D01*
X140451000Y-150144250D01*
X140449703Y-150170641D01*
X140445826Y-150196778D01*
X140439406Y-150222409D01*
X140430505Y-150247288D01*
X140419207Y-150271174D01*
X140405623Y-150293837D01*
X140389883Y-150315060D01*
X140372139Y-150334639D01*
X140352560Y-150352383D01*
X140331337Y-150368123D01*
X140308674Y-150381707D01*
X140284788Y-150393005D01*
X140259909Y-150401906D01*
X140234278Y-150408326D01*
X140208141Y-150412203D01*
X140181750Y-150413500D01*
X139218250Y-150413500D01*
X139191859Y-150412203D01*
X139165722Y-150408326D01*
X139140091Y-150401906D01*
X139115212Y-150393005D01*
X139091326Y-150381707D01*
X139068663Y-150368123D01*
X139047440Y-150352383D01*
X139027861Y-150334639D01*
X139010117Y-150315060D01*
X138994377Y-150293837D01*
X138980793Y-150271174D01*
X138969495Y-150247288D01*
X138960594Y-150222409D01*
X138954174Y-150196778D01*
X138950297Y-150170641D01*
X138949000Y-150144250D01*
X138949000Y-149605750D01*
X138950297Y-149579359D01*
X138954174Y-149553222D01*
X138960594Y-149527591D01*
X138969495Y-149502712D01*
X138980793Y-149478826D01*
X138994377Y-149456163D01*
X139010117Y-149434940D01*
X139027861Y-149415361D01*
X139047440Y-149397617D01*
X139068663Y-149381877D01*
X139091326Y-149368293D01*
X139115212Y-149356995D01*
X139140091Y-149348094D01*
X139165722Y-149341674D01*
X139191859Y-149337797D01*
X139218250Y-149336500D01*
X140181750Y-149336500D01*
X140208141Y-149337797D01*
X140208141Y-149337797D01*
G37*
D19*
X139700000Y-149875000D03*
D18*
G36*
X140208141Y-151212797D02*
G01*
X140234278Y-151216674D01*
X140259909Y-151223094D01*
X140284788Y-151231995D01*
X140308674Y-151243293D01*
X140331337Y-151256877D01*
X140352560Y-151272617D01*
X140372139Y-151290361D01*
X140389883Y-151309940D01*
X140405623Y-151331163D01*
X140419207Y-151353826D01*
X140430505Y-151377712D01*
X140439406Y-151402591D01*
X140445826Y-151428222D01*
X140449703Y-151454359D01*
X140451000Y-151480750D01*
X140451000Y-152019250D01*
X140449703Y-152045641D01*
X140445826Y-152071778D01*
X140439406Y-152097409D01*
X140430505Y-152122288D01*
X140419207Y-152146174D01*
X140405623Y-152168837D01*
X140389883Y-152190060D01*
X140372139Y-152209639D01*
X140352560Y-152227383D01*
X140331337Y-152243123D01*
X140308674Y-152256707D01*
X140284788Y-152268005D01*
X140259909Y-152276906D01*
X140234278Y-152283326D01*
X140208141Y-152287203D01*
X140181750Y-152288500D01*
X139218250Y-152288500D01*
X139191859Y-152287203D01*
X139165722Y-152283326D01*
X139140091Y-152276906D01*
X139115212Y-152268005D01*
X139091326Y-152256707D01*
X139068663Y-152243123D01*
X139047440Y-152227383D01*
X139027861Y-152209639D01*
X139010117Y-152190060D01*
X138994377Y-152168837D01*
X138980793Y-152146174D01*
X138969495Y-152122288D01*
X138960594Y-152097409D01*
X138954174Y-152071778D01*
X138950297Y-152045641D01*
X138949000Y-152019250D01*
X138949000Y-151480750D01*
X138950297Y-151454359D01*
X138954174Y-151428222D01*
X138960594Y-151402591D01*
X138969495Y-151377712D01*
X138980793Y-151353826D01*
X138994377Y-151331163D01*
X139010117Y-151309940D01*
X139027861Y-151290361D01*
X139047440Y-151272617D01*
X139068663Y-151256877D01*
X139091326Y-151243293D01*
X139115212Y-151231995D01*
X139140091Y-151223094D01*
X139165722Y-151216674D01*
X139191859Y-151212797D01*
X139218250Y-151211500D01*
X140181750Y-151211500D01*
X140208141Y-151212797D01*
X140208141Y-151212797D01*
G37*
D19*
X139700000Y-151750000D03*
D18*
G36*
X111633141Y-136925297D02*
G01*
X111659278Y-136929174D01*
X111684909Y-136935594D01*
X111709788Y-136944495D01*
X111733674Y-136955793D01*
X111756337Y-136969377D01*
X111777560Y-136985117D01*
X111797139Y-137002861D01*
X111814883Y-137022440D01*
X111830623Y-137043663D01*
X111844207Y-137066326D01*
X111855505Y-137090212D01*
X111864406Y-137115091D01*
X111870826Y-137140722D01*
X111874703Y-137166859D01*
X111876000Y-137193250D01*
X111876000Y-137731750D01*
X111874703Y-137758141D01*
X111870826Y-137784278D01*
X111864406Y-137809909D01*
X111855505Y-137834788D01*
X111844207Y-137858674D01*
X111830623Y-137881337D01*
X111814883Y-137902560D01*
X111797139Y-137922139D01*
X111777560Y-137939883D01*
X111756337Y-137955623D01*
X111733674Y-137969207D01*
X111709788Y-137980505D01*
X111684909Y-137989406D01*
X111659278Y-137995826D01*
X111633141Y-137999703D01*
X111606750Y-138001000D01*
X110643250Y-138001000D01*
X110616859Y-137999703D01*
X110590722Y-137995826D01*
X110565091Y-137989406D01*
X110540212Y-137980505D01*
X110516326Y-137969207D01*
X110493663Y-137955623D01*
X110472440Y-137939883D01*
X110452861Y-137922139D01*
X110435117Y-137902560D01*
X110419377Y-137881337D01*
X110405793Y-137858674D01*
X110394495Y-137834788D01*
X110385594Y-137809909D01*
X110379174Y-137784278D01*
X110375297Y-137758141D01*
X110374000Y-137731750D01*
X110374000Y-137193250D01*
X110375297Y-137166859D01*
X110379174Y-137140722D01*
X110385594Y-137115091D01*
X110394495Y-137090212D01*
X110405793Y-137066326D01*
X110419377Y-137043663D01*
X110435117Y-137022440D01*
X110452861Y-137002861D01*
X110472440Y-136985117D01*
X110493663Y-136969377D01*
X110516326Y-136955793D01*
X110540212Y-136944495D01*
X110565091Y-136935594D01*
X110590722Y-136929174D01*
X110616859Y-136925297D01*
X110643250Y-136924000D01*
X111606750Y-136924000D01*
X111633141Y-136925297D01*
X111633141Y-136925297D01*
G37*
D19*
X111125000Y-137462500D03*
D18*
G36*
X111633141Y-135050297D02*
G01*
X111659278Y-135054174D01*
X111684909Y-135060594D01*
X111709788Y-135069495D01*
X111733674Y-135080793D01*
X111756337Y-135094377D01*
X111777560Y-135110117D01*
X111797139Y-135127861D01*
X111814883Y-135147440D01*
X111830623Y-135168663D01*
X111844207Y-135191326D01*
X111855505Y-135215212D01*
X111864406Y-135240091D01*
X111870826Y-135265722D01*
X111874703Y-135291859D01*
X111876000Y-135318250D01*
X111876000Y-135856750D01*
X111874703Y-135883141D01*
X111870826Y-135909278D01*
X111864406Y-135934909D01*
X111855505Y-135959788D01*
X111844207Y-135983674D01*
X111830623Y-136006337D01*
X111814883Y-136027560D01*
X111797139Y-136047139D01*
X111777560Y-136064883D01*
X111756337Y-136080623D01*
X111733674Y-136094207D01*
X111709788Y-136105505D01*
X111684909Y-136114406D01*
X111659278Y-136120826D01*
X111633141Y-136124703D01*
X111606750Y-136126000D01*
X110643250Y-136126000D01*
X110616859Y-136124703D01*
X110590722Y-136120826D01*
X110565091Y-136114406D01*
X110540212Y-136105505D01*
X110516326Y-136094207D01*
X110493663Y-136080623D01*
X110472440Y-136064883D01*
X110452861Y-136047139D01*
X110435117Y-136027560D01*
X110419377Y-136006337D01*
X110405793Y-135983674D01*
X110394495Y-135959788D01*
X110385594Y-135934909D01*
X110379174Y-135909278D01*
X110375297Y-135883141D01*
X110374000Y-135856750D01*
X110374000Y-135318250D01*
X110375297Y-135291859D01*
X110379174Y-135265722D01*
X110385594Y-135240091D01*
X110394495Y-135215212D01*
X110405793Y-135191326D01*
X110419377Y-135168663D01*
X110435117Y-135147440D01*
X110452861Y-135127861D01*
X110472440Y-135110117D01*
X110493663Y-135094377D01*
X110516326Y-135080793D01*
X110540212Y-135069495D01*
X110565091Y-135060594D01*
X110590722Y-135054174D01*
X110616859Y-135050297D01*
X110643250Y-135049000D01*
X111606750Y-135049000D01*
X111633141Y-135050297D01*
X111633141Y-135050297D01*
G37*
D19*
X111125000Y-135587500D03*
M02*
