G04 #@! TF.GenerationSoftware,KiCad,Pcbnew,(5.1.4)-1*
G04 #@! TF.CreationDate,2022-10-20T20:42:52-05:00*
G04 #@! TF.ProjectId,first-3k-keypad,66697273-742d-4336-9b2d-6b6579706164,rev?*
G04 #@! TF.SameCoordinates,Original*
G04 #@! TF.FileFunction,Copper,L1,Top*
G04 #@! TF.FilePolarity,Positive*
%FSLAX46Y46*%
G04 Gerber Fmt 4.6, Leading zero omitted, Abs format (unit mm)*
G04 Created by KiCad (PCBNEW (5.1.4)-1) date 2022-10-20 20:42:53*
%MOMM*%
%LPD*%
G04 APERTURE LIST*
%ADD10R,1.500000X0.550000*%
%ADD11R,0.550000X1.500000*%
%ADD12R,1.400000X1.200000*%
%ADD13R,0.500000X2.250000*%
%ADD14O,1.700000X2.700000*%
%ADD15R,1.800000X1.100000*%
%ADD16C,0.020000*%
%ADD17C,0.975000*%
%ADD18C,2.250000*%
%ADD19C,2.250000*%
%ADD20C,1.250000*%
%ADD21R,1.200000X0.900000*%
%ADD22C,0.800000*%
%ADD23C,0.381000*%
%ADD24C,0.254000*%
G04 APERTURE END LIST*
D10*
X121300000Y-141256250D03*
X121300000Y-142056250D03*
X121300000Y-142856250D03*
X121300000Y-143656250D03*
X121300000Y-144456250D03*
X121300000Y-145256250D03*
X121300000Y-146056250D03*
X121300000Y-146856250D03*
X121300000Y-147656250D03*
X121300000Y-148456250D03*
X121300000Y-149256250D03*
D11*
X123000000Y-150956250D03*
X123800000Y-150956250D03*
X124600000Y-150956250D03*
X125400000Y-150956250D03*
X126200000Y-150956250D03*
X127000000Y-150956250D03*
X127800000Y-150956250D03*
X128600000Y-150956250D03*
X129400000Y-150956250D03*
X130200000Y-150956250D03*
X131000000Y-150956250D03*
D10*
X132700000Y-149256250D03*
X132700000Y-148456250D03*
X132700000Y-147656250D03*
X132700000Y-146856250D03*
X132700000Y-146056250D03*
X132700000Y-145256250D03*
X132700000Y-144456250D03*
X132700000Y-143656250D03*
X132700000Y-142856250D03*
X132700000Y-142056250D03*
X132700000Y-141256250D03*
D11*
X131000000Y-139556250D03*
X130200000Y-139556250D03*
X129400000Y-139556250D03*
X128600000Y-139556250D03*
X127800000Y-139556250D03*
X127000000Y-139556250D03*
X126200000Y-139556250D03*
X125400000Y-139556250D03*
X124600000Y-139556250D03*
X123800000Y-139556250D03*
X123000000Y-139556250D03*
D12*
X125900000Y-156425000D03*
X128100000Y-156425000D03*
X128100000Y-154725000D03*
X125900000Y-154725000D03*
D13*
X107143750Y-101337500D03*
X107943750Y-101337500D03*
X108743750Y-101337500D03*
X109543750Y-101337500D03*
X110343750Y-101337500D03*
D14*
X112393750Y-101337500D03*
X105093750Y-101337500D03*
X105093750Y-96837500D03*
X112393750Y-96837500D03*
D15*
X130100000Y-163775000D03*
X123900000Y-160075000D03*
X130100000Y-160075000D03*
X123900000Y-163775000D03*
D16*
G36*
X140180142Y-136688674D02*
G01*
X140203803Y-136692184D01*
X140227007Y-136697996D01*
X140249529Y-136706054D01*
X140271153Y-136716282D01*
X140291670Y-136728579D01*
X140310883Y-136742829D01*
X140328607Y-136758893D01*
X140344671Y-136776617D01*
X140358921Y-136795830D01*
X140371218Y-136816347D01*
X140381446Y-136837971D01*
X140389504Y-136860493D01*
X140395316Y-136883697D01*
X140398826Y-136907358D01*
X140400000Y-136931250D01*
X140400000Y-137418750D01*
X140398826Y-137442642D01*
X140395316Y-137466303D01*
X140389504Y-137489507D01*
X140381446Y-137512029D01*
X140371218Y-137533653D01*
X140358921Y-137554170D01*
X140344671Y-137573383D01*
X140328607Y-137591107D01*
X140310883Y-137607171D01*
X140291670Y-137621421D01*
X140271153Y-137633718D01*
X140249529Y-137643946D01*
X140227007Y-137652004D01*
X140203803Y-137657816D01*
X140180142Y-137661326D01*
X140156250Y-137662500D01*
X139243750Y-137662500D01*
X139219858Y-137661326D01*
X139196197Y-137657816D01*
X139172993Y-137652004D01*
X139150471Y-137643946D01*
X139128847Y-137633718D01*
X139108330Y-137621421D01*
X139089117Y-137607171D01*
X139071393Y-137591107D01*
X139055329Y-137573383D01*
X139041079Y-137554170D01*
X139028782Y-137533653D01*
X139018554Y-137512029D01*
X139010496Y-137489507D01*
X139004684Y-137466303D01*
X139001174Y-137442642D01*
X139000000Y-137418750D01*
X139000000Y-136931250D01*
X139001174Y-136907358D01*
X139004684Y-136883697D01*
X139010496Y-136860493D01*
X139018554Y-136837971D01*
X139028782Y-136816347D01*
X139041079Y-136795830D01*
X139055329Y-136776617D01*
X139071393Y-136758893D01*
X139089117Y-136742829D01*
X139108330Y-136728579D01*
X139128847Y-136716282D01*
X139150471Y-136706054D01*
X139172993Y-136697996D01*
X139196197Y-136692184D01*
X139219858Y-136688674D01*
X139243750Y-136687500D01*
X140156250Y-136687500D01*
X140180142Y-136688674D01*
X140180142Y-136688674D01*
G37*
D17*
X139700000Y-137175000D03*
D16*
G36*
X140180142Y-138563674D02*
G01*
X140203803Y-138567184D01*
X140227007Y-138572996D01*
X140249529Y-138581054D01*
X140271153Y-138591282D01*
X140291670Y-138603579D01*
X140310883Y-138617829D01*
X140328607Y-138633893D01*
X140344671Y-138651617D01*
X140358921Y-138670830D01*
X140371218Y-138691347D01*
X140381446Y-138712971D01*
X140389504Y-138735493D01*
X140395316Y-138758697D01*
X140398826Y-138782358D01*
X140400000Y-138806250D01*
X140400000Y-139293750D01*
X140398826Y-139317642D01*
X140395316Y-139341303D01*
X140389504Y-139364507D01*
X140381446Y-139387029D01*
X140371218Y-139408653D01*
X140358921Y-139429170D01*
X140344671Y-139448383D01*
X140328607Y-139466107D01*
X140310883Y-139482171D01*
X140291670Y-139496421D01*
X140271153Y-139508718D01*
X140249529Y-139518946D01*
X140227007Y-139527004D01*
X140203803Y-139532816D01*
X140180142Y-139536326D01*
X140156250Y-139537500D01*
X139243750Y-139537500D01*
X139219858Y-139536326D01*
X139196197Y-139532816D01*
X139172993Y-139527004D01*
X139150471Y-139518946D01*
X139128847Y-139508718D01*
X139108330Y-139496421D01*
X139089117Y-139482171D01*
X139071393Y-139466107D01*
X139055329Y-139448383D01*
X139041079Y-139429170D01*
X139028782Y-139408653D01*
X139018554Y-139387029D01*
X139010496Y-139364507D01*
X139004684Y-139341303D01*
X139001174Y-139317642D01*
X139000000Y-139293750D01*
X139000000Y-138806250D01*
X139001174Y-138782358D01*
X139004684Y-138758697D01*
X139010496Y-138735493D01*
X139018554Y-138712971D01*
X139028782Y-138691347D01*
X139041079Y-138670830D01*
X139055329Y-138651617D01*
X139071393Y-138633893D01*
X139089117Y-138617829D01*
X139108330Y-138603579D01*
X139128847Y-138591282D01*
X139150471Y-138581054D01*
X139172993Y-138572996D01*
X139196197Y-138567184D01*
X139219858Y-138563674D01*
X139243750Y-138562500D01*
X140156250Y-138562500D01*
X140180142Y-138563674D01*
X140180142Y-138563674D01*
G37*
D17*
X139700000Y-139050000D03*
D16*
G36*
X114780142Y-156026174D02*
G01*
X114803803Y-156029684D01*
X114827007Y-156035496D01*
X114849529Y-156043554D01*
X114871153Y-156053782D01*
X114891670Y-156066079D01*
X114910883Y-156080329D01*
X114928607Y-156096393D01*
X114944671Y-156114117D01*
X114958921Y-156133330D01*
X114971218Y-156153847D01*
X114981446Y-156175471D01*
X114989504Y-156197993D01*
X114995316Y-156221197D01*
X114998826Y-156244858D01*
X115000000Y-156268750D01*
X115000000Y-156756250D01*
X114998826Y-156780142D01*
X114995316Y-156803803D01*
X114989504Y-156827007D01*
X114981446Y-156849529D01*
X114971218Y-156871153D01*
X114958921Y-156891670D01*
X114944671Y-156910883D01*
X114928607Y-156928607D01*
X114910883Y-156944671D01*
X114891670Y-156958921D01*
X114871153Y-156971218D01*
X114849529Y-156981446D01*
X114827007Y-156989504D01*
X114803803Y-156995316D01*
X114780142Y-156998826D01*
X114756250Y-157000000D01*
X113843750Y-157000000D01*
X113819858Y-156998826D01*
X113796197Y-156995316D01*
X113772993Y-156989504D01*
X113750471Y-156981446D01*
X113728847Y-156971218D01*
X113708330Y-156958921D01*
X113689117Y-156944671D01*
X113671393Y-156928607D01*
X113655329Y-156910883D01*
X113641079Y-156891670D01*
X113628782Y-156871153D01*
X113618554Y-156849529D01*
X113610496Y-156827007D01*
X113604684Y-156803803D01*
X113601174Y-156780142D01*
X113600000Y-156756250D01*
X113600000Y-156268750D01*
X113601174Y-156244858D01*
X113604684Y-156221197D01*
X113610496Y-156197993D01*
X113618554Y-156175471D01*
X113628782Y-156153847D01*
X113641079Y-156133330D01*
X113655329Y-156114117D01*
X113671393Y-156096393D01*
X113689117Y-156080329D01*
X113708330Y-156066079D01*
X113728847Y-156053782D01*
X113750471Y-156043554D01*
X113772993Y-156035496D01*
X113796197Y-156029684D01*
X113819858Y-156026174D01*
X113843750Y-156025000D01*
X114756250Y-156025000D01*
X114780142Y-156026174D01*
X114780142Y-156026174D01*
G37*
D17*
X114300000Y-156512500D03*
D16*
G36*
X114780142Y-154151174D02*
G01*
X114803803Y-154154684D01*
X114827007Y-154160496D01*
X114849529Y-154168554D01*
X114871153Y-154178782D01*
X114891670Y-154191079D01*
X114910883Y-154205329D01*
X114928607Y-154221393D01*
X114944671Y-154239117D01*
X114958921Y-154258330D01*
X114971218Y-154278847D01*
X114981446Y-154300471D01*
X114989504Y-154322993D01*
X114995316Y-154346197D01*
X114998826Y-154369858D01*
X115000000Y-154393750D01*
X115000000Y-154881250D01*
X114998826Y-154905142D01*
X114995316Y-154928803D01*
X114989504Y-154952007D01*
X114981446Y-154974529D01*
X114971218Y-154996153D01*
X114958921Y-155016670D01*
X114944671Y-155035883D01*
X114928607Y-155053607D01*
X114910883Y-155069671D01*
X114891670Y-155083921D01*
X114871153Y-155096218D01*
X114849529Y-155106446D01*
X114827007Y-155114504D01*
X114803803Y-155120316D01*
X114780142Y-155123826D01*
X114756250Y-155125000D01*
X113843750Y-155125000D01*
X113819858Y-155123826D01*
X113796197Y-155120316D01*
X113772993Y-155114504D01*
X113750471Y-155106446D01*
X113728847Y-155096218D01*
X113708330Y-155083921D01*
X113689117Y-155069671D01*
X113671393Y-155053607D01*
X113655329Y-155035883D01*
X113641079Y-155016670D01*
X113628782Y-154996153D01*
X113618554Y-154974529D01*
X113610496Y-154952007D01*
X113604684Y-154928803D01*
X113601174Y-154905142D01*
X113600000Y-154881250D01*
X113600000Y-154393750D01*
X113601174Y-154369858D01*
X113604684Y-154346197D01*
X113610496Y-154322993D01*
X113618554Y-154300471D01*
X113628782Y-154278847D01*
X113641079Y-154258330D01*
X113655329Y-154239117D01*
X113671393Y-154221393D01*
X113689117Y-154205329D01*
X113708330Y-154191079D01*
X113728847Y-154178782D01*
X113750471Y-154168554D01*
X113772993Y-154160496D01*
X113796197Y-154154684D01*
X113819858Y-154151174D01*
X113843750Y-154150000D01*
X114756250Y-154150000D01*
X114780142Y-154151174D01*
X114780142Y-154151174D01*
G37*
D17*
X114300000Y-154637500D03*
D16*
G36*
X117161392Y-136976174D02*
G01*
X117185053Y-136979684D01*
X117208257Y-136985496D01*
X117230779Y-136993554D01*
X117252403Y-137003782D01*
X117272920Y-137016079D01*
X117292133Y-137030329D01*
X117309857Y-137046393D01*
X117325921Y-137064117D01*
X117340171Y-137083330D01*
X117352468Y-137103847D01*
X117362696Y-137125471D01*
X117370754Y-137147993D01*
X117376566Y-137171197D01*
X117380076Y-137194858D01*
X117381250Y-137218750D01*
X117381250Y-137706250D01*
X117380076Y-137730142D01*
X117376566Y-137753803D01*
X117370754Y-137777007D01*
X117362696Y-137799529D01*
X117352468Y-137821153D01*
X117340171Y-137841670D01*
X117325921Y-137860883D01*
X117309857Y-137878607D01*
X117292133Y-137894671D01*
X117272920Y-137908921D01*
X117252403Y-137921218D01*
X117230779Y-137931446D01*
X117208257Y-137939504D01*
X117185053Y-137945316D01*
X117161392Y-137948826D01*
X117137500Y-137950000D01*
X116225000Y-137950000D01*
X116201108Y-137948826D01*
X116177447Y-137945316D01*
X116154243Y-137939504D01*
X116131721Y-137931446D01*
X116110097Y-137921218D01*
X116089580Y-137908921D01*
X116070367Y-137894671D01*
X116052643Y-137878607D01*
X116036579Y-137860883D01*
X116022329Y-137841670D01*
X116010032Y-137821153D01*
X115999804Y-137799529D01*
X115991746Y-137777007D01*
X115985934Y-137753803D01*
X115982424Y-137730142D01*
X115981250Y-137706250D01*
X115981250Y-137218750D01*
X115982424Y-137194858D01*
X115985934Y-137171197D01*
X115991746Y-137147993D01*
X115999804Y-137125471D01*
X116010032Y-137103847D01*
X116022329Y-137083330D01*
X116036579Y-137064117D01*
X116052643Y-137046393D01*
X116070367Y-137030329D01*
X116089580Y-137016079D01*
X116110097Y-137003782D01*
X116131721Y-136993554D01*
X116154243Y-136985496D01*
X116177447Y-136979684D01*
X116201108Y-136976174D01*
X116225000Y-136975000D01*
X117137500Y-136975000D01*
X117161392Y-136976174D01*
X117161392Y-136976174D01*
G37*
D17*
X116681250Y-137462500D03*
D16*
G36*
X117161392Y-135101174D02*
G01*
X117185053Y-135104684D01*
X117208257Y-135110496D01*
X117230779Y-135118554D01*
X117252403Y-135128782D01*
X117272920Y-135141079D01*
X117292133Y-135155329D01*
X117309857Y-135171393D01*
X117325921Y-135189117D01*
X117340171Y-135208330D01*
X117352468Y-135228847D01*
X117362696Y-135250471D01*
X117370754Y-135272993D01*
X117376566Y-135296197D01*
X117380076Y-135319858D01*
X117381250Y-135343750D01*
X117381250Y-135831250D01*
X117380076Y-135855142D01*
X117376566Y-135878803D01*
X117370754Y-135902007D01*
X117362696Y-135924529D01*
X117352468Y-135946153D01*
X117340171Y-135966670D01*
X117325921Y-135985883D01*
X117309857Y-136003607D01*
X117292133Y-136019671D01*
X117272920Y-136033921D01*
X117252403Y-136046218D01*
X117230779Y-136056446D01*
X117208257Y-136064504D01*
X117185053Y-136070316D01*
X117161392Y-136073826D01*
X117137500Y-136075000D01*
X116225000Y-136075000D01*
X116201108Y-136073826D01*
X116177447Y-136070316D01*
X116154243Y-136064504D01*
X116131721Y-136056446D01*
X116110097Y-136046218D01*
X116089580Y-136033921D01*
X116070367Y-136019671D01*
X116052643Y-136003607D01*
X116036579Y-135985883D01*
X116022329Y-135966670D01*
X116010032Y-135946153D01*
X115999804Y-135924529D01*
X115991746Y-135902007D01*
X115985934Y-135878803D01*
X115982424Y-135855142D01*
X115981250Y-135831250D01*
X115981250Y-135343750D01*
X115982424Y-135319858D01*
X115985934Y-135296197D01*
X115991746Y-135272993D01*
X115999804Y-135250471D01*
X116010032Y-135228847D01*
X116022329Y-135208330D01*
X116036579Y-135189117D01*
X116052643Y-135171393D01*
X116070367Y-135155329D01*
X116089580Y-135141079D01*
X116110097Y-135128782D01*
X116131721Y-135118554D01*
X116154243Y-135110496D01*
X116177447Y-135104684D01*
X116201108Y-135101174D01*
X116225000Y-135100000D01*
X117137500Y-135100000D01*
X117161392Y-135101174D01*
X117161392Y-135101174D01*
G37*
D17*
X116681250Y-135587500D03*
D16*
G36*
X121567642Y-135032424D02*
G01*
X121591303Y-135035934D01*
X121614507Y-135041746D01*
X121637029Y-135049804D01*
X121658653Y-135060032D01*
X121679170Y-135072329D01*
X121698383Y-135086579D01*
X121716107Y-135102643D01*
X121732171Y-135120367D01*
X121746421Y-135139580D01*
X121758718Y-135160097D01*
X121768946Y-135181721D01*
X121777004Y-135204243D01*
X121782816Y-135227447D01*
X121786326Y-135251108D01*
X121787500Y-135275000D01*
X121787500Y-136187500D01*
X121786326Y-136211392D01*
X121782816Y-136235053D01*
X121777004Y-136258257D01*
X121768946Y-136280779D01*
X121758718Y-136302403D01*
X121746421Y-136322920D01*
X121732171Y-136342133D01*
X121716107Y-136359857D01*
X121698383Y-136375921D01*
X121679170Y-136390171D01*
X121658653Y-136402468D01*
X121637029Y-136412696D01*
X121614507Y-136420754D01*
X121591303Y-136426566D01*
X121567642Y-136430076D01*
X121543750Y-136431250D01*
X121056250Y-136431250D01*
X121032358Y-136430076D01*
X121008697Y-136426566D01*
X120985493Y-136420754D01*
X120962971Y-136412696D01*
X120941347Y-136402468D01*
X120920830Y-136390171D01*
X120901617Y-136375921D01*
X120883893Y-136359857D01*
X120867829Y-136342133D01*
X120853579Y-136322920D01*
X120841282Y-136302403D01*
X120831054Y-136280779D01*
X120822996Y-136258257D01*
X120817184Y-136235053D01*
X120813674Y-136211392D01*
X120812500Y-136187500D01*
X120812500Y-135275000D01*
X120813674Y-135251108D01*
X120817184Y-135227447D01*
X120822996Y-135204243D01*
X120831054Y-135181721D01*
X120841282Y-135160097D01*
X120853579Y-135139580D01*
X120867829Y-135120367D01*
X120883893Y-135102643D01*
X120901617Y-135086579D01*
X120920830Y-135072329D01*
X120941347Y-135060032D01*
X120962971Y-135049804D01*
X120985493Y-135041746D01*
X121008697Y-135035934D01*
X121032358Y-135032424D01*
X121056250Y-135031250D01*
X121543750Y-135031250D01*
X121567642Y-135032424D01*
X121567642Y-135032424D01*
G37*
D17*
X121300000Y-135731250D03*
D16*
G36*
X123442642Y-135032424D02*
G01*
X123466303Y-135035934D01*
X123489507Y-135041746D01*
X123512029Y-135049804D01*
X123533653Y-135060032D01*
X123554170Y-135072329D01*
X123573383Y-135086579D01*
X123591107Y-135102643D01*
X123607171Y-135120367D01*
X123621421Y-135139580D01*
X123633718Y-135160097D01*
X123643946Y-135181721D01*
X123652004Y-135204243D01*
X123657816Y-135227447D01*
X123661326Y-135251108D01*
X123662500Y-135275000D01*
X123662500Y-136187500D01*
X123661326Y-136211392D01*
X123657816Y-136235053D01*
X123652004Y-136258257D01*
X123643946Y-136280779D01*
X123633718Y-136302403D01*
X123621421Y-136322920D01*
X123607171Y-136342133D01*
X123591107Y-136359857D01*
X123573383Y-136375921D01*
X123554170Y-136390171D01*
X123533653Y-136402468D01*
X123512029Y-136412696D01*
X123489507Y-136420754D01*
X123466303Y-136426566D01*
X123442642Y-136430076D01*
X123418750Y-136431250D01*
X122931250Y-136431250D01*
X122907358Y-136430076D01*
X122883697Y-136426566D01*
X122860493Y-136420754D01*
X122837971Y-136412696D01*
X122816347Y-136402468D01*
X122795830Y-136390171D01*
X122776617Y-136375921D01*
X122758893Y-136359857D01*
X122742829Y-136342133D01*
X122728579Y-136322920D01*
X122716282Y-136302403D01*
X122706054Y-136280779D01*
X122697996Y-136258257D01*
X122692184Y-136235053D01*
X122688674Y-136211392D01*
X122687500Y-136187500D01*
X122687500Y-135275000D01*
X122688674Y-135251108D01*
X122692184Y-135227447D01*
X122697996Y-135204243D01*
X122706054Y-135181721D01*
X122716282Y-135160097D01*
X122728579Y-135139580D01*
X122742829Y-135120367D01*
X122758893Y-135102643D01*
X122776617Y-135086579D01*
X122795830Y-135072329D01*
X122816347Y-135060032D01*
X122837971Y-135049804D01*
X122860493Y-135041746D01*
X122883697Y-135035934D01*
X122907358Y-135032424D01*
X122931250Y-135031250D01*
X123418750Y-135031250D01*
X123442642Y-135032424D01*
X123442642Y-135032424D01*
G37*
D17*
X123175000Y-135731250D03*
D18*
X148570000Y-119035000D03*
D19*
X148550000Y-119325000D02*
X148590000Y-118745000D01*
D18*
X148590000Y-118745000D03*
X142895001Y-120555000D03*
D19*
X142240000Y-121285000D02*
X143550002Y-119825000D01*
D18*
X143550000Y-119825000D03*
X129520000Y-119035000D03*
D19*
X129500000Y-119325000D02*
X129540000Y-118745000D01*
D18*
X129540000Y-118745000D03*
X123845001Y-120555000D03*
D19*
X123190000Y-121285000D02*
X124500002Y-119825000D01*
D18*
X124500000Y-119825000D03*
X110470000Y-119035000D03*
D19*
X110450000Y-119325000D02*
X110490000Y-118745000D01*
D18*
X110490000Y-118745000D03*
X104795001Y-120555000D03*
D19*
X104140000Y-121285000D02*
X105450002Y-119825000D01*
D18*
X105450000Y-119825000D03*
X129520000Y-99985000D03*
D19*
X129500000Y-100275000D02*
X129540000Y-99695000D01*
D18*
X129540000Y-99695000D03*
X123845001Y-101505000D03*
D19*
X123190000Y-102235000D02*
X124500002Y-100775000D01*
D18*
X124500000Y-100775000D03*
D16*
G36*
X129968254Y-134857454D02*
G01*
X129992523Y-134861054D01*
X130016321Y-134867015D01*
X130039421Y-134875280D01*
X130061599Y-134885770D01*
X130082643Y-134898383D01*
X130102348Y-134912997D01*
X130120527Y-134929473D01*
X130137003Y-134947652D01*
X130151617Y-134967357D01*
X130164230Y-134988401D01*
X130174720Y-135010579D01*
X130182985Y-135033679D01*
X130188946Y-135057477D01*
X130192546Y-135081746D01*
X130193750Y-135106250D01*
X130193750Y-136356250D01*
X130192546Y-136380754D01*
X130188946Y-136405023D01*
X130182985Y-136428821D01*
X130174720Y-136451921D01*
X130164230Y-136474099D01*
X130151617Y-136495143D01*
X130137003Y-136514848D01*
X130120527Y-136533027D01*
X130102348Y-136549503D01*
X130082643Y-136564117D01*
X130061599Y-136576730D01*
X130039421Y-136587220D01*
X130016321Y-136595485D01*
X129992523Y-136601446D01*
X129968254Y-136605046D01*
X129943750Y-136606250D01*
X129193750Y-136606250D01*
X129169246Y-136605046D01*
X129144977Y-136601446D01*
X129121179Y-136595485D01*
X129098079Y-136587220D01*
X129075901Y-136576730D01*
X129054857Y-136564117D01*
X129035152Y-136549503D01*
X129016973Y-136533027D01*
X129000497Y-136514848D01*
X128985883Y-136495143D01*
X128973270Y-136474099D01*
X128962780Y-136451921D01*
X128954515Y-136428821D01*
X128948554Y-136405023D01*
X128944954Y-136380754D01*
X128943750Y-136356250D01*
X128943750Y-135106250D01*
X128944954Y-135081746D01*
X128948554Y-135057477D01*
X128954515Y-135033679D01*
X128962780Y-135010579D01*
X128973270Y-134988401D01*
X128985883Y-134967357D01*
X129000497Y-134947652D01*
X129016973Y-134929473D01*
X129035152Y-134912997D01*
X129054857Y-134898383D01*
X129075901Y-134885770D01*
X129098079Y-134875280D01*
X129121179Y-134867015D01*
X129144977Y-134861054D01*
X129169246Y-134857454D01*
X129193750Y-134856250D01*
X129943750Y-134856250D01*
X129968254Y-134857454D01*
X129968254Y-134857454D01*
G37*
D20*
X129568750Y-135731250D03*
D16*
G36*
X132768254Y-134857454D02*
G01*
X132792523Y-134861054D01*
X132816321Y-134867015D01*
X132839421Y-134875280D01*
X132861599Y-134885770D01*
X132882643Y-134898383D01*
X132902348Y-134912997D01*
X132920527Y-134929473D01*
X132937003Y-134947652D01*
X132951617Y-134967357D01*
X132964230Y-134988401D01*
X132974720Y-135010579D01*
X132982985Y-135033679D01*
X132988946Y-135057477D01*
X132992546Y-135081746D01*
X132993750Y-135106250D01*
X132993750Y-136356250D01*
X132992546Y-136380754D01*
X132988946Y-136405023D01*
X132982985Y-136428821D01*
X132974720Y-136451921D01*
X132964230Y-136474099D01*
X132951617Y-136495143D01*
X132937003Y-136514848D01*
X132920527Y-136533027D01*
X132902348Y-136549503D01*
X132882643Y-136564117D01*
X132861599Y-136576730D01*
X132839421Y-136587220D01*
X132816321Y-136595485D01*
X132792523Y-136601446D01*
X132768254Y-136605046D01*
X132743750Y-136606250D01*
X131993750Y-136606250D01*
X131969246Y-136605046D01*
X131944977Y-136601446D01*
X131921179Y-136595485D01*
X131898079Y-136587220D01*
X131875901Y-136576730D01*
X131854857Y-136564117D01*
X131835152Y-136549503D01*
X131816973Y-136533027D01*
X131800497Y-136514848D01*
X131785883Y-136495143D01*
X131773270Y-136474099D01*
X131762780Y-136451921D01*
X131754515Y-136428821D01*
X131748554Y-136405023D01*
X131744954Y-136380754D01*
X131743750Y-136356250D01*
X131743750Y-135106250D01*
X131744954Y-135081746D01*
X131748554Y-135057477D01*
X131754515Y-135033679D01*
X131762780Y-135010579D01*
X131773270Y-134988401D01*
X131785883Y-134967357D01*
X131800497Y-134947652D01*
X131816973Y-134929473D01*
X131835152Y-134912997D01*
X131854857Y-134898383D01*
X131875901Y-134885770D01*
X131898079Y-134875280D01*
X131921179Y-134867015D01*
X131944977Y-134861054D01*
X131969246Y-134857454D01*
X131993750Y-134856250D01*
X132743750Y-134856250D01*
X132768254Y-134857454D01*
X132768254Y-134857454D01*
G37*
D20*
X132368750Y-135731250D03*
D21*
X153987500Y-125475000D03*
X153987500Y-122175000D03*
X134937500Y-122175000D03*
X134937500Y-125475000D03*
X115887500Y-125475000D03*
X115887500Y-122175000D03*
X134937500Y-106425000D03*
X134937500Y-103125000D03*
D16*
G36*
X114780142Y-141451174D02*
G01*
X114803803Y-141454684D01*
X114827007Y-141460496D01*
X114849529Y-141468554D01*
X114871153Y-141478782D01*
X114891670Y-141491079D01*
X114910883Y-141505329D01*
X114928607Y-141521393D01*
X114944671Y-141539117D01*
X114958921Y-141558330D01*
X114971218Y-141578847D01*
X114981446Y-141600471D01*
X114989504Y-141622993D01*
X114995316Y-141646197D01*
X114998826Y-141669858D01*
X115000000Y-141693750D01*
X115000000Y-142181250D01*
X114998826Y-142205142D01*
X114995316Y-142228803D01*
X114989504Y-142252007D01*
X114981446Y-142274529D01*
X114971218Y-142296153D01*
X114958921Y-142316670D01*
X114944671Y-142335883D01*
X114928607Y-142353607D01*
X114910883Y-142369671D01*
X114891670Y-142383921D01*
X114871153Y-142396218D01*
X114849529Y-142406446D01*
X114827007Y-142414504D01*
X114803803Y-142420316D01*
X114780142Y-142423826D01*
X114756250Y-142425000D01*
X113843750Y-142425000D01*
X113819858Y-142423826D01*
X113796197Y-142420316D01*
X113772993Y-142414504D01*
X113750471Y-142406446D01*
X113728847Y-142396218D01*
X113708330Y-142383921D01*
X113689117Y-142369671D01*
X113671393Y-142353607D01*
X113655329Y-142335883D01*
X113641079Y-142316670D01*
X113628782Y-142296153D01*
X113618554Y-142274529D01*
X113610496Y-142252007D01*
X113604684Y-142228803D01*
X113601174Y-142205142D01*
X113600000Y-142181250D01*
X113600000Y-141693750D01*
X113601174Y-141669858D01*
X113604684Y-141646197D01*
X113610496Y-141622993D01*
X113618554Y-141600471D01*
X113628782Y-141578847D01*
X113641079Y-141558330D01*
X113655329Y-141539117D01*
X113671393Y-141521393D01*
X113689117Y-141505329D01*
X113708330Y-141491079D01*
X113728847Y-141478782D01*
X113750471Y-141468554D01*
X113772993Y-141460496D01*
X113796197Y-141454684D01*
X113819858Y-141451174D01*
X113843750Y-141450000D01*
X114756250Y-141450000D01*
X114780142Y-141451174D01*
X114780142Y-141451174D01*
G37*
D17*
X114300000Y-141937500D03*
D16*
G36*
X114780142Y-143326174D02*
G01*
X114803803Y-143329684D01*
X114827007Y-143335496D01*
X114849529Y-143343554D01*
X114871153Y-143353782D01*
X114891670Y-143366079D01*
X114910883Y-143380329D01*
X114928607Y-143396393D01*
X114944671Y-143414117D01*
X114958921Y-143433330D01*
X114971218Y-143453847D01*
X114981446Y-143475471D01*
X114989504Y-143497993D01*
X114995316Y-143521197D01*
X114998826Y-143544858D01*
X115000000Y-143568750D01*
X115000000Y-144056250D01*
X114998826Y-144080142D01*
X114995316Y-144103803D01*
X114989504Y-144127007D01*
X114981446Y-144149529D01*
X114971218Y-144171153D01*
X114958921Y-144191670D01*
X114944671Y-144210883D01*
X114928607Y-144228607D01*
X114910883Y-144244671D01*
X114891670Y-144258921D01*
X114871153Y-144271218D01*
X114849529Y-144281446D01*
X114827007Y-144289504D01*
X114803803Y-144295316D01*
X114780142Y-144298826D01*
X114756250Y-144300000D01*
X113843750Y-144300000D01*
X113819858Y-144298826D01*
X113796197Y-144295316D01*
X113772993Y-144289504D01*
X113750471Y-144281446D01*
X113728847Y-144271218D01*
X113708330Y-144258921D01*
X113689117Y-144244671D01*
X113671393Y-144228607D01*
X113655329Y-144210883D01*
X113641079Y-144191670D01*
X113628782Y-144171153D01*
X113618554Y-144149529D01*
X113610496Y-144127007D01*
X113604684Y-144103803D01*
X113601174Y-144080142D01*
X113600000Y-144056250D01*
X113600000Y-143568750D01*
X113601174Y-143544858D01*
X113604684Y-143521197D01*
X113610496Y-143497993D01*
X113618554Y-143475471D01*
X113628782Y-143453847D01*
X113641079Y-143433330D01*
X113655329Y-143414117D01*
X113671393Y-143396393D01*
X113689117Y-143380329D01*
X113708330Y-143366079D01*
X113728847Y-143353782D01*
X113750471Y-143343554D01*
X113772993Y-143335496D01*
X113796197Y-143329684D01*
X113819858Y-143326174D01*
X113843750Y-143325000D01*
X114756250Y-143325000D01*
X114780142Y-143326174D01*
X114780142Y-143326174D01*
G37*
D17*
X114300000Y-143812500D03*
D16*
G36*
X133036392Y-156026174D02*
G01*
X133060053Y-156029684D01*
X133083257Y-156035496D01*
X133105779Y-156043554D01*
X133127403Y-156053782D01*
X133147920Y-156066079D01*
X133167133Y-156080329D01*
X133184857Y-156096393D01*
X133200921Y-156114117D01*
X133215171Y-156133330D01*
X133227468Y-156153847D01*
X133237696Y-156175471D01*
X133245754Y-156197993D01*
X133251566Y-156221197D01*
X133255076Y-156244858D01*
X133256250Y-156268750D01*
X133256250Y-156756250D01*
X133255076Y-156780142D01*
X133251566Y-156803803D01*
X133245754Y-156827007D01*
X133237696Y-156849529D01*
X133227468Y-156871153D01*
X133215171Y-156891670D01*
X133200921Y-156910883D01*
X133184857Y-156928607D01*
X133167133Y-156944671D01*
X133147920Y-156958921D01*
X133127403Y-156971218D01*
X133105779Y-156981446D01*
X133083257Y-156989504D01*
X133060053Y-156995316D01*
X133036392Y-156998826D01*
X133012500Y-157000000D01*
X132100000Y-157000000D01*
X132076108Y-156998826D01*
X132052447Y-156995316D01*
X132029243Y-156989504D01*
X132006721Y-156981446D01*
X131985097Y-156971218D01*
X131964580Y-156958921D01*
X131945367Y-156944671D01*
X131927643Y-156928607D01*
X131911579Y-156910883D01*
X131897329Y-156891670D01*
X131885032Y-156871153D01*
X131874804Y-156849529D01*
X131866746Y-156827007D01*
X131860934Y-156803803D01*
X131857424Y-156780142D01*
X131856250Y-156756250D01*
X131856250Y-156268750D01*
X131857424Y-156244858D01*
X131860934Y-156221197D01*
X131866746Y-156197993D01*
X131874804Y-156175471D01*
X131885032Y-156153847D01*
X131897329Y-156133330D01*
X131911579Y-156114117D01*
X131927643Y-156096393D01*
X131945367Y-156080329D01*
X131964580Y-156066079D01*
X131985097Y-156053782D01*
X132006721Y-156043554D01*
X132029243Y-156035496D01*
X132052447Y-156029684D01*
X132076108Y-156026174D01*
X132100000Y-156025000D01*
X133012500Y-156025000D01*
X133036392Y-156026174D01*
X133036392Y-156026174D01*
G37*
D17*
X132556250Y-156512500D03*
D16*
G36*
X133036392Y-154151174D02*
G01*
X133060053Y-154154684D01*
X133083257Y-154160496D01*
X133105779Y-154168554D01*
X133127403Y-154178782D01*
X133147920Y-154191079D01*
X133167133Y-154205329D01*
X133184857Y-154221393D01*
X133200921Y-154239117D01*
X133215171Y-154258330D01*
X133227468Y-154278847D01*
X133237696Y-154300471D01*
X133245754Y-154322993D01*
X133251566Y-154346197D01*
X133255076Y-154369858D01*
X133256250Y-154393750D01*
X133256250Y-154881250D01*
X133255076Y-154905142D01*
X133251566Y-154928803D01*
X133245754Y-154952007D01*
X133237696Y-154974529D01*
X133227468Y-154996153D01*
X133215171Y-155016670D01*
X133200921Y-155035883D01*
X133184857Y-155053607D01*
X133167133Y-155069671D01*
X133147920Y-155083921D01*
X133127403Y-155096218D01*
X133105779Y-155106446D01*
X133083257Y-155114504D01*
X133060053Y-155120316D01*
X133036392Y-155123826D01*
X133012500Y-155125000D01*
X132100000Y-155125000D01*
X132076108Y-155123826D01*
X132052447Y-155120316D01*
X132029243Y-155114504D01*
X132006721Y-155106446D01*
X131985097Y-155096218D01*
X131964580Y-155083921D01*
X131945367Y-155069671D01*
X131927643Y-155053607D01*
X131911579Y-155035883D01*
X131897329Y-155016670D01*
X131885032Y-154996153D01*
X131874804Y-154974529D01*
X131866746Y-154952007D01*
X131860934Y-154928803D01*
X131857424Y-154905142D01*
X131856250Y-154881250D01*
X131856250Y-154393750D01*
X131857424Y-154369858D01*
X131860934Y-154346197D01*
X131866746Y-154322993D01*
X131874804Y-154300471D01*
X131885032Y-154278847D01*
X131897329Y-154258330D01*
X131911579Y-154239117D01*
X131927643Y-154221393D01*
X131945367Y-154205329D01*
X131964580Y-154191079D01*
X131985097Y-154178782D01*
X132006721Y-154168554D01*
X132029243Y-154160496D01*
X132052447Y-154154684D01*
X132076108Y-154151174D01*
X132100000Y-154150000D01*
X133012500Y-154150000D01*
X133036392Y-154151174D01*
X133036392Y-154151174D01*
G37*
D17*
X132556250Y-154637500D03*
D16*
G36*
X121923892Y-154151174D02*
G01*
X121947553Y-154154684D01*
X121970757Y-154160496D01*
X121993279Y-154168554D01*
X122014903Y-154178782D01*
X122035420Y-154191079D01*
X122054633Y-154205329D01*
X122072357Y-154221393D01*
X122088421Y-154239117D01*
X122102671Y-154258330D01*
X122114968Y-154278847D01*
X122125196Y-154300471D01*
X122133254Y-154322993D01*
X122139066Y-154346197D01*
X122142576Y-154369858D01*
X122143750Y-154393750D01*
X122143750Y-154881250D01*
X122142576Y-154905142D01*
X122139066Y-154928803D01*
X122133254Y-154952007D01*
X122125196Y-154974529D01*
X122114968Y-154996153D01*
X122102671Y-155016670D01*
X122088421Y-155035883D01*
X122072357Y-155053607D01*
X122054633Y-155069671D01*
X122035420Y-155083921D01*
X122014903Y-155096218D01*
X121993279Y-155106446D01*
X121970757Y-155114504D01*
X121947553Y-155120316D01*
X121923892Y-155123826D01*
X121900000Y-155125000D01*
X120987500Y-155125000D01*
X120963608Y-155123826D01*
X120939947Y-155120316D01*
X120916743Y-155114504D01*
X120894221Y-155106446D01*
X120872597Y-155096218D01*
X120852080Y-155083921D01*
X120832867Y-155069671D01*
X120815143Y-155053607D01*
X120799079Y-155035883D01*
X120784829Y-155016670D01*
X120772532Y-154996153D01*
X120762304Y-154974529D01*
X120754246Y-154952007D01*
X120748434Y-154928803D01*
X120744924Y-154905142D01*
X120743750Y-154881250D01*
X120743750Y-154393750D01*
X120744924Y-154369858D01*
X120748434Y-154346197D01*
X120754246Y-154322993D01*
X120762304Y-154300471D01*
X120772532Y-154278847D01*
X120784829Y-154258330D01*
X120799079Y-154239117D01*
X120815143Y-154221393D01*
X120832867Y-154205329D01*
X120852080Y-154191079D01*
X120872597Y-154178782D01*
X120894221Y-154168554D01*
X120916743Y-154160496D01*
X120939947Y-154154684D01*
X120963608Y-154151174D01*
X120987500Y-154150000D01*
X121900000Y-154150000D01*
X121923892Y-154151174D01*
X121923892Y-154151174D01*
G37*
D17*
X121443750Y-154637500D03*
D16*
G36*
X121923892Y-156026174D02*
G01*
X121947553Y-156029684D01*
X121970757Y-156035496D01*
X121993279Y-156043554D01*
X122014903Y-156053782D01*
X122035420Y-156066079D01*
X122054633Y-156080329D01*
X122072357Y-156096393D01*
X122088421Y-156114117D01*
X122102671Y-156133330D01*
X122114968Y-156153847D01*
X122125196Y-156175471D01*
X122133254Y-156197993D01*
X122139066Y-156221197D01*
X122142576Y-156244858D01*
X122143750Y-156268750D01*
X122143750Y-156756250D01*
X122142576Y-156780142D01*
X122139066Y-156803803D01*
X122133254Y-156827007D01*
X122125196Y-156849529D01*
X122114968Y-156871153D01*
X122102671Y-156891670D01*
X122088421Y-156910883D01*
X122072357Y-156928607D01*
X122054633Y-156944671D01*
X122035420Y-156958921D01*
X122014903Y-156971218D01*
X121993279Y-156981446D01*
X121970757Y-156989504D01*
X121947553Y-156995316D01*
X121923892Y-156998826D01*
X121900000Y-157000000D01*
X120987500Y-157000000D01*
X120963608Y-156998826D01*
X120939947Y-156995316D01*
X120916743Y-156989504D01*
X120894221Y-156981446D01*
X120872597Y-156971218D01*
X120852080Y-156958921D01*
X120832867Y-156944671D01*
X120815143Y-156928607D01*
X120799079Y-156910883D01*
X120784829Y-156891670D01*
X120772532Y-156871153D01*
X120762304Y-156849529D01*
X120754246Y-156827007D01*
X120748434Y-156803803D01*
X120744924Y-156780142D01*
X120743750Y-156756250D01*
X120743750Y-156268750D01*
X120744924Y-156244858D01*
X120748434Y-156221197D01*
X120754246Y-156197993D01*
X120762304Y-156175471D01*
X120772532Y-156153847D01*
X120784829Y-156133330D01*
X120799079Y-156114117D01*
X120815143Y-156096393D01*
X120832867Y-156080329D01*
X120852080Y-156066079D01*
X120872597Y-156053782D01*
X120894221Y-156043554D01*
X120916743Y-156035496D01*
X120939947Y-156029684D01*
X120963608Y-156026174D01*
X120987500Y-156025000D01*
X121900000Y-156025000D01*
X121923892Y-156026174D01*
X121923892Y-156026174D01*
G37*
D17*
X121443750Y-156512500D03*
D16*
G36*
X140180142Y-144913674D02*
G01*
X140203803Y-144917184D01*
X140227007Y-144922996D01*
X140249529Y-144931054D01*
X140271153Y-144941282D01*
X140291670Y-144953579D01*
X140310883Y-144967829D01*
X140328607Y-144983893D01*
X140344671Y-145001617D01*
X140358921Y-145020830D01*
X140371218Y-145041347D01*
X140381446Y-145062971D01*
X140389504Y-145085493D01*
X140395316Y-145108697D01*
X140398826Y-145132358D01*
X140400000Y-145156250D01*
X140400000Y-145643750D01*
X140398826Y-145667642D01*
X140395316Y-145691303D01*
X140389504Y-145714507D01*
X140381446Y-145737029D01*
X140371218Y-145758653D01*
X140358921Y-145779170D01*
X140344671Y-145798383D01*
X140328607Y-145816107D01*
X140310883Y-145832171D01*
X140291670Y-145846421D01*
X140271153Y-145858718D01*
X140249529Y-145868946D01*
X140227007Y-145877004D01*
X140203803Y-145882816D01*
X140180142Y-145886326D01*
X140156250Y-145887500D01*
X139243750Y-145887500D01*
X139219858Y-145886326D01*
X139196197Y-145882816D01*
X139172993Y-145877004D01*
X139150471Y-145868946D01*
X139128847Y-145858718D01*
X139108330Y-145846421D01*
X139089117Y-145832171D01*
X139071393Y-145816107D01*
X139055329Y-145798383D01*
X139041079Y-145779170D01*
X139028782Y-145758653D01*
X139018554Y-145737029D01*
X139010496Y-145714507D01*
X139004684Y-145691303D01*
X139001174Y-145667642D01*
X139000000Y-145643750D01*
X139000000Y-145156250D01*
X139001174Y-145132358D01*
X139004684Y-145108697D01*
X139010496Y-145085493D01*
X139018554Y-145062971D01*
X139028782Y-145041347D01*
X139041079Y-145020830D01*
X139055329Y-145001617D01*
X139071393Y-144983893D01*
X139089117Y-144967829D01*
X139108330Y-144953579D01*
X139128847Y-144941282D01*
X139150471Y-144931054D01*
X139172993Y-144922996D01*
X139196197Y-144917184D01*
X139219858Y-144913674D01*
X139243750Y-144912500D01*
X140156250Y-144912500D01*
X140180142Y-144913674D01*
X140180142Y-144913674D01*
G37*
D17*
X139700000Y-145400000D03*
D16*
G36*
X140180142Y-143038674D02*
G01*
X140203803Y-143042184D01*
X140227007Y-143047996D01*
X140249529Y-143056054D01*
X140271153Y-143066282D01*
X140291670Y-143078579D01*
X140310883Y-143092829D01*
X140328607Y-143108893D01*
X140344671Y-143126617D01*
X140358921Y-143145830D01*
X140371218Y-143166347D01*
X140381446Y-143187971D01*
X140389504Y-143210493D01*
X140395316Y-143233697D01*
X140398826Y-143257358D01*
X140400000Y-143281250D01*
X140400000Y-143768750D01*
X140398826Y-143792642D01*
X140395316Y-143816303D01*
X140389504Y-143839507D01*
X140381446Y-143862029D01*
X140371218Y-143883653D01*
X140358921Y-143904170D01*
X140344671Y-143923383D01*
X140328607Y-143941107D01*
X140310883Y-143957171D01*
X140291670Y-143971421D01*
X140271153Y-143983718D01*
X140249529Y-143993946D01*
X140227007Y-144002004D01*
X140203803Y-144007816D01*
X140180142Y-144011326D01*
X140156250Y-144012500D01*
X139243750Y-144012500D01*
X139219858Y-144011326D01*
X139196197Y-144007816D01*
X139172993Y-144002004D01*
X139150471Y-143993946D01*
X139128847Y-143983718D01*
X139108330Y-143971421D01*
X139089117Y-143957171D01*
X139071393Y-143941107D01*
X139055329Y-143923383D01*
X139041079Y-143904170D01*
X139028782Y-143883653D01*
X139018554Y-143862029D01*
X139010496Y-143839507D01*
X139004684Y-143816303D01*
X139001174Y-143792642D01*
X139000000Y-143768750D01*
X139000000Y-143281250D01*
X139001174Y-143257358D01*
X139004684Y-143233697D01*
X139010496Y-143210493D01*
X139018554Y-143187971D01*
X139028782Y-143166347D01*
X139041079Y-143145830D01*
X139055329Y-143126617D01*
X139071393Y-143108893D01*
X139089117Y-143092829D01*
X139108330Y-143078579D01*
X139128847Y-143066282D01*
X139150471Y-143056054D01*
X139172993Y-143047996D01*
X139196197Y-143042184D01*
X139219858Y-143038674D01*
X139243750Y-143037500D01*
X140156250Y-143037500D01*
X140180142Y-143038674D01*
X140180142Y-143038674D01*
G37*
D17*
X139700000Y-143525000D03*
D16*
G36*
X114780142Y-147801174D02*
G01*
X114803803Y-147804684D01*
X114827007Y-147810496D01*
X114849529Y-147818554D01*
X114871153Y-147828782D01*
X114891670Y-147841079D01*
X114910883Y-147855329D01*
X114928607Y-147871393D01*
X114944671Y-147889117D01*
X114958921Y-147908330D01*
X114971218Y-147928847D01*
X114981446Y-147950471D01*
X114989504Y-147972993D01*
X114995316Y-147996197D01*
X114998826Y-148019858D01*
X115000000Y-148043750D01*
X115000000Y-148531250D01*
X114998826Y-148555142D01*
X114995316Y-148578803D01*
X114989504Y-148602007D01*
X114981446Y-148624529D01*
X114971218Y-148646153D01*
X114958921Y-148666670D01*
X114944671Y-148685883D01*
X114928607Y-148703607D01*
X114910883Y-148719671D01*
X114891670Y-148733921D01*
X114871153Y-148746218D01*
X114849529Y-148756446D01*
X114827007Y-148764504D01*
X114803803Y-148770316D01*
X114780142Y-148773826D01*
X114756250Y-148775000D01*
X113843750Y-148775000D01*
X113819858Y-148773826D01*
X113796197Y-148770316D01*
X113772993Y-148764504D01*
X113750471Y-148756446D01*
X113728847Y-148746218D01*
X113708330Y-148733921D01*
X113689117Y-148719671D01*
X113671393Y-148703607D01*
X113655329Y-148685883D01*
X113641079Y-148666670D01*
X113628782Y-148646153D01*
X113618554Y-148624529D01*
X113610496Y-148602007D01*
X113604684Y-148578803D01*
X113601174Y-148555142D01*
X113600000Y-148531250D01*
X113600000Y-148043750D01*
X113601174Y-148019858D01*
X113604684Y-147996197D01*
X113610496Y-147972993D01*
X113618554Y-147950471D01*
X113628782Y-147928847D01*
X113641079Y-147908330D01*
X113655329Y-147889117D01*
X113671393Y-147871393D01*
X113689117Y-147855329D01*
X113708330Y-147841079D01*
X113728847Y-147828782D01*
X113750471Y-147818554D01*
X113772993Y-147810496D01*
X113796197Y-147804684D01*
X113819858Y-147801174D01*
X113843750Y-147800000D01*
X114756250Y-147800000D01*
X114780142Y-147801174D01*
X114780142Y-147801174D01*
G37*
D17*
X114300000Y-148287500D03*
D16*
G36*
X114780142Y-149676174D02*
G01*
X114803803Y-149679684D01*
X114827007Y-149685496D01*
X114849529Y-149693554D01*
X114871153Y-149703782D01*
X114891670Y-149716079D01*
X114910883Y-149730329D01*
X114928607Y-149746393D01*
X114944671Y-149764117D01*
X114958921Y-149783330D01*
X114971218Y-149803847D01*
X114981446Y-149825471D01*
X114989504Y-149847993D01*
X114995316Y-149871197D01*
X114998826Y-149894858D01*
X115000000Y-149918750D01*
X115000000Y-150406250D01*
X114998826Y-150430142D01*
X114995316Y-150453803D01*
X114989504Y-150477007D01*
X114981446Y-150499529D01*
X114971218Y-150521153D01*
X114958921Y-150541670D01*
X114944671Y-150560883D01*
X114928607Y-150578607D01*
X114910883Y-150594671D01*
X114891670Y-150608921D01*
X114871153Y-150621218D01*
X114849529Y-150631446D01*
X114827007Y-150639504D01*
X114803803Y-150645316D01*
X114780142Y-150648826D01*
X114756250Y-150650000D01*
X113843750Y-150650000D01*
X113819858Y-150648826D01*
X113796197Y-150645316D01*
X113772993Y-150639504D01*
X113750471Y-150631446D01*
X113728847Y-150621218D01*
X113708330Y-150608921D01*
X113689117Y-150594671D01*
X113671393Y-150578607D01*
X113655329Y-150560883D01*
X113641079Y-150541670D01*
X113628782Y-150521153D01*
X113618554Y-150499529D01*
X113610496Y-150477007D01*
X113604684Y-150453803D01*
X113601174Y-150430142D01*
X113600000Y-150406250D01*
X113600000Y-149918750D01*
X113601174Y-149894858D01*
X113604684Y-149871197D01*
X113610496Y-149847993D01*
X113618554Y-149825471D01*
X113628782Y-149803847D01*
X113641079Y-149783330D01*
X113655329Y-149764117D01*
X113671393Y-149746393D01*
X113689117Y-149730329D01*
X113708330Y-149716079D01*
X113728847Y-149703782D01*
X113750471Y-149693554D01*
X113772993Y-149685496D01*
X113796197Y-149679684D01*
X113819858Y-149676174D01*
X113843750Y-149675000D01*
X114756250Y-149675000D01*
X114780142Y-149676174D01*
X114780142Y-149676174D01*
G37*
D17*
X114300000Y-150162500D03*
D16*
G36*
X140180142Y-149388674D02*
G01*
X140203803Y-149392184D01*
X140227007Y-149397996D01*
X140249529Y-149406054D01*
X140271153Y-149416282D01*
X140291670Y-149428579D01*
X140310883Y-149442829D01*
X140328607Y-149458893D01*
X140344671Y-149476617D01*
X140358921Y-149495830D01*
X140371218Y-149516347D01*
X140381446Y-149537971D01*
X140389504Y-149560493D01*
X140395316Y-149583697D01*
X140398826Y-149607358D01*
X140400000Y-149631250D01*
X140400000Y-150118750D01*
X140398826Y-150142642D01*
X140395316Y-150166303D01*
X140389504Y-150189507D01*
X140381446Y-150212029D01*
X140371218Y-150233653D01*
X140358921Y-150254170D01*
X140344671Y-150273383D01*
X140328607Y-150291107D01*
X140310883Y-150307171D01*
X140291670Y-150321421D01*
X140271153Y-150333718D01*
X140249529Y-150343946D01*
X140227007Y-150352004D01*
X140203803Y-150357816D01*
X140180142Y-150361326D01*
X140156250Y-150362500D01*
X139243750Y-150362500D01*
X139219858Y-150361326D01*
X139196197Y-150357816D01*
X139172993Y-150352004D01*
X139150471Y-150343946D01*
X139128847Y-150333718D01*
X139108330Y-150321421D01*
X139089117Y-150307171D01*
X139071393Y-150291107D01*
X139055329Y-150273383D01*
X139041079Y-150254170D01*
X139028782Y-150233653D01*
X139018554Y-150212029D01*
X139010496Y-150189507D01*
X139004684Y-150166303D01*
X139001174Y-150142642D01*
X139000000Y-150118750D01*
X139000000Y-149631250D01*
X139001174Y-149607358D01*
X139004684Y-149583697D01*
X139010496Y-149560493D01*
X139018554Y-149537971D01*
X139028782Y-149516347D01*
X139041079Y-149495830D01*
X139055329Y-149476617D01*
X139071393Y-149458893D01*
X139089117Y-149442829D01*
X139108330Y-149428579D01*
X139128847Y-149416282D01*
X139150471Y-149406054D01*
X139172993Y-149397996D01*
X139196197Y-149392184D01*
X139219858Y-149388674D01*
X139243750Y-149387500D01*
X140156250Y-149387500D01*
X140180142Y-149388674D01*
X140180142Y-149388674D01*
G37*
D17*
X139700000Y-149875000D03*
D16*
G36*
X140180142Y-151263674D02*
G01*
X140203803Y-151267184D01*
X140227007Y-151272996D01*
X140249529Y-151281054D01*
X140271153Y-151291282D01*
X140291670Y-151303579D01*
X140310883Y-151317829D01*
X140328607Y-151333893D01*
X140344671Y-151351617D01*
X140358921Y-151370830D01*
X140371218Y-151391347D01*
X140381446Y-151412971D01*
X140389504Y-151435493D01*
X140395316Y-151458697D01*
X140398826Y-151482358D01*
X140400000Y-151506250D01*
X140400000Y-151993750D01*
X140398826Y-152017642D01*
X140395316Y-152041303D01*
X140389504Y-152064507D01*
X140381446Y-152087029D01*
X140371218Y-152108653D01*
X140358921Y-152129170D01*
X140344671Y-152148383D01*
X140328607Y-152166107D01*
X140310883Y-152182171D01*
X140291670Y-152196421D01*
X140271153Y-152208718D01*
X140249529Y-152218946D01*
X140227007Y-152227004D01*
X140203803Y-152232816D01*
X140180142Y-152236326D01*
X140156250Y-152237500D01*
X139243750Y-152237500D01*
X139219858Y-152236326D01*
X139196197Y-152232816D01*
X139172993Y-152227004D01*
X139150471Y-152218946D01*
X139128847Y-152208718D01*
X139108330Y-152196421D01*
X139089117Y-152182171D01*
X139071393Y-152166107D01*
X139055329Y-152148383D01*
X139041079Y-152129170D01*
X139028782Y-152108653D01*
X139018554Y-152087029D01*
X139010496Y-152064507D01*
X139004684Y-152041303D01*
X139001174Y-152017642D01*
X139000000Y-151993750D01*
X139000000Y-151506250D01*
X139001174Y-151482358D01*
X139004684Y-151458697D01*
X139010496Y-151435493D01*
X139018554Y-151412971D01*
X139028782Y-151391347D01*
X139041079Y-151370830D01*
X139055329Y-151351617D01*
X139071393Y-151333893D01*
X139089117Y-151317829D01*
X139108330Y-151303579D01*
X139128847Y-151291282D01*
X139150471Y-151281054D01*
X139172993Y-151272996D01*
X139196197Y-151267184D01*
X139219858Y-151263674D01*
X139243750Y-151262500D01*
X140156250Y-151262500D01*
X140180142Y-151263674D01*
X140180142Y-151263674D01*
G37*
D17*
X139700000Y-151750000D03*
D16*
G36*
X111605142Y-136976174D02*
G01*
X111628803Y-136979684D01*
X111652007Y-136985496D01*
X111674529Y-136993554D01*
X111696153Y-137003782D01*
X111716670Y-137016079D01*
X111735883Y-137030329D01*
X111753607Y-137046393D01*
X111769671Y-137064117D01*
X111783921Y-137083330D01*
X111796218Y-137103847D01*
X111806446Y-137125471D01*
X111814504Y-137147993D01*
X111820316Y-137171197D01*
X111823826Y-137194858D01*
X111825000Y-137218750D01*
X111825000Y-137706250D01*
X111823826Y-137730142D01*
X111820316Y-137753803D01*
X111814504Y-137777007D01*
X111806446Y-137799529D01*
X111796218Y-137821153D01*
X111783921Y-137841670D01*
X111769671Y-137860883D01*
X111753607Y-137878607D01*
X111735883Y-137894671D01*
X111716670Y-137908921D01*
X111696153Y-137921218D01*
X111674529Y-137931446D01*
X111652007Y-137939504D01*
X111628803Y-137945316D01*
X111605142Y-137948826D01*
X111581250Y-137950000D01*
X110668750Y-137950000D01*
X110644858Y-137948826D01*
X110621197Y-137945316D01*
X110597993Y-137939504D01*
X110575471Y-137931446D01*
X110553847Y-137921218D01*
X110533330Y-137908921D01*
X110514117Y-137894671D01*
X110496393Y-137878607D01*
X110480329Y-137860883D01*
X110466079Y-137841670D01*
X110453782Y-137821153D01*
X110443554Y-137799529D01*
X110435496Y-137777007D01*
X110429684Y-137753803D01*
X110426174Y-137730142D01*
X110425000Y-137706250D01*
X110425000Y-137218750D01*
X110426174Y-137194858D01*
X110429684Y-137171197D01*
X110435496Y-137147993D01*
X110443554Y-137125471D01*
X110453782Y-137103847D01*
X110466079Y-137083330D01*
X110480329Y-137064117D01*
X110496393Y-137046393D01*
X110514117Y-137030329D01*
X110533330Y-137016079D01*
X110553847Y-137003782D01*
X110575471Y-136993554D01*
X110597993Y-136985496D01*
X110621197Y-136979684D01*
X110644858Y-136976174D01*
X110668750Y-136975000D01*
X111581250Y-136975000D01*
X111605142Y-136976174D01*
X111605142Y-136976174D01*
G37*
D17*
X111125000Y-137462500D03*
D16*
G36*
X111605142Y-135101174D02*
G01*
X111628803Y-135104684D01*
X111652007Y-135110496D01*
X111674529Y-135118554D01*
X111696153Y-135128782D01*
X111716670Y-135141079D01*
X111735883Y-135155329D01*
X111753607Y-135171393D01*
X111769671Y-135189117D01*
X111783921Y-135208330D01*
X111796218Y-135228847D01*
X111806446Y-135250471D01*
X111814504Y-135272993D01*
X111820316Y-135296197D01*
X111823826Y-135319858D01*
X111825000Y-135343750D01*
X111825000Y-135831250D01*
X111823826Y-135855142D01*
X111820316Y-135878803D01*
X111814504Y-135902007D01*
X111806446Y-135924529D01*
X111796218Y-135946153D01*
X111783921Y-135966670D01*
X111769671Y-135985883D01*
X111753607Y-136003607D01*
X111735883Y-136019671D01*
X111716670Y-136033921D01*
X111696153Y-136046218D01*
X111674529Y-136056446D01*
X111652007Y-136064504D01*
X111628803Y-136070316D01*
X111605142Y-136073826D01*
X111581250Y-136075000D01*
X110668750Y-136075000D01*
X110644858Y-136073826D01*
X110621197Y-136070316D01*
X110597993Y-136064504D01*
X110575471Y-136056446D01*
X110553847Y-136046218D01*
X110533330Y-136033921D01*
X110514117Y-136019671D01*
X110496393Y-136003607D01*
X110480329Y-135985883D01*
X110466079Y-135966670D01*
X110453782Y-135946153D01*
X110443554Y-135924529D01*
X110435496Y-135902007D01*
X110429684Y-135878803D01*
X110426174Y-135855142D01*
X110425000Y-135831250D01*
X110425000Y-135343750D01*
X110426174Y-135319858D01*
X110429684Y-135296197D01*
X110435496Y-135272993D01*
X110443554Y-135250471D01*
X110453782Y-135228847D01*
X110466079Y-135208330D01*
X110480329Y-135189117D01*
X110496393Y-135171393D01*
X110514117Y-135155329D01*
X110533330Y-135141079D01*
X110553847Y-135128782D01*
X110575471Y-135118554D01*
X110597993Y-135110496D01*
X110621197Y-135104684D01*
X110644858Y-135101174D01*
X110668750Y-135100000D01*
X111581250Y-135100000D01*
X111605142Y-135101174D01*
X111605142Y-135101174D01*
G37*
D17*
X111125000Y-135587500D03*
D22*
X107156250Y-104775000D03*
X111125000Y-135587500D03*
X128100000Y-156425000D03*
X125900000Y-154725000D03*
X139700000Y-145400000D03*
X139700000Y-139050000D03*
X122431000Y-144456250D03*
X125399999Y-149915774D03*
X139700000Y-149875000D03*
X134143750Y-148431250D03*
X128100000Y-154725000D03*
X126206250Y-152400000D03*
X114300000Y-143812500D03*
X119856250Y-145256250D03*
X119856250Y-145256250D03*
X134937500Y-145256250D03*
X134937500Y-125475000D03*
X153987500Y-125475000D03*
X110743756Y-104775000D03*
X129568750Y-135731250D03*
X123190000Y-102235000D03*
X123190000Y-121285000D03*
X134143750Y-144462500D03*
X135731250Y-134143750D03*
X135731250Y-143668750D03*
X109743753Y-104775000D03*
X121300000Y-135731250D03*
X123175000Y-135731250D03*
X122340476Y-142856249D03*
X108743750Y-104775000D03*
X116681250Y-135587500D03*
X116681250Y-137462500D03*
X119856250Y-143665750D03*
X123825000Y-152400000D03*
X123900000Y-160075000D03*
D23*
X107143750Y-101337500D02*
X107143750Y-104762500D01*
X107143750Y-104762500D02*
X107156250Y-104775000D01*
X113500000Y-141937500D02*
X114300000Y-141937500D01*
X110034490Y-138471990D02*
X113500000Y-141937500D01*
X110034490Y-136678010D02*
X110034490Y-138471990D01*
X111125000Y-135587500D02*
X110034490Y-136678010D01*
X116818750Y-144456250D02*
X121300000Y-144456250D01*
X114300000Y-141937500D02*
X116818750Y-144456250D01*
X116818750Y-145768750D02*
X114300000Y-148287500D01*
X116818750Y-144456250D02*
X116818750Y-145768750D01*
X125812500Y-154637500D02*
X125900000Y-154725000D01*
X121443750Y-154637500D02*
X125812500Y-154637500D01*
X132468750Y-156425000D02*
X132556250Y-156512500D01*
X128100000Y-156425000D02*
X132468750Y-156425000D01*
X125400000Y-152087250D02*
X125400000Y-150956250D01*
X125400000Y-153244000D02*
X125400000Y-152087250D01*
X125900000Y-153744000D02*
X125400000Y-153244000D01*
X125900000Y-154725000D02*
X125900000Y-153744000D01*
X128100000Y-157406000D02*
X128100000Y-156425000D01*
X128100000Y-160844000D02*
X128100000Y-157406000D01*
X130100000Y-162844000D02*
X128100000Y-160844000D01*
X130100000Y-163775000D02*
X130100000Y-162844000D01*
X137318750Y-151750000D02*
X139700000Y-151750000D01*
X132556250Y-156512500D02*
X137318750Y-151750000D01*
X134537750Y-151750000D02*
X137318750Y-151750000D01*
X132700000Y-149912250D02*
X134537750Y-151750000D01*
X132700000Y-149256250D02*
X132700000Y-149912250D01*
X135843750Y-149256250D02*
X139700000Y-145400000D01*
X132700000Y-149256250D02*
X135843750Y-149256250D01*
X123800000Y-140687250D02*
X123800000Y-139556250D01*
X123800000Y-143087250D02*
X123800000Y-140687250D01*
X122431000Y-144456250D02*
X123800000Y-143087250D01*
X121300000Y-144456250D02*
X122431000Y-144456250D01*
X130200000Y-140687250D02*
X130200000Y-139556250D01*
X127800000Y-143087250D02*
X130200000Y-140687250D01*
X123800000Y-143087250D02*
X127800000Y-143087250D01*
X125399999Y-150956249D02*
X125400000Y-150956250D01*
X125399999Y-149915774D02*
X125399999Y-150956249D01*
X120169000Y-142056250D02*
X121300000Y-142056250D01*
X116453260Y-138340510D02*
X120169000Y-142056250D01*
X112003010Y-138340510D02*
X116453260Y-138340510D01*
X111125000Y-137462500D02*
X112003010Y-138340510D01*
X118406250Y-146056250D02*
X114300000Y-150162500D01*
X121300000Y-146056250D02*
X118406250Y-146056250D01*
X114300000Y-154637500D02*
X114300000Y-150162500D01*
X131000000Y-137100000D02*
X132368750Y-135731250D01*
X132700000Y-148456250D02*
X134118750Y-148456250D01*
X134118750Y-148456250D02*
X134143750Y-148431250D01*
X134793750Y-148431250D02*
X139700000Y-143525000D01*
X134143750Y-148431250D02*
X134793750Y-148431250D01*
X131000000Y-137100000D02*
X131000000Y-139556250D01*
X123000000Y-138425250D02*
X123000000Y-139556250D01*
X124325250Y-137100000D02*
X123000000Y-138425250D01*
X131000000Y-137100000D02*
X124325250Y-137100000D01*
X122431000Y-142056250D02*
X121300000Y-142056250D01*
X123000000Y-141487250D02*
X122431000Y-142056250D01*
X123000000Y-139556250D02*
X123000000Y-141487250D01*
X124600000Y-149825250D02*
X124600000Y-150956250D01*
X124600000Y-148225250D02*
X124600000Y-149825250D01*
X122431000Y-146056250D02*
X124600000Y-148225250D01*
X121300000Y-146056250D02*
X122431000Y-146056250D01*
X124831000Y-148456250D02*
X132700000Y-148456250D01*
X124600000Y-148225250D02*
X124831000Y-148456250D01*
D24*
X125812500Y-156512500D02*
X125900000Y-156425000D01*
X121443750Y-156512500D02*
X125812500Y-156512500D01*
X127000000Y-151960250D02*
X127000000Y-150956250D01*
X127000000Y-156279000D02*
X127000000Y-151960250D01*
X126854000Y-156425000D02*
X127000000Y-156279000D01*
X125900000Y-156425000D02*
X126854000Y-156425000D01*
X132468750Y-154725000D02*
X132556250Y-154637500D01*
X128100000Y-154725000D02*
X132468750Y-154725000D01*
X126206250Y-150962500D02*
X126200000Y-150956250D01*
X126206250Y-152400000D02*
X126206250Y-150962500D01*
X119856250Y-145256250D02*
X121300000Y-145256250D01*
X132350000Y-103125000D02*
X134937500Y-103125000D01*
X129500000Y-100275000D02*
X132350000Y-103125000D01*
X111070000Y-119325000D02*
X110450000Y-119325000D01*
X113920000Y-122175000D02*
X111070000Y-119325000D01*
X115887500Y-122175000D02*
X113920000Y-122175000D01*
X132700000Y-145256250D02*
X134937500Y-145256250D01*
X132350000Y-122175000D02*
X134937500Y-122175000D01*
X129500000Y-119325000D02*
X132350000Y-122175000D01*
D23*
X110343750Y-101337500D02*
X110743756Y-101737506D01*
X110743756Y-101737506D02*
X110743756Y-104775000D01*
D24*
X132700000Y-144456250D02*
X134137500Y-144456250D01*
X134137500Y-144456250D02*
X134143750Y-144462500D01*
X134937500Y-111212500D02*
X143550000Y-119825000D01*
X134937500Y-106425000D02*
X134937500Y-111212500D01*
X148050000Y-119825000D02*
X143550000Y-119825000D01*
X148550000Y-119325000D02*
X148050000Y-119825000D01*
X149170000Y-119325000D02*
X148550000Y-119325000D01*
X152020000Y-122175000D02*
X149170000Y-119325000D01*
X153987500Y-122175000D02*
X152020000Y-122175000D01*
X116741500Y-125475000D02*
X115887500Y-125475000D01*
X131004000Y-111212500D02*
X116741500Y-125475000D01*
X134937500Y-111212500D02*
X131004000Y-111212500D01*
X107040990Y-119825000D02*
X105450000Y-119825000D01*
X107384934Y-119825000D02*
X107040990Y-119825000D01*
X110270901Y-122710967D02*
X107384934Y-119825000D01*
X110270901Y-122970901D02*
X110270901Y-122710967D01*
X112775000Y-125475000D02*
X110270901Y-122970901D01*
X115887500Y-125475000D02*
X112775000Y-125475000D01*
X132700000Y-143656250D02*
X130981250Y-143656250D01*
X130981250Y-143656250D02*
X130968750Y-143668750D01*
X130981250Y-143656250D02*
X130981250Y-146037500D01*
X131000000Y-146056250D02*
X132700000Y-146056250D01*
X130981250Y-146037500D02*
X131000000Y-146056250D01*
X116741500Y-125475000D02*
X125410250Y-134143750D01*
X125410250Y-134143750D02*
X135731250Y-134143750D01*
X132712500Y-143668750D02*
X132700000Y-143656250D01*
X135731250Y-143668750D02*
X132712500Y-143668750D01*
X109543750Y-101337500D02*
X109543750Y-104574997D01*
X109543750Y-104574997D02*
X109743753Y-104775000D01*
X121300000Y-142856250D02*
X122340475Y-142856250D01*
X122340475Y-142856250D02*
X122340476Y-142856249D01*
X108743750Y-101337500D02*
X108743750Y-104775000D01*
X121290500Y-143665750D02*
X121300000Y-143656250D01*
X119856250Y-143665750D02*
X121290500Y-143665750D01*
X117862500Y-160075000D02*
X114300000Y-156512500D01*
X123900000Y-160075000D02*
X117862500Y-160075000D01*
X123800000Y-150956250D02*
X123800000Y-152375000D01*
X123800000Y-152375000D02*
X123825000Y-152400000D01*
X132700000Y-140727250D02*
X132700000Y-141256250D01*
X136252250Y-137175000D02*
X132700000Y-140727250D01*
X139700000Y-137175000D02*
X136252250Y-137175000D01*
G36*
X124844971Y-134656102D02*
G01*
X124868828Y-134685172D01*
X124897898Y-134709029D01*
X124984857Y-134780395D01*
X125028129Y-134803524D01*
X125117235Y-134851152D01*
X125260872Y-134894724D01*
X125372824Y-134905750D01*
X125372827Y-134905750D01*
X125410250Y-134909436D01*
X125447673Y-134905750D01*
X128331007Y-134905750D01*
X128322742Y-134932996D01*
X128305678Y-135106250D01*
X128305678Y-136274500D01*
X124365800Y-136274500D01*
X124325250Y-136270506D01*
X124292075Y-136273774D01*
X124300572Y-136187500D01*
X124300572Y-135275000D01*
X124283628Y-135102965D01*
X124233447Y-134937541D01*
X124151958Y-134785086D01*
X124042292Y-134651458D01*
X123908664Y-134541792D01*
X123756209Y-134460303D01*
X123590785Y-134410122D01*
X123418750Y-134393178D01*
X122931250Y-134393178D01*
X122759215Y-134410122D01*
X122593791Y-134460303D01*
X122441336Y-134541792D01*
X122307708Y-134651458D01*
X122237500Y-134737006D01*
X122167292Y-134651458D01*
X122033664Y-134541792D01*
X121881209Y-134460303D01*
X121715785Y-134410122D01*
X121543750Y-134393178D01*
X121056250Y-134393178D01*
X120884215Y-134410122D01*
X120718791Y-134460303D01*
X120566336Y-134541792D01*
X120432708Y-134651458D01*
X120323042Y-134785086D01*
X120241553Y-134937541D01*
X120191372Y-135102965D01*
X120174428Y-135275000D01*
X120174428Y-136187500D01*
X120191372Y-136359535D01*
X120241553Y-136524959D01*
X120323042Y-136677414D01*
X120432708Y-136811042D01*
X120566336Y-136920708D01*
X120718791Y-137002197D01*
X120884215Y-137052378D01*
X121056250Y-137069322D01*
X121543750Y-137069322D01*
X121715785Y-137052378D01*
X121881209Y-137002197D01*
X122033664Y-136920708D01*
X122167292Y-136811042D01*
X122237500Y-136725494D01*
X122307708Y-136811042D01*
X122441336Y-136920708D01*
X122593791Y-137002197D01*
X122759215Y-137052378D01*
X122931250Y-137069322D01*
X123188495Y-137069322D01*
X122444966Y-137812852D01*
X122413459Y-137838709D01*
X122344214Y-137923085D01*
X122310301Y-137964408D01*
X122305710Y-137972998D01*
X122233647Y-138107817D01*
X122186444Y-138263425D01*
X122174992Y-138379705D01*
X122170506Y-138425250D01*
X122174500Y-138465801D01*
X122174500Y-138489103D01*
X122135498Y-138562070D01*
X122099188Y-138681768D01*
X122086928Y-138806250D01*
X122086928Y-140306250D01*
X122090962Y-140347212D01*
X122050000Y-140343178D01*
X120550000Y-140343178D01*
X120425518Y-140355438D01*
X120305820Y-140391748D01*
X120195506Y-140450713D01*
X120098815Y-140530065D01*
X120019463Y-140626756D01*
X119980268Y-140700084D01*
X117678069Y-138397887D01*
X117761042Y-138329792D01*
X117870708Y-138196164D01*
X117952197Y-138043709D01*
X118002378Y-137878285D01*
X118019322Y-137706250D01*
X118019322Y-137218750D01*
X118002378Y-137046715D01*
X117952197Y-136881291D01*
X117870708Y-136728836D01*
X117761042Y-136595208D01*
X117675494Y-136525000D01*
X117761042Y-136454792D01*
X117870708Y-136321164D01*
X117952197Y-136168709D01*
X118002378Y-136003285D01*
X118019322Y-135831250D01*
X118019322Y-135343750D01*
X118002378Y-135171715D01*
X117952197Y-135006291D01*
X117870708Y-134853836D01*
X117761042Y-134720208D01*
X117627414Y-134610542D01*
X117474959Y-134529053D01*
X117309535Y-134478872D01*
X117137500Y-134461928D01*
X116225000Y-134461928D01*
X116052965Y-134478872D01*
X115887541Y-134529053D01*
X115735086Y-134610542D01*
X115601458Y-134720208D01*
X115491792Y-134853836D01*
X115410303Y-135006291D01*
X115360122Y-135171715D01*
X115343178Y-135343750D01*
X115343178Y-135831250D01*
X115360122Y-136003285D01*
X115410303Y-136168709D01*
X115491792Y-136321164D01*
X115601458Y-136454792D01*
X115687006Y-136525000D01*
X115601458Y-136595208D01*
X115491792Y-136728836D01*
X115410303Y-136881291D01*
X115360122Y-137046715D01*
X115343178Y-137218750D01*
X115343178Y-137515010D01*
X112463072Y-137515010D01*
X112463072Y-137218750D01*
X112446128Y-137046715D01*
X112395947Y-136881291D01*
X112314458Y-136728836D01*
X112204792Y-136595208D01*
X112198436Y-136589992D01*
X112276185Y-136526185D01*
X112355537Y-136429494D01*
X112414502Y-136319180D01*
X112450812Y-136199482D01*
X112463072Y-136075000D01*
X112460000Y-135873250D01*
X112301250Y-135714500D01*
X111252000Y-135714500D01*
X111252000Y-135734500D01*
X110998000Y-135734500D01*
X110998000Y-135714500D01*
X109948750Y-135714500D01*
X109790000Y-135873250D01*
X109786928Y-136075000D01*
X109799188Y-136199482D01*
X109835498Y-136319180D01*
X109894463Y-136429494D01*
X109973815Y-136526185D01*
X110051564Y-136589992D01*
X110045208Y-136595208D01*
X109935542Y-136728836D01*
X109854053Y-136881291D01*
X109803872Y-137046715D01*
X109786928Y-137218750D01*
X109786928Y-137706250D01*
X109803872Y-137878285D01*
X109854053Y-138043709D01*
X109935542Y-138196164D01*
X110045208Y-138329792D01*
X110178836Y-138439458D01*
X110331291Y-138520947D01*
X110496715Y-138571128D01*
X110668750Y-138588072D01*
X111083139Y-138588072D01*
X111390621Y-138895554D01*
X111416469Y-138927051D01*
X111447965Y-138952899D01*
X111447968Y-138952902D01*
X111542167Y-139030209D01*
X111664145Y-139095408D01*
X111685576Y-139106863D01*
X111841184Y-139154066D01*
X111962457Y-139166010D01*
X111962459Y-139166010D01*
X112003010Y-139170004D01*
X112043560Y-139166010D01*
X116111328Y-139166010D01*
X119556611Y-142611295D01*
X119582459Y-142642791D01*
X119604176Y-142660613D01*
X119554352Y-142670524D01*
X119365994Y-142748545D01*
X119196476Y-142861813D01*
X119052313Y-143005976D01*
X118939045Y-143175494D01*
X118861024Y-143363852D01*
X118821250Y-143563811D01*
X118821250Y-143767689D01*
X118861024Y-143967648D01*
X118939045Y-144156006D01*
X119052313Y-144325524D01*
X119187789Y-144461000D01*
X119052313Y-144596476D01*
X118939045Y-144765994D01*
X118861024Y-144954352D01*
X118821250Y-145154311D01*
X118821250Y-145230750D01*
X118446792Y-145230750D01*
X118406249Y-145226757D01*
X118365706Y-145230750D01*
X118365697Y-145230750D01*
X118244424Y-145242694D01*
X118088816Y-145289897D01*
X117962004Y-145357680D01*
X117945406Y-145366552D01*
X117903608Y-145400855D01*
X117819709Y-145469709D01*
X117793857Y-145501211D01*
X115624354Y-147670713D01*
X115589502Y-147555820D01*
X115530537Y-147445506D01*
X115451185Y-147348815D01*
X115354494Y-147269463D01*
X115244180Y-147210498D01*
X115124482Y-147174188D01*
X115000000Y-147161928D01*
X114585750Y-147165000D01*
X114427000Y-147323750D01*
X114427000Y-148160500D01*
X114447000Y-148160500D01*
X114447000Y-148414500D01*
X114427000Y-148414500D01*
X114427000Y-148434500D01*
X114173000Y-148434500D01*
X114173000Y-148414500D01*
X113123750Y-148414500D01*
X112965000Y-148573250D01*
X112961928Y-148775000D01*
X112974188Y-148899482D01*
X113010498Y-149019180D01*
X113069463Y-149129494D01*
X113148815Y-149226185D01*
X113226564Y-149289992D01*
X113220208Y-149295208D01*
X113110542Y-149428836D01*
X113029053Y-149581291D01*
X112978872Y-149746715D01*
X112961928Y-149918750D01*
X112961928Y-150406250D01*
X112978872Y-150578285D01*
X113029053Y-150743709D01*
X113110542Y-150896164D01*
X113220208Y-151029792D01*
X113353836Y-151139458D01*
X113474501Y-151203955D01*
X113474500Y-153596046D01*
X113353836Y-153660542D01*
X113220208Y-153770208D01*
X113110542Y-153903836D01*
X113029053Y-154056291D01*
X112978872Y-154221715D01*
X112961928Y-154393750D01*
X112961928Y-154881250D01*
X112978872Y-155053285D01*
X113029053Y-155218709D01*
X113110542Y-155371164D01*
X113220208Y-155504792D01*
X113305756Y-155575000D01*
X113220208Y-155645208D01*
X113110542Y-155778836D01*
X113029053Y-155931291D01*
X112978872Y-156096715D01*
X112961928Y-156268750D01*
X112961928Y-156756250D01*
X112978872Y-156928285D01*
X113029053Y-157093709D01*
X113110542Y-157246164D01*
X113220208Y-157379792D01*
X113353836Y-157489458D01*
X113506291Y-157570947D01*
X113671715Y-157621128D01*
X113843750Y-157638072D01*
X114347942Y-157638072D01*
X117297221Y-160587352D01*
X117321078Y-160616422D01*
X117350148Y-160640279D01*
X117437107Y-160711645D01*
X117480379Y-160734774D01*
X117569485Y-160782402D01*
X117713122Y-160825974D01*
X117825074Y-160837000D01*
X117825077Y-160837000D01*
X117862500Y-160840686D01*
X117899923Y-160837000D01*
X122400736Y-160837000D01*
X122410498Y-160869180D01*
X122469463Y-160979494D01*
X122548815Y-161076185D01*
X122645506Y-161155537D01*
X122755820Y-161214502D01*
X122875518Y-161250812D01*
X123000000Y-161263072D01*
X124800000Y-161263072D01*
X124924482Y-161250812D01*
X125044180Y-161214502D01*
X125154494Y-161155537D01*
X125251185Y-161076185D01*
X125330537Y-160979494D01*
X125389502Y-160869180D01*
X125425812Y-160749482D01*
X125438072Y-160625000D01*
X125438072Y-159525000D01*
X128561928Y-159525000D01*
X128561928Y-160625000D01*
X128574188Y-160749482D01*
X128610498Y-160869180D01*
X128669463Y-160979494D01*
X128748815Y-161076185D01*
X128845506Y-161155537D01*
X128955820Y-161214502D01*
X129075518Y-161250812D01*
X129200000Y-161263072D01*
X131000000Y-161263072D01*
X131124482Y-161250812D01*
X131244180Y-161214502D01*
X131354494Y-161155537D01*
X131451185Y-161076185D01*
X131530537Y-160979494D01*
X131589502Y-160869180D01*
X131625812Y-160749482D01*
X131638072Y-160625000D01*
X131638072Y-159525000D01*
X131625812Y-159400518D01*
X131589502Y-159280820D01*
X131530537Y-159170506D01*
X131451185Y-159073815D01*
X131354494Y-158994463D01*
X131244180Y-158935498D01*
X131124482Y-158899188D01*
X131000000Y-158886928D01*
X129200000Y-158886928D01*
X129075518Y-158899188D01*
X128955820Y-158935498D01*
X128845506Y-158994463D01*
X128748815Y-159073815D01*
X128669463Y-159170506D01*
X128610498Y-159280820D01*
X128574188Y-159400518D01*
X128561928Y-159525000D01*
X125438072Y-159525000D01*
X125425812Y-159400518D01*
X125389502Y-159280820D01*
X125330537Y-159170506D01*
X125251185Y-159073815D01*
X125154494Y-158994463D01*
X125044180Y-158935498D01*
X124924482Y-158899188D01*
X124800000Y-158886928D01*
X123000000Y-158886928D01*
X122875518Y-158899188D01*
X122755820Y-158935498D01*
X122645506Y-158994463D01*
X122548815Y-159073815D01*
X122469463Y-159170506D01*
X122410498Y-159280820D01*
X122400736Y-159313000D01*
X118178131Y-159313000D01*
X115636575Y-156771445D01*
X115638072Y-156756250D01*
X115638072Y-156268750D01*
X115621128Y-156096715D01*
X115570947Y-155931291D01*
X115489458Y-155778836D01*
X115379792Y-155645208D01*
X115294244Y-155575000D01*
X115379792Y-155504792D01*
X115489458Y-155371164D01*
X115570947Y-155218709D01*
X115621128Y-155053285D01*
X115638072Y-154881250D01*
X115638072Y-154393750D01*
X115621128Y-154221715D01*
X115599374Y-154150000D01*
X120105678Y-154150000D01*
X120108750Y-154351750D01*
X120267500Y-154510500D01*
X121316750Y-154510500D01*
X121316750Y-153673750D01*
X121570750Y-153673750D01*
X121570750Y-154510500D01*
X122620000Y-154510500D01*
X122778750Y-154351750D01*
X122781822Y-154150000D01*
X122779360Y-154125000D01*
X124561928Y-154125000D01*
X124565000Y-154439250D01*
X124723750Y-154598000D01*
X125773000Y-154598000D01*
X125773000Y-153648750D01*
X125614250Y-153490000D01*
X125200000Y-153486928D01*
X125075518Y-153499188D01*
X124955820Y-153535498D01*
X124845506Y-153594463D01*
X124748815Y-153673815D01*
X124669463Y-153770506D01*
X124610498Y-153880820D01*
X124574188Y-154000518D01*
X124561928Y-154125000D01*
X122779360Y-154125000D01*
X122769562Y-154025518D01*
X122733252Y-153905820D01*
X122674287Y-153795506D01*
X122594935Y-153698815D01*
X122498244Y-153619463D01*
X122387930Y-153560498D01*
X122268232Y-153524188D01*
X122143750Y-153511928D01*
X121729500Y-153515000D01*
X121570750Y-153673750D01*
X121316750Y-153673750D01*
X121158000Y-153515000D01*
X120743750Y-153511928D01*
X120619268Y-153524188D01*
X120499570Y-153560498D01*
X120389256Y-153619463D01*
X120292565Y-153698815D01*
X120213213Y-153795506D01*
X120154248Y-153905820D01*
X120117938Y-154025518D01*
X120105678Y-154150000D01*
X115599374Y-154150000D01*
X115570947Y-154056291D01*
X115489458Y-153903836D01*
X115379792Y-153770208D01*
X115246164Y-153660542D01*
X115125500Y-153596046D01*
X115125500Y-151203954D01*
X115246164Y-151139458D01*
X115379792Y-151029792D01*
X115489458Y-150896164D01*
X115570947Y-150743709D01*
X115621128Y-150578285D01*
X115638072Y-150406250D01*
X115638072Y-149991860D01*
X118748183Y-146881750D01*
X119911928Y-146881750D01*
X119911928Y-147131250D01*
X119924188Y-147255732D01*
X119924345Y-147256250D01*
X119924188Y-147256768D01*
X119911928Y-147381250D01*
X119911928Y-147931250D01*
X119924188Y-148055732D01*
X119924345Y-148056250D01*
X119924188Y-148056768D01*
X119911928Y-148181250D01*
X119911928Y-148731250D01*
X119924188Y-148855732D01*
X119924345Y-148856250D01*
X119924188Y-148856768D01*
X119911928Y-148981250D01*
X119911928Y-149531250D01*
X119924188Y-149655732D01*
X119960498Y-149775430D01*
X120019463Y-149885744D01*
X120098815Y-149982435D01*
X120195506Y-150061787D01*
X120305820Y-150120752D01*
X120425518Y-150157062D01*
X120550000Y-150169322D01*
X122050000Y-150169322D01*
X122090962Y-150165288D01*
X122086928Y-150206250D01*
X122086928Y-151706250D01*
X122099188Y-151830732D01*
X122135498Y-151950430D01*
X122194463Y-152060744D01*
X122273815Y-152157435D01*
X122370506Y-152236787D01*
X122480820Y-152295752D01*
X122600518Y-152332062D01*
X122725000Y-152344322D01*
X122790000Y-152344322D01*
X122790000Y-152501939D01*
X122829774Y-152701898D01*
X122907795Y-152890256D01*
X123021063Y-153059774D01*
X123165226Y-153203937D01*
X123334744Y-153317205D01*
X123523102Y-153395226D01*
X123723061Y-153435000D01*
X123926939Y-153435000D01*
X124126898Y-153395226D01*
X124315256Y-153317205D01*
X124484774Y-153203937D01*
X124628937Y-153059774D01*
X124742205Y-152890256D01*
X124820226Y-152701898D01*
X124860000Y-152501939D01*
X124860000Y-152344322D01*
X124875000Y-152344322D01*
X124999482Y-152332062D01*
X125000663Y-152331704D01*
X125114250Y-152341250D01*
X125174679Y-152280821D01*
X125171250Y-152298061D01*
X125171250Y-152501939D01*
X125211024Y-152701898D01*
X125289045Y-152890256D01*
X125402313Y-153059774D01*
X125546476Y-153203937D01*
X125715994Y-153317205D01*
X125904352Y-153395226D01*
X126104311Y-153435000D01*
X126238001Y-153435000D01*
X126238001Y-153489613D01*
X126185750Y-153490000D01*
X126027000Y-153648750D01*
X126027000Y-154598000D01*
X126047000Y-154598000D01*
X126047000Y-154852000D01*
X126027000Y-154852000D01*
X126027000Y-154872000D01*
X125773000Y-154872000D01*
X125773000Y-154852000D01*
X124723750Y-154852000D01*
X124565000Y-155010750D01*
X124561928Y-155325000D01*
X124574188Y-155449482D01*
X124610498Y-155569180D01*
X124613609Y-155575000D01*
X124610498Y-155580820D01*
X124574188Y-155700518D01*
X124569265Y-155750500D01*
X122609953Y-155750500D01*
X122523542Y-155645208D01*
X122517186Y-155639992D01*
X122594935Y-155576185D01*
X122674287Y-155479494D01*
X122733252Y-155369180D01*
X122769562Y-155249482D01*
X122781822Y-155125000D01*
X122778750Y-154923250D01*
X122620000Y-154764500D01*
X121570750Y-154764500D01*
X121570750Y-154784500D01*
X121316750Y-154784500D01*
X121316750Y-154764500D01*
X120267500Y-154764500D01*
X120108750Y-154923250D01*
X120105678Y-155125000D01*
X120117938Y-155249482D01*
X120154248Y-155369180D01*
X120213213Y-155479494D01*
X120292565Y-155576185D01*
X120370314Y-155639992D01*
X120363958Y-155645208D01*
X120254292Y-155778836D01*
X120172803Y-155931291D01*
X120122622Y-156096715D01*
X120105678Y-156268750D01*
X120105678Y-156756250D01*
X120122622Y-156928285D01*
X120172803Y-157093709D01*
X120254292Y-157246164D01*
X120363958Y-157379792D01*
X120497586Y-157489458D01*
X120650041Y-157570947D01*
X120815465Y-157621128D01*
X120987500Y-157638072D01*
X121900000Y-157638072D01*
X122072035Y-157621128D01*
X122237459Y-157570947D01*
X122389914Y-157489458D01*
X122523542Y-157379792D01*
X122609953Y-157274500D01*
X124613342Y-157274500D01*
X124669463Y-157379494D01*
X124748815Y-157476185D01*
X124845506Y-157555537D01*
X124955820Y-157614502D01*
X125075518Y-157650812D01*
X125200000Y-157663072D01*
X126600000Y-157663072D01*
X126724482Y-157650812D01*
X126844180Y-157614502D01*
X126954494Y-157555537D01*
X127000000Y-157518191D01*
X127045506Y-157555537D01*
X127155820Y-157614502D01*
X127275518Y-157650812D01*
X127400000Y-157663072D01*
X127814250Y-157660000D01*
X127973000Y-157501250D01*
X127973000Y-156552000D01*
X128227000Y-156552000D01*
X128227000Y-157501250D01*
X128385750Y-157660000D01*
X128800000Y-157663072D01*
X128924482Y-157650812D01*
X129044180Y-157614502D01*
X129154494Y-157555537D01*
X129251185Y-157476185D01*
X129330537Y-157379494D01*
X129389502Y-157269180D01*
X129425812Y-157149482D01*
X129438072Y-157025000D01*
X129437828Y-157000000D01*
X131218178Y-157000000D01*
X131230438Y-157124482D01*
X131266748Y-157244180D01*
X131325713Y-157354494D01*
X131405065Y-157451185D01*
X131501756Y-157530537D01*
X131612070Y-157589502D01*
X131731768Y-157625812D01*
X131856250Y-157638072D01*
X132270500Y-157635000D01*
X132429250Y-157476250D01*
X132429250Y-156639500D01*
X132683250Y-156639500D01*
X132683250Y-157476250D01*
X132842000Y-157635000D01*
X133256250Y-157638072D01*
X133380732Y-157625812D01*
X133500430Y-157589502D01*
X133610744Y-157530537D01*
X133707435Y-157451185D01*
X133786787Y-157354494D01*
X133845752Y-157244180D01*
X133882062Y-157124482D01*
X133894322Y-157000000D01*
X133891250Y-156798250D01*
X133732500Y-156639500D01*
X132683250Y-156639500D01*
X132429250Y-156639500D01*
X131380000Y-156639500D01*
X131221250Y-156798250D01*
X131218178Y-157000000D01*
X129437828Y-157000000D01*
X129435000Y-156710750D01*
X129276250Y-156552000D01*
X128227000Y-156552000D01*
X127973000Y-156552000D01*
X127953000Y-156552000D01*
X127953000Y-156298000D01*
X127973000Y-156298000D01*
X127973000Y-156278000D01*
X128227000Y-156278000D01*
X128227000Y-156298000D01*
X129276250Y-156298000D01*
X129435000Y-156139250D01*
X129438072Y-155825000D01*
X129425812Y-155700518D01*
X129389502Y-155580820D01*
X129386391Y-155575000D01*
X129389502Y-155569180D01*
X129414431Y-155487000D01*
X131461856Y-155487000D01*
X131476458Y-155504792D01*
X131482814Y-155510008D01*
X131405065Y-155573815D01*
X131325713Y-155670506D01*
X131266748Y-155780820D01*
X131230438Y-155900518D01*
X131218178Y-156025000D01*
X131221250Y-156226750D01*
X131380000Y-156385500D01*
X132429250Y-156385500D01*
X132429250Y-156365500D01*
X132683250Y-156365500D01*
X132683250Y-156385500D01*
X133732500Y-156385500D01*
X133891250Y-156226750D01*
X133894322Y-156025000D01*
X133882062Y-155900518D01*
X133845752Y-155780820D01*
X133786787Y-155670506D01*
X133707435Y-155573815D01*
X133629686Y-155510008D01*
X133636042Y-155504792D01*
X133745708Y-155371164D01*
X133827197Y-155218709D01*
X133877378Y-155053285D01*
X133894322Y-154881250D01*
X133894322Y-154393750D01*
X133877378Y-154221715D01*
X133827197Y-154056291D01*
X133745708Y-153903836D01*
X133636042Y-153770208D01*
X133502414Y-153660542D01*
X133349959Y-153579053D01*
X133184535Y-153528872D01*
X133012500Y-153511928D01*
X132100000Y-153511928D01*
X131927965Y-153528872D01*
X131762541Y-153579053D01*
X131610086Y-153660542D01*
X131476458Y-153770208D01*
X131366792Y-153903836D01*
X131335168Y-153963000D01*
X129414431Y-153963000D01*
X129389502Y-153880820D01*
X129330537Y-153770506D01*
X129251185Y-153673815D01*
X129154494Y-153594463D01*
X129044180Y-153535498D01*
X128924482Y-153499188D01*
X128800000Y-153486928D01*
X127762000Y-153486928D01*
X127762000Y-152344322D01*
X128075000Y-152344322D01*
X128199482Y-152332062D01*
X128200000Y-152331905D01*
X128200518Y-152332062D01*
X128325000Y-152344322D01*
X128875000Y-152344322D01*
X128999482Y-152332062D01*
X129000000Y-152331905D01*
X129000518Y-152332062D01*
X129125000Y-152344322D01*
X129675000Y-152344322D01*
X129799482Y-152332062D01*
X129800000Y-152331905D01*
X129800518Y-152332062D01*
X129925000Y-152344322D01*
X130475000Y-152344322D01*
X130599482Y-152332062D01*
X130600000Y-152331905D01*
X130600518Y-152332062D01*
X130725000Y-152344322D01*
X131275000Y-152344322D01*
X131399482Y-152332062D01*
X131519180Y-152295752D01*
X131628160Y-152237500D01*
X138361928Y-152237500D01*
X138374188Y-152361982D01*
X138410498Y-152481680D01*
X138469463Y-152591994D01*
X138548815Y-152688685D01*
X138645506Y-152768037D01*
X138755820Y-152827002D01*
X138875518Y-152863312D01*
X139000000Y-152875572D01*
X139414250Y-152872500D01*
X139573000Y-152713750D01*
X139573000Y-151877000D01*
X139827000Y-151877000D01*
X139827000Y-152713750D01*
X139985750Y-152872500D01*
X140400000Y-152875572D01*
X140524482Y-152863312D01*
X140644180Y-152827002D01*
X140754494Y-152768037D01*
X140851185Y-152688685D01*
X140930537Y-152591994D01*
X140989502Y-152481680D01*
X141025812Y-152361982D01*
X141038072Y-152237500D01*
X141035000Y-152035750D01*
X140876250Y-151877000D01*
X139827000Y-151877000D01*
X139573000Y-151877000D01*
X138523750Y-151877000D01*
X138365000Y-152035750D01*
X138361928Y-152237500D01*
X131628160Y-152237500D01*
X131629494Y-152236787D01*
X131726185Y-152157435D01*
X131805537Y-152060744D01*
X131864502Y-151950430D01*
X131900812Y-151830732D01*
X131913072Y-151706250D01*
X131913072Y-150206250D01*
X131909028Y-150165186D01*
X131953213Y-150169314D01*
X132414250Y-150166250D01*
X132573000Y-150007500D01*
X132573000Y-149383250D01*
X132553000Y-149383250D01*
X132553000Y-149369322D01*
X132847000Y-149369322D01*
X132847000Y-149383250D01*
X132827000Y-149383250D01*
X132827000Y-150007500D01*
X132985750Y-150166250D01*
X133446787Y-150169314D01*
X133571329Y-150157680D01*
X133691208Y-150121974D01*
X133801818Y-150063566D01*
X133898908Y-149984701D01*
X133978746Y-149888411D01*
X134038265Y-149778395D01*
X134075177Y-149658881D01*
X134077499Y-149631250D01*
X138361928Y-149631250D01*
X138361928Y-150118750D01*
X138378872Y-150290785D01*
X138429053Y-150456209D01*
X138510542Y-150608664D01*
X138620208Y-150742292D01*
X138626564Y-150747508D01*
X138548815Y-150811315D01*
X138469463Y-150908006D01*
X138410498Y-151018320D01*
X138374188Y-151138018D01*
X138361928Y-151262500D01*
X138365000Y-151464250D01*
X138523750Y-151623000D01*
X139573000Y-151623000D01*
X139573000Y-151603000D01*
X139827000Y-151603000D01*
X139827000Y-151623000D01*
X140876250Y-151623000D01*
X141035000Y-151464250D01*
X141038072Y-151262500D01*
X141025812Y-151138018D01*
X140989502Y-151018320D01*
X140930537Y-150908006D01*
X140851185Y-150811315D01*
X140773436Y-150747508D01*
X140779792Y-150742292D01*
X140889458Y-150608664D01*
X140970947Y-150456209D01*
X141021128Y-150290785D01*
X141038072Y-150118750D01*
X141038072Y-149631250D01*
X141021128Y-149459215D01*
X140970947Y-149293791D01*
X140889458Y-149141336D01*
X140779792Y-149007708D01*
X140646164Y-148898042D01*
X140493709Y-148816553D01*
X140328285Y-148766372D01*
X140156250Y-148749428D01*
X139243750Y-148749428D01*
X139071715Y-148766372D01*
X138906291Y-148816553D01*
X138753836Y-148898042D01*
X138620208Y-149007708D01*
X138510542Y-149141336D01*
X138429053Y-149293791D01*
X138378872Y-149459215D01*
X138361928Y-149631250D01*
X134077499Y-149631250D01*
X134085000Y-149542000D01*
X134001165Y-149458165D01*
X134041811Y-149466250D01*
X134245689Y-149466250D01*
X134445648Y-149426476D01*
X134634006Y-149348455D01*
X134768933Y-149258300D01*
X134793750Y-149260744D01*
X134834300Y-149256750D01*
X134834303Y-149256750D01*
X134955576Y-149244806D01*
X135111184Y-149197603D01*
X135254592Y-149120949D01*
X135380291Y-149017791D01*
X135406148Y-148986284D01*
X138375646Y-146016787D01*
X138410498Y-146131680D01*
X138469463Y-146241994D01*
X138548815Y-146338685D01*
X138645506Y-146418037D01*
X138755820Y-146477002D01*
X138875518Y-146513312D01*
X139000000Y-146525572D01*
X139414250Y-146522500D01*
X139573000Y-146363750D01*
X139573000Y-145527000D01*
X139827000Y-145527000D01*
X139827000Y-146363750D01*
X139985750Y-146522500D01*
X140400000Y-146525572D01*
X140524482Y-146513312D01*
X140644180Y-146477002D01*
X140754494Y-146418037D01*
X140851185Y-146338685D01*
X140930537Y-146241994D01*
X140989502Y-146131680D01*
X141025812Y-146011982D01*
X141038072Y-145887500D01*
X141035000Y-145685750D01*
X140876250Y-145527000D01*
X139827000Y-145527000D01*
X139573000Y-145527000D01*
X139553000Y-145527000D01*
X139553000Y-145273000D01*
X139573000Y-145273000D01*
X139573000Y-145253000D01*
X139827000Y-145253000D01*
X139827000Y-145273000D01*
X140876250Y-145273000D01*
X141035000Y-145114250D01*
X141038072Y-144912500D01*
X141025812Y-144788018D01*
X140989502Y-144668320D01*
X140930537Y-144558006D01*
X140851185Y-144461315D01*
X140773436Y-144397508D01*
X140779792Y-144392292D01*
X140889458Y-144258664D01*
X140970947Y-144106209D01*
X141021128Y-143940785D01*
X141038072Y-143768750D01*
X141038072Y-143281250D01*
X141021128Y-143109215D01*
X140970947Y-142943791D01*
X140889458Y-142791336D01*
X140779792Y-142657708D01*
X140646164Y-142548042D01*
X140493709Y-142466553D01*
X140328285Y-142416372D01*
X140156250Y-142399428D01*
X139243750Y-142399428D01*
X139071715Y-142416372D01*
X138906291Y-142466553D01*
X138753836Y-142548042D01*
X138620208Y-142657708D01*
X138510542Y-142791336D01*
X138429053Y-142943791D01*
X138378872Y-143109215D01*
X138361928Y-143281250D01*
X138361928Y-143695639D01*
X134570025Y-147487543D01*
X134445648Y-147436024D01*
X134245689Y-147396250D01*
X134088072Y-147396250D01*
X134088072Y-147381250D01*
X134075812Y-147256768D01*
X134075655Y-147256250D01*
X134075812Y-147255732D01*
X134088072Y-147131250D01*
X134088072Y-146581250D01*
X134075812Y-146456768D01*
X134075655Y-146456250D01*
X134075812Y-146455732D01*
X134088072Y-146331250D01*
X134088072Y-146018250D01*
X134235789Y-146018250D01*
X134277726Y-146060187D01*
X134447244Y-146173455D01*
X134635602Y-146251476D01*
X134835561Y-146291250D01*
X135039439Y-146291250D01*
X135239398Y-146251476D01*
X135427756Y-146173455D01*
X135597274Y-146060187D01*
X135741437Y-145916024D01*
X135854705Y-145746506D01*
X135932726Y-145558148D01*
X135972500Y-145358189D01*
X135972500Y-145154311D01*
X135932726Y-144954352D01*
X135854705Y-144765994D01*
X135813115Y-144703750D01*
X135833189Y-144703750D01*
X136033148Y-144663976D01*
X136221506Y-144585955D01*
X136391024Y-144472687D01*
X136535187Y-144328524D01*
X136648455Y-144159006D01*
X136726476Y-143970648D01*
X136766250Y-143770689D01*
X136766250Y-143566811D01*
X136726476Y-143366852D01*
X136648455Y-143178494D01*
X136535187Y-143008976D01*
X136391024Y-142864813D01*
X136221506Y-142751545D01*
X136033148Y-142673524D01*
X135833189Y-142633750D01*
X135629311Y-142633750D01*
X135429352Y-142673524D01*
X135240994Y-142751545D01*
X135071476Y-142864813D01*
X135029539Y-142906750D01*
X134088072Y-142906750D01*
X134088072Y-142581250D01*
X134075812Y-142456768D01*
X134075655Y-142456250D01*
X134075812Y-142455732D01*
X134088072Y-142331250D01*
X134088072Y-141781250D01*
X134075812Y-141656768D01*
X134075655Y-141656250D01*
X134075812Y-141655732D01*
X134088072Y-141531250D01*
X134088072Y-140981250D01*
X134075812Y-140856768D01*
X134039502Y-140737070D01*
X133980537Y-140626756D01*
X133934374Y-140570506D01*
X134967380Y-139537500D01*
X138361928Y-139537500D01*
X138374188Y-139661982D01*
X138410498Y-139781680D01*
X138469463Y-139891994D01*
X138548815Y-139988685D01*
X138645506Y-140068037D01*
X138755820Y-140127002D01*
X138875518Y-140163312D01*
X139000000Y-140175572D01*
X139414250Y-140172500D01*
X139573000Y-140013750D01*
X139573000Y-139177000D01*
X139827000Y-139177000D01*
X139827000Y-140013750D01*
X139985750Y-140172500D01*
X140400000Y-140175572D01*
X140524482Y-140163312D01*
X140644180Y-140127002D01*
X140754494Y-140068037D01*
X140851185Y-139988685D01*
X140930537Y-139891994D01*
X140989502Y-139781680D01*
X141025812Y-139661982D01*
X141038072Y-139537500D01*
X141035000Y-139335750D01*
X140876250Y-139177000D01*
X139827000Y-139177000D01*
X139573000Y-139177000D01*
X138523750Y-139177000D01*
X138365000Y-139335750D01*
X138361928Y-139537500D01*
X134967380Y-139537500D01*
X136567881Y-137937000D01*
X138533797Y-137937000D01*
X138620208Y-138042292D01*
X138626564Y-138047508D01*
X138548815Y-138111315D01*
X138469463Y-138208006D01*
X138410498Y-138318320D01*
X138374188Y-138438018D01*
X138361928Y-138562500D01*
X138365000Y-138764250D01*
X138523750Y-138923000D01*
X139573000Y-138923000D01*
X139573000Y-138903000D01*
X139827000Y-138903000D01*
X139827000Y-138923000D01*
X140876250Y-138923000D01*
X141035000Y-138764250D01*
X141038072Y-138562500D01*
X141025812Y-138438018D01*
X140989502Y-138318320D01*
X140930537Y-138208006D01*
X140851185Y-138111315D01*
X140773436Y-138047508D01*
X140779792Y-138042292D01*
X140889458Y-137908664D01*
X140970947Y-137756209D01*
X141021128Y-137590785D01*
X141038072Y-137418750D01*
X141038072Y-136931250D01*
X141021128Y-136759215D01*
X140970947Y-136593791D01*
X140889458Y-136441336D01*
X140779792Y-136307708D01*
X140646164Y-136198042D01*
X140493709Y-136116553D01*
X140328285Y-136066372D01*
X140156250Y-136049428D01*
X139243750Y-136049428D01*
X139071715Y-136066372D01*
X138906291Y-136116553D01*
X138753836Y-136198042D01*
X138620208Y-136307708D01*
X138533797Y-136413000D01*
X136289672Y-136413000D01*
X136252249Y-136409314D01*
X136214826Y-136413000D01*
X136214824Y-136413000D01*
X136102872Y-136424026D01*
X135959235Y-136467598D01*
X135826858Y-136538355D01*
X135710828Y-136633578D01*
X135686971Y-136662648D01*
X132187654Y-140161966D01*
X132158578Y-140185828D01*
X132109239Y-140245949D01*
X132063355Y-140301858D01*
X132041269Y-140343178D01*
X131950000Y-140343178D01*
X131909038Y-140347212D01*
X131913072Y-140306250D01*
X131913072Y-138806250D01*
X131900812Y-138681768D01*
X131864502Y-138562070D01*
X131825500Y-138489104D01*
X131825500Y-137441932D01*
X132023111Y-137244322D01*
X132743750Y-137244322D01*
X132917004Y-137227258D01*
X133083600Y-137176722D01*
X133237136Y-137094655D01*
X133371712Y-136984212D01*
X133482155Y-136849636D01*
X133564222Y-136696100D01*
X133614758Y-136529504D01*
X133631822Y-136356250D01*
X133631822Y-135106250D01*
X133614758Y-134932996D01*
X133606493Y-134905750D01*
X135029539Y-134905750D01*
X135071476Y-134947687D01*
X135240994Y-135060955D01*
X135429352Y-135138976D01*
X135629311Y-135178750D01*
X135833189Y-135178750D01*
X136033148Y-135138976D01*
X136221506Y-135060955D01*
X136391024Y-134947687D01*
X136535187Y-134803524D01*
X136648455Y-134634006D01*
X136726476Y-134445648D01*
X136761265Y-134270750D01*
X139647394Y-134270750D01*
X141160500Y-135783856D01*
X141160500Y-157103017D01*
X131716520Y-164973000D01*
X119908856Y-164973000D01*
X118160856Y-163225000D01*
X122361928Y-163225000D01*
X122361928Y-164325000D01*
X122374188Y-164449482D01*
X122410498Y-164569180D01*
X122469463Y-164679494D01*
X122548815Y-164776185D01*
X122645506Y-164855537D01*
X122755820Y-164914502D01*
X122875518Y-164950812D01*
X123000000Y-164963072D01*
X124800000Y-164963072D01*
X124924482Y-164950812D01*
X125044180Y-164914502D01*
X125154494Y-164855537D01*
X125251185Y-164776185D01*
X125330537Y-164679494D01*
X125389502Y-164569180D01*
X125425812Y-164449482D01*
X125438072Y-164325000D01*
X128561928Y-164325000D01*
X128574188Y-164449482D01*
X128610498Y-164569180D01*
X128669463Y-164679494D01*
X128748815Y-164776185D01*
X128845506Y-164855537D01*
X128955820Y-164914502D01*
X129075518Y-164950812D01*
X129200000Y-164963072D01*
X129814250Y-164960000D01*
X129973000Y-164801250D01*
X129973000Y-163902000D01*
X130227000Y-163902000D01*
X130227000Y-164801250D01*
X130385750Y-164960000D01*
X131000000Y-164963072D01*
X131124482Y-164950812D01*
X131244180Y-164914502D01*
X131354494Y-164855537D01*
X131451185Y-164776185D01*
X131530537Y-164679494D01*
X131589502Y-164569180D01*
X131625812Y-164449482D01*
X131638072Y-164325000D01*
X131635000Y-164060750D01*
X131476250Y-163902000D01*
X130227000Y-163902000D01*
X129973000Y-163902000D01*
X128723750Y-163902000D01*
X128565000Y-164060750D01*
X128561928Y-164325000D01*
X125438072Y-164325000D01*
X125438072Y-163225000D01*
X128561928Y-163225000D01*
X128565000Y-163489250D01*
X128723750Y-163648000D01*
X129973000Y-163648000D01*
X129973000Y-162748750D01*
X130227000Y-162748750D01*
X130227000Y-163648000D01*
X131476250Y-163648000D01*
X131635000Y-163489250D01*
X131638072Y-163225000D01*
X131625812Y-163100518D01*
X131589502Y-162980820D01*
X131530537Y-162870506D01*
X131451185Y-162773815D01*
X131354494Y-162694463D01*
X131244180Y-162635498D01*
X131124482Y-162599188D01*
X131000000Y-162586928D01*
X130385750Y-162590000D01*
X130227000Y-162748750D01*
X129973000Y-162748750D01*
X129814250Y-162590000D01*
X129200000Y-162586928D01*
X129075518Y-162599188D01*
X128955820Y-162635498D01*
X128845506Y-162694463D01*
X128748815Y-162773815D01*
X128669463Y-162870506D01*
X128610498Y-162980820D01*
X128574188Y-163100518D01*
X128561928Y-163225000D01*
X125438072Y-163225000D01*
X125425812Y-163100518D01*
X125389502Y-162980820D01*
X125330537Y-162870506D01*
X125251185Y-162773815D01*
X125154494Y-162694463D01*
X125044180Y-162635498D01*
X124924482Y-162599188D01*
X124800000Y-162586928D01*
X123000000Y-162586928D01*
X122875518Y-162599188D01*
X122755820Y-162635498D01*
X122645506Y-162694463D01*
X122548815Y-162773815D01*
X122469463Y-162870506D01*
X122410498Y-162980820D01*
X122374188Y-163100518D01*
X122361928Y-163225000D01*
X118160856Y-163225000D01*
X112839500Y-157903644D01*
X112839500Y-147800000D01*
X112961928Y-147800000D01*
X112965000Y-148001750D01*
X113123750Y-148160500D01*
X114173000Y-148160500D01*
X114173000Y-147323750D01*
X114014250Y-147165000D01*
X113600000Y-147161928D01*
X113475518Y-147174188D01*
X113355820Y-147210498D01*
X113245506Y-147269463D01*
X113148815Y-147348815D01*
X113069463Y-147445506D01*
X113010498Y-147555820D01*
X112974188Y-147675518D01*
X112961928Y-147800000D01*
X112839500Y-147800000D01*
X112839500Y-142425000D01*
X112961928Y-142425000D01*
X112974188Y-142549482D01*
X113010498Y-142669180D01*
X113069463Y-142779494D01*
X113148815Y-142876185D01*
X113226564Y-142939992D01*
X113220208Y-142945208D01*
X113110542Y-143078836D01*
X113029053Y-143231291D01*
X112978872Y-143396715D01*
X112961928Y-143568750D01*
X112961928Y-144056250D01*
X112978872Y-144228285D01*
X113029053Y-144393709D01*
X113110542Y-144546164D01*
X113220208Y-144679792D01*
X113353836Y-144789458D01*
X113506291Y-144870947D01*
X113671715Y-144921128D01*
X113843750Y-144938072D01*
X114756250Y-144938072D01*
X114928285Y-144921128D01*
X115093709Y-144870947D01*
X115246164Y-144789458D01*
X115379792Y-144679792D01*
X115489458Y-144546164D01*
X115570947Y-144393709D01*
X115621128Y-144228285D01*
X115638072Y-144056250D01*
X115638072Y-143568750D01*
X115621128Y-143396715D01*
X115570947Y-143231291D01*
X115489458Y-143078836D01*
X115379792Y-142945208D01*
X115373436Y-142939992D01*
X115451185Y-142876185D01*
X115530537Y-142779494D01*
X115589502Y-142669180D01*
X115625812Y-142549482D01*
X115638072Y-142425000D01*
X115635000Y-142223250D01*
X115476250Y-142064500D01*
X114427000Y-142064500D01*
X114427000Y-142084500D01*
X114173000Y-142084500D01*
X114173000Y-142064500D01*
X113123750Y-142064500D01*
X112965000Y-142223250D01*
X112961928Y-142425000D01*
X112839500Y-142425000D01*
X112839500Y-142081250D01*
X112837060Y-142056474D01*
X112829833Y-142032649D01*
X112818097Y-142010693D01*
X112802303Y-141991447D01*
X112260856Y-141450000D01*
X112961928Y-141450000D01*
X112965000Y-141651750D01*
X113123750Y-141810500D01*
X114173000Y-141810500D01*
X114173000Y-140973750D01*
X114427000Y-140973750D01*
X114427000Y-141810500D01*
X115476250Y-141810500D01*
X115635000Y-141651750D01*
X115638072Y-141450000D01*
X115625812Y-141325518D01*
X115589502Y-141205820D01*
X115530537Y-141095506D01*
X115451185Y-140998815D01*
X115354494Y-140919463D01*
X115244180Y-140860498D01*
X115124482Y-140824188D01*
X115000000Y-140811928D01*
X114585750Y-140815000D01*
X114427000Y-140973750D01*
X114173000Y-140973750D01*
X114014250Y-140815000D01*
X113600000Y-140811928D01*
X113475518Y-140824188D01*
X113355820Y-140860498D01*
X113245506Y-140919463D01*
X113148815Y-140998815D01*
X113069463Y-141095506D01*
X113010498Y-141205820D01*
X112974188Y-141325518D01*
X112961928Y-141450000D01*
X112260856Y-141450000D01*
X109664500Y-138853644D01*
X109664500Y-135100000D01*
X109786928Y-135100000D01*
X109790000Y-135301750D01*
X109948750Y-135460500D01*
X110998000Y-135460500D01*
X110998000Y-134623750D01*
X111252000Y-134623750D01*
X111252000Y-135460500D01*
X112301250Y-135460500D01*
X112460000Y-135301750D01*
X112463072Y-135100000D01*
X112450812Y-134975518D01*
X112414502Y-134855820D01*
X112355537Y-134745506D01*
X112276185Y-134648815D01*
X112179494Y-134569463D01*
X112069180Y-134510498D01*
X111949482Y-134474188D01*
X111825000Y-134461928D01*
X111410750Y-134465000D01*
X111252000Y-134623750D01*
X110998000Y-134623750D01*
X110839250Y-134465000D01*
X110425000Y-134461928D01*
X110300518Y-134474188D01*
X110180820Y-134510498D01*
X110070506Y-134569463D01*
X109973815Y-134648815D01*
X109894463Y-134745506D01*
X109835498Y-134855820D01*
X109799188Y-134975518D01*
X109786928Y-135100000D01*
X109664500Y-135100000D01*
X109664500Y-134270750D01*
X124459619Y-134270750D01*
X124844971Y-134656102D01*
X124844971Y-134656102D01*
G37*
X124844971Y-134656102D02*
X124868828Y-134685172D01*
X124897898Y-134709029D01*
X124984857Y-134780395D01*
X125028129Y-134803524D01*
X125117235Y-134851152D01*
X125260872Y-134894724D01*
X125372824Y-134905750D01*
X125372827Y-134905750D01*
X125410250Y-134909436D01*
X125447673Y-134905750D01*
X128331007Y-134905750D01*
X128322742Y-134932996D01*
X128305678Y-135106250D01*
X128305678Y-136274500D01*
X124365800Y-136274500D01*
X124325250Y-136270506D01*
X124292075Y-136273774D01*
X124300572Y-136187500D01*
X124300572Y-135275000D01*
X124283628Y-135102965D01*
X124233447Y-134937541D01*
X124151958Y-134785086D01*
X124042292Y-134651458D01*
X123908664Y-134541792D01*
X123756209Y-134460303D01*
X123590785Y-134410122D01*
X123418750Y-134393178D01*
X122931250Y-134393178D01*
X122759215Y-134410122D01*
X122593791Y-134460303D01*
X122441336Y-134541792D01*
X122307708Y-134651458D01*
X122237500Y-134737006D01*
X122167292Y-134651458D01*
X122033664Y-134541792D01*
X121881209Y-134460303D01*
X121715785Y-134410122D01*
X121543750Y-134393178D01*
X121056250Y-134393178D01*
X120884215Y-134410122D01*
X120718791Y-134460303D01*
X120566336Y-134541792D01*
X120432708Y-134651458D01*
X120323042Y-134785086D01*
X120241553Y-134937541D01*
X120191372Y-135102965D01*
X120174428Y-135275000D01*
X120174428Y-136187500D01*
X120191372Y-136359535D01*
X120241553Y-136524959D01*
X120323042Y-136677414D01*
X120432708Y-136811042D01*
X120566336Y-136920708D01*
X120718791Y-137002197D01*
X120884215Y-137052378D01*
X121056250Y-137069322D01*
X121543750Y-137069322D01*
X121715785Y-137052378D01*
X121881209Y-137002197D01*
X122033664Y-136920708D01*
X122167292Y-136811042D01*
X122237500Y-136725494D01*
X122307708Y-136811042D01*
X122441336Y-136920708D01*
X122593791Y-137002197D01*
X122759215Y-137052378D01*
X122931250Y-137069322D01*
X123188495Y-137069322D01*
X122444966Y-137812852D01*
X122413459Y-137838709D01*
X122344214Y-137923085D01*
X122310301Y-137964408D01*
X122305710Y-137972998D01*
X122233647Y-138107817D01*
X122186444Y-138263425D01*
X122174992Y-138379705D01*
X122170506Y-138425250D01*
X122174500Y-138465801D01*
X122174500Y-138489103D01*
X122135498Y-138562070D01*
X122099188Y-138681768D01*
X122086928Y-138806250D01*
X122086928Y-140306250D01*
X122090962Y-140347212D01*
X122050000Y-140343178D01*
X120550000Y-140343178D01*
X120425518Y-140355438D01*
X120305820Y-140391748D01*
X120195506Y-140450713D01*
X120098815Y-140530065D01*
X120019463Y-140626756D01*
X119980268Y-140700084D01*
X117678069Y-138397887D01*
X117761042Y-138329792D01*
X117870708Y-138196164D01*
X117952197Y-138043709D01*
X118002378Y-137878285D01*
X118019322Y-137706250D01*
X118019322Y-137218750D01*
X118002378Y-137046715D01*
X117952197Y-136881291D01*
X117870708Y-136728836D01*
X117761042Y-136595208D01*
X117675494Y-136525000D01*
X117761042Y-136454792D01*
X117870708Y-136321164D01*
X117952197Y-136168709D01*
X118002378Y-136003285D01*
X118019322Y-135831250D01*
X118019322Y-135343750D01*
X118002378Y-135171715D01*
X117952197Y-135006291D01*
X117870708Y-134853836D01*
X117761042Y-134720208D01*
X117627414Y-134610542D01*
X117474959Y-134529053D01*
X117309535Y-134478872D01*
X117137500Y-134461928D01*
X116225000Y-134461928D01*
X116052965Y-134478872D01*
X115887541Y-134529053D01*
X115735086Y-134610542D01*
X115601458Y-134720208D01*
X115491792Y-134853836D01*
X115410303Y-135006291D01*
X115360122Y-135171715D01*
X115343178Y-135343750D01*
X115343178Y-135831250D01*
X115360122Y-136003285D01*
X115410303Y-136168709D01*
X115491792Y-136321164D01*
X115601458Y-136454792D01*
X115687006Y-136525000D01*
X115601458Y-136595208D01*
X115491792Y-136728836D01*
X115410303Y-136881291D01*
X115360122Y-137046715D01*
X115343178Y-137218750D01*
X115343178Y-137515010D01*
X112463072Y-137515010D01*
X112463072Y-137218750D01*
X112446128Y-137046715D01*
X112395947Y-136881291D01*
X112314458Y-136728836D01*
X112204792Y-136595208D01*
X112198436Y-136589992D01*
X112276185Y-136526185D01*
X112355537Y-136429494D01*
X112414502Y-136319180D01*
X112450812Y-136199482D01*
X112463072Y-136075000D01*
X112460000Y-135873250D01*
X112301250Y-135714500D01*
X111252000Y-135714500D01*
X111252000Y-135734500D01*
X110998000Y-135734500D01*
X110998000Y-135714500D01*
X109948750Y-135714500D01*
X109790000Y-135873250D01*
X109786928Y-136075000D01*
X109799188Y-136199482D01*
X109835498Y-136319180D01*
X109894463Y-136429494D01*
X109973815Y-136526185D01*
X110051564Y-136589992D01*
X110045208Y-136595208D01*
X109935542Y-136728836D01*
X109854053Y-136881291D01*
X109803872Y-137046715D01*
X109786928Y-137218750D01*
X109786928Y-137706250D01*
X109803872Y-137878285D01*
X109854053Y-138043709D01*
X109935542Y-138196164D01*
X110045208Y-138329792D01*
X110178836Y-138439458D01*
X110331291Y-138520947D01*
X110496715Y-138571128D01*
X110668750Y-138588072D01*
X111083139Y-138588072D01*
X111390621Y-138895554D01*
X111416469Y-138927051D01*
X111447965Y-138952899D01*
X111447968Y-138952902D01*
X111542167Y-139030209D01*
X111664145Y-139095408D01*
X111685576Y-139106863D01*
X111841184Y-139154066D01*
X111962457Y-139166010D01*
X111962459Y-139166010D01*
X112003010Y-139170004D01*
X112043560Y-139166010D01*
X116111328Y-139166010D01*
X119556611Y-142611295D01*
X119582459Y-142642791D01*
X119604176Y-142660613D01*
X119554352Y-142670524D01*
X119365994Y-142748545D01*
X119196476Y-142861813D01*
X119052313Y-143005976D01*
X118939045Y-143175494D01*
X118861024Y-143363852D01*
X118821250Y-143563811D01*
X118821250Y-143767689D01*
X118861024Y-143967648D01*
X118939045Y-144156006D01*
X119052313Y-144325524D01*
X119187789Y-144461000D01*
X119052313Y-144596476D01*
X118939045Y-144765994D01*
X118861024Y-144954352D01*
X118821250Y-145154311D01*
X118821250Y-145230750D01*
X118446792Y-145230750D01*
X118406249Y-145226757D01*
X118365706Y-145230750D01*
X118365697Y-145230750D01*
X118244424Y-145242694D01*
X118088816Y-145289897D01*
X117962004Y-145357680D01*
X117945406Y-145366552D01*
X117903608Y-145400855D01*
X117819709Y-145469709D01*
X117793857Y-145501211D01*
X115624354Y-147670713D01*
X115589502Y-147555820D01*
X115530537Y-147445506D01*
X115451185Y-147348815D01*
X115354494Y-147269463D01*
X115244180Y-147210498D01*
X115124482Y-147174188D01*
X115000000Y-147161928D01*
X114585750Y-147165000D01*
X114427000Y-147323750D01*
X114427000Y-148160500D01*
X114447000Y-148160500D01*
X114447000Y-148414500D01*
X114427000Y-148414500D01*
X114427000Y-148434500D01*
X114173000Y-148434500D01*
X114173000Y-148414500D01*
X113123750Y-148414500D01*
X112965000Y-148573250D01*
X112961928Y-148775000D01*
X112974188Y-148899482D01*
X113010498Y-149019180D01*
X113069463Y-149129494D01*
X113148815Y-149226185D01*
X113226564Y-149289992D01*
X113220208Y-149295208D01*
X113110542Y-149428836D01*
X113029053Y-149581291D01*
X112978872Y-149746715D01*
X112961928Y-149918750D01*
X112961928Y-150406250D01*
X112978872Y-150578285D01*
X113029053Y-150743709D01*
X113110542Y-150896164D01*
X113220208Y-151029792D01*
X113353836Y-151139458D01*
X113474501Y-151203955D01*
X113474500Y-153596046D01*
X113353836Y-153660542D01*
X113220208Y-153770208D01*
X113110542Y-153903836D01*
X113029053Y-154056291D01*
X112978872Y-154221715D01*
X112961928Y-154393750D01*
X112961928Y-154881250D01*
X112978872Y-155053285D01*
X113029053Y-155218709D01*
X113110542Y-155371164D01*
X113220208Y-155504792D01*
X113305756Y-155575000D01*
X113220208Y-155645208D01*
X113110542Y-155778836D01*
X113029053Y-155931291D01*
X112978872Y-156096715D01*
X112961928Y-156268750D01*
X112961928Y-156756250D01*
X112978872Y-156928285D01*
X113029053Y-157093709D01*
X113110542Y-157246164D01*
X113220208Y-157379792D01*
X113353836Y-157489458D01*
X113506291Y-157570947D01*
X113671715Y-157621128D01*
X113843750Y-157638072D01*
X114347942Y-157638072D01*
X117297221Y-160587352D01*
X117321078Y-160616422D01*
X117350148Y-160640279D01*
X117437107Y-160711645D01*
X117480379Y-160734774D01*
X117569485Y-160782402D01*
X117713122Y-160825974D01*
X117825074Y-160837000D01*
X117825077Y-160837000D01*
X117862500Y-160840686D01*
X117899923Y-160837000D01*
X122400736Y-160837000D01*
X122410498Y-160869180D01*
X122469463Y-160979494D01*
X122548815Y-161076185D01*
X122645506Y-161155537D01*
X122755820Y-161214502D01*
X122875518Y-161250812D01*
X123000000Y-161263072D01*
X124800000Y-161263072D01*
X124924482Y-161250812D01*
X125044180Y-161214502D01*
X125154494Y-161155537D01*
X125251185Y-161076185D01*
X125330537Y-160979494D01*
X125389502Y-160869180D01*
X125425812Y-160749482D01*
X125438072Y-160625000D01*
X125438072Y-159525000D01*
X128561928Y-159525000D01*
X128561928Y-160625000D01*
X128574188Y-160749482D01*
X128610498Y-160869180D01*
X128669463Y-160979494D01*
X128748815Y-161076185D01*
X128845506Y-161155537D01*
X128955820Y-161214502D01*
X129075518Y-161250812D01*
X129200000Y-161263072D01*
X131000000Y-161263072D01*
X131124482Y-161250812D01*
X131244180Y-161214502D01*
X131354494Y-161155537D01*
X131451185Y-161076185D01*
X131530537Y-160979494D01*
X131589502Y-160869180D01*
X131625812Y-160749482D01*
X131638072Y-160625000D01*
X131638072Y-159525000D01*
X131625812Y-159400518D01*
X131589502Y-159280820D01*
X131530537Y-159170506D01*
X131451185Y-159073815D01*
X131354494Y-158994463D01*
X131244180Y-158935498D01*
X131124482Y-158899188D01*
X131000000Y-158886928D01*
X129200000Y-158886928D01*
X129075518Y-158899188D01*
X128955820Y-158935498D01*
X128845506Y-158994463D01*
X128748815Y-159073815D01*
X128669463Y-159170506D01*
X128610498Y-159280820D01*
X128574188Y-159400518D01*
X128561928Y-159525000D01*
X125438072Y-159525000D01*
X125425812Y-159400518D01*
X125389502Y-159280820D01*
X125330537Y-159170506D01*
X125251185Y-159073815D01*
X125154494Y-158994463D01*
X125044180Y-158935498D01*
X124924482Y-158899188D01*
X124800000Y-158886928D01*
X123000000Y-158886928D01*
X122875518Y-158899188D01*
X122755820Y-158935498D01*
X122645506Y-158994463D01*
X122548815Y-159073815D01*
X122469463Y-159170506D01*
X122410498Y-159280820D01*
X122400736Y-159313000D01*
X118178131Y-159313000D01*
X115636575Y-156771445D01*
X115638072Y-156756250D01*
X115638072Y-156268750D01*
X115621128Y-156096715D01*
X115570947Y-155931291D01*
X115489458Y-155778836D01*
X115379792Y-155645208D01*
X115294244Y-155575000D01*
X115379792Y-155504792D01*
X115489458Y-155371164D01*
X115570947Y-155218709D01*
X115621128Y-155053285D01*
X115638072Y-154881250D01*
X115638072Y-154393750D01*
X115621128Y-154221715D01*
X115599374Y-154150000D01*
X120105678Y-154150000D01*
X120108750Y-154351750D01*
X120267500Y-154510500D01*
X121316750Y-154510500D01*
X121316750Y-153673750D01*
X121570750Y-153673750D01*
X121570750Y-154510500D01*
X122620000Y-154510500D01*
X122778750Y-154351750D01*
X122781822Y-154150000D01*
X122779360Y-154125000D01*
X124561928Y-154125000D01*
X124565000Y-154439250D01*
X124723750Y-154598000D01*
X125773000Y-154598000D01*
X125773000Y-153648750D01*
X125614250Y-153490000D01*
X125200000Y-153486928D01*
X125075518Y-153499188D01*
X124955820Y-153535498D01*
X124845506Y-153594463D01*
X124748815Y-153673815D01*
X124669463Y-153770506D01*
X124610498Y-153880820D01*
X124574188Y-154000518D01*
X124561928Y-154125000D01*
X122779360Y-154125000D01*
X122769562Y-154025518D01*
X122733252Y-153905820D01*
X122674287Y-153795506D01*
X122594935Y-153698815D01*
X122498244Y-153619463D01*
X122387930Y-153560498D01*
X122268232Y-153524188D01*
X122143750Y-153511928D01*
X121729500Y-153515000D01*
X121570750Y-153673750D01*
X121316750Y-153673750D01*
X121158000Y-153515000D01*
X120743750Y-153511928D01*
X120619268Y-153524188D01*
X120499570Y-153560498D01*
X120389256Y-153619463D01*
X120292565Y-153698815D01*
X120213213Y-153795506D01*
X120154248Y-153905820D01*
X120117938Y-154025518D01*
X120105678Y-154150000D01*
X115599374Y-154150000D01*
X115570947Y-154056291D01*
X115489458Y-153903836D01*
X115379792Y-153770208D01*
X115246164Y-153660542D01*
X115125500Y-153596046D01*
X115125500Y-151203954D01*
X115246164Y-151139458D01*
X115379792Y-151029792D01*
X115489458Y-150896164D01*
X115570947Y-150743709D01*
X115621128Y-150578285D01*
X115638072Y-150406250D01*
X115638072Y-149991860D01*
X118748183Y-146881750D01*
X119911928Y-146881750D01*
X119911928Y-147131250D01*
X119924188Y-147255732D01*
X119924345Y-147256250D01*
X119924188Y-147256768D01*
X119911928Y-147381250D01*
X119911928Y-147931250D01*
X119924188Y-148055732D01*
X119924345Y-148056250D01*
X119924188Y-148056768D01*
X119911928Y-148181250D01*
X119911928Y-148731250D01*
X119924188Y-148855732D01*
X119924345Y-148856250D01*
X119924188Y-148856768D01*
X119911928Y-148981250D01*
X119911928Y-149531250D01*
X119924188Y-149655732D01*
X119960498Y-149775430D01*
X120019463Y-149885744D01*
X120098815Y-149982435D01*
X120195506Y-150061787D01*
X120305820Y-150120752D01*
X120425518Y-150157062D01*
X120550000Y-150169322D01*
X122050000Y-150169322D01*
X122090962Y-150165288D01*
X122086928Y-150206250D01*
X122086928Y-151706250D01*
X122099188Y-151830732D01*
X122135498Y-151950430D01*
X122194463Y-152060744D01*
X122273815Y-152157435D01*
X122370506Y-152236787D01*
X122480820Y-152295752D01*
X122600518Y-152332062D01*
X122725000Y-152344322D01*
X122790000Y-152344322D01*
X122790000Y-152501939D01*
X122829774Y-152701898D01*
X122907795Y-152890256D01*
X123021063Y-153059774D01*
X123165226Y-153203937D01*
X123334744Y-153317205D01*
X123523102Y-153395226D01*
X123723061Y-153435000D01*
X123926939Y-153435000D01*
X124126898Y-153395226D01*
X124315256Y-153317205D01*
X124484774Y-153203937D01*
X124628937Y-153059774D01*
X124742205Y-152890256D01*
X124820226Y-152701898D01*
X124860000Y-152501939D01*
X124860000Y-152344322D01*
X124875000Y-152344322D01*
X124999482Y-152332062D01*
X125000663Y-152331704D01*
X125114250Y-152341250D01*
X125174679Y-152280821D01*
X125171250Y-152298061D01*
X125171250Y-152501939D01*
X125211024Y-152701898D01*
X125289045Y-152890256D01*
X125402313Y-153059774D01*
X125546476Y-153203937D01*
X125715994Y-153317205D01*
X125904352Y-153395226D01*
X126104311Y-153435000D01*
X126238001Y-153435000D01*
X126238001Y-153489613D01*
X126185750Y-153490000D01*
X126027000Y-153648750D01*
X126027000Y-154598000D01*
X126047000Y-154598000D01*
X126047000Y-154852000D01*
X126027000Y-154852000D01*
X126027000Y-154872000D01*
X125773000Y-154872000D01*
X125773000Y-154852000D01*
X124723750Y-154852000D01*
X124565000Y-155010750D01*
X124561928Y-155325000D01*
X124574188Y-155449482D01*
X124610498Y-155569180D01*
X124613609Y-155575000D01*
X124610498Y-155580820D01*
X124574188Y-155700518D01*
X124569265Y-155750500D01*
X122609953Y-155750500D01*
X122523542Y-155645208D01*
X122517186Y-155639992D01*
X122594935Y-155576185D01*
X122674287Y-155479494D01*
X122733252Y-155369180D01*
X122769562Y-155249482D01*
X122781822Y-155125000D01*
X122778750Y-154923250D01*
X122620000Y-154764500D01*
X121570750Y-154764500D01*
X121570750Y-154784500D01*
X121316750Y-154784500D01*
X121316750Y-154764500D01*
X120267500Y-154764500D01*
X120108750Y-154923250D01*
X120105678Y-155125000D01*
X120117938Y-155249482D01*
X120154248Y-155369180D01*
X120213213Y-155479494D01*
X120292565Y-155576185D01*
X120370314Y-155639992D01*
X120363958Y-155645208D01*
X120254292Y-155778836D01*
X120172803Y-155931291D01*
X120122622Y-156096715D01*
X120105678Y-156268750D01*
X120105678Y-156756250D01*
X120122622Y-156928285D01*
X120172803Y-157093709D01*
X120254292Y-157246164D01*
X120363958Y-157379792D01*
X120497586Y-157489458D01*
X120650041Y-157570947D01*
X120815465Y-157621128D01*
X120987500Y-157638072D01*
X121900000Y-157638072D01*
X122072035Y-157621128D01*
X122237459Y-157570947D01*
X122389914Y-157489458D01*
X122523542Y-157379792D01*
X122609953Y-157274500D01*
X124613342Y-157274500D01*
X124669463Y-157379494D01*
X124748815Y-157476185D01*
X124845506Y-157555537D01*
X124955820Y-157614502D01*
X125075518Y-157650812D01*
X125200000Y-157663072D01*
X126600000Y-157663072D01*
X126724482Y-157650812D01*
X126844180Y-157614502D01*
X126954494Y-157555537D01*
X127000000Y-157518191D01*
X127045506Y-157555537D01*
X127155820Y-157614502D01*
X127275518Y-157650812D01*
X127400000Y-157663072D01*
X127814250Y-157660000D01*
X127973000Y-157501250D01*
X127973000Y-156552000D01*
X128227000Y-156552000D01*
X128227000Y-157501250D01*
X128385750Y-157660000D01*
X128800000Y-157663072D01*
X128924482Y-157650812D01*
X129044180Y-157614502D01*
X129154494Y-157555537D01*
X129251185Y-157476185D01*
X129330537Y-157379494D01*
X129389502Y-157269180D01*
X129425812Y-157149482D01*
X129438072Y-157025000D01*
X129437828Y-157000000D01*
X131218178Y-157000000D01*
X131230438Y-157124482D01*
X131266748Y-157244180D01*
X131325713Y-157354494D01*
X131405065Y-157451185D01*
X131501756Y-157530537D01*
X131612070Y-157589502D01*
X131731768Y-157625812D01*
X131856250Y-157638072D01*
X132270500Y-157635000D01*
X132429250Y-157476250D01*
X132429250Y-156639500D01*
X132683250Y-156639500D01*
X132683250Y-157476250D01*
X132842000Y-157635000D01*
X133256250Y-157638072D01*
X133380732Y-157625812D01*
X133500430Y-157589502D01*
X133610744Y-157530537D01*
X133707435Y-157451185D01*
X133786787Y-157354494D01*
X133845752Y-157244180D01*
X133882062Y-157124482D01*
X133894322Y-157000000D01*
X133891250Y-156798250D01*
X133732500Y-156639500D01*
X132683250Y-156639500D01*
X132429250Y-156639500D01*
X131380000Y-156639500D01*
X131221250Y-156798250D01*
X131218178Y-157000000D01*
X129437828Y-157000000D01*
X129435000Y-156710750D01*
X129276250Y-156552000D01*
X128227000Y-156552000D01*
X127973000Y-156552000D01*
X127953000Y-156552000D01*
X127953000Y-156298000D01*
X127973000Y-156298000D01*
X127973000Y-156278000D01*
X128227000Y-156278000D01*
X128227000Y-156298000D01*
X129276250Y-156298000D01*
X129435000Y-156139250D01*
X129438072Y-155825000D01*
X129425812Y-155700518D01*
X129389502Y-155580820D01*
X129386391Y-155575000D01*
X129389502Y-155569180D01*
X129414431Y-155487000D01*
X131461856Y-155487000D01*
X131476458Y-155504792D01*
X131482814Y-155510008D01*
X131405065Y-155573815D01*
X131325713Y-155670506D01*
X131266748Y-155780820D01*
X131230438Y-155900518D01*
X131218178Y-156025000D01*
X131221250Y-156226750D01*
X131380000Y-156385500D01*
X132429250Y-156385500D01*
X132429250Y-156365500D01*
X132683250Y-156365500D01*
X132683250Y-156385500D01*
X133732500Y-156385500D01*
X133891250Y-156226750D01*
X133894322Y-156025000D01*
X133882062Y-155900518D01*
X133845752Y-155780820D01*
X133786787Y-155670506D01*
X133707435Y-155573815D01*
X133629686Y-155510008D01*
X133636042Y-155504792D01*
X133745708Y-155371164D01*
X133827197Y-155218709D01*
X133877378Y-155053285D01*
X133894322Y-154881250D01*
X133894322Y-154393750D01*
X133877378Y-154221715D01*
X133827197Y-154056291D01*
X133745708Y-153903836D01*
X133636042Y-153770208D01*
X133502414Y-153660542D01*
X133349959Y-153579053D01*
X133184535Y-153528872D01*
X133012500Y-153511928D01*
X132100000Y-153511928D01*
X131927965Y-153528872D01*
X131762541Y-153579053D01*
X131610086Y-153660542D01*
X131476458Y-153770208D01*
X131366792Y-153903836D01*
X131335168Y-153963000D01*
X129414431Y-153963000D01*
X129389502Y-153880820D01*
X129330537Y-153770506D01*
X129251185Y-153673815D01*
X129154494Y-153594463D01*
X129044180Y-153535498D01*
X128924482Y-153499188D01*
X128800000Y-153486928D01*
X127762000Y-153486928D01*
X127762000Y-152344322D01*
X128075000Y-152344322D01*
X128199482Y-152332062D01*
X128200000Y-152331905D01*
X128200518Y-152332062D01*
X128325000Y-152344322D01*
X128875000Y-152344322D01*
X128999482Y-152332062D01*
X129000000Y-152331905D01*
X129000518Y-152332062D01*
X129125000Y-152344322D01*
X129675000Y-152344322D01*
X129799482Y-152332062D01*
X129800000Y-152331905D01*
X129800518Y-152332062D01*
X129925000Y-152344322D01*
X130475000Y-152344322D01*
X130599482Y-152332062D01*
X130600000Y-152331905D01*
X130600518Y-152332062D01*
X130725000Y-152344322D01*
X131275000Y-152344322D01*
X131399482Y-152332062D01*
X131519180Y-152295752D01*
X131628160Y-152237500D01*
X138361928Y-152237500D01*
X138374188Y-152361982D01*
X138410498Y-152481680D01*
X138469463Y-152591994D01*
X138548815Y-152688685D01*
X138645506Y-152768037D01*
X138755820Y-152827002D01*
X138875518Y-152863312D01*
X139000000Y-152875572D01*
X139414250Y-152872500D01*
X139573000Y-152713750D01*
X139573000Y-151877000D01*
X139827000Y-151877000D01*
X139827000Y-152713750D01*
X139985750Y-152872500D01*
X140400000Y-152875572D01*
X140524482Y-152863312D01*
X140644180Y-152827002D01*
X140754494Y-152768037D01*
X140851185Y-152688685D01*
X140930537Y-152591994D01*
X140989502Y-152481680D01*
X141025812Y-152361982D01*
X141038072Y-152237500D01*
X141035000Y-152035750D01*
X140876250Y-151877000D01*
X139827000Y-151877000D01*
X139573000Y-151877000D01*
X138523750Y-151877000D01*
X138365000Y-152035750D01*
X138361928Y-152237500D01*
X131628160Y-152237500D01*
X131629494Y-152236787D01*
X131726185Y-152157435D01*
X131805537Y-152060744D01*
X131864502Y-151950430D01*
X131900812Y-151830732D01*
X131913072Y-151706250D01*
X131913072Y-150206250D01*
X131909028Y-150165186D01*
X131953213Y-150169314D01*
X132414250Y-150166250D01*
X132573000Y-150007500D01*
X132573000Y-149383250D01*
X132553000Y-149383250D01*
X132553000Y-149369322D01*
X132847000Y-149369322D01*
X132847000Y-149383250D01*
X132827000Y-149383250D01*
X132827000Y-150007500D01*
X132985750Y-150166250D01*
X133446787Y-150169314D01*
X133571329Y-150157680D01*
X133691208Y-150121974D01*
X133801818Y-150063566D01*
X133898908Y-149984701D01*
X133978746Y-149888411D01*
X134038265Y-149778395D01*
X134075177Y-149658881D01*
X134077499Y-149631250D01*
X138361928Y-149631250D01*
X138361928Y-150118750D01*
X138378872Y-150290785D01*
X138429053Y-150456209D01*
X138510542Y-150608664D01*
X138620208Y-150742292D01*
X138626564Y-150747508D01*
X138548815Y-150811315D01*
X138469463Y-150908006D01*
X138410498Y-151018320D01*
X138374188Y-151138018D01*
X138361928Y-151262500D01*
X138365000Y-151464250D01*
X138523750Y-151623000D01*
X139573000Y-151623000D01*
X139573000Y-151603000D01*
X139827000Y-151603000D01*
X139827000Y-151623000D01*
X140876250Y-151623000D01*
X141035000Y-151464250D01*
X141038072Y-151262500D01*
X141025812Y-151138018D01*
X140989502Y-151018320D01*
X140930537Y-150908006D01*
X140851185Y-150811315D01*
X140773436Y-150747508D01*
X140779792Y-150742292D01*
X140889458Y-150608664D01*
X140970947Y-150456209D01*
X141021128Y-150290785D01*
X141038072Y-150118750D01*
X141038072Y-149631250D01*
X141021128Y-149459215D01*
X140970947Y-149293791D01*
X140889458Y-149141336D01*
X140779792Y-149007708D01*
X140646164Y-148898042D01*
X140493709Y-148816553D01*
X140328285Y-148766372D01*
X140156250Y-148749428D01*
X139243750Y-148749428D01*
X139071715Y-148766372D01*
X138906291Y-148816553D01*
X138753836Y-148898042D01*
X138620208Y-149007708D01*
X138510542Y-149141336D01*
X138429053Y-149293791D01*
X138378872Y-149459215D01*
X138361928Y-149631250D01*
X134077499Y-149631250D01*
X134085000Y-149542000D01*
X134001165Y-149458165D01*
X134041811Y-149466250D01*
X134245689Y-149466250D01*
X134445648Y-149426476D01*
X134634006Y-149348455D01*
X134768933Y-149258300D01*
X134793750Y-149260744D01*
X134834300Y-149256750D01*
X134834303Y-149256750D01*
X134955576Y-149244806D01*
X135111184Y-149197603D01*
X135254592Y-149120949D01*
X135380291Y-149017791D01*
X135406148Y-148986284D01*
X138375646Y-146016787D01*
X138410498Y-146131680D01*
X138469463Y-146241994D01*
X138548815Y-146338685D01*
X138645506Y-146418037D01*
X138755820Y-146477002D01*
X138875518Y-146513312D01*
X139000000Y-146525572D01*
X139414250Y-146522500D01*
X139573000Y-146363750D01*
X139573000Y-145527000D01*
X139827000Y-145527000D01*
X139827000Y-146363750D01*
X139985750Y-146522500D01*
X140400000Y-146525572D01*
X140524482Y-146513312D01*
X140644180Y-146477002D01*
X140754494Y-146418037D01*
X140851185Y-146338685D01*
X140930537Y-146241994D01*
X140989502Y-146131680D01*
X141025812Y-146011982D01*
X141038072Y-145887500D01*
X141035000Y-145685750D01*
X140876250Y-145527000D01*
X139827000Y-145527000D01*
X139573000Y-145527000D01*
X139553000Y-145527000D01*
X139553000Y-145273000D01*
X139573000Y-145273000D01*
X139573000Y-145253000D01*
X139827000Y-145253000D01*
X139827000Y-145273000D01*
X140876250Y-145273000D01*
X141035000Y-145114250D01*
X141038072Y-144912500D01*
X141025812Y-144788018D01*
X140989502Y-144668320D01*
X140930537Y-144558006D01*
X140851185Y-144461315D01*
X140773436Y-144397508D01*
X140779792Y-144392292D01*
X140889458Y-144258664D01*
X140970947Y-144106209D01*
X141021128Y-143940785D01*
X141038072Y-143768750D01*
X141038072Y-143281250D01*
X141021128Y-143109215D01*
X140970947Y-142943791D01*
X140889458Y-142791336D01*
X140779792Y-142657708D01*
X140646164Y-142548042D01*
X140493709Y-142466553D01*
X140328285Y-142416372D01*
X140156250Y-142399428D01*
X139243750Y-142399428D01*
X139071715Y-142416372D01*
X138906291Y-142466553D01*
X138753836Y-142548042D01*
X138620208Y-142657708D01*
X138510542Y-142791336D01*
X138429053Y-142943791D01*
X138378872Y-143109215D01*
X138361928Y-143281250D01*
X138361928Y-143695639D01*
X134570025Y-147487543D01*
X134445648Y-147436024D01*
X134245689Y-147396250D01*
X134088072Y-147396250D01*
X134088072Y-147381250D01*
X134075812Y-147256768D01*
X134075655Y-147256250D01*
X134075812Y-147255732D01*
X134088072Y-147131250D01*
X134088072Y-146581250D01*
X134075812Y-146456768D01*
X134075655Y-146456250D01*
X134075812Y-146455732D01*
X134088072Y-146331250D01*
X134088072Y-146018250D01*
X134235789Y-146018250D01*
X134277726Y-146060187D01*
X134447244Y-146173455D01*
X134635602Y-146251476D01*
X134835561Y-146291250D01*
X135039439Y-146291250D01*
X135239398Y-146251476D01*
X135427756Y-146173455D01*
X135597274Y-146060187D01*
X135741437Y-145916024D01*
X135854705Y-145746506D01*
X135932726Y-145558148D01*
X135972500Y-145358189D01*
X135972500Y-145154311D01*
X135932726Y-144954352D01*
X135854705Y-144765994D01*
X135813115Y-144703750D01*
X135833189Y-144703750D01*
X136033148Y-144663976D01*
X136221506Y-144585955D01*
X136391024Y-144472687D01*
X136535187Y-144328524D01*
X136648455Y-144159006D01*
X136726476Y-143970648D01*
X136766250Y-143770689D01*
X136766250Y-143566811D01*
X136726476Y-143366852D01*
X136648455Y-143178494D01*
X136535187Y-143008976D01*
X136391024Y-142864813D01*
X136221506Y-142751545D01*
X136033148Y-142673524D01*
X135833189Y-142633750D01*
X135629311Y-142633750D01*
X135429352Y-142673524D01*
X135240994Y-142751545D01*
X135071476Y-142864813D01*
X135029539Y-142906750D01*
X134088072Y-142906750D01*
X134088072Y-142581250D01*
X134075812Y-142456768D01*
X134075655Y-142456250D01*
X134075812Y-142455732D01*
X134088072Y-142331250D01*
X134088072Y-141781250D01*
X134075812Y-141656768D01*
X134075655Y-141656250D01*
X134075812Y-141655732D01*
X134088072Y-141531250D01*
X134088072Y-140981250D01*
X134075812Y-140856768D01*
X134039502Y-140737070D01*
X133980537Y-140626756D01*
X133934374Y-140570506D01*
X134967380Y-139537500D01*
X138361928Y-139537500D01*
X138374188Y-139661982D01*
X138410498Y-139781680D01*
X138469463Y-139891994D01*
X138548815Y-139988685D01*
X138645506Y-140068037D01*
X138755820Y-140127002D01*
X138875518Y-140163312D01*
X139000000Y-140175572D01*
X139414250Y-140172500D01*
X139573000Y-140013750D01*
X139573000Y-139177000D01*
X139827000Y-139177000D01*
X139827000Y-140013750D01*
X139985750Y-140172500D01*
X140400000Y-140175572D01*
X140524482Y-140163312D01*
X140644180Y-140127002D01*
X140754494Y-140068037D01*
X140851185Y-139988685D01*
X140930537Y-139891994D01*
X140989502Y-139781680D01*
X141025812Y-139661982D01*
X141038072Y-139537500D01*
X141035000Y-139335750D01*
X140876250Y-139177000D01*
X139827000Y-139177000D01*
X139573000Y-139177000D01*
X138523750Y-139177000D01*
X138365000Y-139335750D01*
X138361928Y-139537500D01*
X134967380Y-139537500D01*
X136567881Y-137937000D01*
X138533797Y-137937000D01*
X138620208Y-138042292D01*
X138626564Y-138047508D01*
X138548815Y-138111315D01*
X138469463Y-138208006D01*
X138410498Y-138318320D01*
X138374188Y-138438018D01*
X138361928Y-138562500D01*
X138365000Y-138764250D01*
X138523750Y-138923000D01*
X139573000Y-138923000D01*
X139573000Y-138903000D01*
X139827000Y-138903000D01*
X139827000Y-138923000D01*
X140876250Y-138923000D01*
X141035000Y-138764250D01*
X141038072Y-138562500D01*
X141025812Y-138438018D01*
X140989502Y-138318320D01*
X140930537Y-138208006D01*
X140851185Y-138111315D01*
X140773436Y-138047508D01*
X140779792Y-138042292D01*
X140889458Y-137908664D01*
X140970947Y-137756209D01*
X141021128Y-137590785D01*
X141038072Y-137418750D01*
X141038072Y-136931250D01*
X141021128Y-136759215D01*
X140970947Y-136593791D01*
X140889458Y-136441336D01*
X140779792Y-136307708D01*
X140646164Y-136198042D01*
X140493709Y-136116553D01*
X140328285Y-136066372D01*
X140156250Y-136049428D01*
X139243750Y-136049428D01*
X139071715Y-136066372D01*
X138906291Y-136116553D01*
X138753836Y-136198042D01*
X138620208Y-136307708D01*
X138533797Y-136413000D01*
X136289672Y-136413000D01*
X136252249Y-136409314D01*
X136214826Y-136413000D01*
X136214824Y-136413000D01*
X136102872Y-136424026D01*
X135959235Y-136467598D01*
X135826858Y-136538355D01*
X135710828Y-136633578D01*
X135686971Y-136662648D01*
X132187654Y-140161966D01*
X132158578Y-140185828D01*
X132109239Y-140245949D01*
X132063355Y-140301858D01*
X132041269Y-140343178D01*
X131950000Y-140343178D01*
X131909038Y-140347212D01*
X131913072Y-140306250D01*
X131913072Y-138806250D01*
X131900812Y-138681768D01*
X131864502Y-138562070D01*
X131825500Y-138489104D01*
X131825500Y-137441932D01*
X132023111Y-137244322D01*
X132743750Y-137244322D01*
X132917004Y-137227258D01*
X133083600Y-137176722D01*
X133237136Y-137094655D01*
X133371712Y-136984212D01*
X133482155Y-136849636D01*
X133564222Y-136696100D01*
X133614758Y-136529504D01*
X133631822Y-136356250D01*
X133631822Y-135106250D01*
X133614758Y-134932996D01*
X133606493Y-134905750D01*
X135029539Y-134905750D01*
X135071476Y-134947687D01*
X135240994Y-135060955D01*
X135429352Y-135138976D01*
X135629311Y-135178750D01*
X135833189Y-135178750D01*
X136033148Y-135138976D01*
X136221506Y-135060955D01*
X136391024Y-134947687D01*
X136535187Y-134803524D01*
X136648455Y-134634006D01*
X136726476Y-134445648D01*
X136761265Y-134270750D01*
X139647394Y-134270750D01*
X141160500Y-135783856D01*
X141160500Y-157103017D01*
X131716520Y-164973000D01*
X119908856Y-164973000D01*
X118160856Y-163225000D01*
X122361928Y-163225000D01*
X122361928Y-164325000D01*
X122374188Y-164449482D01*
X122410498Y-164569180D01*
X122469463Y-164679494D01*
X122548815Y-164776185D01*
X122645506Y-164855537D01*
X122755820Y-164914502D01*
X122875518Y-164950812D01*
X123000000Y-164963072D01*
X124800000Y-164963072D01*
X124924482Y-164950812D01*
X125044180Y-164914502D01*
X125154494Y-164855537D01*
X125251185Y-164776185D01*
X125330537Y-164679494D01*
X125389502Y-164569180D01*
X125425812Y-164449482D01*
X125438072Y-164325000D01*
X128561928Y-164325000D01*
X128574188Y-164449482D01*
X128610498Y-164569180D01*
X128669463Y-164679494D01*
X128748815Y-164776185D01*
X128845506Y-164855537D01*
X128955820Y-164914502D01*
X129075518Y-164950812D01*
X129200000Y-164963072D01*
X129814250Y-164960000D01*
X129973000Y-164801250D01*
X129973000Y-163902000D01*
X130227000Y-163902000D01*
X130227000Y-164801250D01*
X130385750Y-164960000D01*
X131000000Y-164963072D01*
X131124482Y-164950812D01*
X131244180Y-164914502D01*
X131354494Y-164855537D01*
X131451185Y-164776185D01*
X131530537Y-164679494D01*
X131589502Y-164569180D01*
X131625812Y-164449482D01*
X131638072Y-164325000D01*
X131635000Y-164060750D01*
X131476250Y-163902000D01*
X130227000Y-163902000D01*
X129973000Y-163902000D01*
X128723750Y-163902000D01*
X128565000Y-164060750D01*
X128561928Y-164325000D01*
X125438072Y-164325000D01*
X125438072Y-163225000D01*
X128561928Y-163225000D01*
X128565000Y-163489250D01*
X128723750Y-163648000D01*
X129973000Y-163648000D01*
X129973000Y-162748750D01*
X130227000Y-162748750D01*
X130227000Y-163648000D01*
X131476250Y-163648000D01*
X131635000Y-163489250D01*
X131638072Y-163225000D01*
X131625812Y-163100518D01*
X131589502Y-162980820D01*
X131530537Y-162870506D01*
X131451185Y-162773815D01*
X131354494Y-162694463D01*
X131244180Y-162635498D01*
X131124482Y-162599188D01*
X131000000Y-162586928D01*
X130385750Y-162590000D01*
X130227000Y-162748750D01*
X129973000Y-162748750D01*
X129814250Y-162590000D01*
X129200000Y-162586928D01*
X129075518Y-162599188D01*
X128955820Y-162635498D01*
X128845506Y-162694463D01*
X128748815Y-162773815D01*
X128669463Y-162870506D01*
X128610498Y-162980820D01*
X128574188Y-163100518D01*
X128561928Y-163225000D01*
X125438072Y-163225000D01*
X125425812Y-163100518D01*
X125389502Y-162980820D01*
X125330537Y-162870506D01*
X125251185Y-162773815D01*
X125154494Y-162694463D01*
X125044180Y-162635498D01*
X124924482Y-162599188D01*
X124800000Y-162586928D01*
X123000000Y-162586928D01*
X122875518Y-162599188D01*
X122755820Y-162635498D01*
X122645506Y-162694463D01*
X122548815Y-162773815D01*
X122469463Y-162870506D01*
X122410498Y-162980820D01*
X122374188Y-163100518D01*
X122361928Y-163225000D01*
X118160856Y-163225000D01*
X112839500Y-157903644D01*
X112839500Y-147800000D01*
X112961928Y-147800000D01*
X112965000Y-148001750D01*
X113123750Y-148160500D01*
X114173000Y-148160500D01*
X114173000Y-147323750D01*
X114014250Y-147165000D01*
X113600000Y-147161928D01*
X113475518Y-147174188D01*
X113355820Y-147210498D01*
X113245506Y-147269463D01*
X113148815Y-147348815D01*
X113069463Y-147445506D01*
X113010498Y-147555820D01*
X112974188Y-147675518D01*
X112961928Y-147800000D01*
X112839500Y-147800000D01*
X112839500Y-142425000D01*
X112961928Y-142425000D01*
X112974188Y-142549482D01*
X113010498Y-142669180D01*
X113069463Y-142779494D01*
X113148815Y-142876185D01*
X113226564Y-142939992D01*
X113220208Y-142945208D01*
X113110542Y-143078836D01*
X113029053Y-143231291D01*
X112978872Y-143396715D01*
X112961928Y-143568750D01*
X112961928Y-144056250D01*
X112978872Y-144228285D01*
X113029053Y-144393709D01*
X113110542Y-144546164D01*
X113220208Y-144679792D01*
X113353836Y-144789458D01*
X113506291Y-144870947D01*
X113671715Y-144921128D01*
X113843750Y-144938072D01*
X114756250Y-144938072D01*
X114928285Y-144921128D01*
X115093709Y-144870947D01*
X115246164Y-144789458D01*
X115379792Y-144679792D01*
X115489458Y-144546164D01*
X115570947Y-144393709D01*
X115621128Y-144228285D01*
X115638072Y-144056250D01*
X115638072Y-143568750D01*
X115621128Y-143396715D01*
X115570947Y-143231291D01*
X115489458Y-143078836D01*
X115379792Y-142945208D01*
X115373436Y-142939992D01*
X115451185Y-142876185D01*
X115530537Y-142779494D01*
X115589502Y-142669180D01*
X115625812Y-142549482D01*
X115638072Y-142425000D01*
X115635000Y-142223250D01*
X115476250Y-142064500D01*
X114427000Y-142064500D01*
X114427000Y-142084500D01*
X114173000Y-142084500D01*
X114173000Y-142064500D01*
X113123750Y-142064500D01*
X112965000Y-142223250D01*
X112961928Y-142425000D01*
X112839500Y-142425000D01*
X112839500Y-142081250D01*
X112837060Y-142056474D01*
X112829833Y-142032649D01*
X112818097Y-142010693D01*
X112802303Y-141991447D01*
X112260856Y-141450000D01*
X112961928Y-141450000D01*
X112965000Y-141651750D01*
X113123750Y-141810500D01*
X114173000Y-141810500D01*
X114173000Y-140973750D01*
X114427000Y-140973750D01*
X114427000Y-141810500D01*
X115476250Y-141810500D01*
X115635000Y-141651750D01*
X115638072Y-141450000D01*
X115625812Y-141325518D01*
X115589502Y-141205820D01*
X115530537Y-141095506D01*
X115451185Y-140998815D01*
X115354494Y-140919463D01*
X115244180Y-140860498D01*
X115124482Y-140824188D01*
X115000000Y-140811928D01*
X114585750Y-140815000D01*
X114427000Y-140973750D01*
X114173000Y-140973750D01*
X114014250Y-140815000D01*
X113600000Y-140811928D01*
X113475518Y-140824188D01*
X113355820Y-140860498D01*
X113245506Y-140919463D01*
X113148815Y-140998815D01*
X113069463Y-141095506D01*
X113010498Y-141205820D01*
X112974188Y-141325518D01*
X112961928Y-141450000D01*
X112260856Y-141450000D01*
X109664500Y-138853644D01*
X109664500Y-135100000D01*
X109786928Y-135100000D01*
X109790000Y-135301750D01*
X109948750Y-135460500D01*
X110998000Y-135460500D01*
X110998000Y-134623750D01*
X111252000Y-134623750D01*
X111252000Y-135460500D01*
X112301250Y-135460500D01*
X112460000Y-135301750D01*
X112463072Y-135100000D01*
X112450812Y-134975518D01*
X112414502Y-134855820D01*
X112355537Y-134745506D01*
X112276185Y-134648815D01*
X112179494Y-134569463D01*
X112069180Y-134510498D01*
X111949482Y-134474188D01*
X111825000Y-134461928D01*
X111410750Y-134465000D01*
X111252000Y-134623750D01*
X110998000Y-134623750D01*
X110839250Y-134465000D01*
X110425000Y-134461928D01*
X110300518Y-134474188D01*
X110180820Y-134510498D01*
X110070506Y-134569463D01*
X109973815Y-134648815D01*
X109894463Y-134745506D01*
X109835498Y-134855820D01*
X109799188Y-134975518D01*
X109786928Y-135100000D01*
X109664500Y-135100000D01*
X109664500Y-134270750D01*
X124459619Y-134270750D01*
X124844971Y-134656102D01*
G36*
X131315000Y-149383252D02*
G01*
X131473748Y-149383252D01*
X131315000Y-149542000D01*
X131317552Y-149572369D01*
X131275000Y-149568178D01*
X130725000Y-149568178D01*
X130600518Y-149580438D01*
X130600000Y-149580595D01*
X130599482Y-149580438D01*
X130475000Y-149568178D01*
X129925000Y-149568178D01*
X129800518Y-149580438D01*
X129800000Y-149580595D01*
X129799482Y-149580438D01*
X129675000Y-149568178D01*
X129125000Y-149568178D01*
X129000518Y-149580438D01*
X129000000Y-149580595D01*
X128999482Y-149580438D01*
X128875000Y-149568178D01*
X128325000Y-149568178D01*
X128200518Y-149580438D01*
X128200000Y-149580595D01*
X128199482Y-149580438D01*
X128075000Y-149568178D01*
X127525000Y-149568178D01*
X127400518Y-149580438D01*
X127400000Y-149580595D01*
X127399482Y-149580438D01*
X127275000Y-149568178D01*
X126725000Y-149568178D01*
X126600518Y-149580438D01*
X126600000Y-149580595D01*
X126599482Y-149580438D01*
X126475000Y-149568178D01*
X125925000Y-149568178D01*
X125800518Y-149580438D01*
X125799337Y-149580796D01*
X125685750Y-149571250D01*
X125593667Y-149663333D01*
X125570506Y-149675713D01*
X125527002Y-149711416D01*
X125527002Y-149571250D01*
X125425500Y-149571250D01*
X125425500Y-149281750D01*
X131315000Y-149281750D01*
X131315000Y-149383252D01*
X131315000Y-149383252D01*
G37*
X131315000Y-149383252D02*
X131473748Y-149383252D01*
X131315000Y-149542000D01*
X131317552Y-149572369D01*
X131275000Y-149568178D01*
X130725000Y-149568178D01*
X130600518Y-149580438D01*
X130600000Y-149580595D01*
X130599482Y-149580438D01*
X130475000Y-149568178D01*
X129925000Y-149568178D01*
X129800518Y-149580438D01*
X129800000Y-149580595D01*
X129799482Y-149580438D01*
X129675000Y-149568178D01*
X129125000Y-149568178D01*
X129000518Y-149580438D01*
X129000000Y-149580595D01*
X128999482Y-149580438D01*
X128875000Y-149568178D01*
X128325000Y-149568178D01*
X128200518Y-149580438D01*
X128200000Y-149580595D01*
X128199482Y-149580438D01*
X128075000Y-149568178D01*
X127525000Y-149568178D01*
X127400518Y-149580438D01*
X127400000Y-149580595D01*
X127399482Y-149580438D01*
X127275000Y-149568178D01*
X126725000Y-149568178D01*
X126600518Y-149580438D01*
X126600000Y-149580595D01*
X126599482Y-149580438D01*
X126475000Y-149568178D01*
X125925000Y-149568178D01*
X125800518Y-149580438D01*
X125799337Y-149580796D01*
X125685750Y-149571250D01*
X125593667Y-149663333D01*
X125570506Y-149675713D01*
X125527002Y-149711416D01*
X125527002Y-149571250D01*
X125425500Y-149571250D01*
X125425500Y-149281750D01*
X131315000Y-149281750D01*
X131315000Y-149383252D01*
G36*
X130273815Y-140757435D02*
G01*
X130370506Y-140836787D01*
X130393667Y-140849167D01*
X130485750Y-140941250D01*
X130599337Y-140931704D01*
X130600518Y-140932062D01*
X130725000Y-140944322D01*
X131275000Y-140944322D01*
X131315962Y-140940288D01*
X131311928Y-140981250D01*
X131311928Y-141531250D01*
X131324188Y-141655732D01*
X131324345Y-141656250D01*
X131324188Y-141656768D01*
X131311928Y-141781250D01*
X131311928Y-142331250D01*
X131324188Y-142455732D01*
X131324345Y-142456250D01*
X131324188Y-142456768D01*
X131311928Y-142581250D01*
X131311928Y-142894250D01*
X131018675Y-142894250D01*
X130981250Y-142890564D01*
X130943824Y-142894250D01*
X130831872Y-142905276D01*
X130688235Y-142948848D01*
X130555858Y-143019605D01*
X130439828Y-143114828D01*
X130415965Y-143143905D01*
X130403471Y-143156399D01*
X130332105Y-143243358D01*
X130261349Y-143375735D01*
X130217777Y-143519372D01*
X130203064Y-143668750D01*
X130217777Y-143818128D01*
X130219250Y-143822984D01*
X130219251Y-146000067D01*
X130215564Y-146037500D01*
X130230277Y-146186878D01*
X130273849Y-146330515D01*
X130344605Y-146462892D01*
X130396046Y-146525572D01*
X130439829Y-146578922D01*
X130450124Y-146587371D01*
X130458578Y-146597672D01*
X130574608Y-146692895D01*
X130706985Y-146763652D01*
X130850622Y-146807224D01*
X130962574Y-146818250D01*
X130962577Y-146818250D01*
X131000000Y-146821936D01*
X131037423Y-146818250D01*
X131311928Y-146818250D01*
X131311928Y-147131250D01*
X131324188Y-147255732D01*
X131324345Y-147256250D01*
X131324188Y-147256768D01*
X131311928Y-147381250D01*
X131311928Y-147630750D01*
X125176843Y-147630750D01*
X125155041Y-147612858D01*
X123043398Y-145501216D01*
X123017541Y-145469709D01*
X122891842Y-145366551D01*
X122748434Y-145289897D01*
X122688072Y-145271586D01*
X122688072Y-144981250D01*
X122675812Y-144856768D01*
X122675454Y-144855587D01*
X122685000Y-144742000D01*
X122592917Y-144649917D01*
X122580537Y-144626756D01*
X122501185Y-144530065D01*
X122411241Y-144456250D01*
X122501185Y-144382435D01*
X122580537Y-144285744D01*
X122592917Y-144262583D01*
X122685000Y-144170500D01*
X122675454Y-144056913D01*
X122675812Y-144055732D01*
X122688072Y-143931250D01*
X122688072Y-143832546D01*
X122830732Y-143773454D01*
X123000250Y-143660186D01*
X123144413Y-143516023D01*
X123257681Y-143346505D01*
X123335702Y-143158147D01*
X123375476Y-142958188D01*
X123375476Y-142754310D01*
X123335702Y-142554351D01*
X123266763Y-142387920D01*
X123555044Y-142099640D01*
X123586541Y-142073791D01*
X123612389Y-142042295D01*
X123612392Y-142042292D01*
X123689699Y-141948093D01*
X123766353Y-141804684D01*
X123768480Y-141797672D01*
X123813556Y-141649076D01*
X123825500Y-141527803D01*
X123825500Y-141527800D01*
X123829494Y-141487250D01*
X123825500Y-141446700D01*
X123825500Y-140941250D01*
X123927002Y-140941250D01*
X123927002Y-140801084D01*
X123970506Y-140836787D01*
X123993667Y-140849167D01*
X124085750Y-140941250D01*
X124199337Y-140931704D01*
X124200518Y-140932062D01*
X124325000Y-140944322D01*
X124875000Y-140944322D01*
X124999482Y-140932062D01*
X125000000Y-140931905D01*
X125000518Y-140932062D01*
X125125000Y-140944322D01*
X125675000Y-140944322D01*
X125799482Y-140932062D01*
X125800000Y-140931905D01*
X125800518Y-140932062D01*
X125925000Y-140944322D01*
X126475000Y-140944322D01*
X126599482Y-140932062D01*
X126600000Y-140931905D01*
X126600518Y-140932062D01*
X126725000Y-140944322D01*
X127275000Y-140944322D01*
X127399482Y-140932062D01*
X127400000Y-140931905D01*
X127400518Y-140932062D01*
X127525000Y-140944322D01*
X128075000Y-140944322D01*
X128199482Y-140932062D01*
X128200000Y-140931905D01*
X128200518Y-140932062D01*
X128325000Y-140944322D01*
X128875000Y-140944322D01*
X128999482Y-140932062D01*
X129000000Y-140931905D01*
X129000518Y-140932062D01*
X129125000Y-140944322D01*
X129675000Y-140944322D01*
X129799482Y-140932062D01*
X129800663Y-140931704D01*
X129914250Y-140941250D01*
X130006333Y-140849167D01*
X130029494Y-140836787D01*
X130126185Y-140757435D01*
X130200000Y-140667491D01*
X130273815Y-140757435D01*
X130273815Y-140757435D01*
G37*
X130273815Y-140757435D02*
X130370506Y-140836787D01*
X130393667Y-140849167D01*
X130485750Y-140941250D01*
X130599337Y-140931704D01*
X130600518Y-140932062D01*
X130725000Y-140944322D01*
X131275000Y-140944322D01*
X131315962Y-140940288D01*
X131311928Y-140981250D01*
X131311928Y-141531250D01*
X131324188Y-141655732D01*
X131324345Y-141656250D01*
X131324188Y-141656768D01*
X131311928Y-141781250D01*
X131311928Y-142331250D01*
X131324188Y-142455732D01*
X131324345Y-142456250D01*
X131324188Y-142456768D01*
X131311928Y-142581250D01*
X131311928Y-142894250D01*
X131018675Y-142894250D01*
X130981250Y-142890564D01*
X130943824Y-142894250D01*
X130831872Y-142905276D01*
X130688235Y-142948848D01*
X130555858Y-143019605D01*
X130439828Y-143114828D01*
X130415965Y-143143905D01*
X130403471Y-143156399D01*
X130332105Y-143243358D01*
X130261349Y-143375735D01*
X130217777Y-143519372D01*
X130203064Y-143668750D01*
X130217777Y-143818128D01*
X130219250Y-143822984D01*
X130219251Y-146000067D01*
X130215564Y-146037500D01*
X130230277Y-146186878D01*
X130273849Y-146330515D01*
X130344605Y-146462892D01*
X130396046Y-146525572D01*
X130439829Y-146578922D01*
X130450124Y-146587371D01*
X130458578Y-146597672D01*
X130574608Y-146692895D01*
X130706985Y-146763652D01*
X130850622Y-146807224D01*
X130962574Y-146818250D01*
X130962577Y-146818250D01*
X131000000Y-146821936D01*
X131037423Y-146818250D01*
X131311928Y-146818250D01*
X131311928Y-147131250D01*
X131324188Y-147255732D01*
X131324345Y-147256250D01*
X131324188Y-147256768D01*
X131311928Y-147381250D01*
X131311928Y-147630750D01*
X125176843Y-147630750D01*
X125155041Y-147612858D01*
X123043398Y-145501216D01*
X123017541Y-145469709D01*
X122891842Y-145366551D01*
X122748434Y-145289897D01*
X122688072Y-145271586D01*
X122688072Y-144981250D01*
X122675812Y-144856768D01*
X122675454Y-144855587D01*
X122685000Y-144742000D01*
X122592917Y-144649917D01*
X122580537Y-144626756D01*
X122501185Y-144530065D01*
X122411241Y-144456250D01*
X122501185Y-144382435D01*
X122580537Y-144285744D01*
X122592917Y-144262583D01*
X122685000Y-144170500D01*
X122675454Y-144056913D01*
X122675812Y-144055732D01*
X122688072Y-143931250D01*
X122688072Y-143832546D01*
X122830732Y-143773454D01*
X123000250Y-143660186D01*
X123144413Y-143516023D01*
X123257681Y-143346505D01*
X123335702Y-143158147D01*
X123375476Y-142958188D01*
X123375476Y-142754310D01*
X123335702Y-142554351D01*
X123266763Y-142387920D01*
X123555044Y-142099640D01*
X123586541Y-142073791D01*
X123612389Y-142042295D01*
X123612392Y-142042292D01*
X123689699Y-141948093D01*
X123766353Y-141804684D01*
X123768480Y-141797672D01*
X123813556Y-141649076D01*
X123825500Y-141527803D01*
X123825500Y-141527800D01*
X123829494Y-141487250D01*
X123825500Y-141446700D01*
X123825500Y-140941250D01*
X123927002Y-140941250D01*
X123927002Y-140801084D01*
X123970506Y-140836787D01*
X123993667Y-140849167D01*
X124085750Y-140941250D01*
X124199337Y-140931704D01*
X124200518Y-140932062D01*
X124325000Y-140944322D01*
X124875000Y-140944322D01*
X124999482Y-140932062D01*
X125000000Y-140931905D01*
X125000518Y-140932062D01*
X125125000Y-140944322D01*
X125675000Y-140944322D01*
X125799482Y-140932062D01*
X125800000Y-140931905D01*
X125800518Y-140932062D01*
X125925000Y-140944322D01*
X126475000Y-140944322D01*
X126599482Y-140932062D01*
X126600000Y-140931905D01*
X126600518Y-140932062D01*
X126725000Y-140944322D01*
X127275000Y-140944322D01*
X127399482Y-140932062D01*
X127400000Y-140931905D01*
X127400518Y-140932062D01*
X127525000Y-140944322D01*
X128075000Y-140944322D01*
X128199482Y-140932062D01*
X128200000Y-140931905D01*
X128200518Y-140932062D01*
X128325000Y-140944322D01*
X128875000Y-140944322D01*
X128999482Y-140932062D01*
X129000000Y-140931905D01*
X129000518Y-140932062D01*
X129125000Y-140944322D01*
X129675000Y-140944322D01*
X129799482Y-140932062D01*
X129800663Y-140931704D01*
X129914250Y-140941250D01*
X130006333Y-140849167D01*
X130029494Y-140836787D01*
X130126185Y-140757435D01*
X130200000Y-140667491D01*
X130273815Y-140757435D01*
G36*
X103630237Y-96046389D02*
G01*
X103608750Y-96264550D01*
X103608750Y-97410449D01*
X103630237Y-97628610D01*
X103715151Y-97908533D01*
X103853044Y-98166513D01*
X104038616Y-98392634D01*
X104264736Y-98578206D01*
X104522716Y-98716099D01*
X104802639Y-98801013D01*
X105093750Y-98829685D01*
X105384860Y-98801013D01*
X105664783Y-98716099D01*
X105922763Y-98578206D01*
X106148884Y-98392634D01*
X106334456Y-98166514D01*
X106472349Y-97908534D01*
X106557263Y-97628611D01*
X106578750Y-97410450D01*
X106578750Y-96264550D01*
X106557263Y-96046389D01*
X106515890Y-95910000D01*
X110971610Y-95910000D01*
X110930237Y-96046389D01*
X110908750Y-96264550D01*
X110908750Y-97410449D01*
X110930237Y-97628610D01*
X111015151Y-97908533D01*
X111153044Y-98166513D01*
X111338616Y-98392634D01*
X111564736Y-98578206D01*
X111822716Y-98716099D01*
X112102639Y-98801013D01*
X112393750Y-98829685D01*
X112684860Y-98801013D01*
X112964783Y-98716099D01*
X113222763Y-98578206D01*
X113448884Y-98392634D01*
X113634456Y-98166514D01*
X113772349Y-97908534D01*
X113857263Y-97628611D01*
X113878750Y-97410450D01*
X113878750Y-96264550D01*
X113857263Y-96046389D01*
X113815890Y-95910000D01*
X114173000Y-95910000D01*
X114173000Y-102341144D01*
X112659894Y-103854250D01*
X111569256Y-103854250D01*
X111569256Y-103080622D01*
X111822716Y-103216099D01*
X112102639Y-103301013D01*
X112393750Y-103329685D01*
X112684860Y-103301013D01*
X112964783Y-103216099D01*
X113222763Y-103078206D01*
X113448884Y-102892634D01*
X113634456Y-102666514D01*
X113772349Y-102408534D01*
X113857263Y-102128611D01*
X113878750Y-101910450D01*
X113878750Y-100764550D01*
X113857263Y-100546389D01*
X113772349Y-100266466D01*
X113634456Y-100008486D01*
X113448884Y-99782366D01*
X113222764Y-99596794D01*
X112964784Y-99458901D01*
X112684861Y-99373987D01*
X112393750Y-99345315D01*
X112102640Y-99373987D01*
X111822717Y-99458901D01*
X111564737Y-99596794D01*
X111338617Y-99782366D01*
X111183996Y-99970772D01*
X111183252Y-99968320D01*
X111124287Y-99858006D01*
X111044935Y-99761315D01*
X110948244Y-99681963D01*
X110837930Y-99622998D01*
X110718232Y-99586688D01*
X110593750Y-99574428D01*
X110093750Y-99574428D01*
X109969268Y-99586688D01*
X109943750Y-99594429D01*
X109918232Y-99586688D01*
X109793750Y-99574428D01*
X109293750Y-99574428D01*
X109169268Y-99586688D01*
X109143750Y-99594429D01*
X109118232Y-99586688D01*
X108993750Y-99574428D01*
X108493750Y-99574428D01*
X108369268Y-99586688D01*
X108343750Y-99594429D01*
X108318232Y-99586688D01*
X108193750Y-99574428D01*
X107693750Y-99574428D01*
X107569268Y-99586688D01*
X107544484Y-99594206D01*
X107525111Y-99588096D01*
X107425500Y-99577500D01*
X107266750Y-99736250D01*
X107266750Y-99741467D01*
X107242565Y-99761315D01*
X107163213Y-99858006D01*
X107104248Y-99968320D01*
X107067938Y-100088018D01*
X107055678Y-100212500D01*
X107055678Y-102462500D01*
X107067938Y-102586982D01*
X107104248Y-102706680D01*
X107163213Y-102816994D01*
X107242565Y-102913685D01*
X107266750Y-102933533D01*
X107266750Y-102938750D01*
X107425500Y-103097500D01*
X107525111Y-103086904D01*
X107544484Y-103080794D01*
X107569268Y-103088312D01*
X107693750Y-103100572D01*
X107981751Y-103100572D01*
X107981751Y-103854250D01*
X104827606Y-103854250D01*
X103314500Y-102341144D01*
X103314500Y-100764550D01*
X103608750Y-100764550D01*
X103608750Y-101910449D01*
X103630237Y-102128610D01*
X103715151Y-102408533D01*
X103853044Y-102666513D01*
X104038616Y-102892634D01*
X104264736Y-103078206D01*
X104522716Y-103216099D01*
X104802639Y-103301013D01*
X105093750Y-103329685D01*
X105384860Y-103301013D01*
X105664783Y-103216099D01*
X105922763Y-103078206D01*
X106148884Y-102892634D01*
X106303627Y-102704079D01*
X106359344Y-102811134D01*
X106437627Y-102908693D01*
X106533439Y-102989104D01*
X106643098Y-103049279D01*
X106762389Y-103086904D01*
X106862000Y-103097500D01*
X107020750Y-102938750D01*
X107020750Y-101464500D01*
X106996750Y-101464500D01*
X106996750Y-101210500D01*
X107020750Y-101210500D01*
X107020750Y-99736250D01*
X106862000Y-99577500D01*
X106762389Y-99588096D01*
X106643098Y-99625721D01*
X106533439Y-99685896D01*
X106437627Y-99766307D01*
X106359344Y-99863866D01*
X106303627Y-99970921D01*
X106148884Y-99782366D01*
X105922764Y-99596794D01*
X105664784Y-99458901D01*
X105384861Y-99373987D01*
X105093750Y-99345315D01*
X104802640Y-99373987D01*
X104522717Y-99458901D01*
X104264737Y-99596794D01*
X104038617Y-99782366D01*
X103853044Y-100008486D01*
X103715151Y-100266466D01*
X103630237Y-100546389D01*
X103608750Y-100764550D01*
X103314500Y-100764550D01*
X103314500Y-95910000D01*
X103671610Y-95910000D01*
X103630237Y-96046389D01*
X103630237Y-96046389D01*
G37*
X103630237Y-96046389D02*
X103608750Y-96264550D01*
X103608750Y-97410449D01*
X103630237Y-97628610D01*
X103715151Y-97908533D01*
X103853044Y-98166513D01*
X104038616Y-98392634D01*
X104264736Y-98578206D01*
X104522716Y-98716099D01*
X104802639Y-98801013D01*
X105093750Y-98829685D01*
X105384860Y-98801013D01*
X105664783Y-98716099D01*
X105922763Y-98578206D01*
X106148884Y-98392634D01*
X106334456Y-98166514D01*
X106472349Y-97908534D01*
X106557263Y-97628611D01*
X106578750Y-97410450D01*
X106578750Y-96264550D01*
X106557263Y-96046389D01*
X106515890Y-95910000D01*
X110971610Y-95910000D01*
X110930237Y-96046389D01*
X110908750Y-96264550D01*
X110908750Y-97410449D01*
X110930237Y-97628610D01*
X111015151Y-97908533D01*
X111153044Y-98166513D01*
X111338616Y-98392634D01*
X111564736Y-98578206D01*
X111822716Y-98716099D01*
X112102639Y-98801013D01*
X112393750Y-98829685D01*
X112684860Y-98801013D01*
X112964783Y-98716099D01*
X113222763Y-98578206D01*
X113448884Y-98392634D01*
X113634456Y-98166514D01*
X113772349Y-97908534D01*
X113857263Y-97628611D01*
X113878750Y-97410450D01*
X113878750Y-96264550D01*
X113857263Y-96046389D01*
X113815890Y-95910000D01*
X114173000Y-95910000D01*
X114173000Y-102341144D01*
X112659894Y-103854250D01*
X111569256Y-103854250D01*
X111569256Y-103080622D01*
X111822716Y-103216099D01*
X112102639Y-103301013D01*
X112393750Y-103329685D01*
X112684860Y-103301013D01*
X112964783Y-103216099D01*
X113222763Y-103078206D01*
X113448884Y-102892634D01*
X113634456Y-102666514D01*
X113772349Y-102408534D01*
X113857263Y-102128611D01*
X113878750Y-101910450D01*
X113878750Y-100764550D01*
X113857263Y-100546389D01*
X113772349Y-100266466D01*
X113634456Y-100008486D01*
X113448884Y-99782366D01*
X113222764Y-99596794D01*
X112964784Y-99458901D01*
X112684861Y-99373987D01*
X112393750Y-99345315D01*
X112102640Y-99373987D01*
X111822717Y-99458901D01*
X111564737Y-99596794D01*
X111338617Y-99782366D01*
X111183996Y-99970772D01*
X111183252Y-99968320D01*
X111124287Y-99858006D01*
X111044935Y-99761315D01*
X110948244Y-99681963D01*
X110837930Y-99622998D01*
X110718232Y-99586688D01*
X110593750Y-99574428D01*
X110093750Y-99574428D01*
X109969268Y-99586688D01*
X109943750Y-99594429D01*
X109918232Y-99586688D01*
X109793750Y-99574428D01*
X109293750Y-99574428D01*
X109169268Y-99586688D01*
X109143750Y-99594429D01*
X109118232Y-99586688D01*
X108993750Y-99574428D01*
X108493750Y-99574428D01*
X108369268Y-99586688D01*
X108343750Y-99594429D01*
X108318232Y-99586688D01*
X108193750Y-99574428D01*
X107693750Y-99574428D01*
X107569268Y-99586688D01*
X107544484Y-99594206D01*
X107525111Y-99588096D01*
X107425500Y-99577500D01*
X107266750Y-99736250D01*
X107266750Y-99741467D01*
X107242565Y-99761315D01*
X107163213Y-99858006D01*
X107104248Y-99968320D01*
X107067938Y-100088018D01*
X107055678Y-100212500D01*
X107055678Y-102462500D01*
X107067938Y-102586982D01*
X107104248Y-102706680D01*
X107163213Y-102816994D01*
X107242565Y-102913685D01*
X107266750Y-102933533D01*
X107266750Y-102938750D01*
X107425500Y-103097500D01*
X107525111Y-103086904D01*
X107544484Y-103080794D01*
X107569268Y-103088312D01*
X107693750Y-103100572D01*
X107981751Y-103100572D01*
X107981751Y-103854250D01*
X104827606Y-103854250D01*
X103314500Y-102341144D01*
X103314500Y-100764550D01*
X103608750Y-100764550D01*
X103608750Y-101910449D01*
X103630237Y-102128610D01*
X103715151Y-102408533D01*
X103853044Y-102666513D01*
X104038616Y-102892634D01*
X104264736Y-103078206D01*
X104522716Y-103216099D01*
X104802639Y-103301013D01*
X105093750Y-103329685D01*
X105384860Y-103301013D01*
X105664783Y-103216099D01*
X105922763Y-103078206D01*
X106148884Y-102892634D01*
X106303627Y-102704079D01*
X106359344Y-102811134D01*
X106437627Y-102908693D01*
X106533439Y-102989104D01*
X106643098Y-103049279D01*
X106762389Y-103086904D01*
X106862000Y-103097500D01*
X107020750Y-102938750D01*
X107020750Y-101464500D01*
X106996750Y-101464500D01*
X106996750Y-101210500D01*
X107020750Y-101210500D01*
X107020750Y-99736250D01*
X106862000Y-99577500D01*
X106762389Y-99588096D01*
X106643098Y-99625721D01*
X106533439Y-99685896D01*
X106437627Y-99766307D01*
X106359344Y-99863866D01*
X106303627Y-99970921D01*
X106148884Y-99782366D01*
X105922764Y-99596794D01*
X105664784Y-99458901D01*
X105384861Y-99373987D01*
X105093750Y-99345315D01*
X104802640Y-99373987D01*
X104522717Y-99458901D01*
X104264737Y-99596794D01*
X104038617Y-99782366D01*
X103853044Y-100008486D01*
X103715151Y-100266466D01*
X103630237Y-100546389D01*
X103608750Y-100764550D01*
X103314500Y-100764550D01*
X103314500Y-95910000D01*
X103671610Y-95910000D01*
X103630237Y-96046389D01*
M02*
