G04 #@! TF.GenerationSoftware,KiCad,Pcbnew,(5.1.4)-1*
G04 #@! TF.CreationDate,2022-10-22T18:19:51-05:00*
G04 #@! TF.ProjectId,first-3k-keypad,66697273-742d-4336-9b2d-6b6579706164,rev?*
G04 #@! TF.SameCoordinates,Original*
G04 #@! TF.FileFunction,Soldermask,Top*
G04 #@! TF.FilePolarity,Negative*
%FSLAX46Y46*%
G04 Gerber Fmt 4.6, Leading zero omitted, Abs format (unit mm)*
G04 Created by KiCad (PCBNEW (5.1.4)-1) date 2022-10-22 18:19:51*
%MOMM*%
%LPD*%
G04 APERTURE LIST*
%ADD10C,0.020000*%
G04 APERTURE END LIST*
D10*
G36*
X131051000Y-164376000D02*
G01*
X129149000Y-164376000D01*
X129149000Y-163174000D01*
X131051000Y-163174000D01*
X131051000Y-164376000D01*
X131051000Y-164376000D01*
G37*
G36*
X124851000Y-164376000D02*
G01*
X122949000Y-164376000D01*
X122949000Y-163174000D01*
X124851000Y-163174000D01*
X124851000Y-164376000D01*
X124851000Y-164376000D01*
G37*
G36*
X124851000Y-160676000D02*
G01*
X122949000Y-160676000D01*
X122949000Y-159474000D01*
X124851000Y-159474000D01*
X124851000Y-160676000D01*
X124851000Y-160676000D01*
G37*
G36*
X131051000Y-160676000D02*
G01*
X129149000Y-160676000D01*
X129149000Y-159474000D01*
X131051000Y-159474000D01*
X131051000Y-160676000D01*
X131051000Y-160676000D01*
G37*
G36*
X126651000Y-157076000D02*
G01*
X125149000Y-157076000D01*
X125149000Y-155774000D01*
X126651000Y-155774000D01*
X126651000Y-157076000D01*
X126651000Y-157076000D01*
G37*
G36*
X128851000Y-157076000D02*
G01*
X127349000Y-157076000D01*
X127349000Y-155774000D01*
X128851000Y-155774000D01*
X128851000Y-157076000D01*
X128851000Y-157076000D01*
G37*
G36*
X122028218Y-155978565D02*
G01*
X122066888Y-155990296D01*
X122102527Y-156009346D01*
X122133767Y-156034983D01*
X122159404Y-156066223D01*
X122178454Y-156101862D01*
X122190185Y-156140532D01*
X122194750Y-156186888D01*
X122194750Y-156838112D01*
X122190185Y-156884468D01*
X122178454Y-156923138D01*
X122159404Y-156958777D01*
X122133767Y-156990017D01*
X122102527Y-157015654D01*
X122066888Y-157034704D01*
X122028218Y-157046435D01*
X121981862Y-157051000D01*
X120905638Y-157051000D01*
X120859282Y-157046435D01*
X120820612Y-157034704D01*
X120784973Y-157015654D01*
X120753733Y-156990017D01*
X120728096Y-156958777D01*
X120709046Y-156923138D01*
X120697315Y-156884468D01*
X120692750Y-156838112D01*
X120692750Y-156186888D01*
X120697315Y-156140532D01*
X120709046Y-156101862D01*
X120728096Y-156066223D01*
X120753733Y-156034983D01*
X120784973Y-156009346D01*
X120820612Y-155990296D01*
X120859282Y-155978565D01*
X120905638Y-155974000D01*
X121981862Y-155974000D01*
X122028218Y-155978565D01*
X122028218Y-155978565D01*
G37*
G36*
X133140718Y-155978565D02*
G01*
X133179388Y-155990296D01*
X133215027Y-156009346D01*
X133246267Y-156034983D01*
X133271904Y-156066223D01*
X133290954Y-156101862D01*
X133302685Y-156140532D01*
X133307250Y-156186888D01*
X133307250Y-156838112D01*
X133302685Y-156884468D01*
X133290954Y-156923138D01*
X133271904Y-156958777D01*
X133246267Y-156990017D01*
X133215027Y-157015654D01*
X133179388Y-157034704D01*
X133140718Y-157046435D01*
X133094362Y-157051000D01*
X132018138Y-157051000D01*
X131971782Y-157046435D01*
X131933112Y-157034704D01*
X131897473Y-157015654D01*
X131866233Y-156990017D01*
X131840596Y-156958777D01*
X131821546Y-156923138D01*
X131809815Y-156884468D01*
X131805250Y-156838112D01*
X131805250Y-156186888D01*
X131809815Y-156140532D01*
X131821546Y-156101862D01*
X131840596Y-156066223D01*
X131866233Y-156034983D01*
X131897473Y-156009346D01*
X131933112Y-155990296D01*
X131971782Y-155978565D01*
X132018138Y-155974000D01*
X133094362Y-155974000D01*
X133140718Y-155978565D01*
X133140718Y-155978565D01*
G37*
G36*
X126651000Y-155376000D02*
G01*
X125149000Y-155376000D01*
X125149000Y-154074000D01*
X126651000Y-154074000D01*
X126651000Y-155376000D01*
X126651000Y-155376000D01*
G37*
G36*
X128851000Y-155376000D02*
G01*
X127349000Y-155376000D01*
X127349000Y-154074000D01*
X128851000Y-154074000D01*
X128851000Y-155376000D01*
X128851000Y-155376000D01*
G37*
G36*
X133140718Y-154103565D02*
G01*
X133179388Y-154115296D01*
X133215027Y-154134346D01*
X133246267Y-154159983D01*
X133271904Y-154191223D01*
X133290954Y-154226862D01*
X133302685Y-154265532D01*
X133307250Y-154311888D01*
X133307250Y-154963112D01*
X133302685Y-155009468D01*
X133290954Y-155048138D01*
X133271904Y-155083777D01*
X133246267Y-155115017D01*
X133215027Y-155140654D01*
X133179388Y-155159704D01*
X133140718Y-155171435D01*
X133094362Y-155176000D01*
X132018138Y-155176000D01*
X131971782Y-155171435D01*
X131933112Y-155159704D01*
X131897473Y-155140654D01*
X131866233Y-155115017D01*
X131840596Y-155083777D01*
X131821546Y-155048138D01*
X131809815Y-155009468D01*
X131805250Y-154963112D01*
X131805250Y-154311888D01*
X131809815Y-154265532D01*
X131821546Y-154226862D01*
X131840596Y-154191223D01*
X131866233Y-154159983D01*
X131897473Y-154134346D01*
X131933112Y-154115296D01*
X131971782Y-154103565D01*
X132018138Y-154099000D01*
X133094362Y-154099000D01*
X133140718Y-154103565D01*
X133140718Y-154103565D01*
G37*
G36*
X122028218Y-154103565D02*
G01*
X122066888Y-154115296D01*
X122102527Y-154134346D01*
X122133767Y-154159983D01*
X122159404Y-154191223D01*
X122178454Y-154226862D01*
X122190185Y-154265532D01*
X122194750Y-154311888D01*
X122194750Y-154963112D01*
X122190185Y-155009468D01*
X122178454Y-155048138D01*
X122159404Y-155083777D01*
X122133767Y-155115017D01*
X122102527Y-155140654D01*
X122066888Y-155159704D01*
X122028218Y-155171435D01*
X121981862Y-155176000D01*
X120905638Y-155176000D01*
X120859282Y-155171435D01*
X120820612Y-155159704D01*
X120784973Y-155140654D01*
X120753733Y-155115017D01*
X120728096Y-155083777D01*
X120709046Y-155048138D01*
X120697315Y-155009468D01*
X120692750Y-154963112D01*
X120692750Y-154311888D01*
X120697315Y-154265532D01*
X120709046Y-154226862D01*
X120728096Y-154191223D01*
X120753733Y-154159983D01*
X120784973Y-154134346D01*
X120820612Y-154115296D01*
X120859282Y-154103565D01*
X120905638Y-154099000D01*
X121981862Y-154099000D01*
X122028218Y-154103565D01*
X122028218Y-154103565D01*
G37*
G36*
X131326000Y-151757250D02*
G01*
X122674000Y-151757250D01*
X122674000Y-150155250D01*
X131326000Y-150155250D01*
X131326000Y-151757250D01*
X131326000Y-151757250D01*
G37*
G36*
X119646968Y-150422315D02*
G01*
X119685638Y-150434046D01*
X119721277Y-150453096D01*
X119752517Y-150478733D01*
X119778154Y-150509973D01*
X119797204Y-150545612D01*
X119808935Y-150584282D01*
X119813500Y-150630638D01*
X119813500Y-151281862D01*
X119808935Y-151328218D01*
X119797204Y-151366888D01*
X119778154Y-151402527D01*
X119752517Y-151433767D01*
X119721277Y-151459404D01*
X119685638Y-151478454D01*
X119646968Y-151490185D01*
X119600612Y-151494750D01*
X118524388Y-151494750D01*
X118478032Y-151490185D01*
X118439362Y-151478454D01*
X118403723Y-151459404D01*
X118372483Y-151433767D01*
X118346846Y-151402527D01*
X118327796Y-151366888D01*
X118316065Y-151328218D01*
X118311500Y-151281862D01*
X118311500Y-150630638D01*
X118316065Y-150584282D01*
X118327796Y-150545612D01*
X118346846Y-150509973D01*
X118372483Y-150478733D01*
X118403723Y-150453096D01*
X118439362Y-150434046D01*
X118478032Y-150422315D01*
X118524388Y-150417750D01*
X119600612Y-150417750D01*
X119646968Y-150422315D01*
X119646968Y-150422315D01*
G37*
G36*
X135521968Y-149628565D02*
G01*
X135560638Y-149640296D01*
X135596277Y-149659346D01*
X135627517Y-149684983D01*
X135653154Y-149716223D01*
X135672204Y-149751862D01*
X135683935Y-149790532D01*
X135688500Y-149836888D01*
X135688500Y-150488112D01*
X135683935Y-150534468D01*
X135672204Y-150573138D01*
X135653154Y-150608777D01*
X135627517Y-150640017D01*
X135596277Y-150665654D01*
X135560638Y-150684704D01*
X135521968Y-150696435D01*
X135475612Y-150701000D01*
X134399388Y-150701000D01*
X134353032Y-150696435D01*
X134314362Y-150684704D01*
X134278723Y-150665654D01*
X134247483Y-150640017D01*
X134221846Y-150608777D01*
X134202796Y-150573138D01*
X134191065Y-150534468D01*
X134186500Y-150488112D01*
X134186500Y-149836888D01*
X134191065Y-149790532D01*
X134202796Y-149751862D01*
X134221846Y-149716223D01*
X134247483Y-149684983D01*
X134278723Y-149659346D01*
X134314362Y-149640296D01*
X134353032Y-149628565D01*
X134399388Y-149624000D01*
X135475612Y-149624000D01*
X135521968Y-149628565D01*
X135521968Y-149628565D01*
G37*
G36*
X119646968Y-148547315D02*
G01*
X119685638Y-148559046D01*
X119721277Y-148578096D01*
X119752517Y-148603733D01*
X119778154Y-148634973D01*
X119797204Y-148670612D01*
X119808935Y-148709282D01*
X119813500Y-148755638D01*
X119813500Y-149406862D01*
X119808935Y-149453218D01*
X119797204Y-149491888D01*
X119778154Y-149527527D01*
X119752517Y-149558767D01*
X119721277Y-149584404D01*
X119685638Y-149603454D01*
X119646968Y-149615185D01*
X119600612Y-149619750D01*
X118524388Y-149619750D01*
X118478032Y-149615185D01*
X118439362Y-149603454D01*
X118403723Y-149584404D01*
X118372483Y-149558767D01*
X118346846Y-149527527D01*
X118327796Y-149491888D01*
X118316065Y-149453218D01*
X118311500Y-149406862D01*
X118311500Y-148755638D01*
X118316065Y-148709282D01*
X118327796Y-148670612D01*
X118346846Y-148634973D01*
X118372483Y-148603733D01*
X118403723Y-148578096D01*
X118439362Y-148559046D01*
X118478032Y-148547315D01*
X118524388Y-148542750D01*
X119600612Y-148542750D01*
X119646968Y-148547315D01*
X119646968Y-148547315D01*
G37*
G36*
X133501000Y-149582250D02*
G01*
X131899000Y-149582250D01*
X131899000Y-140930250D01*
X133501000Y-140930250D01*
X133501000Y-149582250D01*
X133501000Y-149582250D01*
G37*
G36*
X122101000Y-149582250D02*
G01*
X120499000Y-149582250D01*
X120499000Y-140930250D01*
X122101000Y-140930250D01*
X122101000Y-149582250D01*
X122101000Y-149582250D01*
G37*
G36*
X135521968Y-147753565D02*
G01*
X135560638Y-147765296D01*
X135596277Y-147784346D01*
X135627517Y-147809983D01*
X135653154Y-147841223D01*
X135672204Y-147876862D01*
X135683935Y-147915532D01*
X135688500Y-147961888D01*
X135688500Y-148613112D01*
X135683935Y-148659468D01*
X135672204Y-148698138D01*
X135653154Y-148733777D01*
X135627517Y-148765017D01*
X135596277Y-148790654D01*
X135560638Y-148809704D01*
X135521968Y-148821435D01*
X135475612Y-148826000D01*
X134399388Y-148826000D01*
X134353032Y-148821435D01*
X134314362Y-148809704D01*
X134278723Y-148790654D01*
X134247483Y-148765017D01*
X134221846Y-148733777D01*
X134202796Y-148698138D01*
X134191065Y-148659468D01*
X134186500Y-148613112D01*
X134186500Y-147961888D01*
X134191065Y-147915532D01*
X134202796Y-147876862D01*
X134221846Y-147841223D01*
X134247483Y-147809983D01*
X134278723Y-147784346D01*
X134314362Y-147765296D01*
X134353032Y-147753565D01*
X134399388Y-147749000D01*
X135475612Y-147749000D01*
X135521968Y-147753565D01*
X135521968Y-147753565D01*
G37*
G36*
X119646968Y-145659815D02*
G01*
X119685638Y-145671546D01*
X119721277Y-145690596D01*
X119752517Y-145716233D01*
X119778154Y-145747473D01*
X119797204Y-145783112D01*
X119808935Y-145821782D01*
X119813500Y-145868138D01*
X119813500Y-146519362D01*
X119808935Y-146565718D01*
X119797204Y-146604388D01*
X119778154Y-146640027D01*
X119752517Y-146671267D01*
X119721277Y-146696904D01*
X119685638Y-146715954D01*
X119646968Y-146727685D01*
X119600612Y-146732250D01*
X118524388Y-146732250D01*
X118478032Y-146727685D01*
X118439362Y-146715954D01*
X118403723Y-146696904D01*
X118372483Y-146671267D01*
X118346846Y-146640027D01*
X118327796Y-146604388D01*
X118316065Y-146565718D01*
X118311500Y-146519362D01*
X118311500Y-145868138D01*
X118316065Y-145821782D01*
X118327796Y-145783112D01*
X118346846Y-145747473D01*
X118372483Y-145716233D01*
X118403723Y-145690596D01*
X118439362Y-145671546D01*
X118478032Y-145659815D01*
X118524388Y-145655250D01*
X119600612Y-145655250D01*
X119646968Y-145659815D01*
X119646968Y-145659815D01*
G37*
G36*
X117265718Y-144866065D02*
G01*
X117304388Y-144877796D01*
X117340027Y-144896846D01*
X117371267Y-144922483D01*
X117396904Y-144953723D01*
X117415954Y-144989362D01*
X117427685Y-145028032D01*
X117432250Y-145074388D01*
X117432250Y-145725612D01*
X117427685Y-145771968D01*
X117415954Y-145810638D01*
X117396904Y-145846277D01*
X117371267Y-145877517D01*
X117340027Y-145903154D01*
X117304388Y-145922204D01*
X117265718Y-145933935D01*
X117219362Y-145938500D01*
X116143138Y-145938500D01*
X116096782Y-145933935D01*
X116058112Y-145922204D01*
X116022473Y-145903154D01*
X115991233Y-145877517D01*
X115965596Y-145846277D01*
X115946546Y-145810638D01*
X115934815Y-145771968D01*
X115930250Y-145725612D01*
X115930250Y-145074388D01*
X115934815Y-145028032D01*
X115946546Y-144989362D01*
X115965596Y-144953723D01*
X115991233Y-144922483D01*
X116022473Y-144896846D01*
X116058112Y-144877796D01*
X116096782Y-144866065D01*
X116143138Y-144861500D01*
X117219362Y-144861500D01*
X117265718Y-144866065D01*
X117265718Y-144866065D01*
G37*
G36*
X119646968Y-143784815D02*
G01*
X119685638Y-143796546D01*
X119721277Y-143815596D01*
X119752517Y-143841233D01*
X119778154Y-143872473D01*
X119797204Y-143908112D01*
X119808935Y-143946782D01*
X119813500Y-143993138D01*
X119813500Y-144644362D01*
X119808935Y-144690718D01*
X119797204Y-144729388D01*
X119778154Y-144765027D01*
X119752517Y-144796267D01*
X119721277Y-144821904D01*
X119685638Y-144840954D01*
X119646968Y-144852685D01*
X119600612Y-144857250D01*
X118524388Y-144857250D01*
X118478032Y-144852685D01*
X118439362Y-144840954D01*
X118403723Y-144821904D01*
X118372483Y-144796267D01*
X118346846Y-144765027D01*
X118327796Y-144729388D01*
X118316065Y-144690718D01*
X118311500Y-144644362D01*
X118311500Y-143993138D01*
X118316065Y-143946782D01*
X118327796Y-143908112D01*
X118346846Y-143872473D01*
X118372483Y-143841233D01*
X118403723Y-143815596D01*
X118439362Y-143796546D01*
X118478032Y-143784815D01*
X118524388Y-143780250D01*
X119600612Y-143780250D01*
X119646968Y-143784815D01*
X119646968Y-143784815D01*
G37*
G36*
X117265718Y-142991065D02*
G01*
X117304388Y-143002796D01*
X117340027Y-143021846D01*
X117371267Y-143047483D01*
X117396904Y-143078723D01*
X117415954Y-143114362D01*
X117427685Y-143153032D01*
X117432250Y-143199388D01*
X117432250Y-143850612D01*
X117427685Y-143896968D01*
X117415954Y-143935638D01*
X117396904Y-143971277D01*
X117371267Y-144002517D01*
X117340027Y-144028154D01*
X117304388Y-144047204D01*
X117265718Y-144058935D01*
X117219362Y-144063500D01*
X116143138Y-144063500D01*
X116096782Y-144058935D01*
X116058112Y-144047204D01*
X116022473Y-144028154D01*
X115991233Y-144002517D01*
X115965596Y-143971277D01*
X115946546Y-143935638D01*
X115934815Y-143896968D01*
X115930250Y-143850612D01*
X115930250Y-143199388D01*
X115934815Y-143153032D01*
X115946546Y-143114362D01*
X115965596Y-143078723D01*
X115991233Y-143047483D01*
X116022473Y-143021846D01*
X116058112Y-143002796D01*
X116096782Y-142991065D01*
X116143138Y-142986500D01*
X117219362Y-142986500D01*
X117265718Y-142991065D01*
X117265718Y-142991065D01*
G37*
G36*
X135521968Y-140103565D02*
G01*
X135560638Y-140115296D01*
X135596277Y-140134346D01*
X135627517Y-140159983D01*
X135653154Y-140191223D01*
X135672204Y-140226862D01*
X135683935Y-140265532D01*
X135688500Y-140311888D01*
X135688500Y-140963112D01*
X135683935Y-141009468D01*
X135672204Y-141048138D01*
X135653154Y-141083777D01*
X135627517Y-141115017D01*
X135596277Y-141140654D01*
X135560638Y-141159704D01*
X135521968Y-141171435D01*
X135475612Y-141176000D01*
X134399388Y-141176000D01*
X134353032Y-141171435D01*
X134314362Y-141159704D01*
X134278723Y-141140654D01*
X134247483Y-141115017D01*
X134221846Y-141083777D01*
X134202796Y-141048138D01*
X134191065Y-141009468D01*
X134186500Y-140963112D01*
X134186500Y-140311888D01*
X134191065Y-140265532D01*
X134202796Y-140226862D01*
X134221846Y-140191223D01*
X134247483Y-140159983D01*
X134278723Y-140134346D01*
X134314362Y-140115296D01*
X134353032Y-140103565D01*
X134399388Y-140099000D01*
X135475612Y-140099000D01*
X135521968Y-140103565D01*
X135521968Y-140103565D01*
G37*
G36*
X131326000Y-140357250D02*
G01*
X122674000Y-140357250D01*
X122674000Y-138755250D01*
X131326000Y-138755250D01*
X131326000Y-140357250D01*
X131326000Y-140357250D01*
G37*
G36*
X135521968Y-138228565D02*
G01*
X135560638Y-138240296D01*
X135596277Y-138259346D01*
X135627517Y-138284983D01*
X135653154Y-138316223D01*
X135672204Y-138351862D01*
X135683935Y-138390532D01*
X135688500Y-138436888D01*
X135688500Y-139088112D01*
X135683935Y-139134468D01*
X135672204Y-139173138D01*
X135653154Y-139208777D01*
X135627517Y-139240017D01*
X135596277Y-139265654D01*
X135560638Y-139284704D01*
X135521968Y-139296435D01*
X135475612Y-139301000D01*
X134399388Y-139301000D01*
X134353032Y-139296435D01*
X134314362Y-139284704D01*
X134278723Y-139265654D01*
X134247483Y-139240017D01*
X134221846Y-139208777D01*
X134202796Y-139173138D01*
X134191065Y-139134468D01*
X134186500Y-139088112D01*
X134186500Y-138436888D01*
X134191065Y-138390532D01*
X134202796Y-138351862D01*
X134221846Y-138316223D01*
X134247483Y-138284983D01*
X134278723Y-138259346D01*
X134314362Y-138240296D01*
X134353032Y-138228565D01*
X134399388Y-138224000D01*
X135475612Y-138224000D01*
X135521968Y-138228565D01*
X135521968Y-138228565D01*
G37*
G36*
X130403218Y-136572315D02*
G01*
X130441888Y-136584046D01*
X130477527Y-136603096D01*
X130508767Y-136628733D01*
X130534404Y-136659973D01*
X130553454Y-136695612D01*
X130565185Y-136734282D01*
X130569750Y-136780638D01*
X130569750Y-137856862D01*
X130565185Y-137903218D01*
X130553454Y-137941888D01*
X130534404Y-137977527D01*
X130508767Y-138008767D01*
X130477527Y-138034404D01*
X130441888Y-138053454D01*
X130403218Y-138065185D01*
X130356862Y-138069750D01*
X129705638Y-138069750D01*
X129659282Y-138065185D01*
X129620612Y-138053454D01*
X129584973Y-138034404D01*
X129553733Y-138008767D01*
X129528096Y-137977527D01*
X129509046Y-137941888D01*
X129497315Y-137903218D01*
X129492750Y-137856862D01*
X129492750Y-136780638D01*
X129497315Y-136734282D01*
X129509046Y-136695612D01*
X129528096Y-136659973D01*
X129553733Y-136628733D01*
X129584973Y-136603096D01*
X129620612Y-136584046D01*
X129659282Y-136572315D01*
X129705638Y-136567750D01*
X130356862Y-136567750D01*
X130403218Y-136572315D01*
X130403218Y-136572315D01*
G37*
G36*
X132278218Y-136572315D02*
G01*
X132316888Y-136584046D01*
X132352527Y-136603096D01*
X132383767Y-136628733D01*
X132409404Y-136659973D01*
X132428454Y-136695612D01*
X132440185Y-136734282D01*
X132444750Y-136780638D01*
X132444750Y-137856862D01*
X132440185Y-137903218D01*
X132428454Y-137941888D01*
X132409404Y-137977527D01*
X132383767Y-138008767D01*
X132352527Y-138034404D01*
X132316888Y-138053454D01*
X132278218Y-138065185D01*
X132231862Y-138069750D01*
X131580638Y-138069750D01*
X131534282Y-138065185D01*
X131495612Y-138053454D01*
X131459973Y-138034404D01*
X131428733Y-138008767D01*
X131403096Y-137977527D01*
X131384046Y-137941888D01*
X131372315Y-137903218D01*
X131367750Y-137856862D01*
X131367750Y-136780638D01*
X131372315Y-136734282D01*
X131384046Y-136695612D01*
X131403096Y-136659973D01*
X131428733Y-136628733D01*
X131459973Y-136603096D01*
X131495612Y-136584046D01*
X131534282Y-136572315D01*
X131580638Y-136567750D01*
X132231862Y-136567750D01*
X132278218Y-136572315D01*
X132278218Y-136572315D01*
G37*
G36*
X123259468Y-136572315D02*
G01*
X123298138Y-136584046D01*
X123333777Y-136603096D01*
X123365017Y-136628733D01*
X123390654Y-136659973D01*
X123409704Y-136695612D01*
X123421435Y-136734282D01*
X123426000Y-136780638D01*
X123426000Y-137856862D01*
X123421435Y-137903218D01*
X123409704Y-137941888D01*
X123390654Y-137977527D01*
X123365017Y-138008767D01*
X123333777Y-138034404D01*
X123298138Y-138053454D01*
X123259468Y-138065185D01*
X123213112Y-138069750D01*
X122561888Y-138069750D01*
X122515532Y-138065185D01*
X122476862Y-138053454D01*
X122441223Y-138034404D01*
X122409983Y-138008767D01*
X122384346Y-137977527D01*
X122365296Y-137941888D01*
X122353565Y-137903218D01*
X122349000Y-137856862D01*
X122349000Y-136780638D01*
X122353565Y-136734282D01*
X122365296Y-136695612D01*
X122384346Y-136659973D01*
X122409983Y-136628733D01*
X122441223Y-136603096D01*
X122476862Y-136584046D01*
X122515532Y-136572315D01*
X122561888Y-136567750D01*
X123213112Y-136567750D01*
X123259468Y-136572315D01*
X123259468Y-136572315D01*
G37*
G36*
X125134468Y-136572315D02*
G01*
X125173138Y-136584046D01*
X125208777Y-136603096D01*
X125240017Y-136628733D01*
X125265654Y-136659973D01*
X125284704Y-136695612D01*
X125296435Y-136734282D01*
X125301000Y-136780638D01*
X125301000Y-137856862D01*
X125296435Y-137903218D01*
X125284704Y-137941888D01*
X125265654Y-137977527D01*
X125240017Y-138008767D01*
X125208777Y-138034404D01*
X125173138Y-138053454D01*
X125134468Y-138065185D01*
X125088112Y-138069750D01*
X124436888Y-138069750D01*
X124390532Y-138065185D01*
X124351862Y-138053454D01*
X124316223Y-138034404D01*
X124284983Y-138008767D01*
X124259346Y-137977527D01*
X124240296Y-137941888D01*
X124228565Y-137903218D01*
X124224000Y-137856862D01*
X124224000Y-136780638D01*
X124228565Y-136734282D01*
X124240296Y-136695612D01*
X124259346Y-136659973D01*
X124284983Y-136628733D01*
X124316223Y-136603096D01*
X124351862Y-136584046D01*
X124390532Y-136572315D01*
X124436888Y-136567750D01*
X125088112Y-136567750D01*
X125134468Y-136572315D01*
X125134468Y-136572315D01*
G37*
G36*
X121418604Y-136459597D02*
G01*
X121455144Y-136470682D01*
X121488821Y-136488683D01*
X121518341Y-136512909D01*
X121542567Y-136542429D01*
X121560568Y-136576106D01*
X121571653Y-136612646D01*
X121576000Y-136656788D01*
X121576000Y-137605712D01*
X121571653Y-137649854D01*
X121560568Y-137686394D01*
X121542567Y-137720071D01*
X121518341Y-137749591D01*
X121488821Y-137773817D01*
X121455144Y-137791818D01*
X121418604Y-137802903D01*
X121374462Y-137807250D01*
X119925538Y-137807250D01*
X119881396Y-137802903D01*
X119844856Y-137791818D01*
X119811179Y-137773817D01*
X119781659Y-137749591D01*
X119757433Y-137720071D01*
X119739432Y-137686394D01*
X119728347Y-137649854D01*
X119724000Y-137605712D01*
X119724000Y-136656788D01*
X119728347Y-136612646D01*
X119739432Y-136576106D01*
X119757433Y-136542429D01*
X119781659Y-136512909D01*
X119811179Y-136488683D01*
X119844856Y-136470682D01*
X119881396Y-136459597D01*
X119925538Y-136455250D01*
X121374462Y-136455250D01*
X121418604Y-136459597D01*
X121418604Y-136459597D01*
G37*
G36*
X121418604Y-133659597D02*
G01*
X121455144Y-133670682D01*
X121488821Y-133688683D01*
X121518341Y-133712909D01*
X121542567Y-133742429D01*
X121560568Y-133776106D01*
X121571653Y-133812646D01*
X121576000Y-133856788D01*
X121576000Y-134805712D01*
X121571653Y-134849854D01*
X121560568Y-134886394D01*
X121542567Y-134920071D01*
X121518341Y-134949591D01*
X121488821Y-134973817D01*
X121455144Y-134991818D01*
X121418604Y-135002903D01*
X121374462Y-135007250D01*
X119925538Y-135007250D01*
X119881396Y-135002903D01*
X119844856Y-134991818D01*
X119811179Y-134973817D01*
X119781659Y-134949591D01*
X119757433Y-134920071D01*
X119739432Y-134886394D01*
X119728347Y-134849854D01*
X119724000Y-134805712D01*
X119724000Y-133856788D01*
X119728347Y-133812646D01*
X119739432Y-133776106D01*
X119757433Y-133742429D01*
X119781659Y-133712909D01*
X119811179Y-133688683D01*
X119844856Y-133670682D01*
X119881396Y-133659597D01*
X119925538Y-133655250D01*
X121374462Y-133655250D01*
X121418604Y-133659597D01*
X121418604Y-133659597D01*
G37*
G36*
X154638500Y-125976000D02*
G01*
X153336500Y-125976000D01*
X153336500Y-124974000D01*
X154638500Y-124974000D01*
X154638500Y-125976000D01*
X154638500Y-125976000D01*
G37*
G36*
X116538500Y-125976000D02*
G01*
X115236500Y-125976000D01*
X115236500Y-124974000D01*
X116538500Y-124974000D01*
X116538500Y-125976000D01*
X116538500Y-125976000D01*
G37*
G36*
X135588500Y-125976000D02*
G01*
X134286500Y-125976000D01*
X134286500Y-124974000D01*
X135588500Y-124974000D01*
X135588500Y-125976000D01*
X135588500Y-125976000D01*
G37*
G36*
X108546474Y-121858684D02*
G01*
X108764474Y-121948983D01*
X108918623Y-122012833D01*
X109253548Y-122236623D01*
X109538377Y-122521452D01*
X109762167Y-122856377D01*
X109794562Y-122934586D01*
X109916316Y-123228526D01*
X109994900Y-123623594D01*
X109994900Y-124026406D01*
X109916316Y-124421474D01*
X109865451Y-124544272D01*
X109762167Y-124793623D01*
X109538377Y-125128548D01*
X109253548Y-125413377D01*
X108918623Y-125637167D01*
X108764474Y-125701017D01*
X108546474Y-125791316D01*
X108151406Y-125869900D01*
X107748594Y-125869900D01*
X107353526Y-125791316D01*
X107135526Y-125701017D01*
X106981377Y-125637167D01*
X106646452Y-125413377D01*
X106361623Y-125128548D01*
X106137833Y-124793623D01*
X106034549Y-124544272D01*
X105983684Y-124421474D01*
X105905100Y-124026406D01*
X105905100Y-123623594D01*
X105983684Y-123228526D01*
X106105438Y-122934586D01*
X106137833Y-122856377D01*
X106361623Y-122521452D01*
X106646452Y-122236623D01*
X106981377Y-122012833D01*
X107135526Y-121948983D01*
X107353526Y-121858684D01*
X107748594Y-121780100D01*
X108151406Y-121780100D01*
X108546474Y-121858684D01*
X108546474Y-121858684D01*
G37*
G36*
X127596474Y-121858684D02*
G01*
X127814474Y-121948983D01*
X127968623Y-122012833D01*
X128303548Y-122236623D01*
X128588377Y-122521452D01*
X128812167Y-122856377D01*
X128844562Y-122934586D01*
X128966316Y-123228526D01*
X129044900Y-123623594D01*
X129044900Y-124026406D01*
X128966316Y-124421474D01*
X128915451Y-124544272D01*
X128812167Y-124793623D01*
X128588377Y-125128548D01*
X128303548Y-125413377D01*
X127968623Y-125637167D01*
X127814474Y-125701017D01*
X127596474Y-125791316D01*
X127201406Y-125869900D01*
X126798594Y-125869900D01*
X126403526Y-125791316D01*
X126185526Y-125701017D01*
X126031377Y-125637167D01*
X125696452Y-125413377D01*
X125411623Y-125128548D01*
X125187833Y-124793623D01*
X125084549Y-124544272D01*
X125033684Y-124421474D01*
X124955100Y-124026406D01*
X124955100Y-123623594D01*
X125033684Y-123228526D01*
X125155438Y-122934586D01*
X125187833Y-122856377D01*
X125411623Y-122521452D01*
X125696452Y-122236623D01*
X126031377Y-122012833D01*
X126185526Y-121948983D01*
X126403526Y-121858684D01*
X126798594Y-121780100D01*
X127201406Y-121780100D01*
X127596474Y-121858684D01*
X127596474Y-121858684D01*
G37*
G36*
X146646474Y-121858684D02*
G01*
X146864474Y-121948983D01*
X147018623Y-122012833D01*
X147353548Y-122236623D01*
X147638377Y-122521452D01*
X147862167Y-122856377D01*
X147894562Y-122934586D01*
X148016316Y-123228526D01*
X148094900Y-123623594D01*
X148094900Y-124026406D01*
X148016316Y-124421474D01*
X147965451Y-124544272D01*
X147862167Y-124793623D01*
X147638377Y-125128548D01*
X147353548Y-125413377D01*
X147018623Y-125637167D01*
X146864474Y-125701017D01*
X146646474Y-125791316D01*
X146251406Y-125869900D01*
X145848594Y-125869900D01*
X145453526Y-125791316D01*
X145235526Y-125701017D01*
X145081377Y-125637167D01*
X144746452Y-125413377D01*
X144461623Y-125128548D01*
X144237833Y-124793623D01*
X144134549Y-124544272D01*
X144083684Y-124421474D01*
X144005100Y-124026406D01*
X144005100Y-123623594D01*
X144083684Y-123228526D01*
X144205438Y-122934586D01*
X144237833Y-122856377D01*
X144461623Y-122521452D01*
X144746452Y-122236623D01*
X145081377Y-122012833D01*
X145235526Y-121948983D01*
X145453526Y-121858684D01*
X145848594Y-121780100D01*
X146251406Y-121780100D01*
X146646474Y-121858684D01*
X146646474Y-121858684D01*
G37*
G36*
X103140104Y-122934585D02*
G01*
X103308626Y-123004389D01*
X103460291Y-123105728D01*
X103589272Y-123234709D01*
X103690611Y-123386374D01*
X103760415Y-123554896D01*
X103796000Y-123733797D01*
X103796000Y-123916203D01*
X103760415Y-124095104D01*
X103690611Y-124263626D01*
X103589272Y-124415291D01*
X103460291Y-124544272D01*
X103308626Y-124645611D01*
X103140104Y-124715415D01*
X102961203Y-124751000D01*
X102778797Y-124751000D01*
X102599896Y-124715415D01*
X102431374Y-124645611D01*
X102279709Y-124544272D01*
X102150728Y-124415291D01*
X102049389Y-124263626D01*
X101979585Y-124095104D01*
X101944000Y-123916203D01*
X101944000Y-123733797D01*
X101979585Y-123554896D01*
X102049389Y-123386374D01*
X102150728Y-123234709D01*
X102279709Y-123105728D01*
X102431374Y-123004389D01*
X102599896Y-122934585D01*
X102778797Y-122899000D01*
X102961203Y-122899000D01*
X103140104Y-122934585D01*
X103140104Y-122934585D01*
G37*
G36*
X132350104Y-122934585D02*
G01*
X132518626Y-123004389D01*
X132670291Y-123105728D01*
X132799272Y-123234709D01*
X132900611Y-123386374D01*
X132970415Y-123554896D01*
X133006000Y-123733797D01*
X133006000Y-123916203D01*
X132970415Y-124095104D01*
X132900611Y-124263626D01*
X132799272Y-124415291D01*
X132670291Y-124544272D01*
X132518626Y-124645611D01*
X132350104Y-124715415D01*
X132171203Y-124751000D01*
X131988797Y-124751000D01*
X131809896Y-124715415D01*
X131641374Y-124645611D01*
X131489709Y-124544272D01*
X131360728Y-124415291D01*
X131259389Y-124263626D01*
X131189585Y-124095104D01*
X131154000Y-123916203D01*
X131154000Y-123733797D01*
X131189585Y-123554896D01*
X131259389Y-123386374D01*
X131360728Y-123234709D01*
X131489709Y-123105728D01*
X131641374Y-123004389D01*
X131809896Y-122934585D01*
X131988797Y-122899000D01*
X132171203Y-122899000D01*
X132350104Y-122934585D01*
X132350104Y-122934585D01*
G37*
G36*
X122190104Y-122934585D02*
G01*
X122358626Y-123004389D01*
X122510291Y-123105728D01*
X122639272Y-123234709D01*
X122740611Y-123386374D01*
X122810415Y-123554896D01*
X122846000Y-123733797D01*
X122846000Y-123916203D01*
X122810415Y-124095104D01*
X122740611Y-124263626D01*
X122639272Y-124415291D01*
X122510291Y-124544272D01*
X122358626Y-124645611D01*
X122190104Y-124715415D01*
X122011203Y-124751000D01*
X121828797Y-124751000D01*
X121649896Y-124715415D01*
X121481374Y-124645611D01*
X121329709Y-124544272D01*
X121200728Y-124415291D01*
X121099389Y-124263626D01*
X121029585Y-124095104D01*
X120994000Y-123916203D01*
X120994000Y-123733797D01*
X121029585Y-123554896D01*
X121099389Y-123386374D01*
X121200728Y-123234709D01*
X121329709Y-123105728D01*
X121481374Y-123004389D01*
X121649896Y-122934585D01*
X121828797Y-122899000D01*
X122011203Y-122899000D01*
X122190104Y-122934585D01*
X122190104Y-122934585D01*
G37*
G36*
X151400104Y-122934585D02*
G01*
X151568626Y-123004389D01*
X151720291Y-123105728D01*
X151849272Y-123234709D01*
X151950611Y-123386374D01*
X152020415Y-123554896D01*
X152056000Y-123733797D01*
X152056000Y-123916203D01*
X152020415Y-124095104D01*
X151950611Y-124263626D01*
X151849272Y-124415291D01*
X151720291Y-124544272D01*
X151568626Y-124645611D01*
X151400104Y-124715415D01*
X151221203Y-124751000D01*
X151038797Y-124751000D01*
X150859896Y-124715415D01*
X150691374Y-124645611D01*
X150539709Y-124544272D01*
X150410728Y-124415291D01*
X150309389Y-124263626D01*
X150239585Y-124095104D01*
X150204000Y-123916203D01*
X150204000Y-123733797D01*
X150239585Y-123554896D01*
X150309389Y-123386374D01*
X150410728Y-123234709D01*
X150539709Y-123105728D01*
X150691374Y-123004389D01*
X150859896Y-122934585D01*
X151038797Y-122899000D01*
X151221203Y-122899000D01*
X151400104Y-122934585D01*
X151400104Y-122934585D01*
G37*
G36*
X141240104Y-122934585D02*
G01*
X141408626Y-123004389D01*
X141560291Y-123105728D01*
X141689272Y-123234709D01*
X141790611Y-123386374D01*
X141860415Y-123554896D01*
X141896000Y-123733797D01*
X141896000Y-123916203D01*
X141860415Y-124095104D01*
X141790611Y-124263626D01*
X141689272Y-124415291D01*
X141560291Y-124544272D01*
X141408626Y-124645611D01*
X141240104Y-124715415D01*
X141061203Y-124751000D01*
X140878797Y-124751000D01*
X140699896Y-124715415D01*
X140531374Y-124645611D01*
X140379709Y-124544272D01*
X140250728Y-124415291D01*
X140149389Y-124263626D01*
X140079585Y-124095104D01*
X140044000Y-123916203D01*
X140044000Y-123733797D01*
X140079585Y-123554896D01*
X140149389Y-123386374D01*
X140250728Y-123234709D01*
X140379709Y-123105728D01*
X140531374Y-123004389D01*
X140699896Y-122934585D01*
X140878797Y-122899000D01*
X141061203Y-122899000D01*
X141240104Y-122934585D01*
X141240104Y-122934585D01*
G37*
G36*
X113300104Y-122934585D02*
G01*
X113468626Y-123004389D01*
X113620291Y-123105728D01*
X113749272Y-123234709D01*
X113850611Y-123386374D01*
X113920415Y-123554896D01*
X113956000Y-123733797D01*
X113956000Y-123916203D01*
X113920415Y-124095104D01*
X113850611Y-124263626D01*
X113749272Y-124415291D01*
X113620291Y-124544272D01*
X113468626Y-124645611D01*
X113300104Y-124715415D01*
X113121203Y-124751000D01*
X112938797Y-124751000D01*
X112759896Y-124715415D01*
X112591374Y-124645611D01*
X112439709Y-124544272D01*
X112310728Y-124415291D01*
X112209389Y-124263626D01*
X112139585Y-124095104D01*
X112104000Y-123916203D01*
X112104000Y-123733797D01*
X112139585Y-123554896D01*
X112209389Y-123386374D01*
X112310728Y-123234709D01*
X112439709Y-123105728D01*
X112591374Y-123004389D01*
X112759896Y-122934585D01*
X112938797Y-122899000D01*
X113121203Y-122899000D01*
X113300104Y-122934585D01*
X113300104Y-122934585D01*
G37*
G36*
X154638500Y-122676000D02*
G01*
X153336500Y-122676000D01*
X153336500Y-121674000D01*
X154638500Y-121674000D01*
X154638500Y-122676000D01*
X154638500Y-122676000D01*
G37*
G36*
X135588500Y-122676000D02*
G01*
X134286500Y-122676000D01*
X134286500Y-121674000D01*
X135588500Y-121674000D01*
X135588500Y-122676000D01*
X135588500Y-122676000D01*
G37*
G36*
X116538500Y-122676000D02*
G01*
X115236500Y-122676000D01*
X115236500Y-121674000D01*
X116538500Y-121674000D01*
X116538500Y-122676000D01*
X116538500Y-122676000D01*
G37*
G36*
X108534468Y-107559815D02*
G01*
X108573138Y-107571546D01*
X108608777Y-107590596D01*
X108640017Y-107616233D01*
X108665654Y-107647473D01*
X108684704Y-107683112D01*
X108696435Y-107721782D01*
X108701000Y-107768138D01*
X108701000Y-108419362D01*
X108696435Y-108465718D01*
X108684704Y-108504388D01*
X108665654Y-108540027D01*
X108640017Y-108571267D01*
X108608777Y-108596904D01*
X108573138Y-108615954D01*
X108534468Y-108627685D01*
X108488112Y-108632250D01*
X107411888Y-108632250D01*
X107365532Y-108627685D01*
X107326862Y-108615954D01*
X107291223Y-108596904D01*
X107259983Y-108571267D01*
X107234346Y-108540027D01*
X107215296Y-108504388D01*
X107203565Y-108465718D01*
X107199000Y-108419362D01*
X107199000Y-107768138D01*
X107203565Y-107721782D01*
X107215296Y-107683112D01*
X107234346Y-107647473D01*
X107259983Y-107616233D01*
X107291223Y-107590596D01*
X107326862Y-107571546D01*
X107365532Y-107559815D01*
X107411888Y-107555250D01*
X108488112Y-107555250D01*
X108534468Y-107559815D01*
X108534468Y-107559815D01*
G37*
G36*
X110915718Y-107559815D02*
G01*
X110954388Y-107571546D01*
X110990027Y-107590596D01*
X111021267Y-107616233D01*
X111046904Y-107647473D01*
X111065954Y-107683112D01*
X111077685Y-107721782D01*
X111082250Y-107768138D01*
X111082250Y-108419362D01*
X111077685Y-108465718D01*
X111065954Y-108504388D01*
X111046904Y-108540027D01*
X111021267Y-108571267D01*
X110990027Y-108596904D01*
X110954388Y-108615954D01*
X110915718Y-108627685D01*
X110869362Y-108632250D01*
X109793138Y-108632250D01*
X109746782Y-108627685D01*
X109708112Y-108615954D01*
X109672473Y-108596904D01*
X109641233Y-108571267D01*
X109615596Y-108540027D01*
X109596546Y-108504388D01*
X109584815Y-108465718D01*
X109580250Y-108419362D01*
X109580250Y-107768138D01*
X109584815Y-107721782D01*
X109596546Y-107683112D01*
X109615596Y-107647473D01*
X109641233Y-107616233D01*
X109672473Y-107590596D01*
X109708112Y-107571546D01*
X109746782Y-107559815D01*
X109793138Y-107555250D01*
X110869362Y-107555250D01*
X110915718Y-107559815D01*
X110915718Y-107559815D01*
G37*
G36*
X135588500Y-106926000D02*
G01*
X134286500Y-106926000D01*
X134286500Y-105924000D01*
X135588500Y-105924000D01*
X135588500Y-106926000D01*
X135588500Y-106926000D01*
G37*
G36*
X127596474Y-102808684D02*
G01*
X127814474Y-102898983D01*
X127968623Y-102962833D01*
X128303548Y-103186623D01*
X128588377Y-103471452D01*
X128812167Y-103806377D01*
X128844562Y-103884586D01*
X128966316Y-104178526D01*
X129044900Y-104573594D01*
X129044900Y-104976406D01*
X128966316Y-105371474D01*
X128915451Y-105494272D01*
X128812167Y-105743623D01*
X128588377Y-106078548D01*
X128303548Y-106363377D01*
X127968623Y-106587167D01*
X127866692Y-106629388D01*
X127596474Y-106741316D01*
X127201406Y-106819900D01*
X126798594Y-106819900D01*
X126403526Y-106741316D01*
X126133308Y-106629388D01*
X126031377Y-106587167D01*
X125696452Y-106363377D01*
X125411623Y-106078548D01*
X125187833Y-105743623D01*
X125084549Y-105494272D01*
X125033684Y-105371474D01*
X124955100Y-104976406D01*
X124955100Y-104573594D01*
X125033684Y-104178526D01*
X125155438Y-103884586D01*
X125187833Y-103806377D01*
X125411623Y-103471452D01*
X125696452Y-103186623D01*
X126031377Y-102962833D01*
X126185526Y-102898983D01*
X126403526Y-102808684D01*
X126798594Y-102730100D01*
X127201406Y-102730100D01*
X127596474Y-102808684D01*
X127596474Y-102808684D01*
G37*
G36*
X110915718Y-105684815D02*
G01*
X110954388Y-105696546D01*
X110990027Y-105715596D01*
X111021267Y-105741233D01*
X111046904Y-105772473D01*
X111065954Y-105808112D01*
X111077685Y-105846782D01*
X111082250Y-105893138D01*
X111082250Y-106544362D01*
X111077685Y-106590718D01*
X111065954Y-106629388D01*
X111046904Y-106665027D01*
X111021267Y-106696267D01*
X110990027Y-106721904D01*
X110954388Y-106740954D01*
X110915718Y-106752685D01*
X110869362Y-106757250D01*
X109793138Y-106757250D01*
X109746782Y-106752685D01*
X109708112Y-106740954D01*
X109672473Y-106721904D01*
X109641233Y-106696267D01*
X109615596Y-106665027D01*
X109596546Y-106629388D01*
X109584815Y-106590718D01*
X109580250Y-106544362D01*
X109580250Y-105893138D01*
X109584815Y-105846782D01*
X109596546Y-105808112D01*
X109615596Y-105772473D01*
X109641233Y-105741233D01*
X109672473Y-105715596D01*
X109708112Y-105696546D01*
X109746782Y-105684815D01*
X109793138Y-105680250D01*
X110869362Y-105680250D01*
X110915718Y-105684815D01*
X110915718Y-105684815D01*
G37*
G36*
X108534468Y-105684815D02*
G01*
X108573138Y-105696546D01*
X108608777Y-105715596D01*
X108640017Y-105741233D01*
X108665654Y-105772473D01*
X108684704Y-105808112D01*
X108696435Y-105846782D01*
X108701000Y-105893138D01*
X108701000Y-106544362D01*
X108696435Y-106590718D01*
X108684704Y-106629388D01*
X108665654Y-106665027D01*
X108640017Y-106696267D01*
X108608777Y-106721904D01*
X108573138Y-106740954D01*
X108534468Y-106752685D01*
X108488112Y-106757250D01*
X107411888Y-106757250D01*
X107365532Y-106752685D01*
X107326862Y-106740954D01*
X107291223Y-106721904D01*
X107259983Y-106696267D01*
X107234346Y-106665027D01*
X107215296Y-106629388D01*
X107203565Y-106590718D01*
X107199000Y-106544362D01*
X107199000Y-105893138D01*
X107203565Y-105846782D01*
X107215296Y-105808112D01*
X107234346Y-105772473D01*
X107259983Y-105741233D01*
X107291223Y-105715596D01*
X107326862Y-105696546D01*
X107365532Y-105684815D01*
X107411888Y-105680250D01*
X108488112Y-105680250D01*
X108534468Y-105684815D01*
X108534468Y-105684815D01*
G37*
G36*
X122190104Y-103884585D02*
G01*
X122358626Y-103954389D01*
X122510291Y-104055728D01*
X122639272Y-104184709D01*
X122740611Y-104336374D01*
X122810415Y-104504896D01*
X122846000Y-104683797D01*
X122846000Y-104866203D01*
X122810415Y-105045104D01*
X122740611Y-105213626D01*
X122639272Y-105365291D01*
X122510291Y-105494272D01*
X122358626Y-105595611D01*
X122190104Y-105665415D01*
X122011203Y-105701000D01*
X121828797Y-105701000D01*
X121649896Y-105665415D01*
X121481374Y-105595611D01*
X121329709Y-105494272D01*
X121200728Y-105365291D01*
X121099389Y-105213626D01*
X121029585Y-105045104D01*
X120994000Y-104866203D01*
X120994000Y-104683797D01*
X121029585Y-104504896D01*
X121099389Y-104336374D01*
X121200728Y-104184709D01*
X121329709Y-104055728D01*
X121481374Y-103954389D01*
X121649896Y-103884585D01*
X121828797Y-103849000D01*
X122011203Y-103849000D01*
X122190104Y-103884585D01*
X122190104Y-103884585D01*
G37*
G36*
X132350104Y-103884585D02*
G01*
X132518626Y-103954389D01*
X132670291Y-104055728D01*
X132799272Y-104184709D01*
X132900611Y-104336374D01*
X132970415Y-104504896D01*
X133006000Y-104683797D01*
X133006000Y-104866203D01*
X132970415Y-105045104D01*
X132900611Y-105213626D01*
X132799272Y-105365291D01*
X132670291Y-105494272D01*
X132518626Y-105595611D01*
X132350104Y-105665415D01*
X132171203Y-105701000D01*
X131988797Y-105701000D01*
X131809896Y-105665415D01*
X131641374Y-105595611D01*
X131489709Y-105494272D01*
X131360728Y-105365291D01*
X131259389Y-105213626D01*
X131189585Y-105045104D01*
X131154000Y-104866203D01*
X131154000Y-104683797D01*
X131189585Y-104504896D01*
X131259389Y-104336374D01*
X131360728Y-104184709D01*
X131489709Y-104055728D01*
X131641374Y-103954389D01*
X131809896Y-103884585D01*
X131988797Y-103849000D01*
X132171203Y-103849000D01*
X132350104Y-103884585D01*
X132350104Y-103884585D01*
G37*
G36*
X135588500Y-103626000D02*
G01*
X134286500Y-103626000D01*
X134286500Y-102624000D01*
X135588500Y-102624000D01*
X135588500Y-103626000D01*
X135588500Y-103626000D01*
G37*
G36*
X112570377Y-100743287D02*
G01*
X112740216Y-100794807D01*
X112896741Y-100878472D01*
X112932479Y-100907802D01*
X113033936Y-100991064D01*
X113117198Y-101092521D01*
X113146528Y-101128259D01*
X113230193Y-101284784D01*
X113281713Y-101454623D01*
X113294750Y-101586992D01*
X113294750Y-102675508D01*
X113281713Y-102807877D01*
X113230193Y-102977716D01*
X113146528Y-103134241D01*
X113117198Y-103169979D01*
X113033936Y-103271436D01*
X112896739Y-103384029D01*
X112740217Y-103467692D01*
X112740215Y-103467693D01*
X112570376Y-103519213D01*
X112393750Y-103536609D01*
X112217123Y-103519213D01*
X112047284Y-103467693D01*
X111890759Y-103384028D01*
X111855021Y-103354698D01*
X111753564Y-103271436D01*
X111640971Y-103134239D01*
X111557308Y-102977717D01*
X111552793Y-102962833D01*
X111505787Y-102807876D01*
X111492750Y-102675507D01*
X111492751Y-101586992D01*
X111505788Y-101454623D01*
X111557308Y-101284784D01*
X111640973Y-101128259D01*
X111670303Y-101092521D01*
X111753565Y-100991064D01*
X111855022Y-100907802D01*
X111890760Y-100878472D01*
X112047285Y-100794807D01*
X112217124Y-100743287D01*
X112393750Y-100725891D01*
X112570377Y-100743287D01*
X112570377Y-100743287D01*
G37*
G36*
X105270377Y-100743287D02*
G01*
X105440216Y-100794807D01*
X105596741Y-100878472D01*
X105632479Y-100907802D01*
X105733936Y-100991064D01*
X105817198Y-101092521D01*
X105846528Y-101128259D01*
X105930193Y-101284784D01*
X105981713Y-101454623D01*
X105994750Y-101586992D01*
X105994750Y-102675508D01*
X105981713Y-102807877D01*
X105930193Y-102977716D01*
X105846528Y-103134241D01*
X105817198Y-103169979D01*
X105733936Y-103271436D01*
X105596739Y-103384029D01*
X105440217Y-103467692D01*
X105440215Y-103467693D01*
X105270376Y-103519213D01*
X105093750Y-103536609D01*
X104917123Y-103519213D01*
X104747284Y-103467693D01*
X104590759Y-103384028D01*
X104555021Y-103354698D01*
X104453564Y-103271436D01*
X104340971Y-103134239D01*
X104257308Y-102977717D01*
X104252793Y-102962833D01*
X104205787Y-102807876D01*
X104192750Y-102675507D01*
X104192751Y-101586992D01*
X104205788Y-101454623D01*
X104257308Y-101284784D01*
X104340973Y-101128259D01*
X104370303Y-101092521D01*
X104453565Y-100991064D01*
X104555022Y-100907802D01*
X104590760Y-100878472D01*
X104747285Y-100794807D01*
X104917124Y-100743287D01*
X105093750Y-100725891D01*
X105270377Y-100743287D01*
X105270377Y-100743287D01*
G37*
G36*
X110644750Y-103307250D02*
G01*
X106842750Y-103307250D01*
X106842750Y-100955250D01*
X110644750Y-100955250D01*
X110644750Y-103307250D01*
X110644750Y-103307250D01*
G37*
G36*
X112570377Y-96243287D02*
G01*
X112740216Y-96294807D01*
X112896741Y-96378472D01*
X112932479Y-96407802D01*
X113033936Y-96491064D01*
X113117198Y-96592521D01*
X113146528Y-96628259D01*
X113230193Y-96784784D01*
X113281713Y-96954623D01*
X113294750Y-97086992D01*
X113294750Y-98175508D01*
X113281713Y-98307877D01*
X113230193Y-98477716D01*
X113146528Y-98634241D01*
X113117198Y-98669979D01*
X113033936Y-98771436D01*
X112896739Y-98884029D01*
X112740217Y-98967692D01*
X112740215Y-98967693D01*
X112570376Y-99019213D01*
X112393750Y-99036609D01*
X112217123Y-99019213D01*
X112047284Y-98967693D01*
X111890759Y-98884028D01*
X111855021Y-98854698D01*
X111753564Y-98771436D01*
X111640971Y-98634239D01*
X111557308Y-98477717D01*
X111557307Y-98477715D01*
X111505787Y-98307876D01*
X111492750Y-98175507D01*
X111492751Y-97086992D01*
X111505788Y-96954623D01*
X111557308Y-96784784D01*
X111640973Y-96628259D01*
X111670303Y-96592521D01*
X111753565Y-96491064D01*
X111855022Y-96407802D01*
X111890760Y-96378472D01*
X112047285Y-96294807D01*
X112217124Y-96243287D01*
X112393750Y-96225891D01*
X112570377Y-96243287D01*
X112570377Y-96243287D01*
G37*
G36*
X105270377Y-96243287D02*
G01*
X105440216Y-96294807D01*
X105596741Y-96378472D01*
X105632479Y-96407802D01*
X105733936Y-96491064D01*
X105817198Y-96592521D01*
X105846528Y-96628259D01*
X105930193Y-96784784D01*
X105981713Y-96954623D01*
X105994750Y-97086992D01*
X105994750Y-98175508D01*
X105981713Y-98307877D01*
X105930193Y-98477716D01*
X105846528Y-98634241D01*
X105817198Y-98669979D01*
X105733936Y-98771436D01*
X105596739Y-98884029D01*
X105440217Y-98967692D01*
X105440215Y-98967693D01*
X105270376Y-99019213D01*
X105093750Y-99036609D01*
X104917123Y-99019213D01*
X104747284Y-98967693D01*
X104590759Y-98884028D01*
X104555021Y-98854698D01*
X104453564Y-98771436D01*
X104340971Y-98634239D01*
X104257308Y-98477717D01*
X104257307Y-98477715D01*
X104205787Y-98307876D01*
X104192750Y-98175507D01*
X104192751Y-97086992D01*
X104205788Y-96954623D01*
X104257308Y-96784784D01*
X104340973Y-96628259D01*
X104370303Y-96592521D01*
X104453565Y-96491064D01*
X104555022Y-96407802D01*
X104590760Y-96378472D01*
X104747285Y-96294807D01*
X104917124Y-96243287D01*
X105093750Y-96225891D01*
X105270377Y-96243287D01*
X105270377Y-96243287D01*
G37*
M02*
