M48
; DRILL file {KiCad (5.1.4)-1} date 10/29/2022 17:57:52
; FORMAT={-:-/ absolute / inch / decimal}
; #@! TF.CreationDate,2022-10-29T17:57:52-05:00
; #@! TF.GenerationSoftware,Kicad,Pcbnew,(5.1.4)-1
; #@! TF.FileFunction,Plated,1,2,PTH
FMAT,2
INCH
T1C0.0157
T2C0.0276
T3C0.0579
%
G90
G05
T1
X4.5625Y-5.0312
X4.6875Y-5.8125
X4.7226Y-5.5039
X4.875Y-6.0312
X4.875Y-6.1562
X5.0Y-6.0
X5.2188Y-5.0312
X5.25Y-5.4375
X5.3125Y-5.7812
X5.4062Y-5.75
T3
X4.85Y-4.775
X4.9016Y-4.7175
X5.0984Y-4.6978
X5.1Y-4.675
X4.85Y-4.025
X4.9016Y-3.9675
X5.0984Y-3.9478
X5.1Y-3.925
X4.1Y-4.775
X4.1516Y-4.7175
X4.3484Y-4.6978
X4.35Y-4.675
X5.6Y-4.775
X5.6516Y-4.7175
X5.8484Y-4.6978
X5.85Y-4.675
T2
G00X4.1375Y-3.7889
M15
G01X4.1375Y-3.8361
M16
G05
G00X4.1375Y-3.966
M15
G01X4.1375Y-4.0133
M16
G05
G00X4.425Y-3.7889
M15
G01X4.425Y-3.8361
M16
G05
G00X4.425Y-3.966
M15
G01X4.425Y-4.0133
M16
G05
T0
M30
