G04 #@! TF.GenerationSoftware,KiCad,Pcbnew,(5.1.4)-1*
G04 #@! TF.CreationDate,2022-10-22T18:19:51-05:00*
G04 #@! TF.ProjectId,first-3k-keypad,66697273-742d-4336-9b2d-6b6579706164,rev?*
G04 #@! TF.SameCoordinates,Original*
G04 #@! TF.FileFunction,Legend,Bot*
G04 #@! TF.FilePolarity,Positive*
%FSLAX46Y46*%
G04 Gerber Fmt 4.6, Leading zero omitted, Abs format (unit mm)*
G04 Created by KiCad (PCBNEW (5.1.4)-1) date 2022-10-22 18:19:51*
%MOMM*%
%LPD*%
G04 APERTURE LIST*
%ADD10C,0.150000*%
%ADD11C,2.352000*%
%ADD12C,2.352000*%
%ADD13C,4.089800*%
%ADD14C,1.852000*%
%ADD15O,1.802000X2.802000*%
G04 APERTURE END LIST*
D10*
X148428571Y-108864880D02*
X147857142Y-108864880D01*
X148142857Y-109864880D02*
X148142857Y-108864880D01*
X147523809Y-109864880D02*
X147523809Y-108864880D01*
X147095238Y-109864880D02*
X147095238Y-109341071D01*
X147142857Y-109245833D01*
X147238095Y-109198214D01*
X147380952Y-109198214D01*
X147476190Y-109245833D01*
X147523809Y-109293452D01*
X146238095Y-109817261D02*
X146333333Y-109864880D01*
X146523809Y-109864880D01*
X146619047Y-109817261D01*
X146666666Y-109722023D01*
X146666666Y-109341071D01*
X146619047Y-109245833D01*
X146523809Y-109198214D01*
X146333333Y-109198214D01*
X146238095Y-109245833D01*
X146190476Y-109341071D01*
X146190476Y-109436309D01*
X146666666Y-109531547D01*
X145000000Y-109198214D02*
X145000000Y-110198214D01*
X145000000Y-109245833D02*
X144904761Y-109198214D01*
X144714285Y-109198214D01*
X144619047Y-109245833D01*
X144571428Y-109293452D01*
X144523809Y-109388690D01*
X144523809Y-109674404D01*
X144571428Y-109769642D01*
X144619047Y-109817261D01*
X144714285Y-109864880D01*
X144904761Y-109864880D01*
X145000000Y-109817261D01*
X144095238Y-109864880D02*
X144095238Y-108864880D01*
X143666666Y-109864880D02*
X143666666Y-109341071D01*
X143714285Y-109245833D01*
X143809523Y-109198214D01*
X143952380Y-109198214D01*
X144047619Y-109245833D01*
X144095238Y-109293452D01*
X143190476Y-109864880D02*
X143190476Y-109198214D01*
X143190476Y-109388690D02*
X143142857Y-109293452D01*
X143095238Y-109245833D01*
X143000000Y-109198214D01*
X142904761Y-109198214D01*
X142142857Y-109864880D02*
X142142857Y-109341071D01*
X142190476Y-109245833D01*
X142285714Y-109198214D01*
X142476190Y-109198214D01*
X142571428Y-109245833D01*
X142142857Y-109817261D02*
X142238095Y-109864880D01*
X142476190Y-109864880D01*
X142571428Y-109817261D01*
X142619047Y-109722023D01*
X142619047Y-109626785D01*
X142571428Y-109531547D01*
X142476190Y-109483928D01*
X142238095Y-109483928D01*
X142142857Y-109436309D01*
X141714285Y-109817261D02*
X141619047Y-109864880D01*
X141428571Y-109864880D01*
X141333333Y-109817261D01*
X141285714Y-109722023D01*
X141285714Y-109674404D01*
X141333333Y-109579166D01*
X141428571Y-109531547D01*
X141571428Y-109531547D01*
X141666666Y-109483928D01*
X141714285Y-109388690D01*
X141714285Y-109341071D01*
X141666666Y-109245833D01*
X141571428Y-109198214D01*
X141428571Y-109198214D01*
X141333333Y-109245833D01*
X140476190Y-109817261D02*
X140571428Y-109864880D01*
X140761904Y-109864880D01*
X140857142Y-109817261D01*
X140904761Y-109722023D01*
X140904761Y-109341071D01*
X140857142Y-109245833D01*
X140761904Y-109198214D01*
X140571428Y-109198214D01*
X140476190Y-109245833D01*
X140428571Y-109341071D01*
X140428571Y-109436309D01*
X140904761Y-109531547D01*
X138952380Y-108912500D02*
X138952380Y-108864880D01*
X138904761Y-108769642D01*
X138857142Y-108722023D01*
X139333333Y-108912500D02*
X139333333Y-108864880D01*
X139285714Y-108769642D01*
X139238095Y-108722023D01*
X138476190Y-109864880D02*
X138476190Y-109198214D01*
X138476190Y-108864880D02*
X138523809Y-108912500D01*
X138476190Y-108960119D01*
X138428571Y-108912500D01*
X138476190Y-108864880D01*
X138476190Y-108960119D01*
X138142857Y-109198214D02*
X137761904Y-109198214D01*
X138000000Y-108864880D02*
X138000000Y-109722023D01*
X137952380Y-109817261D01*
X137857142Y-109864880D01*
X137761904Y-109864880D01*
X137380952Y-108864880D02*
X137380952Y-108912500D01*
X137428571Y-109007738D01*
X137476190Y-109055357D01*
X137000000Y-109817261D02*
X136904761Y-109864880D01*
X136714285Y-109864880D01*
X136619047Y-109817261D01*
X136571428Y-109722023D01*
X136571428Y-109674404D01*
X136619047Y-109579166D01*
X136714285Y-109531547D01*
X136857142Y-109531547D01*
X136952380Y-109483928D01*
X137000000Y-109388690D01*
X137000000Y-109341071D01*
X136952380Y-109245833D01*
X136857142Y-109198214D01*
X136714285Y-109198214D01*
X136619047Y-109245833D01*
X135380952Y-109198214D02*
X135380952Y-110055357D01*
X135428571Y-110150595D01*
X135523809Y-110198214D01*
X135571428Y-110198214D01*
X135380952Y-108864880D02*
X135428571Y-108912500D01*
X135380952Y-108960119D01*
X135333333Y-108912500D01*
X135380952Y-108864880D01*
X135380952Y-108960119D01*
X134476190Y-109198214D02*
X134476190Y-109864880D01*
X134904761Y-109198214D02*
X134904761Y-109722023D01*
X134857142Y-109817261D01*
X134761904Y-109864880D01*
X134619047Y-109864880D01*
X134523809Y-109817261D01*
X134476190Y-109769642D01*
X134047619Y-109817261D02*
X133952380Y-109864880D01*
X133761904Y-109864880D01*
X133666666Y-109817261D01*
X133619047Y-109722023D01*
X133619047Y-109674404D01*
X133666666Y-109579166D01*
X133761904Y-109531547D01*
X133904761Y-109531547D01*
X134000000Y-109483928D01*
X134047619Y-109388690D01*
X134047619Y-109341071D01*
X134000000Y-109245833D01*
X133904761Y-109198214D01*
X133761904Y-109198214D01*
X133666666Y-109245833D01*
X133333333Y-109198214D02*
X132952380Y-109198214D01*
X133190476Y-108864880D02*
X133190476Y-109722023D01*
X133142857Y-109817261D01*
X133047619Y-109864880D01*
X132952380Y-109864880D01*
X131428571Y-109864880D02*
X131428571Y-109341071D01*
X131476190Y-109245833D01*
X131571428Y-109198214D01*
X131761904Y-109198214D01*
X131857142Y-109245833D01*
X131428571Y-109817261D02*
X131523809Y-109864880D01*
X131761904Y-109864880D01*
X131857142Y-109817261D01*
X131904761Y-109722023D01*
X131904761Y-109626785D01*
X131857142Y-109531547D01*
X131761904Y-109483928D01*
X131523809Y-109483928D01*
X131428571Y-109436309D01*
X129761904Y-109198214D02*
X129761904Y-110007738D01*
X129809523Y-110102976D01*
X129857142Y-110150595D01*
X129952380Y-110198214D01*
X130095238Y-110198214D01*
X130190476Y-110150595D01*
X129761904Y-109817261D02*
X129857142Y-109864880D01*
X130047619Y-109864880D01*
X130142857Y-109817261D01*
X130190476Y-109769642D01*
X130238095Y-109674404D01*
X130238095Y-109388690D01*
X130190476Y-109293452D01*
X130142857Y-109245833D01*
X130047619Y-109198214D01*
X129857142Y-109198214D01*
X129761904Y-109245833D01*
X128857142Y-109864880D02*
X128857142Y-109341071D01*
X128904761Y-109245833D01*
X129000000Y-109198214D01*
X129190476Y-109198214D01*
X129285714Y-109245833D01*
X128857142Y-109817261D02*
X128952380Y-109864880D01*
X129190476Y-109864880D01*
X129285714Y-109817261D01*
X129333333Y-109722023D01*
X129333333Y-109626785D01*
X129285714Y-109531547D01*
X129190476Y-109483928D01*
X128952380Y-109483928D01*
X128857142Y-109436309D01*
X128380952Y-109864880D02*
X128380952Y-109198214D01*
X128380952Y-109293452D02*
X128333333Y-109245833D01*
X128238095Y-109198214D01*
X128095238Y-109198214D01*
X128000000Y-109245833D01*
X127952380Y-109341071D01*
X127952380Y-109864880D01*
X127952380Y-109341071D02*
X127904761Y-109245833D01*
X127809523Y-109198214D01*
X127666666Y-109198214D01*
X127571428Y-109245833D01*
X127523809Y-109341071D01*
X127523809Y-109864880D01*
X126666666Y-109817261D02*
X126761904Y-109864880D01*
X126952380Y-109864880D01*
X127047619Y-109817261D01*
X127095238Y-109722023D01*
X127095238Y-109341071D01*
X127047619Y-109245833D01*
X126952380Y-109198214D01*
X126761904Y-109198214D01*
X126666666Y-109245833D01*
X126619047Y-109341071D01*
X126619047Y-109436309D01*
X127095238Y-109531547D01*
X126190476Y-108864880D02*
X126190476Y-108912500D01*
X126238095Y-109007738D01*
X126285714Y-109055357D01*
X125809523Y-108864880D02*
X125809523Y-108912500D01*
X125857142Y-109007738D01*
X125904761Y-109055357D01*
X124666666Y-109864880D02*
X124666666Y-109198214D01*
X124666666Y-108864880D02*
X124714285Y-108912500D01*
X124666666Y-108960119D01*
X124619047Y-108912500D01*
X124666666Y-108864880D01*
X124666666Y-108960119D01*
X124238095Y-109817261D02*
X124142857Y-109864880D01*
X123952380Y-109864880D01*
X123857142Y-109817261D01*
X123809523Y-109722023D01*
X123809523Y-109674404D01*
X123857142Y-109579166D01*
X123952380Y-109531547D01*
X124095238Y-109531547D01*
X124190476Y-109483928D01*
X124238095Y-109388690D01*
X124238095Y-109341071D01*
X124190476Y-109245833D01*
X124095238Y-109198214D01*
X123952380Y-109198214D01*
X123857142Y-109245833D01*
X122666666Y-109817261D02*
X122571428Y-109864880D01*
X122380952Y-109864880D01*
X122285714Y-109817261D01*
X122238095Y-109722023D01*
X122238095Y-109674404D01*
X122285714Y-109579166D01*
X122380952Y-109531547D01*
X122523809Y-109531547D01*
X122619047Y-109483928D01*
X122666666Y-109388690D01*
X122666666Y-109341071D01*
X122619047Y-109245833D01*
X122523809Y-109198214D01*
X122380952Y-109198214D01*
X122285714Y-109245833D01*
X121380952Y-109198214D02*
X121380952Y-109864880D01*
X121809523Y-109198214D02*
X121809523Y-109722023D01*
X121761904Y-109817261D01*
X121666666Y-109864880D01*
X121523809Y-109864880D01*
X121428571Y-109817261D01*
X121380952Y-109769642D01*
X120476190Y-109817261D02*
X120571428Y-109864880D01*
X120761904Y-109864880D01*
X120857142Y-109817261D01*
X120904761Y-109769642D01*
X120952380Y-109674404D01*
X120952380Y-109388690D01*
X120904761Y-109293452D01*
X120857142Y-109245833D01*
X120761904Y-109198214D01*
X120571428Y-109198214D01*
X120476190Y-109245833D01*
X120047619Y-109864880D02*
X120047619Y-108864880D01*
X119619047Y-109864880D02*
X119619047Y-109341071D01*
X119666666Y-109245833D01*
X119761904Y-109198214D01*
X119904761Y-109198214D01*
X120000000Y-109245833D01*
X120047619Y-109293452D01*
X117952380Y-109864880D02*
X117952380Y-109341071D01*
X118000000Y-109245833D01*
X118095238Y-109198214D01*
X118285714Y-109198214D01*
X118380952Y-109245833D01*
X117952380Y-109817261D02*
X118047619Y-109864880D01*
X118285714Y-109864880D01*
X118380952Y-109817261D01*
X118428571Y-109722023D01*
X118428571Y-109626785D01*
X118380952Y-109531547D01*
X118285714Y-109483928D01*
X118047619Y-109483928D01*
X117952380Y-109436309D01*
X116809523Y-109198214D02*
X116619047Y-109864880D01*
X116428571Y-109388690D01*
X116238095Y-109864880D01*
X116047619Y-109198214D01*
X115285714Y-109817261D02*
X115380952Y-109864880D01*
X115571428Y-109864880D01*
X115666666Y-109817261D01*
X115714285Y-109722023D01*
X115714285Y-109341071D01*
X115666666Y-109245833D01*
X115571428Y-109198214D01*
X115380952Y-109198214D01*
X115285714Y-109245833D01*
X115238095Y-109341071D01*
X115238095Y-109436309D01*
X115714285Y-109531547D01*
X114380952Y-109864880D02*
X114380952Y-109341071D01*
X114428571Y-109245833D01*
X114523809Y-109198214D01*
X114714285Y-109198214D01*
X114809523Y-109245833D01*
X114380952Y-109817261D02*
X114476190Y-109864880D01*
X114714285Y-109864880D01*
X114809523Y-109817261D01*
X114857142Y-109722023D01*
X114857142Y-109626785D01*
X114809523Y-109531547D01*
X114714285Y-109483928D01*
X114476190Y-109483928D01*
X114380952Y-109436309D01*
X113904761Y-109864880D02*
X113904761Y-108864880D01*
X113809523Y-109483928D02*
X113523809Y-109864880D01*
X113523809Y-109198214D02*
X113904761Y-109579166D01*
X112333333Y-109864880D02*
X112333333Y-109198214D01*
X112333333Y-109293452D02*
X112285714Y-109245833D01*
X112190476Y-109198214D01*
X112047619Y-109198214D01*
X111952380Y-109245833D01*
X111904761Y-109341071D01*
X111904761Y-109864880D01*
X111904761Y-109341071D02*
X111857142Y-109245833D01*
X111761904Y-109198214D01*
X111619047Y-109198214D01*
X111523809Y-109245833D01*
X111476190Y-109341071D01*
X111476190Y-109864880D01*
X111000000Y-109864880D02*
X111000000Y-109198214D01*
X111000000Y-108864880D02*
X111047619Y-108912500D01*
X111000000Y-108960119D01*
X110952380Y-108912500D01*
X111000000Y-108864880D01*
X111000000Y-108960119D01*
X110523809Y-109198214D02*
X110523809Y-109864880D01*
X110523809Y-109293452D02*
X110476190Y-109245833D01*
X110380952Y-109198214D01*
X110238095Y-109198214D01*
X110142857Y-109245833D01*
X110095238Y-109341071D01*
X110095238Y-109864880D01*
X109190476Y-109864880D02*
X109190476Y-108864880D01*
X109190476Y-109817261D02*
X109285714Y-109864880D01*
X109476190Y-109864880D01*
X109571428Y-109817261D01*
X109619047Y-109769642D01*
X109666666Y-109674404D01*
X109666666Y-109388690D01*
X109619047Y-109293452D01*
X109571428Y-109245833D01*
X109476190Y-109198214D01*
X109285714Y-109198214D01*
X109190476Y-109245833D01*
X108761904Y-109817261D02*
X108666666Y-109864880D01*
X108476190Y-109864880D01*
X108380952Y-109817261D01*
X108333333Y-109722023D01*
X108333333Y-109674404D01*
X108380952Y-109579166D01*
X108476190Y-109531547D01*
X108619047Y-109531547D01*
X108714285Y-109483928D01*
X108761904Y-109388690D01*
X108761904Y-109341071D01*
X108714285Y-109245833D01*
X108619047Y-109198214D01*
X108476190Y-109198214D01*
X108380952Y-109245833D01*
X107523809Y-109817261D02*
X107619047Y-109864880D01*
X107809523Y-109864880D01*
X107904761Y-109817261D01*
X107952380Y-109722023D01*
X107952380Y-109341071D01*
X107904761Y-109245833D01*
X107809523Y-109198214D01*
X107619047Y-109198214D01*
X107523809Y-109245833D01*
X107476190Y-109341071D01*
X107476190Y-109436309D01*
X107952380Y-109531547D01*
X107190476Y-109198214D02*
X106809523Y-109198214D01*
X107047619Y-108864880D02*
X107047619Y-109722023D01*
X107000000Y-109817261D01*
X106904761Y-109864880D01*
X106809523Y-109864880D01*
X106476190Y-109769642D02*
X106428571Y-109817261D01*
X106476190Y-109864880D01*
X106523809Y-109817261D01*
X106476190Y-109769642D01*
X106476190Y-109864880D01*
X147190476Y-111038690D02*
X147190476Y-111514880D01*
X147523809Y-110514880D02*
X147190476Y-111038690D01*
X146857142Y-110514880D01*
X146380952Y-111514880D02*
X146476190Y-111467261D01*
X146523809Y-111419642D01*
X146571428Y-111324404D01*
X146571428Y-111038690D01*
X146523809Y-110943452D01*
X146476190Y-110895833D01*
X146380952Y-110848214D01*
X146238095Y-110848214D01*
X146142857Y-110895833D01*
X146095238Y-110943452D01*
X146047619Y-111038690D01*
X146047619Y-111324404D01*
X146095238Y-111419642D01*
X146142857Y-111467261D01*
X146238095Y-111514880D01*
X146380952Y-111514880D01*
X145190476Y-110848214D02*
X145190476Y-111514880D01*
X145619047Y-110848214D02*
X145619047Y-111372023D01*
X145571428Y-111467261D01*
X145476190Y-111514880D01*
X145333333Y-111514880D01*
X145238095Y-111467261D01*
X145190476Y-111419642D01*
X143523809Y-111514880D02*
X143523809Y-110991071D01*
X143571428Y-110895833D01*
X143666666Y-110848214D01*
X143857142Y-110848214D01*
X143952380Y-110895833D01*
X143523809Y-111467261D02*
X143619047Y-111514880D01*
X143857142Y-111514880D01*
X143952380Y-111467261D01*
X144000000Y-111372023D01*
X144000000Y-111276785D01*
X143952380Y-111181547D01*
X143857142Y-111133928D01*
X143619047Y-111133928D01*
X143523809Y-111086309D01*
X143047619Y-111514880D02*
X143047619Y-110848214D01*
X143047619Y-111038690D02*
X143000000Y-110943452D01*
X142952380Y-110895833D01*
X142857142Y-110848214D01*
X142761904Y-110848214D01*
X142047619Y-111467261D02*
X142142857Y-111514880D01*
X142333333Y-111514880D01*
X142428571Y-111467261D01*
X142476190Y-111372023D01*
X142476190Y-110991071D01*
X142428571Y-110895833D01*
X142333333Y-110848214D01*
X142142857Y-110848214D01*
X142047619Y-110895833D01*
X142000000Y-110991071D01*
X142000000Y-111086309D01*
X142476190Y-111181547D01*
X140666666Y-111514880D02*
X140761904Y-111467261D01*
X140809523Y-111419642D01*
X140857142Y-111324404D01*
X140857142Y-111038690D01*
X140809523Y-110943452D01*
X140761904Y-110895833D01*
X140666666Y-110848214D01*
X140523809Y-110848214D01*
X140428571Y-110895833D01*
X140380952Y-110943452D01*
X140333333Y-111038690D01*
X140333333Y-111324404D01*
X140380952Y-111419642D01*
X140428571Y-111467261D01*
X140523809Y-111514880D01*
X140666666Y-111514880D01*
X139904761Y-111514880D02*
X139904761Y-110514880D01*
X139809523Y-111133928D02*
X139523809Y-111514880D01*
X139523809Y-110848214D02*
X139904761Y-111229166D01*
X138428571Y-110848214D02*
X138238095Y-111514880D01*
X138047619Y-111038690D01*
X137857142Y-111514880D01*
X137666666Y-110848214D01*
X137285714Y-111514880D02*
X137285714Y-110848214D01*
X137285714Y-110514880D02*
X137333333Y-110562500D01*
X137285714Y-110610119D01*
X137238095Y-110562500D01*
X137285714Y-110514880D01*
X137285714Y-110610119D01*
X136952380Y-110848214D02*
X136571428Y-110848214D01*
X136809523Y-110514880D02*
X136809523Y-111372023D01*
X136761904Y-111467261D01*
X136666666Y-111514880D01*
X136571428Y-111514880D01*
X136238095Y-111514880D02*
X136238095Y-110514880D01*
X135809523Y-111514880D02*
X135809523Y-110991071D01*
X135857142Y-110895833D01*
X135952380Y-110848214D01*
X136095238Y-110848214D01*
X136190476Y-110895833D01*
X136238095Y-110943452D01*
X134666666Y-110848214D02*
X134476190Y-111514880D01*
X134285714Y-111038690D01*
X134095238Y-111514880D01*
X133904761Y-110848214D01*
X133523809Y-111514880D02*
X133523809Y-110514880D01*
X133095238Y-111514880D02*
X133095238Y-110991071D01*
X133142857Y-110895833D01*
X133238095Y-110848214D01*
X133380952Y-110848214D01*
X133476190Y-110895833D01*
X133523809Y-110943452D01*
X132190476Y-111514880D02*
X132190476Y-110991071D01*
X132238095Y-110895833D01*
X132333333Y-110848214D01*
X132523809Y-110848214D01*
X132619047Y-110895833D01*
X132190476Y-111467261D02*
X132285714Y-111514880D01*
X132523809Y-111514880D01*
X132619047Y-111467261D01*
X132666666Y-111372023D01*
X132666666Y-111276785D01*
X132619047Y-111181547D01*
X132523809Y-111133928D01*
X132285714Y-111133928D01*
X132190476Y-111086309D01*
X131857142Y-110848214D02*
X131476190Y-110848214D01*
X131714285Y-110514880D02*
X131714285Y-111372023D01*
X131666666Y-111467261D01*
X131571428Y-111514880D01*
X131476190Y-111514880D01*
X130380952Y-111514880D02*
X130380952Y-110514880D01*
X129952380Y-111514880D02*
X129952380Y-110991071D01*
X130000000Y-110895833D01*
X130095238Y-110848214D01*
X130238095Y-110848214D01*
X130333333Y-110895833D01*
X130380952Y-110943452D01*
X129047619Y-111514880D02*
X129047619Y-110991071D01*
X129095238Y-110895833D01*
X129190476Y-110848214D01*
X129380952Y-110848214D01*
X129476190Y-110895833D01*
X129047619Y-111467261D02*
X129142857Y-111514880D01*
X129380952Y-111514880D01*
X129476190Y-111467261D01*
X129523809Y-111372023D01*
X129523809Y-111276785D01*
X129476190Y-111181547D01*
X129380952Y-111133928D01*
X129142857Y-111133928D01*
X129047619Y-111086309D01*
X128571428Y-110848214D02*
X128571428Y-111848214D01*
X128571428Y-110895833D02*
X128476190Y-110848214D01*
X128285714Y-110848214D01*
X128190476Y-110895833D01*
X128142857Y-110943452D01*
X128095238Y-111038690D01*
X128095238Y-111324404D01*
X128142857Y-111419642D01*
X128190476Y-111467261D01*
X128285714Y-111514880D01*
X128476190Y-111514880D01*
X128571428Y-111467261D01*
X127666666Y-110848214D02*
X127666666Y-111848214D01*
X127666666Y-110895833D02*
X127571428Y-110848214D01*
X127380952Y-110848214D01*
X127285714Y-110895833D01*
X127238095Y-110943452D01*
X127190476Y-111038690D01*
X127190476Y-111324404D01*
X127238095Y-111419642D01*
X127285714Y-111467261D01*
X127380952Y-111514880D01*
X127571428Y-111514880D01*
X127666666Y-111467261D01*
X126380952Y-111467261D02*
X126476190Y-111514880D01*
X126666666Y-111514880D01*
X126761904Y-111467261D01*
X126809523Y-111372023D01*
X126809523Y-110991071D01*
X126761904Y-110895833D01*
X126666666Y-110848214D01*
X126476190Y-110848214D01*
X126380952Y-110895833D01*
X126333333Y-110991071D01*
X126333333Y-111086309D01*
X126809523Y-111181547D01*
X125904761Y-110848214D02*
X125904761Y-111514880D01*
X125904761Y-110943452D02*
X125857142Y-110895833D01*
X125761904Y-110848214D01*
X125619047Y-110848214D01*
X125523809Y-110895833D01*
X125476190Y-110991071D01*
X125476190Y-111514880D01*
X124619047Y-111467261D02*
X124714285Y-111514880D01*
X124904761Y-111514880D01*
X125000000Y-111467261D01*
X125047619Y-111372023D01*
X125047619Y-110991071D01*
X125000000Y-110895833D01*
X124904761Y-110848214D01*
X124714285Y-110848214D01*
X124619047Y-110895833D01*
X124571428Y-110991071D01*
X124571428Y-111086309D01*
X125047619Y-111181547D01*
X123714285Y-111514880D02*
X123714285Y-110514880D01*
X123714285Y-111467261D02*
X123809523Y-111514880D01*
X124000000Y-111514880D01*
X124095238Y-111467261D01*
X124142857Y-111419642D01*
X124190476Y-111324404D01*
X124190476Y-111038690D01*
X124142857Y-110943452D01*
X124095238Y-110895833D01*
X124000000Y-110848214D01*
X123809523Y-110848214D01*
X123714285Y-110895833D01*
X123190476Y-111467261D02*
X123190476Y-111514880D01*
X123238095Y-111610119D01*
X123285714Y-111657738D01*
X121857142Y-111514880D02*
X121952380Y-111467261D01*
X122000000Y-111372023D01*
X122000000Y-110514880D01*
X121333333Y-111514880D02*
X121428571Y-111467261D01*
X121476190Y-111419642D01*
X121523809Y-111324404D01*
X121523809Y-111038690D01*
X121476190Y-110943452D01*
X121428571Y-110895833D01*
X121333333Y-110848214D01*
X121190476Y-110848214D01*
X121095238Y-110895833D01*
X121047619Y-110943452D01*
X121000000Y-111038690D01*
X121000000Y-111324404D01*
X121047619Y-111419642D01*
X121095238Y-111467261D01*
X121190476Y-111514880D01*
X121333333Y-111514880D01*
X120619047Y-111467261D02*
X120523809Y-111514880D01*
X120333333Y-111514880D01*
X120238095Y-111467261D01*
X120190476Y-111372023D01*
X120190476Y-111324404D01*
X120238095Y-111229166D01*
X120333333Y-111181547D01*
X120476190Y-111181547D01*
X120571428Y-111133928D01*
X120619047Y-111038690D01*
X120619047Y-110991071D01*
X120571428Y-110895833D01*
X120476190Y-110848214D01*
X120333333Y-110848214D01*
X120238095Y-110895833D01*
X119761904Y-111514880D02*
X119761904Y-110848214D01*
X119761904Y-110514880D02*
X119809523Y-110562500D01*
X119761904Y-110610119D01*
X119714285Y-110562500D01*
X119761904Y-110514880D01*
X119761904Y-110610119D01*
X119285714Y-110848214D02*
X119285714Y-111514880D01*
X119285714Y-110943452D02*
X119238095Y-110895833D01*
X119142857Y-110848214D01*
X119000000Y-110848214D01*
X118904761Y-110895833D01*
X118857142Y-110991071D01*
X118857142Y-111514880D01*
X117952380Y-110848214D02*
X117952380Y-111657738D01*
X118000000Y-111752976D01*
X118047619Y-111800595D01*
X118142857Y-111848214D01*
X118285714Y-111848214D01*
X118380952Y-111800595D01*
X117952380Y-111467261D02*
X118047619Y-111514880D01*
X118238095Y-111514880D01*
X118333333Y-111467261D01*
X118380952Y-111419642D01*
X118428571Y-111324404D01*
X118428571Y-111038690D01*
X118380952Y-110943452D01*
X118333333Y-110895833D01*
X118238095Y-110848214D01*
X118047619Y-110848214D01*
X117952380Y-110895833D01*
X117428571Y-111467261D02*
X117428571Y-111514880D01*
X117476190Y-111610119D01*
X117523809Y-111657738D01*
X116238095Y-111514880D02*
X116238095Y-110848214D01*
X116238095Y-110514880D02*
X116285714Y-110562500D01*
X116238095Y-110610119D01*
X116190476Y-110562500D01*
X116238095Y-110514880D01*
X116238095Y-110610119D01*
X115761904Y-111514880D02*
X115761904Y-110848214D01*
X115761904Y-110943452D02*
X115714285Y-110895833D01*
X115619047Y-110848214D01*
X115476190Y-110848214D01*
X115380952Y-110895833D01*
X115333333Y-110991071D01*
X115333333Y-111514880D01*
X115333333Y-110991071D02*
X115285714Y-110895833D01*
X115190476Y-110848214D01*
X115047619Y-110848214D01*
X114952380Y-110895833D01*
X114904761Y-110991071D01*
X114904761Y-111514880D01*
X114428571Y-110848214D02*
X114428571Y-111848214D01*
X114428571Y-110895833D02*
X114333333Y-110848214D01*
X114142857Y-110848214D01*
X114047619Y-110895833D01*
X114000000Y-110943452D01*
X113952380Y-111038690D01*
X113952380Y-111324404D01*
X114000000Y-111419642D01*
X114047619Y-111467261D01*
X114142857Y-111514880D01*
X114333333Y-111514880D01*
X114428571Y-111467261D01*
X113142857Y-111467261D02*
X113238095Y-111514880D01*
X113428571Y-111514880D01*
X113523809Y-111467261D01*
X113571428Y-111372023D01*
X113571428Y-110991071D01*
X113523809Y-110895833D01*
X113428571Y-110848214D01*
X113238095Y-110848214D01*
X113142857Y-110895833D01*
X113095238Y-110991071D01*
X113095238Y-111086309D01*
X113571428Y-111181547D01*
X112666666Y-111514880D02*
X112666666Y-110848214D01*
X112666666Y-111038690D02*
X112619047Y-110943452D01*
X112571428Y-110895833D01*
X112476190Y-110848214D01*
X112380952Y-110848214D01*
X112190476Y-110848214D02*
X111809523Y-110848214D01*
X112047619Y-111514880D02*
X112047619Y-110657738D01*
X112000000Y-110562500D01*
X111904761Y-110514880D01*
X111809523Y-110514880D01*
X111095238Y-111467261D02*
X111190476Y-111514880D01*
X111380952Y-111514880D01*
X111476190Y-111467261D01*
X111523809Y-111372023D01*
X111523809Y-110991071D01*
X111476190Y-110895833D01*
X111380952Y-110848214D01*
X111190476Y-110848214D01*
X111095238Y-110895833D01*
X111047619Y-110991071D01*
X111047619Y-111086309D01*
X111523809Y-111181547D01*
X110190476Y-111467261D02*
X110285714Y-111514880D01*
X110476190Y-111514880D01*
X110571428Y-111467261D01*
X110619047Y-111419642D01*
X110666666Y-111324404D01*
X110666666Y-111038690D01*
X110619047Y-110943452D01*
X110571428Y-110895833D01*
X110476190Y-110848214D01*
X110285714Y-110848214D01*
X110190476Y-110895833D01*
X109904761Y-110848214D02*
X109523809Y-110848214D01*
X109761904Y-110514880D02*
X109761904Y-111372023D01*
X109714285Y-111467261D01*
X109619047Y-111514880D01*
X109523809Y-111514880D01*
X109190476Y-111514880D02*
X109190476Y-110848214D01*
X109190476Y-110514880D02*
X109238095Y-110562500D01*
X109190476Y-110610119D01*
X109142857Y-110562500D01*
X109190476Y-110514880D01*
X109190476Y-110610119D01*
X108571428Y-111514880D02*
X108666666Y-111467261D01*
X108714285Y-111419642D01*
X108761904Y-111324404D01*
X108761904Y-111038690D01*
X108714285Y-110943452D01*
X108666666Y-110895833D01*
X108571428Y-110848214D01*
X108428571Y-110848214D01*
X108333333Y-110895833D01*
X108285714Y-110943452D01*
X108238095Y-111038690D01*
X108238095Y-111324404D01*
X108285714Y-111419642D01*
X108333333Y-111467261D01*
X108428571Y-111514880D01*
X108571428Y-111514880D01*
X107809523Y-110848214D02*
X107809523Y-111514880D01*
X107809523Y-110943452D02*
X107761904Y-110895833D01*
X107666666Y-110848214D01*
X107523809Y-110848214D01*
X107428571Y-110895833D01*
X107380952Y-110991071D01*
X107380952Y-111514880D01*
X147309523Y-113164880D02*
X147404761Y-113117261D01*
X147452380Y-113069642D01*
X147500000Y-112974404D01*
X147500000Y-112688690D01*
X147452380Y-112593452D01*
X147404761Y-112545833D01*
X147309523Y-112498214D01*
X147166666Y-112498214D01*
X147071428Y-112545833D01*
X147023809Y-112593452D01*
X146976190Y-112688690D01*
X146976190Y-112974404D01*
X147023809Y-113069642D01*
X147071428Y-113117261D01*
X147166666Y-113164880D01*
X147309523Y-113164880D01*
X146690476Y-112498214D02*
X146309523Y-112498214D01*
X146547619Y-113164880D02*
X146547619Y-112307738D01*
X146500000Y-112212500D01*
X146404761Y-112164880D01*
X146309523Y-112164880D01*
X144785714Y-113164880D02*
X144785714Y-112641071D01*
X144833333Y-112545833D01*
X144928571Y-112498214D01*
X145119047Y-112498214D01*
X145214285Y-112545833D01*
X144785714Y-113117261D02*
X144880952Y-113164880D01*
X145119047Y-113164880D01*
X145214285Y-113117261D01*
X145261904Y-113022023D01*
X145261904Y-112926785D01*
X145214285Y-112831547D01*
X145119047Y-112783928D01*
X144880952Y-112783928D01*
X144785714Y-112736309D01*
X143119047Y-113117261D02*
X143214285Y-113164880D01*
X143404761Y-113164880D01*
X143500000Y-113117261D01*
X143547619Y-113069642D01*
X143595238Y-112974404D01*
X143595238Y-112688690D01*
X143547619Y-112593452D01*
X143500000Y-112545833D01*
X143404761Y-112498214D01*
X143214285Y-112498214D01*
X143119047Y-112545833D01*
X142690476Y-113164880D02*
X142690476Y-112498214D01*
X142690476Y-112688690D02*
X142642857Y-112593452D01*
X142595238Y-112545833D01*
X142500000Y-112498214D01*
X142404761Y-112498214D01*
X141642857Y-113164880D02*
X141642857Y-112641071D01*
X141690476Y-112545833D01*
X141785714Y-112498214D01*
X141976190Y-112498214D01*
X142071428Y-112545833D01*
X141642857Y-113117261D02*
X141738095Y-113164880D01*
X141976190Y-113164880D01*
X142071428Y-113117261D01*
X142119047Y-113022023D01*
X142119047Y-112926785D01*
X142071428Y-112831547D01*
X141976190Y-112783928D01*
X141738095Y-112783928D01*
X141642857Y-112736309D01*
X141309523Y-112498214D02*
X140928571Y-112498214D01*
X141166666Y-113164880D02*
X141166666Y-112307738D01*
X141119047Y-112212500D01*
X141023809Y-112164880D01*
X140928571Y-112164880D01*
X140738095Y-112498214D02*
X140357142Y-112498214D01*
X140595238Y-112164880D02*
X140595238Y-113022023D01*
X140547619Y-113117261D01*
X140452380Y-113164880D01*
X140357142Y-113164880D01*
X140023809Y-113069642D02*
X139976190Y-113117261D01*
X140023809Y-113164880D01*
X140071428Y-113117261D01*
X140023809Y-113069642D01*
X140023809Y-113164880D01*
X138880952Y-112164880D02*
X138642857Y-113164880D01*
X138452380Y-112450595D01*
X138261904Y-113164880D01*
X138023809Y-112164880D01*
X137642857Y-113164880D02*
X137642857Y-112164880D01*
X137214285Y-113164880D02*
X137214285Y-112641071D01*
X137261904Y-112545833D01*
X137357142Y-112498214D01*
X137500000Y-112498214D01*
X137595238Y-112545833D01*
X137642857Y-112593452D01*
X136357142Y-113117261D02*
X136452380Y-113164880D01*
X136642857Y-113164880D01*
X136738095Y-113117261D01*
X136785714Y-113022023D01*
X136785714Y-112641071D01*
X136738095Y-112545833D01*
X136642857Y-112498214D01*
X136452380Y-112498214D01*
X136357142Y-112545833D01*
X136309523Y-112641071D01*
X136309523Y-112736309D01*
X136785714Y-112831547D01*
X135880952Y-112498214D02*
X135880952Y-113164880D01*
X135880952Y-112593452D02*
X135833333Y-112545833D01*
X135738095Y-112498214D01*
X135595238Y-112498214D01*
X135500000Y-112545833D01*
X135452380Y-112641071D01*
X135452380Y-113164880D01*
X134309523Y-112498214D02*
X134071428Y-113164880D01*
X133833333Y-112498214D02*
X134071428Y-113164880D01*
X134166666Y-113402976D01*
X134214285Y-113450595D01*
X134309523Y-113498214D01*
X133309523Y-113164880D02*
X133404761Y-113117261D01*
X133452380Y-113069642D01*
X133500000Y-112974404D01*
X133500000Y-112688690D01*
X133452380Y-112593452D01*
X133404761Y-112545833D01*
X133309523Y-112498214D01*
X133166666Y-112498214D01*
X133071428Y-112545833D01*
X133023809Y-112593452D01*
X132976190Y-112688690D01*
X132976190Y-112974404D01*
X133023809Y-113069642D01*
X133071428Y-113117261D01*
X133166666Y-113164880D01*
X133309523Y-113164880D01*
X132119047Y-112498214D02*
X132119047Y-113164880D01*
X132547619Y-112498214D02*
X132547619Y-113022023D01*
X132500000Y-113117261D01*
X132404761Y-113164880D01*
X132261904Y-113164880D01*
X132166666Y-113117261D01*
X132119047Y-113069642D01*
X130928571Y-113117261D02*
X130833333Y-113164880D01*
X130642857Y-113164880D01*
X130547619Y-113117261D01*
X130500000Y-113022023D01*
X130500000Y-112974404D01*
X130547619Y-112879166D01*
X130642857Y-112831547D01*
X130785714Y-112831547D01*
X130880952Y-112783928D01*
X130928571Y-112688690D01*
X130928571Y-112641071D01*
X130880952Y-112545833D01*
X130785714Y-112498214D01*
X130642857Y-112498214D01*
X130547619Y-112545833D01*
X130214285Y-112498214D02*
X129833333Y-112498214D01*
X130071428Y-112164880D02*
X130071428Y-113022023D01*
X130023809Y-113117261D01*
X129928571Y-113164880D01*
X129833333Y-113164880D01*
X129357142Y-113164880D02*
X129452380Y-113117261D01*
X129500000Y-113069642D01*
X129547619Y-112974404D01*
X129547619Y-112688690D01*
X129500000Y-112593452D01*
X129452380Y-112545833D01*
X129357142Y-112498214D01*
X129214285Y-112498214D01*
X129119047Y-112545833D01*
X129071428Y-112593452D01*
X129023809Y-112688690D01*
X129023809Y-112974404D01*
X129071428Y-113069642D01*
X129119047Y-113117261D01*
X129214285Y-113164880D01*
X129357142Y-113164880D01*
X128595238Y-112498214D02*
X128595238Y-113498214D01*
X128595238Y-112545833D02*
X128500000Y-112498214D01*
X128309523Y-112498214D01*
X128214285Y-112545833D01*
X128166666Y-112593452D01*
X128119047Y-112688690D01*
X128119047Y-112974404D01*
X128166666Y-113069642D01*
X128214285Y-113117261D01*
X128309523Y-113164880D01*
X128500000Y-113164880D01*
X128595238Y-113117261D01*
X126500000Y-112498214D02*
X126500000Y-113307738D01*
X126547619Y-113402976D01*
X126595238Y-113450595D01*
X126690476Y-113498214D01*
X126833333Y-113498214D01*
X126928571Y-113450595D01*
X126500000Y-113117261D02*
X126595238Y-113164880D01*
X126785714Y-113164880D01*
X126880952Y-113117261D01*
X126928571Y-113069642D01*
X126976190Y-112974404D01*
X126976190Y-112688690D01*
X126928571Y-112593452D01*
X126880952Y-112545833D01*
X126785714Y-112498214D01*
X126595238Y-112498214D01*
X126500000Y-112545833D01*
X125642857Y-113117261D02*
X125738095Y-113164880D01*
X125928571Y-113164880D01*
X126023809Y-113117261D01*
X126071428Y-113022023D01*
X126071428Y-112641071D01*
X126023809Y-112545833D01*
X125928571Y-112498214D01*
X125738095Y-112498214D01*
X125642857Y-112545833D01*
X125595238Y-112641071D01*
X125595238Y-112736309D01*
X126071428Y-112831547D01*
X125309523Y-112498214D02*
X124928571Y-112498214D01*
X125166666Y-112164880D02*
X125166666Y-113022023D01*
X125119047Y-113117261D01*
X125023809Y-113164880D01*
X124928571Y-113164880D01*
X124738095Y-112498214D02*
X124357142Y-112498214D01*
X124595238Y-112164880D02*
X124595238Y-113022023D01*
X124547619Y-113117261D01*
X124452380Y-113164880D01*
X124357142Y-113164880D01*
X124023809Y-113164880D02*
X124023809Y-112498214D01*
X124023809Y-112164880D02*
X124071428Y-112212500D01*
X124023809Y-112260119D01*
X123976190Y-112212500D01*
X124023809Y-112164880D01*
X124023809Y-112260119D01*
X123547619Y-112498214D02*
X123547619Y-113164880D01*
X123547619Y-112593452D02*
X123500000Y-112545833D01*
X123404761Y-112498214D01*
X123261904Y-112498214D01*
X123166666Y-112545833D01*
X123119047Y-112641071D01*
X123119047Y-113164880D01*
X122214285Y-112498214D02*
X122214285Y-113307738D01*
X122261904Y-113402976D01*
X122309523Y-113450595D01*
X122404761Y-113498214D01*
X122547619Y-113498214D01*
X122642857Y-113450595D01*
X122214285Y-113117261D02*
X122309523Y-113164880D01*
X122500000Y-113164880D01*
X122595238Y-113117261D01*
X122642857Y-113069642D01*
X122690476Y-112974404D01*
X122690476Y-112688690D01*
X122642857Y-112593452D01*
X122595238Y-112545833D01*
X122500000Y-112498214D01*
X122309523Y-112498214D01*
X122214285Y-112545833D01*
X120547619Y-113164880D02*
X120547619Y-112641071D01*
X120595238Y-112545833D01*
X120690476Y-112498214D01*
X120880952Y-112498214D01*
X120976190Y-112545833D01*
X120547619Y-113117261D02*
X120642857Y-113164880D01*
X120880952Y-113164880D01*
X120976190Y-113117261D01*
X121023809Y-113022023D01*
X121023809Y-112926785D01*
X120976190Y-112831547D01*
X120880952Y-112783928D01*
X120642857Y-112783928D01*
X120547619Y-112736309D01*
X120071428Y-112498214D02*
X120071428Y-113164880D01*
X120071428Y-112593452D02*
X120023809Y-112545833D01*
X119928571Y-112498214D01*
X119785714Y-112498214D01*
X119690476Y-112545833D01*
X119642857Y-112641071D01*
X119642857Y-113164880D01*
X118738095Y-112498214D02*
X118738095Y-113307738D01*
X118785714Y-113402976D01*
X118833333Y-113450595D01*
X118928571Y-113498214D01*
X119071428Y-113498214D01*
X119166666Y-113450595D01*
X118738095Y-113117261D02*
X118833333Y-113164880D01*
X119023809Y-113164880D01*
X119119047Y-113117261D01*
X119166666Y-113069642D01*
X119214285Y-112974404D01*
X119214285Y-112688690D01*
X119166666Y-112593452D01*
X119119047Y-112545833D01*
X119023809Y-112498214D01*
X118833333Y-112498214D01*
X118738095Y-112545833D01*
X118261904Y-113164880D02*
X118261904Y-112498214D01*
X118261904Y-112688690D02*
X118214285Y-112593452D01*
X118166666Y-112545833D01*
X118071428Y-112498214D01*
X117976190Y-112498214D01*
X117738095Y-112498214D02*
X117500000Y-113164880D01*
X117261904Y-112498214D02*
X117500000Y-113164880D01*
X117595238Y-113402976D01*
X117642857Y-113450595D01*
X117738095Y-113498214D01*
X115690476Y-113164880D02*
X115690476Y-112641071D01*
X115738095Y-112545833D01*
X115833333Y-112498214D01*
X116023809Y-112498214D01*
X116119047Y-112545833D01*
X115690476Y-113117261D02*
X115785714Y-113164880D01*
X116023809Y-113164880D01*
X116119047Y-113117261D01*
X116166666Y-113022023D01*
X116166666Y-112926785D01*
X116119047Y-112831547D01*
X116023809Y-112783928D01*
X115785714Y-112783928D01*
X115690476Y-112736309D01*
X115357142Y-112498214D02*
X114976190Y-112498214D01*
X115214285Y-113164880D02*
X115214285Y-112307738D01*
X115166666Y-112212500D01*
X115071428Y-112164880D01*
X114976190Y-112164880D01*
X114785714Y-112498214D02*
X114404761Y-112498214D01*
X114642857Y-112164880D02*
X114642857Y-113022023D01*
X114595238Y-113117261D01*
X114500000Y-113164880D01*
X114404761Y-113164880D01*
X113690476Y-113117261D02*
X113785714Y-113164880D01*
X113976190Y-113164880D01*
X114071428Y-113117261D01*
X114119047Y-113022023D01*
X114119047Y-112641071D01*
X114071428Y-112545833D01*
X113976190Y-112498214D01*
X113785714Y-112498214D01*
X113690476Y-112545833D01*
X113642857Y-112641071D01*
X113642857Y-112736309D01*
X114119047Y-112831547D01*
X113214285Y-113164880D02*
X113214285Y-112498214D01*
X113214285Y-112688690D02*
X113166666Y-112593452D01*
X113119047Y-112545833D01*
X113023809Y-112498214D01*
X112928571Y-112498214D01*
X111690476Y-113164880D02*
X111785714Y-113117261D01*
X111833333Y-113022023D01*
X111833333Y-112164880D01*
X111166666Y-113164880D02*
X111261904Y-113117261D01*
X111309523Y-113069642D01*
X111357142Y-112974404D01*
X111357142Y-112688690D01*
X111309523Y-112593452D01*
X111261904Y-112545833D01*
X111166666Y-112498214D01*
X111023809Y-112498214D01*
X110928571Y-112545833D01*
X110880952Y-112593452D01*
X110833333Y-112688690D01*
X110833333Y-112974404D01*
X110880952Y-113069642D01*
X110928571Y-113117261D01*
X111023809Y-113164880D01*
X111166666Y-113164880D01*
X110452380Y-113117261D02*
X110357142Y-113164880D01*
X110166666Y-113164880D01*
X110071428Y-113117261D01*
X110023809Y-113022023D01*
X110023809Y-112974404D01*
X110071428Y-112879166D01*
X110166666Y-112831547D01*
X110309523Y-112831547D01*
X110404761Y-112783928D01*
X110452380Y-112688690D01*
X110452380Y-112641071D01*
X110404761Y-112545833D01*
X110309523Y-112498214D01*
X110166666Y-112498214D01*
X110071428Y-112545833D01*
X109595238Y-113164880D02*
X109595238Y-112498214D01*
X109595238Y-112164880D02*
X109642857Y-112212500D01*
X109595238Y-112260119D01*
X109547619Y-112212500D01*
X109595238Y-112164880D01*
X109595238Y-112260119D01*
X109119047Y-112498214D02*
X109119047Y-113164880D01*
X109119047Y-112593452D02*
X109071428Y-112545833D01*
X108976190Y-112498214D01*
X108833333Y-112498214D01*
X108738095Y-112545833D01*
X108690476Y-112641071D01*
X108690476Y-113164880D01*
X107785714Y-112498214D02*
X107785714Y-113307738D01*
X107833333Y-113402976D01*
X107880952Y-113450595D01*
X107976190Y-113498214D01*
X108119047Y-113498214D01*
X108214285Y-113450595D01*
X107785714Y-113117261D02*
X107880952Y-113164880D01*
X108071428Y-113164880D01*
X108166666Y-113117261D01*
X108214285Y-113069642D01*
X108261904Y-112974404D01*
X108261904Y-112688690D01*
X108214285Y-112593452D01*
X108166666Y-112545833D01*
X108071428Y-112498214D01*
X107880952Y-112498214D01*
X107785714Y-112545833D01*
X107261904Y-113117261D02*
X107261904Y-113164880D01*
X107309523Y-113260119D01*
X107357142Y-113307738D01*
X147619047Y-114148214D02*
X147380952Y-114814880D01*
X147142857Y-114148214D02*
X147380952Y-114814880D01*
X147476190Y-115052976D01*
X147523809Y-115100595D01*
X147619047Y-115148214D01*
X146619047Y-114814880D02*
X146714285Y-114767261D01*
X146761904Y-114719642D01*
X146809523Y-114624404D01*
X146809523Y-114338690D01*
X146761904Y-114243452D01*
X146714285Y-114195833D01*
X146619047Y-114148214D01*
X146476190Y-114148214D01*
X146380952Y-114195833D01*
X146333333Y-114243452D01*
X146285714Y-114338690D01*
X146285714Y-114624404D01*
X146333333Y-114719642D01*
X146380952Y-114767261D01*
X146476190Y-114814880D01*
X146619047Y-114814880D01*
X145428571Y-114148214D02*
X145428571Y-114814880D01*
X145857142Y-114148214D02*
X145857142Y-114672023D01*
X145809523Y-114767261D01*
X145714285Y-114814880D01*
X145571428Y-114814880D01*
X145476190Y-114767261D01*
X145428571Y-114719642D01*
X144904761Y-113814880D02*
X144904761Y-113862500D01*
X144952380Y-113957738D01*
X145000000Y-114005357D01*
X144571428Y-114148214D02*
X144333333Y-114814880D01*
X144095238Y-114148214D01*
X143333333Y-114767261D02*
X143428571Y-114814880D01*
X143619047Y-114814880D01*
X143714285Y-114767261D01*
X143761904Y-114672023D01*
X143761904Y-114291071D01*
X143714285Y-114195833D01*
X143619047Y-114148214D01*
X143428571Y-114148214D01*
X143333333Y-114195833D01*
X143285714Y-114291071D01*
X143285714Y-114386309D01*
X143761904Y-114481547D01*
X141952380Y-114814880D02*
X142047619Y-114767261D01*
X142095238Y-114672023D01*
X142095238Y-113814880D01*
X141428571Y-114814880D02*
X141523809Y-114767261D01*
X141571428Y-114719642D01*
X141619047Y-114624404D01*
X141619047Y-114338690D01*
X141571428Y-114243452D01*
X141523809Y-114195833D01*
X141428571Y-114148214D01*
X141285714Y-114148214D01*
X141190476Y-114195833D01*
X141142857Y-114243452D01*
X141095238Y-114338690D01*
X141095238Y-114624404D01*
X141142857Y-114719642D01*
X141190476Y-114767261D01*
X141285714Y-114814880D01*
X141428571Y-114814880D01*
X140714285Y-114767261D02*
X140619047Y-114814880D01*
X140428571Y-114814880D01*
X140333333Y-114767261D01*
X140285714Y-114672023D01*
X140285714Y-114624404D01*
X140333333Y-114529166D01*
X140428571Y-114481547D01*
X140571428Y-114481547D01*
X140666666Y-114433928D01*
X140714285Y-114338690D01*
X140714285Y-114291071D01*
X140666666Y-114195833D01*
X140571428Y-114148214D01*
X140428571Y-114148214D01*
X140333333Y-114195833D01*
X140000000Y-114148214D02*
X139619047Y-114148214D01*
X139857142Y-113814880D02*
X139857142Y-114672023D01*
X139809523Y-114767261D01*
X139714285Y-114814880D01*
X139619047Y-114814880D01*
X138666666Y-114148214D02*
X138285714Y-114148214D01*
X138523809Y-113814880D02*
X138523809Y-114672023D01*
X138476190Y-114767261D01*
X138380952Y-114814880D01*
X138285714Y-114814880D01*
X138047619Y-114148214D02*
X137857142Y-114814880D01*
X137666666Y-114338690D01*
X137476190Y-114814880D01*
X137285714Y-114148214D01*
X136904761Y-114814880D02*
X136904761Y-114148214D01*
X136904761Y-113814880D02*
X136952380Y-113862500D01*
X136904761Y-113910119D01*
X136857142Y-113862500D01*
X136904761Y-113814880D01*
X136904761Y-113910119D01*
X136000000Y-114767261D02*
X136095238Y-114814880D01*
X136285714Y-114814880D01*
X136380952Y-114767261D01*
X136428571Y-114719642D01*
X136476190Y-114624404D01*
X136476190Y-114338690D01*
X136428571Y-114243452D01*
X136380952Y-114195833D01*
X136285714Y-114148214D01*
X136095238Y-114148214D01*
X136000000Y-114195833D01*
X135190476Y-114767261D02*
X135285714Y-114814880D01*
X135476190Y-114814880D01*
X135571428Y-114767261D01*
X135619047Y-114672023D01*
X135619047Y-114291071D01*
X135571428Y-114195833D01*
X135476190Y-114148214D01*
X135285714Y-114148214D01*
X135190476Y-114195833D01*
X135142857Y-114291071D01*
X135142857Y-114386309D01*
X135619047Y-114481547D01*
X134714285Y-114719642D02*
X134666666Y-114767261D01*
X134714285Y-114814880D01*
X134761904Y-114767261D01*
X134714285Y-114719642D01*
X134714285Y-114814880D01*
X133619047Y-113814880D02*
X133047619Y-113814880D01*
X133333333Y-114814880D02*
X133333333Y-113814880D01*
X132714285Y-114814880D02*
X132714285Y-113814880D01*
X132285714Y-114814880D02*
X132285714Y-114291071D01*
X132333333Y-114195833D01*
X132428571Y-114148214D01*
X132571428Y-114148214D01*
X132666666Y-114195833D01*
X132714285Y-114243452D01*
X131428571Y-114767261D02*
X131523809Y-114814880D01*
X131714285Y-114814880D01*
X131809523Y-114767261D01*
X131857142Y-114672023D01*
X131857142Y-114291071D01*
X131809523Y-114195833D01*
X131714285Y-114148214D01*
X131523809Y-114148214D01*
X131428571Y-114195833D01*
X131380952Y-114291071D01*
X131380952Y-114386309D01*
X131857142Y-114481547D01*
X130952380Y-114814880D02*
X130952380Y-114148214D01*
X130952380Y-114338690D02*
X130904761Y-114243452D01*
X130857142Y-114195833D01*
X130761904Y-114148214D01*
X130666666Y-114148214D01*
X129952380Y-114767261D02*
X130047619Y-114814880D01*
X130238095Y-114814880D01*
X130333333Y-114767261D01*
X130380952Y-114672023D01*
X130380952Y-114291071D01*
X130333333Y-114195833D01*
X130238095Y-114148214D01*
X130047619Y-114148214D01*
X129952380Y-114195833D01*
X129904761Y-114291071D01*
X129904761Y-114386309D01*
X130380952Y-114481547D01*
X129428571Y-113814880D02*
X129428571Y-113862500D01*
X129476190Y-113957738D01*
X129523809Y-114005357D01*
X129047619Y-114767261D02*
X128952380Y-114814880D01*
X128761904Y-114814880D01*
X128666666Y-114767261D01*
X128619047Y-114672023D01*
X128619047Y-114624404D01*
X128666666Y-114529166D01*
X128761904Y-114481547D01*
X128904761Y-114481547D01*
X129000000Y-114433928D01*
X129047619Y-114338690D01*
X129047619Y-114291071D01*
X129000000Y-114195833D01*
X128904761Y-114148214D01*
X128761904Y-114148214D01*
X128666666Y-114195833D01*
X127000000Y-114814880D02*
X127000000Y-114291071D01*
X127047619Y-114195833D01*
X127142857Y-114148214D01*
X127333333Y-114148214D01*
X127428571Y-114195833D01*
X127000000Y-114767261D02*
X127095238Y-114814880D01*
X127333333Y-114814880D01*
X127428571Y-114767261D01*
X127476190Y-114672023D01*
X127476190Y-114576785D01*
X127428571Y-114481547D01*
X127333333Y-114433928D01*
X127095238Y-114433928D01*
X127000000Y-114386309D01*
X126380952Y-114814880D02*
X126476190Y-114767261D01*
X126523809Y-114672023D01*
X126523809Y-113814880D01*
X126095238Y-114148214D02*
X125904761Y-114814880D01*
X125714285Y-114338690D01*
X125523809Y-114814880D01*
X125333333Y-114148214D01*
X124523809Y-114814880D02*
X124523809Y-114291071D01*
X124571428Y-114195833D01*
X124666666Y-114148214D01*
X124857142Y-114148214D01*
X124952380Y-114195833D01*
X124523809Y-114767261D02*
X124619047Y-114814880D01*
X124857142Y-114814880D01*
X124952380Y-114767261D01*
X125000000Y-114672023D01*
X125000000Y-114576785D01*
X124952380Y-114481547D01*
X124857142Y-114433928D01*
X124619047Y-114433928D01*
X124523809Y-114386309D01*
X124142857Y-114148214D02*
X123904761Y-114814880D01*
X123666666Y-114148214D02*
X123904761Y-114814880D01*
X124000000Y-115052976D01*
X124047619Y-115100595D01*
X124142857Y-115148214D01*
X123333333Y-114767261D02*
X123238095Y-114814880D01*
X123047619Y-114814880D01*
X122952380Y-114767261D01*
X122904761Y-114672023D01*
X122904761Y-114624404D01*
X122952380Y-114529166D01*
X123047619Y-114481547D01*
X123190476Y-114481547D01*
X123285714Y-114433928D01*
X123333333Y-114338690D01*
X123333333Y-114291071D01*
X123285714Y-114195833D01*
X123190476Y-114148214D01*
X123047619Y-114148214D01*
X122952380Y-114195833D01*
X121761904Y-114767261D02*
X121666666Y-114814880D01*
X121476190Y-114814880D01*
X121380952Y-114767261D01*
X121333333Y-114672023D01*
X121333333Y-114624404D01*
X121380952Y-114529166D01*
X121476190Y-114481547D01*
X121619047Y-114481547D01*
X121714285Y-114433928D01*
X121761904Y-114338690D01*
X121761904Y-114291071D01*
X121714285Y-114195833D01*
X121619047Y-114148214D01*
X121476190Y-114148214D01*
X121380952Y-114195833D01*
X120761904Y-114814880D02*
X120857142Y-114767261D01*
X120904761Y-114719642D01*
X120952380Y-114624404D01*
X120952380Y-114338690D01*
X120904761Y-114243452D01*
X120857142Y-114195833D01*
X120761904Y-114148214D01*
X120619047Y-114148214D01*
X120523809Y-114195833D01*
X120476190Y-114243452D01*
X120428571Y-114338690D01*
X120428571Y-114624404D01*
X120476190Y-114719642D01*
X120523809Y-114767261D01*
X120619047Y-114814880D01*
X120761904Y-114814880D01*
X120000000Y-114814880D02*
X120000000Y-114148214D01*
X120000000Y-114243452D02*
X119952380Y-114195833D01*
X119857142Y-114148214D01*
X119714285Y-114148214D01*
X119619047Y-114195833D01*
X119571428Y-114291071D01*
X119571428Y-114814880D01*
X119571428Y-114291071D02*
X119523809Y-114195833D01*
X119428571Y-114148214D01*
X119285714Y-114148214D01*
X119190476Y-114195833D01*
X119142857Y-114291071D01*
X119142857Y-114814880D01*
X118285714Y-114767261D02*
X118380952Y-114814880D01*
X118571428Y-114814880D01*
X118666666Y-114767261D01*
X118714285Y-114672023D01*
X118714285Y-114291071D01*
X118666666Y-114195833D01*
X118571428Y-114148214D01*
X118380952Y-114148214D01*
X118285714Y-114195833D01*
X118238095Y-114291071D01*
X118238095Y-114386309D01*
X118714285Y-114481547D01*
X117952380Y-114148214D02*
X117571428Y-114148214D01*
X117809523Y-113814880D02*
X117809523Y-114672023D01*
X117761904Y-114767261D01*
X117666666Y-114814880D01*
X117571428Y-114814880D01*
X117238095Y-114814880D02*
X117238095Y-113814880D01*
X116809523Y-114814880D02*
X116809523Y-114291071D01*
X116857142Y-114195833D01*
X116952380Y-114148214D01*
X117095238Y-114148214D01*
X117190476Y-114195833D01*
X117238095Y-114243452D01*
X116333333Y-114814880D02*
X116333333Y-114148214D01*
X116333333Y-113814880D02*
X116380952Y-113862500D01*
X116333333Y-113910119D01*
X116285714Y-113862500D01*
X116333333Y-113814880D01*
X116333333Y-113910119D01*
X115857142Y-114148214D02*
X115857142Y-114814880D01*
X115857142Y-114243452D02*
X115809523Y-114195833D01*
X115714285Y-114148214D01*
X115571428Y-114148214D01*
X115476190Y-114195833D01*
X115428571Y-114291071D01*
X115428571Y-114814880D01*
X114523809Y-114148214D02*
X114523809Y-114957738D01*
X114571428Y-115052976D01*
X114619047Y-115100595D01*
X114714285Y-115148214D01*
X114857142Y-115148214D01*
X114952380Y-115100595D01*
X114523809Y-114767261D02*
X114619047Y-114814880D01*
X114809523Y-114814880D01*
X114904761Y-114767261D01*
X114952380Y-114719642D01*
X115000000Y-114624404D01*
X115000000Y-114338690D01*
X114952380Y-114243452D01*
X114904761Y-114195833D01*
X114809523Y-114148214D01*
X114619047Y-114148214D01*
X114523809Y-114195833D01*
X113428571Y-114148214D02*
X113047619Y-114148214D01*
X113285714Y-113814880D02*
X113285714Y-114672023D01*
X113238095Y-114767261D01*
X113142857Y-114814880D01*
X113047619Y-114814880D01*
X112571428Y-114814880D02*
X112666666Y-114767261D01*
X112714285Y-114719642D01*
X112761904Y-114624404D01*
X112761904Y-114338690D01*
X112714285Y-114243452D01*
X112666666Y-114195833D01*
X112571428Y-114148214D01*
X112428571Y-114148214D01*
X112333333Y-114195833D01*
X112285714Y-114243452D01*
X112238095Y-114338690D01*
X112238095Y-114624404D01*
X112285714Y-114719642D01*
X112333333Y-114767261D01*
X112428571Y-114814880D01*
X112571428Y-114814880D01*
X110904761Y-114814880D02*
X111000000Y-114767261D01*
X111047619Y-114672023D01*
X111047619Y-113814880D01*
X110142857Y-114767261D02*
X110238095Y-114814880D01*
X110428571Y-114814880D01*
X110523809Y-114767261D01*
X110571428Y-114672023D01*
X110571428Y-114291071D01*
X110523809Y-114195833D01*
X110428571Y-114148214D01*
X110238095Y-114148214D01*
X110142857Y-114195833D01*
X110095238Y-114291071D01*
X110095238Y-114386309D01*
X110571428Y-114481547D01*
X109238095Y-114814880D02*
X109238095Y-114291071D01*
X109285714Y-114195833D01*
X109380952Y-114148214D01*
X109571428Y-114148214D01*
X109666666Y-114195833D01*
X109238095Y-114767261D02*
X109333333Y-114814880D01*
X109571428Y-114814880D01*
X109666666Y-114767261D01*
X109714285Y-114672023D01*
X109714285Y-114576785D01*
X109666666Y-114481547D01*
X109571428Y-114433928D01*
X109333333Y-114433928D01*
X109238095Y-114386309D01*
X108761904Y-114814880D02*
X108761904Y-114148214D01*
X108761904Y-114338690D02*
X108714285Y-114243452D01*
X108666666Y-114195833D01*
X108571428Y-114148214D01*
X108476190Y-114148214D01*
X108142857Y-114148214D02*
X108142857Y-114814880D01*
X108142857Y-114243452D02*
X108095238Y-114195833D01*
X108000000Y-114148214D01*
X107857142Y-114148214D01*
X107761904Y-114195833D01*
X107714285Y-114291071D01*
X107714285Y-114814880D01*
X107190476Y-114767261D02*
X107190476Y-114814880D01*
X107238095Y-114910119D01*
X107285714Y-114957738D01*
X144714285Y-116464880D02*
X144714285Y-115941071D01*
X144761904Y-115845833D01*
X144857142Y-115798214D01*
X145047619Y-115798214D01*
X145142857Y-115845833D01*
X144714285Y-116417261D02*
X144809523Y-116464880D01*
X145047619Y-116464880D01*
X145142857Y-116417261D01*
X145190476Y-116322023D01*
X145190476Y-116226785D01*
X145142857Y-116131547D01*
X145047619Y-116083928D01*
X144809523Y-116083928D01*
X144714285Y-116036309D01*
X144238095Y-115798214D02*
X144238095Y-116464880D01*
X144238095Y-115893452D02*
X144190476Y-115845833D01*
X144095238Y-115798214D01*
X143952380Y-115798214D01*
X143857142Y-115845833D01*
X143809523Y-115941071D01*
X143809523Y-116464880D01*
X142904761Y-116464880D02*
X142904761Y-115464880D01*
X142904761Y-116417261D02*
X143000000Y-116464880D01*
X143190476Y-116464880D01*
X143285714Y-116417261D01*
X143333333Y-116369642D01*
X143380952Y-116274404D01*
X143380952Y-115988690D01*
X143333333Y-115893452D01*
X143285714Y-115845833D01*
X143190476Y-115798214D01*
X143000000Y-115798214D01*
X142904761Y-115845833D01*
X141238095Y-116464880D02*
X141238095Y-115941071D01*
X141285714Y-115845833D01*
X141380952Y-115798214D01*
X141571428Y-115798214D01*
X141666666Y-115845833D01*
X141238095Y-116417261D02*
X141333333Y-116464880D01*
X141571428Y-116464880D01*
X141666666Y-116417261D01*
X141714285Y-116322023D01*
X141714285Y-116226785D01*
X141666666Y-116131547D01*
X141571428Y-116083928D01*
X141333333Y-116083928D01*
X141238095Y-116036309D01*
X140619047Y-116464880D02*
X140714285Y-116417261D01*
X140761904Y-116322023D01*
X140761904Y-115464880D01*
X140333333Y-115798214D02*
X140142857Y-116464880D01*
X139952380Y-115988690D01*
X139761904Y-116464880D01*
X139571428Y-115798214D01*
X138761904Y-116464880D02*
X138761904Y-115941071D01*
X138809523Y-115845833D01*
X138904761Y-115798214D01*
X139095238Y-115798214D01*
X139190476Y-115845833D01*
X138761904Y-116417261D02*
X138857142Y-116464880D01*
X139095238Y-116464880D01*
X139190476Y-116417261D01*
X139238095Y-116322023D01*
X139238095Y-116226785D01*
X139190476Y-116131547D01*
X139095238Y-116083928D01*
X138857142Y-116083928D01*
X138761904Y-116036309D01*
X138380952Y-115798214D02*
X138142857Y-116464880D01*
X137904761Y-115798214D02*
X138142857Y-116464880D01*
X138238095Y-116702976D01*
X138285714Y-116750595D01*
X138380952Y-116798214D01*
X137571428Y-116417261D02*
X137476190Y-116464880D01*
X137285714Y-116464880D01*
X137190476Y-116417261D01*
X137142857Y-116322023D01*
X137142857Y-116274404D01*
X137190476Y-116179166D01*
X137285714Y-116131547D01*
X137428571Y-116131547D01*
X137523809Y-116083928D01*
X137571428Y-115988690D01*
X137571428Y-115941071D01*
X137523809Y-115845833D01*
X137428571Y-115798214D01*
X137285714Y-115798214D01*
X137190476Y-115845833D01*
X135952380Y-116464880D02*
X135952380Y-115798214D01*
X135952380Y-115988690D02*
X135904761Y-115893452D01*
X135857142Y-115845833D01*
X135761904Y-115798214D01*
X135666666Y-115798214D01*
X135190476Y-116464880D02*
X135285714Y-116417261D01*
X135333333Y-116369642D01*
X135380952Y-116274404D01*
X135380952Y-115988690D01*
X135333333Y-115893452D01*
X135285714Y-115845833D01*
X135190476Y-115798214D01*
X135047619Y-115798214D01*
X134952380Y-115845833D01*
X134904761Y-115893452D01*
X134857142Y-115988690D01*
X134857142Y-116274404D01*
X134904761Y-116369642D01*
X134952380Y-116417261D01*
X135047619Y-116464880D01*
X135190476Y-116464880D01*
X134285714Y-116464880D02*
X134380952Y-116417261D01*
X134428571Y-116369642D01*
X134476190Y-116274404D01*
X134476190Y-115988690D01*
X134428571Y-115893452D01*
X134380952Y-115845833D01*
X134285714Y-115798214D01*
X134142857Y-115798214D01*
X134047619Y-115845833D01*
X134000000Y-115893452D01*
X133952380Y-115988690D01*
X133952380Y-116274404D01*
X134000000Y-116369642D01*
X134047619Y-116417261D01*
X134142857Y-116464880D01*
X134285714Y-116464880D01*
X133523809Y-116464880D02*
X133523809Y-115798214D01*
X133523809Y-115893452D02*
X133476190Y-115845833D01*
X133380952Y-115798214D01*
X133238095Y-115798214D01*
X133142857Y-115845833D01*
X133095238Y-115941071D01*
X133095238Y-116464880D01*
X133095238Y-115941071D02*
X133047619Y-115845833D01*
X132952380Y-115798214D01*
X132809523Y-115798214D01*
X132714285Y-115845833D01*
X132666666Y-115941071D01*
X132666666Y-116464880D01*
X131571428Y-115798214D02*
X131190476Y-115798214D01*
X131428571Y-116464880D02*
X131428571Y-115607738D01*
X131380952Y-115512500D01*
X131285714Y-115464880D01*
X131190476Y-115464880D01*
X130714285Y-116464880D02*
X130809523Y-116417261D01*
X130857142Y-116369642D01*
X130904761Y-116274404D01*
X130904761Y-115988690D01*
X130857142Y-115893452D01*
X130809523Y-115845833D01*
X130714285Y-115798214D01*
X130571428Y-115798214D01*
X130476190Y-115845833D01*
X130428571Y-115893452D01*
X130380952Y-115988690D01*
X130380952Y-116274404D01*
X130428571Y-116369642D01*
X130476190Y-116417261D01*
X130571428Y-116464880D01*
X130714285Y-116464880D01*
X129952380Y-116464880D02*
X129952380Y-115798214D01*
X129952380Y-115988690D02*
X129904761Y-115893452D01*
X129857142Y-115845833D01*
X129761904Y-115798214D01*
X129666666Y-115798214D01*
X128571428Y-116464880D02*
X128571428Y-115798214D01*
X128571428Y-115464880D02*
X128619047Y-115512500D01*
X128571428Y-115560119D01*
X128523809Y-115512500D01*
X128571428Y-115464880D01*
X128571428Y-115560119D01*
X128095238Y-116464880D02*
X128095238Y-115798214D01*
X128095238Y-115893452D02*
X128047619Y-115845833D01*
X127952380Y-115798214D01*
X127809523Y-115798214D01*
X127714285Y-115845833D01*
X127666666Y-115941071D01*
X127666666Y-116464880D01*
X127666666Y-115941071D02*
X127619047Y-115845833D01*
X127523809Y-115798214D01*
X127380952Y-115798214D01*
X127285714Y-115845833D01*
X127238095Y-115941071D01*
X127238095Y-116464880D01*
X126761904Y-115798214D02*
X126761904Y-116798214D01*
X126761904Y-115845833D02*
X126666666Y-115798214D01*
X126476190Y-115798214D01*
X126380952Y-115845833D01*
X126333333Y-115893452D01*
X126285714Y-115988690D01*
X126285714Y-116274404D01*
X126333333Y-116369642D01*
X126380952Y-116417261D01*
X126476190Y-116464880D01*
X126666666Y-116464880D01*
X126761904Y-116417261D01*
X125857142Y-116464880D02*
X125857142Y-115798214D01*
X125857142Y-115988690D02*
X125809523Y-115893452D01*
X125761904Y-115845833D01*
X125666666Y-115798214D01*
X125571428Y-115798214D01*
X125095238Y-116464880D02*
X125190476Y-116417261D01*
X125238095Y-116369642D01*
X125285714Y-116274404D01*
X125285714Y-115988690D01*
X125238095Y-115893452D01*
X125190476Y-115845833D01*
X125095238Y-115798214D01*
X124952380Y-115798214D01*
X124857142Y-115845833D01*
X124809523Y-115893452D01*
X124761904Y-115988690D01*
X124761904Y-116274404D01*
X124809523Y-116369642D01*
X124857142Y-116417261D01*
X124952380Y-116464880D01*
X125095238Y-116464880D01*
X124428571Y-115798214D02*
X124190476Y-116464880D01*
X123952380Y-115798214D01*
X123190476Y-116417261D02*
X123285714Y-116464880D01*
X123476190Y-116464880D01*
X123571428Y-116417261D01*
X123619047Y-116322023D01*
X123619047Y-115941071D01*
X123571428Y-115845833D01*
X123476190Y-115798214D01*
X123285714Y-115798214D01*
X123190476Y-115845833D01*
X123142857Y-115941071D01*
X123142857Y-116036309D01*
X123619047Y-116131547D01*
X122714285Y-116464880D02*
X122714285Y-115798214D01*
X122714285Y-115893452D02*
X122666666Y-115845833D01*
X122571428Y-115798214D01*
X122428571Y-115798214D01*
X122333333Y-115845833D01*
X122285714Y-115941071D01*
X122285714Y-116464880D01*
X122285714Y-115941071D02*
X122238095Y-115845833D01*
X122142857Y-115798214D01*
X122000000Y-115798214D01*
X121904761Y-115845833D01*
X121857142Y-115941071D01*
X121857142Y-116464880D01*
X121000000Y-116417261D02*
X121095238Y-116464880D01*
X121285714Y-116464880D01*
X121380952Y-116417261D01*
X121428571Y-116322023D01*
X121428571Y-115941071D01*
X121380952Y-115845833D01*
X121285714Y-115798214D01*
X121095238Y-115798214D01*
X121000000Y-115845833D01*
X120952380Y-115941071D01*
X120952380Y-116036309D01*
X121428571Y-116131547D01*
X120523809Y-115798214D02*
X120523809Y-116464880D01*
X120523809Y-115893452D02*
X120476190Y-115845833D01*
X120380952Y-115798214D01*
X120238095Y-115798214D01*
X120142857Y-115845833D01*
X120095238Y-115941071D01*
X120095238Y-116464880D01*
X119761904Y-115798214D02*
X119380952Y-115798214D01*
X119619047Y-115464880D02*
X119619047Y-116322023D01*
X119571428Y-116417261D01*
X119476190Y-116464880D01*
X119380952Y-116464880D01*
X119000000Y-116417261D02*
X119000000Y-116464880D01*
X119047619Y-116560119D01*
X119095238Y-116607738D01*
X117809523Y-115798214D02*
X117809523Y-116464880D01*
X117809523Y-115893452D02*
X117761904Y-115845833D01*
X117666666Y-115798214D01*
X117523809Y-115798214D01*
X117428571Y-115845833D01*
X117380952Y-115941071D01*
X117380952Y-116464880D01*
X116523809Y-116417261D02*
X116619047Y-116464880D01*
X116809523Y-116464880D01*
X116904761Y-116417261D01*
X116952380Y-116322023D01*
X116952380Y-115941071D01*
X116904761Y-115845833D01*
X116809523Y-115798214D01*
X116619047Y-115798214D01*
X116523809Y-115845833D01*
X116476190Y-115941071D01*
X116476190Y-116036309D01*
X116952380Y-116131547D01*
X116142857Y-115798214D02*
X115904761Y-116464880D01*
X115666666Y-115798214D01*
X114904761Y-116417261D02*
X115000000Y-116464880D01*
X115190476Y-116464880D01*
X115285714Y-116417261D01*
X115333333Y-116322023D01*
X115333333Y-115941071D01*
X115285714Y-115845833D01*
X115190476Y-115798214D01*
X115000000Y-115798214D01*
X114904761Y-115845833D01*
X114857142Y-115941071D01*
X114857142Y-116036309D01*
X115333333Y-116131547D01*
X114428571Y-116464880D02*
X114428571Y-115798214D01*
X114428571Y-115988690D02*
X114380952Y-115893452D01*
X114333333Y-115845833D01*
X114238095Y-115798214D01*
X114142857Y-115798214D01*
X113095238Y-116417261D02*
X113000000Y-116464880D01*
X112809523Y-116464880D01*
X112714285Y-116417261D01*
X112666666Y-116322023D01*
X112666666Y-116274404D01*
X112714285Y-116179166D01*
X112809523Y-116131547D01*
X112952380Y-116131547D01*
X113047619Y-116083928D01*
X113095238Y-115988690D01*
X113095238Y-115941071D01*
X113047619Y-115845833D01*
X112952380Y-115798214D01*
X112809523Y-115798214D01*
X112714285Y-115845833D01*
X111857142Y-116417261D02*
X111952380Y-116464880D01*
X112142857Y-116464880D01*
X112238095Y-116417261D01*
X112285714Y-116322023D01*
X112285714Y-115941071D01*
X112238095Y-115845833D01*
X112142857Y-115798214D01*
X111952380Y-115798214D01*
X111857142Y-115845833D01*
X111809523Y-115941071D01*
X111809523Y-116036309D01*
X112285714Y-116131547D01*
X111523809Y-115798214D02*
X111142857Y-115798214D01*
X111380952Y-115464880D02*
X111380952Y-116322023D01*
X111333333Y-116417261D01*
X111238095Y-116464880D01*
X111142857Y-116464880D01*
X110952380Y-115798214D02*
X110571428Y-115798214D01*
X110809523Y-115464880D02*
X110809523Y-116322023D01*
X110761904Y-116417261D01*
X110666666Y-116464880D01*
X110571428Y-116464880D01*
X110095238Y-116464880D02*
X110190476Y-116417261D01*
X110238095Y-116322023D01*
X110238095Y-115464880D01*
X109333333Y-116417261D02*
X109428571Y-116464880D01*
X109619047Y-116464880D01*
X109714285Y-116417261D01*
X109761904Y-116322023D01*
X109761904Y-115941071D01*
X109714285Y-115845833D01*
X109619047Y-115798214D01*
X109428571Y-115798214D01*
X109333333Y-115845833D01*
X109285714Y-115941071D01*
X109285714Y-116036309D01*
X109761904Y-116131547D01*
X108857142Y-116369642D02*
X108809523Y-116417261D01*
X108857142Y-116464880D01*
X108904761Y-116417261D01*
X108857142Y-116369642D01*
X108857142Y-116464880D01*
%LPC*%
D11*
X148570000Y-119035000D03*
D12*
X148550000Y-119325000D02*
X148590000Y-118745000D01*
D11*
X148590000Y-118745000D03*
X142895001Y-120555000D03*
D12*
X142240000Y-121285000D02*
X143550002Y-119825000D01*
D13*
X146050000Y-123825000D03*
D11*
X143550000Y-119825000D03*
D14*
X140970000Y-123825000D03*
X151130000Y-123825000D03*
D11*
X129520000Y-119035000D03*
D12*
X129500000Y-119325000D02*
X129540000Y-118745000D01*
D11*
X129540000Y-118745000D03*
X123845001Y-120555000D03*
D12*
X123190000Y-121285000D02*
X124500002Y-119825000D01*
D13*
X127000000Y-123825000D03*
D11*
X124500000Y-119825000D03*
D14*
X121920000Y-123825000D03*
X132080000Y-123825000D03*
D15*
X112393750Y-102131250D03*
X105093750Y-102131250D03*
X105093750Y-97631250D03*
X112393750Y-97631250D03*
D11*
X110470000Y-119035000D03*
D12*
X110450000Y-119325000D02*
X110490000Y-118745000D01*
D11*
X110490000Y-118745000D03*
X104795001Y-120555000D03*
D12*
X104140000Y-121285000D02*
X105450002Y-119825000D01*
D13*
X107950000Y-123825000D03*
D11*
X105450000Y-119825000D03*
D14*
X102870000Y-123825000D03*
X113030000Y-123825000D03*
D11*
X129520000Y-99985000D03*
D12*
X129500000Y-100275000D02*
X129540000Y-99695000D01*
D11*
X129540000Y-99695000D03*
X123845001Y-101505000D03*
D12*
X123190000Y-102235000D02*
X124500002Y-100775000D01*
D13*
X127000000Y-104775000D03*
D11*
X124500000Y-100775000D03*
D14*
X121920000Y-104775000D03*
X132080000Y-104775000D03*
M02*
