G04 #@! TF.GenerationSoftware,KiCad,Pcbnew,(5.1.4)-1*
G04 #@! TF.CreationDate,2022-10-22T18:40:15-05:00*
G04 #@! TF.ProjectId,first-3k-keypad,66697273-742d-4336-9b2d-6b6579706164,rev?*
G04 #@! TF.SameCoordinates,Original*
G04 #@! TF.FileFunction,Copper,L2,Bot*
G04 #@! TF.FilePolarity,Positive*
%FSLAX46Y46*%
G04 Gerber Fmt 4.6, Leading zero omitted, Abs format (unit mm)*
G04 Created by KiCad (PCBNEW (5.1.4)-1) date 2022-10-22 18:40:15*
%MOMM*%
%LPD*%
G04 APERTURE LIST*
%ADD10C,2.250000*%
%ADD11C,2.250000*%
%ADD12O,1.700000X2.700000*%
%ADD13C,0.800000*%
%ADD14C,0.381000*%
%ADD15C,0.254000*%
G04 APERTURE END LIST*
D10*
X148570000Y-119035000D03*
D11*
X148550000Y-119325000D02*
X148590000Y-118745000D01*
D10*
X148590000Y-118745000D03*
X142895001Y-120555000D03*
D11*
X142240000Y-121285000D02*
X143550002Y-119825000D01*
D10*
X143550000Y-119825000D03*
X129520000Y-119035000D03*
D11*
X129500000Y-119325000D02*
X129540000Y-118745000D01*
D10*
X129540000Y-118745000D03*
X123845001Y-120555000D03*
D11*
X123190000Y-121285000D02*
X124500002Y-119825000D01*
D10*
X124500000Y-119825000D03*
D12*
X112393750Y-102131250D03*
X105093750Y-102131250D03*
X105093750Y-97631250D03*
X112393750Y-97631250D03*
D10*
X110470000Y-119035000D03*
D11*
X110450000Y-119325000D02*
X110490000Y-118745000D01*
D10*
X110490000Y-118745000D03*
X104795001Y-120555000D03*
D11*
X104140000Y-121285000D02*
X105450002Y-119825000D01*
D10*
X105450000Y-119825000D03*
X129520000Y-99985000D03*
D11*
X129500000Y-100275000D02*
X129540000Y-99695000D01*
D10*
X129540000Y-99695000D03*
X123845001Y-101505000D03*
D11*
X123190000Y-102235000D02*
X124500002Y-100775000D01*
D10*
X124500000Y-100775000D03*
D13*
X123825000Y-153193750D03*
X119062500Y-147637500D03*
X133350000Y-138112500D03*
X134937500Y-146843750D03*
X119954290Y-139798040D03*
X127000000Y-152400000D03*
X123825000Y-156368750D03*
X115887500Y-127793750D03*
X132556250Y-127793750D03*
X137318750Y-146050000D03*
D14*
X119062500Y-148431250D02*
X119062500Y-147637500D01*
X123825000Y-153193750D02*
X119062500Y-148431250D01*
X133350000Y-138112500D02*
X134937500Y-139700000D01*
X134937500Y-139700000D02*
X134937500Y-146843750D01*
X134143750Y-147637500D02*
X134937500Y-146843750D01*
X119062500Y-147637500D02*
X134143750Y-147637500D01*
X119954290Y-146745710D02*
X119062500Y-147637500D01*
X119954290Y-139798040D02*
X119954290Y-146745710D01*
D15*
X127000000Y-152400000D02*
X127000000Y-153193750D01*
X127000000Y-153193750D02*
X123825000Y-156368750D01*
X115887500Y-127793750D02*
X132556250Y-127793750D01*
X139065000Y-121285000D02*
X142240000Y-121285000D01*
X138906250Y-121443750D02*
X139065000Y-121285000D01*
X137318750Y-146050000D02*
X137318750Y-123031250D01*
X132556250Y-127793750D02*
X137318750Y-123031250D01*
X137318750Y-123031250D02*
X138906250Y-121443750D01*
X104140000Y-121135000D02*
X104140000Y-121285000D01*
M02*
